<svg width="32" height="32" viewBox="0 0 32 32" fill="none" xmlns="http://www.w3.org/2000/svg">
<path d="M15 2H3C2.44772 2 2 2.44772 2 3V9C2 9.55228 2.44772 10 3 10H15C15.5523 10 16 9.55228 16 9V3C16 2.44772 15.5523 2 15 2Z" fill="white"/>
<path d="M4.12 8.26998V7.65998H5.39V4.25998L4.39 5.38998L3.84 4.99998L5 3.72998H6.11V7.65998H7.22V8.26998H4.12Z" fill="#2A2A2A"/>
<path d="M8.88 8.34997C8.62437 8.35364 8.37128 8.29892 8.14 8.18997C7.93266 8.08393 7.7568 7.92531 7.63 7.72997C7.48053 7.51004 7.37837 7.26146 7.33 6.99997C7.25724 6.67177 7.22367 6.33609 7.23 5.99997C7.22367 5.66386 7.25724 5.32818 7.33 4.99997C7.37924 4.73565 7.48128 4.48397 7.63 4.25997C7.7568 4.06463 7.93266 3.90601 8.14 3.79997C8.37128 3.69103 8.62437 3.63631 8.88 3.63997C9.12301 3.62474 9.36573 3.67407 9.58351 3.78296C9.80129 3.89185 9.98638 4.05642 10.12 4.25997C10.4189 4.78905 10.5578 5.39349 10.52 5.99997C10.5559 6.60311 10.417 7.2038 10.12 7.72997C9.98638 7.93352 9.80129 8.0981 9.58351 8.20699C9.36573 8.31588 9.12301 8.36521 8.88 8.34997ZM8.88 7.71997C9.01872 7.72347 9.15615 7.69255 9.28 7.62997C9.39328 7.56673 9.48676 7.47325 9.55 7.35997C9.62382 7.22966 9.67457 7.08757 9.7 6.93997C9.71624 6.76034 9.71624 6.57961 9.7 6.39997V5.59997C9.71624 5.42034 9.71624 5.23961 9.7 5.05997C9.67457 4.91238 9.62382 4.77029 9.55 4.63997C9.48676 4.52669 9.39328 4.43321 9.28 4.36997C9.15615 4.30739 9.01872 4.27647 8.88 4.27997C8.7412 4.27562 8.60356 4.30659 8.48 4.36997C8.36672 4.43321 8.27324 4.52669 8.21 4.63997C8.13618 4.77029 8.08544 4.91238 8.06 5.05997C8.02326 5.23772 8.00318 5.4185 8 5.59997V6.39997C7.99988 6.58113 8.01662 6.76191 8.05 6.93997C8.07544 7.08757 8.12618 7.22966 8.2 7.35997C8.26324 7.47325 8.35672 7.56673 8.47 7.62997C8.59655 7.69504 8.73784 7.72605 8.88 7.71997Z" fill="#2A2A2A"/>
<path d="M12.52 8.34997C12.2644 8.35364 12.0113 8.29892 11.78 8.18997C11.5726 8.08393 11.3968 7.92531 11.27 7.72997C11.1311 7.50762 11.0392 7.25919 11 6.99997C10.9272 6.67177 10.8937 6.33609 10.9 5.99997C10.8937 5.66386 10.9272 5.32818 11 4.99997C11.0492 4.73565 11.1513 4.48397 11.3 4.25997C11.4268 4.06463 11.6026 3.90601 11.81 3.79997C12.0413 3.69103 12.2944 3.63631 12.55 3.63997C12.793 3.62474 13.0357 3.67407 13.2535 3.78296C13.4713 3.89185 13.6564 4.05642 13.79 4.25997C14.0785 4.79218 14.207 5.39643 14.16 5.99997C14.1959 6.60311 14.057 7.2038 13.76 7.72997C13.6264 7.93352 13.4413 8.0981 13.2235 8.20699C13.0057 8.31588 12.763 8.36521 12.52 8.34997ZM12.52 7.71997C12.6587 7.72347 12.7961 7.69255 12.92 7.62997C13.0333 7.56673 13.1267 7.47325 13.19 7.35997C13.2638 7.22966 13.3146 7.08757 13.34 6.93997C13.3562 6.76034 13.3562 6.57961 13.34 6.39997V5.59997C13.3562 5.42034 13.3562 5.23961 13.34 5.05997C13.3146 4.91238 13.2638 4.77029 13.19 4.63997C13.1267 4.52669 13.0333 4.43321 12.92 4.36997C12.7961 4.30739 12.6587 4.27647 12.52 4.27997C12.3812 4.27562 12.2435 4.30659 12.12 4.36997C12.0067 4.43321 11.9132 4.52669 11.85 4.63997C11.7762 4.77029 11.7254 4.91238 11.7 5.05997C11.6833 5.23959 11.6833 5.42036 11.7 5.59997V6.39997C11.6833 6.57959 11.6833 6.76036 11.7 6.93997C11.7254 7.08757 11.7762 7.22966 11.85 7.35997C11.9132 7.47325 12.0067 7.56673 12.12 7.62997C12.2435 7.69336 12.3812 7.72433 12.52 7.71997Z" fill="#2A2A2A"/>
<path d="M25 30C27.7614 30 30 27.7614 30 25C30 22.2386 27.7614 20 25 20C22.2386 20 20 22.2386 20 25C20 27.7614 22.2386 30 25 30Z" fill="#EF4852"/>
<path d="M22.15 27.23V26.62H23.42V23.23H23.37L22.32 24.35L21.87 23.95L23 22.69H24.12V26.62H25.23V27.23H22.15Z" fill="white"/>
<path d="M26.79 27.31C26.5271 27.3211 26.2653 27.2687 26.0269 27.1573C25.7884 27.0459 25.5803 26.8788 25.42 26.67L25.88 26.25C25.9926 26.3987 26.1358 26.5215 26.3 26.61C26.4633 26.6964 26.6453 26.741 26.83 26.74C26.9956 26.7524 27.1607 26.7103 27.3 26.62C27.3494 26.5786 27.3887 26.5264 27.4147 26.4675C27.4407 26.4085 27.4528 26.3444 27.45 26.28C27.4502 26.1761 27.4108 26.076 27.34 26C27.2357 25.9135 27.1055 25.8643 26.97 25.86H26.66C26.3648 25.835 26.0817 25.7314 25.84 25.56C25.7394 25.4726 25.6608 25.3629 25.6104 25.2396C25.56 25.1162 25.5393 24.9828 25.55 24.85C25.5463 24.6984 25.577 24.5479 25.64 24.41C25.7006 24.2873 25.7857 24.1784 25.89 24.09C26.0097 23.9966 26.1452 23.9255 26.29 23.88C26.4563 23.8348 26.6277 23.8113 26.8 23.81C27.0539 23.8021 27.3065 23.8499 27.54 23.95C27.7379 24.0479 27.9147 24.1838 28.06 24.35L27.63 24.77C27.5336 24.6564 27.4144 24.5644 27.28 24.5C27.1326 24.4204 26.9675 24.3791 26.8 24.38C26.6468 24.3662 26.4939 24.4088 26.37 24.5C26.3236 24.5367 26.2866 24.584 26.2623 24.6379C26.2379 24.6919 26.2269 24.7509 26.23 24.81C26.2268 24.8642 26.236 24.9185 26.2567 24.9688C26.2775 25.019 26.3094 25.0638 26.35 25.1C26.4718 25.1747 26.6082 25.2224 26.75 25.24H27.06C27.3589 25.2708 27.6431 25.3852 27.88 25.57C27.9652 25.6545 28.0315 25.7562 28.0746 25.8682C28.1177 25.9802 28.1366 26.1001 28.13 26.22C28.1332 26.3748 28.1025 26.5284 28.04 26.67C27.976 26.8017 27.8838 26.9178 27.77 27.01C27.6435 27.1067 27.5015 27.1811 27.35 27.23C27.1683 27.2839 26.9796 27.3108 26.79 27.31Z" fill="white"/>
<path d="M29.93 11.76C29.9642 11.7035 29.9868 11.6409 29.9968 11.5756C30.0067 11.5104 30.0037 11.4439 29.9879 11.3798C29.9721 11.3157 29.9439 11.2554 29.9048 11.2022C29.8657 11.1491 29.8165 11.1041 29.76 11.07C29.7035 11.0358 29.6409 11.0132 29.5757 11.0032C29.5104 10.9933 29.4439 10.9963 29.3798 11.0121C29.3157 11.0279 29.2554 11.0561 29.2022 11.0952C29.1491 11.1343 29.1042 11.1835 29.07 11.24L26.8 15H26.5C26.2205 15.0026 25.9472 15.0822 25.71 15.23L22.91 13C22.9709 12.8404 23.0014 12.6708 23 12.5C23 12.1022 22.842 11.7206 22.5607 11.4393C22.2794 11.158 21.8978 11 21.5 11C21.1022 11 20.7207 11.158 20.4394 11.4393C20.158 11.7206 20 12.1022 20 12.5C19.9996 12.8483 20.1238 13.1852 20.35 13.45L18.8 16C18.4245 15.923 18.0337 15.9947 17.71 16.2L14.91 14C14.9709 13.8404 15.0014 13.6708 15 13.5C15.0067 13.2529 14.9522 13.008 14.8413 12.787C14.7305 12.5661 14.5668 12.376 14.3647 12.2336C14.1627 12.0911 13.9286 12.0009 13.6833 11.9708C13.4379 11.9407 13.1889 11.9716 12.9585 12.061C12.728 12.1503 12.5231 12.2952 12.3622 12.4828C12.2012 12.6704 12.0891 12.8949 12.0358 13.1362C11.9825 13.3776 11.9897 13.6284 12.0568 13.8663C12.1238 14.1043 12.2486 14.3219 12.42 14.5L10.68 18H10.5C10.2205 18.0026 9.94719 18.0822 9.71001 18.23L6.91001 16C7.00558 15.7042 7.00558 15.3858 6.91001 15.09C6.82101 14.7822 6.63644 14.5107 6.38297 14.3148C6.1295 14.1188 5.82027 14.0086 5.50001 14C5.35789 14.0003 5.21652 14.0205 5.08001 14.06C4.70179 14.1756 4.38451 14.4359 4.19723 14.7842C4.00996 15.1325 3.96782 15.5407 4.08001 15.92C4.16743 16.2251 4.35389 16.4925 4.61001 16.68L3.47001 20C3.11365 20.0048 2.77047 20.1355 2.50118 20.3689C2.2319 20.6024 2.05387 20.9236 1.99859 21.2757C1.94332 21.6277 2.01435 21.988 2.19914 22.2928C2.38393 22.5975 2.67055 22.8271 3.0083 22.9409C3.34605 23.0546 3.71315 23.0453 4.04466 22.9144C4.37617 22.7836 4.65072 22.5397 4.81973 22.2259C4.98874 21.9122 5.04132 21.5487 4.96817 21.1999C4.89502 20.8511 4.70085 20.5394 4.42001 20.32L5.53001 17C5.67213 16.9997 5.8135 16.9795 5.95001 16.94C6.07916 16.897 6.20323 16.84 6.32001 16.77L9.09001 19C9.0291 19.1596 8.99858 19.3292 9.00001 19.5C8.99335 19.7471 9.04786 19.992 9.15869 20.2129C9.26952 20.4339 9.43324 20.624 9.63528 20.7664C9.83732 20.9088 10.0714 20.9991 10.3168 21.0292C10.5621 21.0593 10.8111 21.0283 11.0416 20.939C11.272 20.8497 11.4769 20.7048 11.6378 20.5172C11.7988 20.3296 11.9109 20.1051 11.9642 19.8637C12.0175 19.6224 12.0103 19.3716 11.9433 19.1337C11.8762 18.8957 11.7515 18.6781 11.58 18.5L13.32 15H13.5C13.7795 14.9974 14.0528 14.9178 14.29 14.77L17.09 17C17.0303 17.1565 16.9998 17.3225 17 17.49C17 17.8878 17.158 18.2693 17.4394 18.5507C17.7207 18.832 18.1022 18.99 18.5 18.99C18.8978 18.99 19.2794 18.832 19.5607 18.5507C19.842 18.2693 20 17.8878 20 17.49C20.0004 17.1417 19.8763 16.8048 19.65 16.54L21.2 14H21.5C21.7795 13.9974 22.0528 13.9178 22.29 13.77L25.09 16C25.0303 16.1565 24.9998 16.3225 25 16.49C25 16.8878 25.158 17.2693 25.4394 17.5507C25.7207 17.832 26.1022 17.99 26.5 17.99C26.8978 17.99 27.2794 17.832 27.5607 17.5507C27.842 17.2693 28 16.8878 28 16.49C28.0004 16.1417 27.8763 15.8048 27.65 15.54L29.93 11.76ZM3.50001 22C3.40112 22 3.30445 21.9707 3.22223 21.9157C3.14 21.8608 3.07591 21.7827 3.03807 21.6913C3.00023 21.6 2.99032 21.4994 3.00962 21.4024C3.02891 21.3055 3.07653 21.2164 3.14646 21.1464C3.21638 21.0765 3.30547 21.0289 3.40247 21.0096C3.49946 20.9903 3.59999 21.0002 3.69135 21.0381C3.78271 21.0759 3.8608 21.14 3.91575 21.2222C3.97069 21.3044 4.00001 21.4011 4.00001 21.5C4.00001 21.6326 3.94733 21.7598 3.85356 21.8535C3.7598 21.9473 3.63262 22 3.50001 22ZM5.64001 16H5.50001C5.43435 16.0092 5.36752 16.0054 5.30334 15.9887C5.23916 15.9721 5.17888 15.943 5.12595 15.903C5.07302 15.8631 5.02848 15.8131 4.99486 15.756C4.96124 15.6989 4.9392 15.6357 4.93001 15.57C4.92082 15.5043 4.92465 15.4375 4.94128 15.3733C4.95792 15.3091 4.98703 15.2489 5.02696 15.1959C5.06689 15.143 5.11685 15.0985 5.174 15.0648C5.23114 15.0312 5.29435 15.0092 5.36001 15H5.50001C5.63262 14.9814 5.76717 15.0163 5.87407 15.0969C5.98096 15.1776 6.05145 15.2974 6.07001 15.43C6.08858 15.5626 6.0537 15.6972 5.97306 15.804C5.89242 15.9109 5.77262 15.9814 5.64001 16ZM10.5 20C10.4011 20 10.3045 19.9707 10.2222 19.9157C10.14 19.8608 10.0759 19.7827 10.0381 19.6913C10.0002 19.6 9.99032 19.4994 10.0096 19.4024C10.0289 19.3055 10.0765 19.2164 10.1465 19.1464C10.2164 19.0765 10.3055 19.0289 10.4025 19.0096C10.4995 18.9903 10.6 19.0002 10.6914 19.0381C10.7827 19.0759 10.8608 19.14 10.9157 19.2222C10.9707 19.3044 11 19.4011 11 19.5C11 19.6326 10.9473 19.7598 10.8536 19.8535C10.7598 19.9473 10.6326 20 10.5 20ZM13.5 14C13.4011 14 13.3045 13.9707 13.2222 13.9157C13.14 13.8608 13.0759 13.7827 13.0381 13.6913C13.0002 13.6 12.9903 13.4994 13.0096 13.4024C13.0289 13.3055 13.0765 13.2164 13.1465 13.1464C13.2164 13.0765 13.3055 13.0289 13.4025 13.0096C13.4995 12.9903 13.6 13.0002 13.6914 13.0381C13.7827 13.0759 13.8608 13.14 13.9157 13.2222C13.9707 13.3044 14 13.4011 14 13.5C14 13.6326 13.9473 13.7598 13.8536 13.8535C13.7598 13.9473 13.6326 14 13.5 14ZM18.5 18C18.4011 18 18.3044 17.9707 18.2222 17.9157C18.14 17.8608 18.0759 17.7827 18.0381 17.6913C18.0002 17.6 17.9903 17.4994 18.0096 17.4024C18.0289 17.3055 18.0765 17.2164 18.1465 17.1464C18.2164 17.0765 18.3055 17.0289 18.4025 17.0096C18.4995 16.9903 18.6 17.0002 18.6914 17.0381C18.7827 17.0759 18.8608 17.14 18.9157 17.2222C18.9707 17.3044 19 17.4011 19 17.5C19 17.6326 18.9473 17.7598 18.8536 17.8535C18.7598 17.9473 18.6326 18 18.5 18ZM21.5 13C21.4011 13 21.3044 12.9707 21.2222 12.9157C21.14 12.8608 21.0759 12.7827 21.0381 12.6913C21.0002 12.6 20.9903 12.4994 21.0096 12.4024C21.0289 12.3055 21.0765 12.2164 21.1465 12.1464C21.2164 12.0765 21.3055 12.0289 21.4025 12.0096C21.4995 11.9903 21.6 12.0002 21.6914 12.0381C21.7827 12.0759 21.8608 12.14 21.9157 12.2222C21.9707 12.3044 22 12.4011 22 12.5C22 12.6326 21.9473 12.7598 21.8536 12.8535C21.7598 12.9473 21.6326 13 21.5 13ZM26.5 17C26.4011 17 26.3044 16.9707 26.2222 16.9157C26.14 16.8608 26.0759 16.7827 26.0381 16.6913C26.0002 16.6 25.9903 16.4994 26.0096 16.4024C26.0289 16.3055 26.0765 16.2164 26.1465 16.1464C26.2164 16.0765 26.3055 16.0289 26.4025 16.0096C26.4995 15.9903 26.6 16.0002 26.6914 16.0381C26.7827 16.0759 26.8608 16.14 26.9157 16.2222C26.9707 16.3044 27 16.4011 27 16.5C27 16.6326 26.9473 16.7598 26.8536 16.8535C26.7598 16.9473 26.6326 17 26.5 17Z" fill="white"/>
</svg>
