<svg width="32" height="32" viewBox="0 0 32 32" fill="none" xmlns="http://www.w3.org/2000/svg">
<path d="M25 30C27.7614 30 30 27.7614 30 25C30 22.2386 27.7614 20 25 20C22.2386 20 20 22.2386 20 25C20 27.7614 22.2386 30 25 30Z" fill="#EF4852"/>
<path d="M22.15 27.23V26.62H23.42V23.23H23.37L22.32 24.35L21.87 23.95L23 22.69H24.12V26.62H25.23V27.23H22.15Z" fill="white"/>
<path d="M26.79 27.31C26.527 27.3211 26.2653 27.2687 26.0268 27.1573C25.7884 27.0459 25.5802 26.8788 25.42 26.67L25.88 26.25C25.9925 26.3987 26.1358 26.5215 26.3 26.61C26.4632 26.6964 26.6453 26.741 26.83 26.74C26.9956 26.7524 27.1606 26.7103 27.3 26.62C27.3494 26.5786 27.3886 26.5264 27.4146 26.4675C27.4406 26.4085 27.4527 26.3444 27.45 26.28C27.4501 26.1761 27.4108 26.076 27.34 26C27.2356 25.9135 27.1054 25.8643 26.97 25.86H26.66C26.3648 25.835 26.0816 25.7314 25.84 25.56C25.7394 25.4726 25.6607 25.3629 25.6104 25.2396C25.56 25.1162 25.5393 24.9828 25.55 24.85C25.5462 24.6984 25.577 24.5479 25.64 24.41C25.7006 24.2873 25.7856 24.1784 25.89 24.09C26.0097 23.9966 26.1452 23.9255 26.29 23.88C26.4563 23.8348 26.6277 23.8113 26.8 23.81C27.0539 23.8021 27.3065 23.8499 27.54 23.95C27.7379 24.0479 27.9146 24.1838 28.06 24.35L27.63 24.77C27.5336 24.6564 27.4143 24.5644 27.28 24.5C27.1326 24.4204 26.9675 24.3791 26.8 24.38C26.6468 24.3662 26.4939 24.4088 26.37 24.5C26.3236 24.5367 26.2866 24.584 26.2622 24.6379C26.2379 24.6919 26.2268 24.7509 26.23 24.81C26.2268 24.8642 26.2359 24.9185 26.2567 24.9688C26.2775 25.019 26.3094 25.0638 26.35 25.1C26.4718 25.1747 26.6082 25.2224 26.75 25.24H27.06C27.3589 25.2708 27.6431 25.3852 27.88 25.57C27.9652 25.6545 28.0315 25.7562 28.0746 25.8682C28.1177 25.9802 28.1366 26.1001 28.13 26.22C28.1332 26.3748 28.1025 26.5284 28.04 26.67C27.976 26.8017 27.8838 26.9178 27.77 27.01C27.6435 27.1067 27.5015 27.1811 27.35 27.23C27.1682 27.2839 26.9796 27.3108 26.79 27.31Z" fill="white"/>
<path d="M29.93 11.76C29.9641 11.7035 29.9868 11.6409 29.9967 11.5756C30.0067 11.5104 30.0037 11.4439 29.9879 11.3798C29.9721 11.3157 29.9438 11.2554 29.9047 11.2022C29.8656 11.1491 29.8164 11.1041 29.76 11.07C29.7035 11.0358 29.6409 11.0132 29.5756 11.0032C29.5104 10.9933 29.4438 10.9963 29.3798 11.0121C29.3157 11.0279 29.2554 11.0561 29.2022 11.0952C29.1491 11.1343 29.1041 11.1835 29.07 11.24L26.8 15H26.5C26.2205 15.0026 25.9472 15.0822 25.71 15.23L22.91 13C22.9709 12.8404 23.0014 12.6708 23 12.5C23 12.1022 22.8419 11.7206 22.5606 11.4393C22.2793 11.158 21.8978 11 21.5 11C21.1022 11 20.7206 11.158 20.4393 11.4393C20.158 11.7206 20 12.1022 20 12.5C19.9996 12.8483 20.1237 13.1852 20.35 13.45L18.8 16C18.4245 15.923 18.0337 15.9947 17.71 16.2L14.91 14C14.9709 13.8404 15.0014 13.6708 15 13.5C15.0066 13.2529 14.9521 13.008 14.8413 12.787C14.7305 12.5661 14.5668 12.376 14.3647 12.2336C14.1627 12.0911 13.9286 12.0009 13.6832 11.9708C13.4379 11.9407 13.1889 11.9716 12.9584 12.061C12.7279 12.1503 12.5231 12.2952 12.3622 12.4828C12.2012 12.6704 12.0891 12.8949 12.0358 13.1362C11.9825 13.3776 11.9897 13.6284 12.0567 13.8663C12.1237 14.1043 12.2485 14.3219 12.42 14.5L10.68 18H10.5C10.2205 18.0026 9.94716 18.0822 9.70998 18.23L6.90998 16C7.00555 15.7042 7.00555 15.3858 6.90998 15.09C6.82098 14.7822 6.6364 14.5107 6.38294 14.3148C6.12947 14.1188 5.82024 14.0086 5.49998 14C5.35786 14.0003 5.21649 14.0205 5.07998 14.06C4.70176 14.1756 4.38448 14.4359 4.1972 14.7842C4.00993 15.1325 3.96779 15.5407 4.07998 15.92C4.1674 16.2251 4.35386 16.4925 4.60998 16.68L3.46998 20C3.11362 20.0048 2.77044 20.1355 2.50115 20.3689C2.23187 20.6024 2.05384 20.9236 1.99856 21.2757C1.94329 21.6277 2.01432 21.988 2.19911 22.2928C2.3839 22.5975 2.67052 22.8271 3.00827 22.9409C3.34602 23.0546 3.71312 23.0453 4.04463 22.9144C4.37614 22.7836 4.65069 22.5397 4.8197 22.2259C4.98871 21.9122 5.04129 21.5487 4.96814 21.1999C4.89499 20.8511 4.70081 20.5394 4.41998 20.32L5.52998 17C5.6721 16.9997 5.81347 16.9795 5.94998 16.94C6.07913 16.897 6.2032 16.84 6.31998 16.77L9.08998 19C9.02907 19.1596 8.99854 19.3292 8.99998 19.5C8.99332 19.7471 9.04783 19.992 9.15866 20.2129C9.26949 20.4339 9.43321 20.624 9.63525 20.7664C9.83729 20.9088 10.0714 20.9991 10.3167 21.0292C10.5621 21.0593 10.8111 21.0283 11.0415 20.939C11.272 20.8497 11.4768 20.7048 11.6378 20.5172C11.7988 20.3296 11.9109 20.1051 11.9642 19.8637C12.0175 19.6224 12.0103 19.3716 11.9432 19.1337C11.8762 18.8957 11.7514 18.6781 11.58 18.5L13.32 15H13.5C13.7795 14.9974 14.0528 14.9178 14.29 14.77L17.09 17C17.0303 17.1565 16.9998 17.3225 17 17.49C17 17.8878 17.158 18.2693 17.4393 18.5507C17.7206 18.832 18.1022 18.99 18.5 18.99C18.8978 18.99 19.2793 18.832 19.5606 18.5507C19.8419 18.2693 20 17.8878 20 17.49C20.0004 17.1417 19.8762 16.8048 19.65 16.54L21.2 14H21.5C21.7794 13.9974 22.0528 13.9178 22.29 13.77L25.09 16C25.0303 16.1565 24.9998 16.3225 25 16.49C25 16.8878 25.158 17.2693 25.4393 17.5507C25.7206 17.832 26.1022 17.99 26.5 17.99C26.8978 17.99 27.2793 17.832 27.5606 17.5507C27.8419 17.2693 28 16.8878 28 16.49C28.0004 16.1417 27.8762 15.8048 27.65 15.54L29.93 11.76ZM3.49998 22C3.40109 22 3.30442 21.9707 3.22219 21.9157C3.13997 21.8608 3.07588 21.7827 3.03804 21.6913C3.0002 21.6 2.99029 21.4994 3.00959 21.4024C3.02888 21.3055 3.0765 21.2164 3.14643 21.1464C3.21635 21.0765 3.30544 21.0289 3.40243 21.0096C3.49943 20.9903 3.59996 21.0002 3.69132 21.0381C3.78268 21.0759 3.86077 21.14 3.91571 21.2222C3.97066 21.3044 3.99998 21.4011 3.99998 21.5C3.99998 21.6326 3.9473 21.7598 3.85353 21.8535C3.75976 21.9473 3.63259 22 3.49998 22ZM5.63998 16H5.49998C5.43432 16.0092 5.36749 16.0054 5.30331 15.9887C5.23913 15.9721 5.17885 15.943 5.12592 15.903C5.07299 15.8631 5.02845 15.8131 4.99483 15.756C4.96121 15.6989 4.93917 15.6357 4.92998 15.57C4.92079 15.5043 4.92462 15.4375 4.94125 15.3733C4.95789 15.3091 4.987 15.2489 5.02693 15.1959C5.06686 15.143 5.11682 15.0985 5.17397 15.0648C5.23111 15.0312 5.29432 15.0092 5.35998 15H5.49998C5.63259 14.9814 5.76714 15.0163 5.87404 15.0969C5.98093 15.1776 6.05141 15.2974 6.06998 15.43C6.08854 15.5626 6.05367 15.6972 5.97303 15.804C5.89239 15.9109 5.77259 15.9814 5.63998 16ZM10.5 20C10.4011 20 10.3044 19.9707 10.2222 19.9157C10.14 19.8608 10.0759 19.7827 10.038 19.6913C10.0002 19.6 9.99029 19.4994 10.0096 19.4024C10.0289 19.3055 10.0765 19.2164 10.1464 19.1464C10.2164 19.0765 10.3054 19.0289 10.4024 19.0096C10.4994 18.9903 10.6 19.0002 10.6913 19.0381C10.7827 19.0759 10.8608 19.14 10.9157 19.2222C10.9707 19.3044 11 19.4011 11 19.5C11 19.6326 10.9473 19.7598 10.8535 19.8535C10.7598 19.9473 10.6326 20 10.5 20ZM13.5 14C13.4011 14 13.3044 13.9707 13.2222 13.9157C13.14 13.8608 13.0759 13.7827 13.038 13.6913C13.0002 13.6 12.9903 13.4994 13.0096 13.4024C13.0289 13.3055 13.0765 13.2164 13.1464 13.1464C13.2164 13.0765 13.3054 13.0289 13.4024 13.0096C13.4994 12.9903 13.6 13.0002 13.6913 13.0381C13.7827 13.0759 13.8608 13.14 13.9157 13.2222C13.9707 13.3044 14 13.4011 14 13.5C14 13.6326 13.9473 13.7598 13.8535 13.8535C13.7598 13.9473 13.6326 14 13.5 14ZM18.5 18C18.4011 18 18.3044 17.9707 18.2222 17.9157C18.14 17.8608 18.0759 17.7827 18.038 17.6913C18.0002 17.6 17.9903 17.4994 18.0096 17.4024C18.0289 17.3055 18.0765 17.2164 18.1464 17.1464C18.2164 17.0765 18.3054 17.0289 18.4024 17.0096C18.4994 16.9903 18.6 17.0002 18.6913 17.0381C18.7827 17.0759 18.8608 17.14 18.9157 17.2222C18.9707 17.3044 19 17.4011 19 17.5C19 17.6326 18.9473 17.7598 18.8535 17.8535C18.7598 17.9473 18.6326 18 18.5 18ZM21.5 13C21.4011 13 21.3044 12.9707 21.2222 12.9157C21.14 12.8608 21.0759 12.7827 21.038 12.6913C21.0002 12.6 20.9903 12.4994 21.0096 12.4024C21.0289 12.3055 21.0765 12.2164 21.1464 12.1464C21.2164 12.0765 21.3054 12.0289 21.4024 12.0096C21.4994 11.9903 21.6 12.0002 21.6913 12.0381C21.7827 12.0759 21.8608 12.14 21.9157 12.2222C21.9707 12.3044 22 12.4011 22 12.5C22 12.6326 21.9473 12.7598 21.8535 12.8535C21.7598 12.9473 21.6326 13 21.5 13ZM26.5 17C26.4011 17 26.3044 16.9707 26.2222 16.9157C26.14 16.8608 26.0759 16.7827 26.038 16.6913C26.0002 16.6 25.9903 16.4994 26.0096 16.4024C26.0289 16.3055 26.0765 16.2164 26.1464 16.1464C26.2164 16.0765 26.3054 16.0289 26.4024 16.0096C26.4994 15.9903 26.6 16.0002 26.6913 16.0381C26.7827 16.0759 26.8608 16.14 26.9157 16.2222C26.9707 16.3044 27 16.4011 27 16.5C27 16.6326 26.9473 16.7598 26.8535 16.8535C26.7598 16.9473 26.6326 17 26.5 17Z" fill="white"/>
<path d="M13 2H3C2.44772 2 2 2.44772 2 3V9C2 9.55228 2.44772 10 3 10H13C13.5523 10 14 9.55228 14 9V3C14 2.44772 13.5523 2 13 2Z" fill="white"/>
<path d="M5.11001 8.40001L6.88001 4.17001H5.00001V5.07001H4.32001V3.51001H7.63001V4.20001L6.00001 8.40001H5.11001Z" fill="#2A2A2A"/>
<path d="M11.39 4.20001H9.21999L9.09999 5.93001C9.15303 5.83873 9.21322 5.75179 9.27999 5.67001C9.33722 5.59111 9.40839 5.52333 9.48999 5.47001C9.57147 5.41084 9.66293 5.36681 9.75999 5.34001C9.88276 5.3234 10.0072 5.3234 10.13 5.34001C10.3285 5.33991 10.5253 5.37723 10.71 5.45001C10.8858 5.51621 11.0459 5.61839 11.18 5.75001C11.3169 5.88566 11.4227 6.04944 11.49 6.23001C11.5695 6.43373 11.6069 6.65144 11.6 6.87001C11.6018 7.09798 11.5646 7.32458 11.49 7.54001C11.4162 7.74236 11.2979 7.92556 11.1438 8.07613C10.9898 8.2267 10.804 8.34079 10.6 8.41001C10.363 8.49706 10.1124 8.54108 9.85999 8.54001C9.66378 8.54194 9.46835 8.51498 9.27999 8.46001C9.12472 8.41884 8.97643 8.35481 8.83999 8.27001C8.71669 8.18948 8.60267 8.09558 8.49999 7.99001C8.40723 7.88495 8.32042 7.77478 8.23999 7.66001L8.81999 7.21001C8.87762 7.3007 8.94109 7.38755 9.00999 7.47001C9.07325 7.54986 9.14729 7.62053 9.22999 7.68001C9.31464 7.74233 9.40934 7.78968 9.50999 7.82001C9.62721 7.85271 9.74829 7.86952 9.86999 7.87001C9.99166 7.88229 10.1145 7.86753 10.2298 7.82678C10.3451 7.78604 10.45 7.72033 10.537 7.63433C10.6239 7.54834 10.6908 7.4442 10.7328 7.32936C10.7748 7.21452 10.7909 7.09181 10.78 6.97001V6.84001C10.7909 6.71821 10.7748 6.5955 10.7328 6.48066C10.6908 6.36582 10.6239 6.26168 10.537 6.17568C10.45 6.08969 10.3451 6.02398 10.2298 5.98324C10.1145 5.94249 9.99166 5.92773 9.86999 5.94001C9.69536 5.93222 9.52207 5.97381 9.36999 6.06001C9.25066 6.13382 9.14283 6.2248 9.04999 6.33001L8.39999 6.24001L8.57999 3.51001H11.35L11.39 4.20001Z" fill="#2A2A2A"/>
</svg>
