<svg width="32" height="32" viewBox="0 0 32 32" fill="none" xmlns="http://www.w3.org/2000/svg">
<mask id="mask0" mask-type="alpha" maskUnits="userSpaceOnUse" x="0" y="4" width="24" height="16">
<path d="M22 4H2C0.89543 4 0 4.89543 0 6V18C0 19.1046 0.89543 20 2 20H22C23.1046 20 24 19.1046 24 18V6C24 4.89543 23.1046 4 22 4Z" fill="white"/>
</mask>
<g mask="url(#mask0)">
<path d="M22 4H2C0.89543 4 0 4.89543 0 6V18C0 19.1046 0.89543 20 2 20H22C23.1046 20 24 19.1046 24 18V6C24 4.89543 23.1046 4 22 4Z" fill="#0D47A1"/>
<path d="M0.413812 11.9869H1.13259L4.96556 9.43571V11.9869H7.03453V9.43571L10.8675 11.9869H11.5862C11.8147 11.9869 12 11.7986 12 11.5665V11.233L8.71153 9.04433H12V6.94252H8.71148L12 4.75381V4.42038C12 4.18819 11.8147 4 11.5862 4H10.8674L7.03444 6.55114V4H4.96547V6.55114L1.25831 4.08371C0.825469 4.22181 0.463594 4.52195 0.240609 4.9139L3.28856 6.94252H0V9.04433H3.28852L0 11.233V11.5665C0 11.7986 0.185203 11.9869 0.413812 11.9869Z" fill="white"/>
<path d="M6.12522 14.2788L6.43755 15.3263L7.43847 14.9213C7.52388 14.8867 7.6015 14.9856 7.54938 15.0625L6.93794 15.9636L7.87366 16.5061C7.95349 16.5524 7.92578 16.6757 7.8341 16.6822L6.7593 16.7585L6.92528 17.8398C6.93944 17.9321 6.82722 17.987 6.76507 17.9182L6.03625 17.1121L5.30744 17.9182C5.24528 17.987 5.13306 17.9321 5.14722 17.8398L5.31321 16.7585L4.23841 16.6822C4.14672 16.6757 4.11897 16.5524 4.19885 16.5061L5.13456 15.9636L4.52313 15.0625C4.471 14.9856 4.54863 14.8867 4.63403 14.9213L5.63496 15.3263L5.94728 14.2788C5.97405 14.1894 6.0986 14.1894 6.12522 14.2788ZM18.435 15.8028L18.5876 16.3145L19.0765 16.1166C19.1181 16.0998 19.1561 16.1481 19.1306 16.1856L18.832 16.6259L19.289 16.8909C19.328 16.9135 19.3145 16.9737 19.2697 16.9769L18.7447 17.0141L18.8257 17.5424C18.8327 17.5875 18.7778 17.6143 18.7474 17.5806L18.3914 17.1869L18.0354 17.5806C18.005 17.6142 17.9502 17.5874 17.9571 17.5424L18.0382 17.0141L17.5132 16.9769C17.4684 16.9737 17.4548 16.9135 17.4938 16.8909L17.9509 16.6259L17.6523 16.1856C17.6268 16.1481 17.6647 16.0998 17.7064 16.1166L18.1953 16.3145L18.3479 15.8028C18.3611 15.7592 18.422 15.7592 18.435 15.8028ZM19.6154 11.6779C19.6312 11.6296 19.6985 11.6296 19.7144 11.6779L19.8369 12.0511L20.2241 12.0541C20.2742 12.0546 20.295 12.1195 20.2546 12.1497L19.9431 12.3834L20.0599 12.7584C20.075 12.8069 20.0207 12.8471 19.9799 12.8175L19.6649 12.5888L19.3499 12.8175C19.3091 12.8471 19.2547 12.807 19.2698 12.7584L19.3866 12.3834L19.0752 12.1497C19.0348 12.1195 19.0556 12.0546 19.1058 12.0541L19.4929 12.0511L19.6154 11.6779ZM15.0329 10.7585L15.1855 11.2702L15.6745 11.0724C15.7161 11.0555 15.7541 11.1038 15.7286 11.1414L15.43 11.5816L15.887 11.8466C15.926 11.8692 15.9125 11.9295 15.8677 11.9326L15.3427 11.9698L15.4238 12.4981C15.4307 12.5432 15.3759 12.57 15.3455 12.5364L14.9895 12.1426L14.6335 12.5364C14.6031 12.5699 14.5483 12.5431 14.5552 12.4981L14.6363 11.9698L14.1113 11.9326C14.0665 11.9294 14.0529 11.8692 14.0919 11.8466L14.549 11.5816L14.2503 11.1414C14.2248 11.1038 14.2628 11.0555 14.3045 11.0724L14.7934 11.2702L14.946 10.7585C14.959 10.7148 15.0199 10.7148 15.0329 10.7585ZM21.6536 9.07703L21.8062 9.5887L22.2951 9.39089C22.3368 9.37403 22.3748 9.42232 22.3493 9.45989L22.0506 9.90013L22.5077 10.1651C22.5467 10.1877 22.5332 10.248 22.4883 10.2511L21.9633 10.2884L22.0444 10.8166C22.0514 10.8617 21.9965 10.8885 21.9662 10.8549L21.6101 10.4611L21.2541 10.8549C21.2238 10.8885 21.169 10.8616 21.1759 10.8166L21.257 10.2884L20.732 10.2511C20.6872 10.2479 20.6736 10.1877 20.7126 10.1651L21.1697 9.90013L20.8711 9.45989C20.8456 9.42232 20.8835 9.37403 20.9252 9.39089L21.4142 9.5887L21.5667 9.07703C21.5797 9.03341 21.6406 9.03341 21.6536 9.07703ZM18.435 6.83113L18.5876 7.34279L19.0765 7.14498C19.1181 7.12813 19.1561 7.17641 19.1306 7.21398L18.832 7.65422L19.289 7.91922C19.328 7.94179 19.3145 8.00208 19.2697 8.00522L18.7447 8.04246L18.8257 8.5707C18.8327 8.61579 18.7778 8.6426 18.7474 8.60898L18.3914 8.21522L18.0354 8.60898C18.005 8.64255 17.9502 8.61574 17.9571 8.5707L18.0382 8.04246L17.5132 8.00522C17.4684 8.00203 17.4548 7.94179 17.4938 7.91922L17.9509 7.65422L17.6523 7.21398C17.6268 7.17641 17.6647 7.12813 17.7064 7.14498L18.1953 7.34279L18.3479 6.83113C18.3611 6.78741 18.422 6.78741 18.435 6.83113Z" fill="white"/>
<path d="M6.62067 4V7.3629H12V8.62395H6.62067V11.9869H5.37933V8.62395H0V7.3629H5.37933V4H6.62067ZM4.95417 9.04433L0.491859 11.9869H0.413812C0.290587 11.9869 0.183382 11.9297 0.108925 11.842L0.0594844 11.7708L4.19409 9.04433H4.95417ZM8.11847 9.04438L11.9934 11.5995C11.981 11.7537 11.8906 11.8839 11.7588 11.946L7.35844 9.04438H8.11847ZM0.684703 4.39252L4.5517 6.94252H3.79167L0.385641 4.69648C0.473297 4.58362 0.573656 4.48157 0.684703 4.39252ZM11.5862 4C11.7077 4 11.8132 4.05571 11.8875 4.14136L11.937 4.21081L7.79452 6.94252H7.03448L11.4967 4H11.5862Z" fill="#F44336"/>
<path d="M22.5 4.5H1.5C0.947715 4.5 0.5 4.94772 0.5 5.5V18.5C0.5 19.0523 0.947715 19.5 1.5 19.5H22.5C23.0523 19.5 23.5 19.0523 23.5 18.5V5.5C23.5 4.94772 23.0523 4.5 22.5 4.5Z" stroke="black" stroke-opacity="0.04"/>
</g>
<path d="M30.2026 12H9.79742C8.8047 12 8 12.8188 8 13.8289V26.1711C8 27.1811 8.8047 28 9.79742 28H30.2026C31.1952 28 32 27.1812 32 26.1711V13.8289C32 12.8188 31.1953 12 30.2026 12Z" fill="white"/>
<path d="M20 24.6313C22.5137 24.6313 24.5516 22.5578 24.5516 19.9999C24.5516 17.4421 22.5137 15.3685 20 15.3685C17.4862 15.3685 15.4484 17.4421 15.4484 19.9999C15.4484 22.5578 17.4862 24.6313 20 24.6313Z" fill="#ED293F"/>
<path d="M30.5 12.4877H9.5C8.94772 12.4877 8.5 12.9361 8.5 13.4893V26.5106C8.5 27.0638 8.94772 27.5123 9.5 27.5123H30.5C31.0523 27.5123 31.5 27.0638 31.5 26.5106V13.4893C31.5 12.9361 31.0523 12.4877 30.5 12.4877Z" stroke="black" stroke-opacity="0.04"/>
</svg>
