<svg width="32" height="32" viewBox="0 0 32 32" fill="none" xmlns="http://www.w3.org/2000/svg">
<path d="M23 6H9V26H23V6Z" fill="#5798B4"/>
<path d="M23.5 6H8.5C8.22386 6 8 6.22386 8 6.5C8 6.77614 8.22386 7 8.5 7H23.5C23.7761 7 24 6.77614 24 6.5C24 6.22386 23.7761 6 23.5 6Z" fill="#3B7B96"/>
<path d="M23.5 8H8.5C8.22386 8 8 8.22386 8 8.5C8 8.77614 8.22386 9 8.5 9H23.5C23.7761 9 24 8.77614 24 8.5C24 8.22386 23.7761 8 23.5 8Z" fill="#3B7B96"/>
<path d="M23.5 25H8.5C8.22386 25 8 25.2239 8 25.5C8 25.7761 8.22386 26 8.5 26H23.5C23.7761 26 24 25.7761 24 25.5C24 25.2239 23.7761 25 23.5 25Z" fill="#3B7B96"/>
<path d="M23.5 23H8.5C8.22386 23 8 23.2239 8 23.5C8 23.7761 8.22386 24 8.5 24H23.5C23.7761 24 24 23.7761 24 23.5C24 23.2239 23.7761 23 23.5 23Z" fill="#3B7B96"/>
<path d="M18.9902 17.15C18.9902 18.7333 17.6437 20 16 20C14.3563 20 13.0098 18.7333 13.0098 17.15C13.0098 15.5667 16 12 16 12C16 12 18.9902 15.5833 18.9902 17.15Z" fill="#FFC521"/>
<path d="M16 19.25C14.7934 19.25 13.7967 18.3167 13.7967 17.15C13.7967 17.0167 13.9191 16.9 14.059 16.9C14.1989 16.9 14.3213 17.0167 14.3213 17.15C14.3213 18.0333 15.0732 18.75 16 18.75C16.1399 18.75 16.2623 18.8667 16.2623 19C16.2623 19.1333 16.1399 19.25 16 19.25Z" fill="white"/>
</svg>
