<svg width="32" height="32" viewBox="0 0 32 32" fill="none" xmlns="http://www.w3.org/2000/svg">
<path d="M22 4H2C0.89543 4 0 4.89543 0 6V18C0 19.1046 0.89543 20 2 20H22C23.1046 20 24 19.1046 24 18V6C24 4.89543 23.1046 4 22 4Z" fill="#0D47A1"/>
<path d="M12.1683 16.6927L12.3342 17.198L12.8586 17.2022C12.9265 17.2027 12.9546 17.2907 12.9 17.3317L12.4781 17.6482L12.6363 18.1561C12.6568 18.2218 12.5831 18.2763 12.5278 18.2361L12.1012 17.9263L11.6746 18.2361C11.6194 18.2762 11.5457 18.2218 11.5661 18.1561L11.7243 17.6482L11.3024 17.3317C11.2478 17.2907 11.2759 17.2027 11.3439 17.2022L11.8683 17.198L12.0342 16.6927C12.0556 16.6272 12.1468 16.6272 12.1683 16.6927ZM9.58417 15.8453L9.75011 16.3507L10.2745 16.3548C10.3424 16.3554 10.3705 16.4434 10.3159 16.4844L9.89407 16.8008L10.0522 17.3088C10.0727 17.3745 9.99902 17.4289 9.94375 17.3888L9.51714 17.079L9.09053 17.3888C9.03532 17.4289 8.96158 17.3745 8.98207 17.3088L9.14022 16.8008L8.71835 16.4844C8.66374 16.4434 8.69186 16.3554 8.75978 16.3548L9.28418 16.3508L9.45011 15.8454C9.47158 15.7798 9.56275 15.7798 9.58417 15.8453ZM14.7906 15.8453C14.8121 15.7798 14.9032 15.7798 14.9247 15.8454L15.0906 16.3508L15.615 16.3548C15.6829 16.3554 15.7111 16.4434 15.6565 16.4844L15.2346 16.8008L15.3927 17.3088C15.4132 17.3745 15.3395 17.4289 15.2843 17.3888L14.8577 17.079L14.4311 17.3888C14.3758 17.4289 14.3021 17.3745 14.3226 17.3088L14.4807 16.8008L14.0589 16.4844C14.0043 16.4434 14.0324 16.3554 14.1003 16.3548L14.6247 16.3507L14.7906 15.8453ZM16.8795 13.8595L17.0454 14.3648L17.5698 14.369C17.6377 14.3695 17.6658 14.4575 17.6112 14.4985L17.1894 14.815L17.3475 15.3229C17.368 15.3887 17.2943 15.4431 17.2391 15.4029L16.8124 15.0931L16.3858 15.4029C16.3306 15.443 16.2569 15.3887 16.2774 15.3229L16.4355 14.815L16.0136 14.4985C15.959 14.4575 15.9872 14.3695 16.0551 14.369L16.5795 14.3648L16.7454 13.8595C16.7669 13.7941 16.858 13.7941 16.8795 13.8595ZM7.6093 13.8281L7.62944 13.8595L7.79538 14.3648L8.31977 14.369C8.37411 14.3694 8.40297 14.4258 8.38439 14.4694L8.36121 14.4985L7.93933 14.815L8.09749 15.3229C8.11388 15.3755 8.06996 15.4208 8.02347 15.4163L7.98902 15.4029L7.56241 15.0931L7.1358 15.4029C7.09159 15.4351 7.03559 15.4067 7.02544 15.3603L7.02733 15.3229L7.18549 14.815L6.76361 14.4985C6.71993 14.4657 6.72919 14.4028 6.76942 14.3787L6.80505 14.369L7.32944 14.3648L7.49538 13.8595C7.51255 13.8072 7.57428 13.7967 7.6093 13.8281ZM17.5088 11.2673L17.6747 11.7727L18.1991 11.7768C18.267 11.7774 18.2951 11.8654 18.2405 11.9064L17.8187 12.2228L17.9768 12.7308C17.9973 12.7965 17.9236 12.8509 17.8683 12.8108L17.4417 12.501L17.0151 12.8108C16.9599 12.8509 16.8862 12.7965 16.9067 12.7308L17.0648 12.2228L16.6429 11.9064C16.5883 11.8654 16.6165 11.7774 16.6844 11.7768L17.2088 11.7727L17.3747 11.2673C17.3961 11.2019 17.4873 11.2019 17.5088 11.2673ZM6.82769 11.2673L6.99363 11.7727L7.51802 11.7768C7.58594 11.7774 7.61407 11.8654 7.55946 11.9064L7.13758 12.2228L7.29574 12.7308C7.31622 12.7965 7.24253 12.8509 7.18727 12.8108L6.76066 12.501L6.33405 12.8108C6.27883 12.8509 6.2051 12.7965 6.22558 12.7308L6.38374 12.2228L5.96186 11.9064C5.90725 11.8654 5.93538 11.7774 6.0033 11.7768L6.52769 11.7727L6.69363 11.2673C6.7151 11.2019 6.80627 11.2019 6.82769 11.2673ZM7.62944 8.43418L7.79538 8.93956L8.31977 8.94371C8.38769 8.94423 8.41582 9.03223 8.36121 9.07323L7.93933 9.38971L8.09749 9.89761C8.11797 9.96333 8.04428 10.0178 7.98902 9.97766L7.56241 9.66785L7.1358 9.97766C7.08058 10.0178 7.00685 9.96337 7.02733 9.89761L7.18549 9.38971L6.76361 9.07323C6.709 9.03223 6.73713 8.94423 6.80505 8.94371L7.32944 8.93956L7.49538 8.43418C7.51685 8.36875 7.60793 8.36875 7.62944 8.43418ZM16.8593 8.40278L16.8795 8.43418L17.0454 8.93956L17.5698 8.94371C17.6241 8.94413 17.653 9.00053 17.6344 9.04407L17.6112 9.07323L17.1894 9.38971L17.3475 9.89761C17.3639 9.95022 17.32 9.99555 17.2735 9.99104L17.2391 9.97766L16.8124 9.66785L16.3858 9.97766C16.3416 10.0098 16.2856 9.98133 16.2755 9.93502L16.2774 9.89761L16.4355 9.38971L16.0136 9.07323C15.97 9.04043 15.9792 8.97755 16.0194 8.95344L16.0551 8.94371L16.5795 8.93956L16.7454 8.43418C16.7626 8.38184 16.8243 8.37137 16.8593 8.40278ZM14.9247 6.44837L15.0907 6.95375L15.6151 6.9579C15.683 6.95842 15.7111 7.04642 15.6565 7.08742L15.2346 7.4039L15.3928 7.9118C15.4133 7.97752 15.3396 8.03199 15.2843 7.99185L14.8577 7.68204L14.4311 7.99185C14.3758 8.03194 14.3021 7.97756 14.3226 7.9118L14.4807 7.4039L14.0589 7.08742C14.0043 7.04642 14.0324 6.95842 14.1003 6.9579L14.6247 6.95375L14.7906 6.44837C14.8121 6.38299 14.9032 6.38299 14.9247 6.44837ZM9.56403 6.41699L9.58417 6.44837L9.75011 6.95375L10.2745 6.9579C10.3288 6.95832 10.3577 7.01472 10.3391 7.05826L10.3159 7.08742L9.89407 7.4039L10.0522 7.9118C10.0686 7.96441 10.0247 8.00974 9.9782 8.00523L9.94375 7.99185L9.51714 7.68204L9.09053 7.99185C9.04632 8.02396 8.99032 7.99552 8.98017 7.94921L8.98207 7.9118L9.14022 7.4039L8.71835 7.08742C8.67466 7.05462 8.68392 6.99174 8.72415 6.96763L8.75978 6.9579L9.28418 6.95375L9.45011 6.44837C9.46729 6.39607 9.52901 6.38561 9.56403 6.41699ZM12.1683 5.84204L12.3342 6.34742L12.8586 6.35156C12.9265 6.35209 12.9546 6.44009 12.9 6.48109L12.4781 6.79756L12.6363 7.30547C12.6568 7.37118 12.5831 7.42566 12.5278 7.38552L12.1012 7.07571L11.6746 7.38552C11.6194 7.42561 11.5457 7.37123 11.5661 7.30547L11.7243 6.79756L11.3024 6.48109C11.2478 6.44009 11.2759 6.35209 11.3439 6.35156L11.8683 6.34742L12.0342 5.84204C12.0556 5.77661 12.1468 5.77661 12.1683 5.84204Z" fill="#FFEB3B"/>
<path d="M22.5 4.5H1.5C0.947715 4.5 0.5 4.94772 0.5 5.5V18.5C0.5 19.0523 0.947715 19.5 1.5 19.5H22.5C23.0523 19.5 23.5 19.0523 23.5 18.5V5.5C23.5 4.94772 23.0523 4.5 22.5 4.5Z" stroke="black" stroke-opacity="0.04"/>
<mask id="mask0" mask-type="alpha" maskUnits="userSpaceOnUse" x="8" y="12" width="24" height="16">
<path d="M30 12H10C8.89543 12 8 12.8954 8 14V26C8 27.1046 8.89543 28 10 28H30C31.1046 28 32 27.1046 32 26V14C32 12.8954 31.1046 12 30 12Z" fill="white"/>
</mask>
<g mask="url(#mask0)">
<path d="M30 12H10C8.89543 12 8 12.8954 8 14V26C8 27.1046 8.89543 28 10 28H30C31.1046 28 32 27.1046 32 26V14C32 12.8954 31.1046 12 30 12Z" fill="#0D47A1"/>
<path d="M8.41381 19.9869H9.13259L12.9656 17.4357V19.9869H15.0345V17.4357L18.8675 19.9869H19.5862C19.8147 19.9869 20 19.7986 20 19.5665V19.233L16.7115 17.0443H20V14.9425H16.7115L20 12.7538V12.4204C20 12.1882 19.8147 12 19.5862 12H18.8674L15.0344 14.5511V12H12.9655V14.5511L9.25831 12.0837C8.82547 12.2218 8.46359 12.522 8.24061 12.9139L11.2886 14.9425H8V17.0443H11.2885L8 19.233V19.5665C8 19.7986 8.1852 19.9869 8.41381 19.9869Z" fill="white"/>
<path d="M14.1252 22.2788L14.4375 23.3263L15.4385 22.9213C15.5239 22.8867 15.6015 22.9856 15.5494 23.0625L14.9379 23.9636L15.8737 24.5061C15.9535 24.5524 15.9258 24.6757 15.8341 24.6822L14.7593 24.7585L14.9253 25.8398C14.9394 25.9321 14.8272 25.987 14.7651 25.9182L14.0363 25.1121L13.3074 25.9182C13.2453 25.987 13.1331 25.9321 13.1472 25.8398L13.3132 24.7585L12.2384 24.6822C12.1467 24.6757 12.119 24.5524 12.1988 24.5061L13.1346 23.9636L12.5231 23.0625C12.471 22.9856 12.5486 22.8867 12.634 22.9213L13.635 23.3263L13.9473 22.2788C13.974 22.1894 14.0986 22.1894 14.1252 22.2788ZM26.435 23.8028L26.5876 24.3145L27.0765 24.1166C27.1181 24.0998 27.1561 24.1481 27.1306 24.1856L26.832 24.6259L27.289 24.8909C27.328 24.9135 27.3145 24.9737 27.2697 24.9769L26.7447 25.0141L26.8257 25.5424C26.8327 25.5875 26.7778 25.6143 26.7474 25.5806L26.3914 25.1869L26.0354 25.5806C26.005 25.6142 25.9502 25.5874 25.9571 25.5424L26.0382 25.0141L25.5132 24.9769C25.4684 24.9737 25.4548 24.9135 25.4938 24.8909L25.9509 24.6259L25.6523 24.1856C25.6268 24.1481 25.6647 24.0998 25.7064 24.1166L26.1953 24.3145L26.3479 23.8028C26.3611 23.7592 26.422 23.7592 26.435 23.8028ZM27.6154 19.6779C27.6312 19.6296 27.6985 19.6296 27.7144 19.6779L27.8369 20.0511L28.2241 20.0541C28.2742 20.0546 28.295 20.1195 28.2546 20.1497L27.9431 20.3834L28.0599 20.7584C28.075 20.8069 28.0207 20.8471 27.9799 20.8175L27.6649 20.5888L27.3499 20.8175C27.3091 20.8471 27.2547 20.807 27.2698 20.7584L27.3866 20.3834L27.0752 20.1497C27.0348 20.1195 27.0556 20.0546 27.1058 20.0541L27.4929 20.0511L27.6154 19.6779ZM23.0329 18.7585L23.1855 19.2702L23.6745 19.0724C23.7161 19.0555 23.7541 19.1038 23.7286 19.1414L23.43 19.5816L23.887 19.8466C23.926 19.8692 23.9125 19.9295 23.8677 19.9326L23.3427 19.9698L23.4238 20.4981C23.4307 20.5432 23.3759 20.57 23.3455 20.5364L22.9895 20.1426L22.6335 20.5364C22.6031 20.5699 22.5483 20.5431 22.5552 20.4981L22.6363 19.9698L22.1113 19.9326C22.0665 19.9294 22.0529 19.8692 22.0919 19.8466L22.549 19.5816L22.2503 19.1414C22.2248 19.1038 22.2628 19.0555 22.3045 19.0724L22.7934 19.2702L22.946 18.7585C22.959 18.7148 23.0199 18.7148 23.0329 18.7585ZM29.6536 17.077L29.8062 17.5887L30.2951 17.3909C30.3368 17.374 30.3748 17.4223 30.3493 17.4599L30.0506 17.9001L30.5077 18.1651C30.5467 18.1877 30.5332 18.248 30.4883 18.2511L29.9633 18.2884L30.0444 18.8166C30.0514 18.8617 29.9965 18.8885 29.9662 18.8549L29.6101 18.4611L29.2541 18.8549C29.2238 18.8885 29.169 18.8616 29.1759 18.8166L29.257 18.2884L28.732 18.2511C28.6872 18.2479 28.6736 18.1877 28.7126 18.1651L29.1697 17.9001L28.8711 17.4599C28.8456 17.4223 28.8835 17.374 28.9252 17.3909L29.4142 17.5887L29.5667 17.077C29.5797 17.0334 29.6406 17.0334 29.6536 17.077ZM26.435 14.8311L26.5876 15.3428L27.0765 15.145C27.1181 15.1281 27.1561 15.1764 27.1306 15.214L26.832 15.6542L27.289 15.9192C27.328 15.9418 27.3145 16.0021 27.2697 16.0052L26.7447 16.0425L26.8257 16.5707C26.8327 16.6158 26.7778 16.6426 26.7474 16.609L26.3914 16.2152L26.0354 16.609C26.005 16.6426 25.9502 16.6157 25.9571 16.5707L26.0382 16.0425L25.5132 16.0052C25.4684 16.002 25.4548 15.9418 25.4938 15.9192L25.9509 15.6542L25.6523 15.214C25.6268 15.1764 25.6647 15.1281 25.7064 15.145L26.1953 15.3428L26.3479 14.8311C26.3611 14.7874 26.422 14.7874 26.435 14.8311Z" fill="white"/>
<path d="M14.6207 12V15.3629H20V16.624H14.6207V19.9869H13.3793V16.624H8V15.3629H13.3793V12H14.6207ZM12.9542 17.0443L8.49186 19.9869H8.41381C8.29059 19.9869 8.18338 19.9297 8.10893 19.842L8.05948 19.7708L12.1941 17.0443H12.9542ZM16.1185 17.0444L19.9934 19.5995C19.981 19.7537 19.8906 19.8839 19.7588 19.946L15.3584 17.0444H16.1185ZM8.6847 12.3925L12.5517 14.9425H11.7917L8.38564 12.6965C8.4733 12.5836 8.57366 12.4816 8.6847 12.3925ZM19.5862 12C19.7077 12 19.8132 12.0557 19.8875 12.1414L19.937 12.2108L15.7945 14.9425H15.0345L19.4967 12H19.5862Z" fill="#F44336"/>
<path d="M30.5 12.5H9.5C8.94772 12.5 8.5 12.9477 8.5 13.5V26.5C8.5 27.0523 8.94772 27.5 9.5 27.5H30.5C31.0523 27.5 31.5 27.0523 31.5 26.5V13.5C31.5 12.9477 31.0523 12.5 30.5 12.5Z" stroke="black" stroke-opacity="0.04"/>
</g>
</svg>
