<svg width="32" height="32" viewBox="0 0 32 32" fill="none" xmlns="http://www.w3.org/2000/svg">
<path d="M22 4H2C0.89543 4 0 4.89543 0 6V18C0 19.1046 0.89543 20 2 20H22C23.1046 20 24 19.1046 24 18V6C24 4.89543 23.1046 4 22 4Z" fill="#0D47A1"/>
<path d="M12.1683 16.6927L12.3342 17.198L12.8586 17.2022C12.9265 17.2027 12.9546 17.2907 12.9 17.3317L12.4781 17.6482L12.6363 18.1561C12.6568 18.2218 12.5831 18.2763 12.5278 18.2361L12.1012 17.9263L11.6746 18.2361C11.6194 18.2762 11.5457 18.2218 11.5661 18.1561L11.7243 17.6482L11.3024 17.3317C11.2478 17.2907 11.2759 17.2027 11.3439 17.2022L11.8683 17.198L12.0342 16.6927C12.0556 16.6272 12.1468 16.6272 12.1683 16.6927ZM9.58417 15.8453L9.75011 16.3507L10.2745 16.3548C10.3424 16.3554 10.3705 16.4434 10.3159 16.4844L9.89407 16.8008L10.0522 17.3088C10.0727 17.3745 9.99902 17.4289 9.94375 17.3888L9.51714 17.079L9.09053 17.3888C9.03532 17.4289 8.96158 17.3745 8.98207 17.3088L9.14022 16.8008L8.71835 16.4844C8.66374 16.4434 8.69186 16.3554 8.75978 16.3548L9.28418 16.3508L9.45011 15.8454C9.47158 15.7798 9.56275 15.7798 9.58417 15.8453ZM14.7906 15.8453C14.8121 15.7798 14.9032 15.7798 14.9247 15.8454L15.0906 16.3508L15.615 16.3548C15.6829 16.3554 15.7111 16.4434 15.6565 16.4844L15.2346 16.8008L15.3927 17.3088C15.4132 17.3745 15.3395 17.4289 15.2843 17.3888L14.8577 17.079L14.4311 17.3888C14.3758 17.4289 14.3021 17.3745 14.3226 17.3088L14.4807 16.8008L14.0589 16.4844C14.0043 16.4434 14.0324 16.3554 14.1003 16.3548L14.6247 16.3507L14.7906 15.8453ZM16.8795 13.8595L17.0454 14.3648L17.5698 14.369C17.6377 14.3695 17.6658 14.4575 17.6112 14.4985L17.1894 14.815L17.3475 15.3229C17.368 15.3887 17.2943 15.4431 17.2391 15.4029L16.8124 15.0931L16.3858 15.4029C16.3306 15.443 16.2569 15.3887 16.2774 15.3229L16.4355 14.815L16.0136 14.4985C15.959 14.4575 15.9872 14.3695 16.0551 14.369L16.5795 14.3648L16.7454 13.8595C16.7669 13.7941 16.858 13.7941 16.8795 13.8595ZM7.6093 13.8281L7.62944 13.8595L7.79538 14.3648L8.31977 14.369C8.37411 14.3694 8.40297 14.4258 8.38439 14.4694L8.36121 14.4985L7.93933 14.815L8.09749 15.3229C8.11388 15.3755 8.06996 15.4208 8.02347 15.4163L7.98902 15.4029L7.56241 15.0931L7.1358 15.4029C7.09159 15.4351 7.03559 15.4067 7.02544 15.3603L7.02733 15.3229L7.18549 14.815L6.76361 14.4985C6.71993 14.4657 6.72919 14.4028 6.76942 14.3787L6.80505 14.369L7.32944 14.3648L7.49538 13.8595C7.51255 13.8072 7.57428 13.7967 7.6093 13.8281ZM17.5088 11.2673L17.6747 11.7727L18.1991 11.7768C18.267 11.7774 18.2951 11.8654 18.2405 11.9064L17.8187 12.2228L17.9768 12.7308C17.9973 12.7965 17.9236 12.8509 17.8683 12.8108L17.4417 12.501L17.0151 12.8108C16.9599 12.8509 16.8862 12.7965 16.9067 12.7308L17.0648 12.2228L16.6429 11.9064C16.5883 11.8654 16.6165 11.7774 16.6844 11.7768L17.2088 11.7727L17.3747 11.2673C17.3961 11.2019 17.4873 11.2019 17.5088 11.2673ZM6.82769 11.2673L6.99363 11.7727L7.51802 11.7768C7.58594 11.7774 7.61407 11.8654 7.55946 11.9064L7.13758 12.2228L7.29574 12.7308C7.31622 12.7965 7.24253 12.8509 7.18727 12.8108L6.76066 12.501L6.33405 12.8108C6.27883 12.8509 6.2051 12.7965 6.22558 12.7308L6.38374 12.2228L5.96186 11.9064C5.90725 11.8654 5.93538 11.7774 6.0033 11.7768L6.52769 11.7727L6.69363 11.2673C6.7151 11.2019 6.80627 11.2019 6.82769 11.2673ZM7.62944 8.43418L7.79538 8.93956L8.31977 8.94371C8.38769 8.94423 8.41582 9.03223 8.36121 9.07323L7.93933 9.38971L8.09749 9.89761C8.11797 9.96333 8.04428 10.0178 7.98902 9.97766L7.56241 9.66785L7.1358 9.97766C7.08058 10.0178 7.00685 9.96337 7.02733 9.89761L7.18549 9.38971L6.76361 9.07323C6.709 9.03223 6.73713 8.94423 6.80505 8.94371L7.32944 8.93956L7.49538 8.43418C7.51685 8.36875 7.60793 8.36875 7.62944 8.43418ZM16.8593 8.40278L16.8795 8.43418L17.0454 8.93956L17.5698 8.94371C17.6241 8.94413 17.653 9.00053 17.6344 9.04407L17.6112 9.07323L17.1894 9.38971L17.3475 9.89761C17.3639 9.95022 17.32 9.99555 17.2735 9.99104L17.2391 9.97766L16.8124 9.66785L16.3858 9.97766C16.3416 10.0098 16.2856 9.98133 16.2755 9.93502L16.2774 9.89761L16.4355 9.38971L16.0136 9.07323C15.97 9.04043 15.9792 8.97755 16.0194 8.95344L16.0551 8.94371L16.5795 8.93956L16.7454 8.43418C16.7626 8.38184 16.8243 8.37137 16.8593 8.40278ZM14.9247 6.44837L15.0907 6.95375L15.6151 6.9579C15.683 6.95842 15.7111 7.04642 15.6565 7.08742L15.2346 7.4039L15.3928 7.9118C15.4133 7.97752 15.3396 8.03199 15.2843 7.99185L14.8577 7.68204L14.4311 7.99185C14.3758 8.03194 14.3021 7.97756 14.3226 7.9118L14.4807 7.4039L14.0589 7.08742C14.0043 7.04642 14.0324 6.95842 14.1003 6.9579L14.6247 6.95375L14.7906 6.44837C14.8121 6.38299 14.9032 6.38299 14.9247 6.44837ZM9.56403 6.41699L9.58417 6.44837L9.75011 6.95375L10.2745 6.9579C10.3288 6.95832 10.3577 7.01472 10.3391 7.05826L10.3159 7.08742L9.89407 7.4039L10.0522 7.9118C10.0686 7.96441 10.0247 8.00974 9.9782 8.00523L9.94375 7.99185L9.51714 7.68204L9.09053 7.99185C9.04632 8.02396 8.99032 7.99552 8.98017 7.94921L8.98207 7.9118L9.14022 7.4039L8.71835 7.08742C8.67466 7.05462 8.68392 6.99174 8.72415 6.96763L8.75978 6.9579L9.28418 6.95375L9.45011 6.44837C9.46729 6.39607 9.52901 6.38561 9.56403 6.41699ZM12.1683 5.84204L12.3342 6.34742L12.8586 6.35156C12.9265 6.35209 12.9546 6.44009 12.9 6.48109L12.4781 6.79756L12.6363 7.30547C12.6568 7.37118 12.5831 7.42566 12.5278 7.38552L12.1012 7.07571L11.6746 7.38552C11.6194 7.42561 11.5457 7.37123 11.5661 7.30547L11.7243 6.79756L11.3024 6.48109C11.2478 6.44009 11.2759 6.35209 11.3439 6.35156L11.8683 6.34742L12.0342 5.84204C12.0556 5.77661 12.1468 5.77661 12.1683 5.84204Z" fill="#FFEB3B"/>
<path d="M22.5 4.5H1.5C0.947715 4.5 0.5 4.94772 0.5 5.5V18.5C0.5 19.0523 0.947715 19.5 1.5 19.5H22.5C23.0523 19.5 23.5 19.0523 23.5 18.5V5.5C23.5 4.94772 23.0523 4.5 22.5 4.5Z" stroke="black" stroke-opacity="0.04"/>
<path d="M30 12H10C8.89543 12 8 12.8954 8 14V26C8 27.1046 8.89543 28 10 28H30C31.1046 28 32 27.1046 32 26V14C32 12.8954 31.1046 12 30 12Z" fill="#0D47A1"/>
<path d="M8.41381 20H9.13259L12.9656 17.4489V20H15.0345V17.4489L18.8675 20H19.5862C19.8148 20 20 19.8118 20 19.5797V19.2462L16.7115 17.0575H20V14.9557H16.7115L20 12.767V12.4336C20 12.2014 19.8148 12.0132 19.5862 12.0132H18.8674L15.0344 14.5643V12.0132H12.9655V14.5643L9.25831 12.0969C8.82547 12.235 8.46359 12.5351 8.24061 12.9271L11.2886 14.9557H8V17.0575H11.2885L8 19.2462V19.5797C8 19.8118 8.1853 20 8.41381 20Z" fill="white"/>
<path d="M14.6207 12.0132V15.3761H20V16.6371H14.6207V20H13.3793V16.6371H8V15.3761H13.3793V12.0132H14.6207ZM12.9542 17.0575L8.49186 20H8.41381C8.29062 20 8.1834 19.9429 8.10893 19.8551L8.05948 19.784L12.1941 17.0575H12.9542ZM16.1185 17.0575L19.9934 19.6127C19.981 19.7668 19.8906 19.897 19.7588 19.9592L15.3584 17.0575H16.1185ZM8.6847 12.4057L12.5517 14.9557H11.7917L8.38564 12.7097C8.4733 12.5968 8.57366 12.4948 8.6847 12.4057ZM19.5862 12.0132C19.7077 12.0132 19.8132 12.0689 19.8875 12.1545L19.937 12.224L15.7945 14.9557H15.0345L19.4967 12.0132H19.5862Z" fill="#F44336"/>
<path d="M26.0001 23.489C26.0357 23.489 26.0674 23.5124 26.0787 23.5465L26.2691 24.1265L26.871 24.1315C26.9068 24.1319 26.9381 24.1553 26.9492 24.1898C26.9601 24.2242 26.9481 24.2616 26.9195 24.2833L26.4354 24.6462L26.6171 25.2292C26.6278 25.2636 26.6155 25.3014 26.5867 25.3227C26.572 25.3334 26.5549 25.3388 26.5378 25.3388C26.5211 25.3388 26.5041 25.3334 26.4898 25.3232L26 24.9676L25.5102 25.3232C25.4959 25.3334 25.4789 25.3388 25.4621 25.3388C25.445 25.3388 25.428 25.3334 25.4135 25.3227C25.3848 25.3014 25.3724 25.2636 25.3831 25.2292L25.5648 24.6462L25.0807 24.2833C25.052 24.2616 25.0401 24.2242 25.051 24.1898C25.0621 24.1553 25.0934 24.1319 25.1292 24.1315L25.7311 24.1265L25.9215 23.5465C25.9328 23.5124 25.9645 23.489 26.0001 23.489ZM23.1036 19.6544C23.1392 19.6544 23.1709 19.6778 23.1822 19.7119L23.3726 20.2919L23.9745 20.2964C24.0101 20.2969 24.0416 20.3202 24.0527 20.3547C24.0636 20.3888 24.0516 20.4265 24.023 20.4483L23.5389 20.8116L23.7206 21.3945C23.7313 21.429 23.719 21.4668 23.6902 21.4881C23.6755 21.4988 23.6583 21.5042 23.6413 21.5042C23.6243 21.5042 23.6076 21.4988 23.5932 21.4885L23.1035 21.1326L22.6137 21.4885C22.5994 21.4988 22.5824 21.5042 22.5656 21.5042C22.5486 21.5042 22.5315 21.4988 22.517 21.4881C22.4883 21.4668 22.4759 21.429 22.4866 21.3945L22.6683 20.8116L22.1842 20.4483C22.1555 20.4265 22.1436 20.3888 22.1545 20.3547C22.1656 20.3202 22.1971 20.2968 22.2327 20.2964L22.8346 20.2919L23.025 19.7119C23.0363 19.6778 23.068 19.6544 23.1036 19.6544ZM28.8967 18.8137C28.9323 18.8137 28.964 18.8371 28.9753 18.8712L29.1657 19.4512L29.7676 19.4557C29.8032 19.4562 29.8347 19.4795 29.8458 19.514C29.8567 19.5481 29.8447 19.5858 29.8161 19.6076L29.332 19.9709L29.5137 20.5538C29.5243 20.5883 29.5121 20.6261 29.4833 20.6474C29.4686 20.6581 29.4514 20.6634 29.4344 20.6634C29.4174 20.6634 29.4007 20.6581 29.3863 20.6478L28.8966 20.2919L28.4068 20.6478C28.3925 20.6581 28.3755 20.6634 28.3587 20.6634C28.3417 20.6634 28.3246 20.6581 28.3101 20.6474C28.2814 20.6261 28.269 20.5883 28.2797 20.5538L28.4614 19.9709L27.9773 19.6076C27.9486 19.5858 27.9367 19.5481 27.9476 19.514C27.9587 19.4795 27.9902 19.4561 28.0258 19.4557L28.6277 19.4512L28.8181 18.8712C28.8294 18.8371 28.8611 18.8137 28.8967 18.8137ZM26.0001 16.7119C26.0357 16.7119 26.0674 16.7353 26.0787 16.7694L26.2691 17.3494L26.871 17.354C26.9066 17.3544 26.9381 17.3778 26.9492 17.4122C26.9601 17.4463 26.9481 17.4841 26.9195 17.5058L26.4354 17.8691L26.6171 18.4521C26.6278 18.4865 26.6155 18.5243 26.5867 18.5456C26.572 18.5563 26.5549 18.5616 26.5378 18.5616C26.5209 18.5616 26.5041 18.5562 26.4898 18.546L26 18.1902L25.5102 18.5461C25.4959 18.5563 25.4789 18.5617 25.4621 18.5617C25.4451 18.5617 25.428 18.5563 25.4135 18.5456C25.3848 18.5243 25.3724 18.4865 25.3831 18.4521L25.5648 17.8691L25.0807 17.5058C25.052 17.4841 25.0401 17.4463 25.051 17.4122C25.0621 17.3778 25.0936 17.3543 25.1292 17.354L25.7311 17.3494L25.9215 16.7694C25.9328 16.7353 25.9645 16.7119 26.0001 16.7119Z" fill="#F44336" stroke="white" stroke-width="0.2"/>
<path d="M30.5 12.5H9.5C8.94772 12.5 8.5 12.9477 8.5 13.5V26.5C8.5 27.0523 8.94772 27.5 9.5 27.5H30.5C31.0523 27.5 31.5 27.0523 31.5 26.5V13.5C31.5 12.9477 31.0523 12.5 30.5 12.5Z" stroke="black" stroke-opacity="0.04"/>
</svg>
