<svg width="32" height="32" viewBox="0 0 32 32" fill="none" xmlns="http://www.w3.org/2000/svg">
<path d="M22 4H2C0.89543 4 0 4.89543 0 6V18C0 19.1046 0.89543 20 2 20H22C23.1046 20 24 19.1046 24 18V6C24 4.89543 23.1046 4 22 4Z" fill="#0D47A1"/>
<path d="M12.1683 16.6927L12.3342 17.198L12.8586 17.2022C12.9265 17.2027 12.9546 17.2907 12.9 17.3317L12.4781 17.6482L12.6363 18.1561C12.6568 18.2218 12.5831 18.2763 12.5278 18.2361L12.1012 17.9263L11.6746 18.2361C11.6194 18.2762 11.5457 18.2218 11.5661 18.1561L11.7243 17.6482L11.3024 17.3317C11.2478 17.2907 11.2759 17.2027 11.3439 17.2022L11.8683 17.198L12.0342 16.6927C12.0556 16.6272 12.1468 16.6272 12.1683 16.6927ZM9.58417 15.8453L9.75011 16.3507L10.2745 16.3548C10.3424 16.3554 10.3705 16.4434 10.3159 16.4844L9.89407 16.8008L10.0522 17.3088C10.0727 17.3745 9.99902 17.4289 9.94375 17.3888L9.51714 17.079L9.09053 17.3888C9.03532 17.4289 8.96158 17.3745 8.98207 17.3088L9.14022 16.8008L8.71835 16.4844C8.66374 16.4434 8.69186 16.3554 8.75978 16.3548L9.28418 16.3508L9.45011 15.8454C9.47158 15.7798 9.56275 15.7798 9.58417 15.8453ZM14.7906 15.8453C14.8121 15.7798 14.9032 15.7798 14.9247 15.8454L15.0906 16.3508L15.615 16.3548C15.6829 16.3554 15.7111 16.4434 15.6565 16.4844L15.2346 16.8008L15.3927 17.3088C15.4132 17.3745 15.3395 17.4289 15.2843 17.3888L14.8577 17.079L14.4311 17.3888C14.3758 17.4289 14.3021 17.3745 14.3226 17.3088L14.4807 16.8008L14.0589 16.4844C14.0043 16.4434 14.0324 16.3554 14.1003 16.3548L14.6247 16.3507L14.7906 15.8453ZM16.8795 13.8595L17.0454 14.3648L17.5698 14.369C17.6377 14.3695 17.6658 14.4575 17.6112 14.4985L17.1894 14.815L17.3475 15.3229C17.368 15.3887 17.2943 15.4431 17.2391 15.4029L16.8124 15.0931L16.3858 15.4029C16.3306 15.443 16.2569 15.3887 16.2774 15.3229L16.4355 14.815L16.0136 14.4985C15.959 14.4575 15.9872 14.3695 16.0551 14.369L16.5795 14.3648L16.7454 13.8595C16.7669 13.7941 16.858 13.7941 16.8795 13.8595ZM7.6093 13.8281L7.62944 13.8595L7.79538 14.3648L8.31977 14.369C8.37411 14.3694 8.40297 14.4258 8.38439 14.4694L8.36121 14.4985L7.93933 14.815L8.09749 15.3229C8.11388 15.3755 8.06996 15.4208 8.02347 15.4163L7.98902 15.4029L7.56241 15.0931L7.1358 15.4029C7.09159 15.4351 7.03559 15.4067 7.02544 15.3603L7.02733 15.3229L7.18549 14.815L6.76361 14.4985C6.71993 14.4657 6.72919 14.4028 6.76942 14.3787L6.80505 14.369L7.32944 14.3648L7.49538 13.8595C7.51255 13.8072 7.57428 13.7967 7.6093 13.8281ZM17.5088 11.2673L17.6747 11.7727L18.1991 11.7768C18.267 11.7774 18.2951 11.8654 18.2405 11.9064L17.8187 12.2228L17.9768 12.7308C17.9973 12.7965 17.9236 12.8509 17.8683 12.8108L17.4417 12.501L17.0151 12.8108C16.9599 12.8509 16.8862 12.7965 16.9067 12.7308L17.0648 12.2228L16.6429 11.9064C16.5883 11.8654 16.6165 11.7774 16.6844 11.7768L17.2088 11.7727L17.3747 11.2673C17.3961 11.2019 17.4873 11.2019 17.5088 11.2673ZM6.82769 11.2673L6.99363 11.7727L7.51802 11.7768C7.58594 11.7774 7.61407 11.8654 7.55946 11.9064L7.13758 12.2228L7.29574 12.7308C7.31622 12.7965 7.24253 12.8509 7.18727 12.8108L6.76066 12.501L6.33405 12.8108C6.27883 12.8509 6.2051 12.7965 6.22558 12.7308L6.38374 12.2228L5.96186 11.9064C5.90725 11.8654 5.93538 11.7774 6.0033 11.7768L6.52769 11.7727L6.69363 11.2673C6.7151 11.2019 6.80627 11.2019 6.82769 11.2673ZM7.62944 8.43418L7.79538 8.93956L8.31977 8.94371C8.38769 8.94423 8.41582 9.03223 8.36121 9.07323L7.93933 9.38971L8.09749 9.89761C8.11797 9.96333 8.04428 10.0178 7.98902 9.97766L7.56241 9.66785L7.1358 9.97766C7.08058 10.0178 7.00685 9.96337 7.02733 9.89761L7.18549 9.38971L6.76361 9.07323C6.709 9.03223 6.73713 8.94423 6.80505 8.94371L7.32944 8.93956L7.49538 8.43418C7.51685 8.36875 7.60793 8.36875 7.62944 8.43418ZM16.8593 8.40278L16.8795 8.43418L17.0454 8.93956L17.5698 8.94371C17.6241 8.94413 17.653 9.00053 17.6344 9.04407L17.6112 9.07323L17.1894 9.38971L17.3475 9.89761C17.3639 9.95022 17.32 9.99555 17.2735 9.99104L17.2391 9.97766L16.8124 9.66785L16.3858 9.97766C16.3416 10.0098 16.2856 9.98133 16.2755 9.93502L16.2774 9.89761L16.4355 9.38971L16.0136 9.07323C15.97 9.04043 15.9792 8.97755 16.0194 8.95344L16.0551 8.94371L16.5795 8.93956L16.7454 8.43418C16.7626 8.38184 16.8243 8.37137 16.8593 8.40278ZM14.9247 6.44837L15.0907 6.95375L15.6151 6.9579C15.683 6.95842 15.7111 7.04642 15.6565 7.08742L15.2346 7.4039L15.3928 7.9118C15.4133 7.97752 15.3396 8.03199 15.2843 7.99185L14.8577 7.68204L14.4311 7.99185C14.3758 8.03194 14.3021 7.97756 14.3226 7.9118L14.4807 7.4039L14.0589 7.08742C14.0043 7.04642 14.0324 6.95842 14.1003 6.9579L14.6247 6.95375L14.7906 6.44837C14.8121 6.38299 14.9032 6.38299 14.9247 6.44837ZM9.56403 6.41699L9.58417 6.44837L9.75011 6.95375L10.2745 6.9579C10.3288 6.95832 10.3577 7.01472 10.3391 7.05826L10.3159 7.08742L9.89407 7.4039L10.0522 7.9118C10.0686 7.96441 10.0247 8.00974 9.9782 8.00523L9.94375 7.99185L9.51714 7.68204L9.09053 7.99185C9.04632 8.02396 8.99032 7.99552 8.98017 7.94921L8.98207 7.9118L9.14022 7.4039L8.71835 7.08742C8.67466 7.05462 8.68392 6.99174 8.72415 6.96763L8.75978 6.9579L9.28418 6.95375L9.45011 6.44837C9.46729 6.39607 9.52901 6.38561 9.56403 6.41699ZM12.1683 5.84204L12.3342 6.34742L12.8586 6.35156C12.9265 6.35209 12.9546 6.44009 12.9 6.48109L12.4781 6.79756L12.6363 7.30547C12.6568 7.37118 12.5831 7.42566 12.5278 7.38552L12.1012 7.07571L11.6746 7.38552C11.6194 7.42561 11.5457 7.37123 11.5661 7.30547L11.7243 6.79756L11.3024 6.48109C11.2478 6.44009 11.2759 6.35209 11.3439 6.35156L11.8683 6.34742L12.0342 5.84204C12.0556 5.77661 12.1468 5.77661 12.1683 5.84204Z" fill="#FFEB3B"/>
<path d="M22.5 4.5H1.5C0.947715 4.5 0.5 4.94772 0.5 5.5V18.5C0.5 19.0523 0.947715 19.5 1.5 19.5H22.5C23.0523 19.5 23.5 19.0523 23.5 18.5V5.5C23.5 4.94772 23.0523 4.5 22.5 4.5Z" stroke="black" stroke-opacity="0.04"/>
<mask id="mask0" mask-type="alpha" maskUnits="userSpaceOnUse" x="8" y="12" width="24" height="16">
<path d="M30 12H10C8.89543 12 8 12.8954 8 14V26C8 27.1046 8.89543 28 10 28H30C31.1046 28 32 27.1046 32 26V14C32 12.8954 31.1046 12 30 12Z" fill="white"/>
</mask>
<g mask="url(#mask0)">
<path d="M30 12H10C8.89543 12 8 12.8954 8 14V26C8 27.1046 8.89543 28 10 28H30C31.1046 28 32 27.1046 32 26V14C32 12.8954 31.1046 12 30 12Z" fill="white"/>
<path d="M32 26.688C32 27.4126 31.4126 28 30.688 28H9.312C8.5874 28 8 27.4126 8 26.688H32ZM32 24.24V25.464H8V24.24H32ZM32 21.792V23.016H8V21.792H32ZM32 19.344V20.568H8V19.344H32ZM32 16.896V18.12H8V16.896H32ZM32 14.448V15.672H8V14.448H32ZM30.776 12C31.4097 12 31.931 12.4816 31.9937 13.0989L32 13.224H8.68838C8.68838 12.548 9.23638 12 9.91238 12H30.776Z" fill="#F44336"/>
<path d="M10 12H19.5V20.568H8V14C8 12.8954 8.89543 12 10 12Z" fill="#0D47A1"/>
<path d="M9.09362 18.8168L9.18882 19.0984H9.48402C9.50081 19.0988 9.51555 19.1097 9.52091 19.1256C9.52628 19.1415 9.52113 19.1591 9.50802 19.1696L9.26802 19.3464L9.35842 19.628C9.36401 19.6445 9.35805 19.6627 9.3438 19.6727C9.32955 19.6827 9.31042 19.6821 9.29682 19.6712L9.05682 19.4992L8.81682 19.6712C8.80304 19.6809 8.78466 19.6809 8.77086 19.6712C8.75707 19.6616 8.75081 19.6443 8.75522 19.628L8.85362 19.348L8.61362 19.1712C8.60052 19.1607 8.59537 19.1431 8.60073 19.1272C8.6061 19.1113 8.62083 19.1004 8.63762 19.1H8.93362L9.02882 18.8184C9.03442 18.7784 9.08242 18.7784 9.09362 18.8168ZM18.129 18.7913C18.1447 18.7909 18.1587 18.8015 18.1624 18.8168L18.2576 19.0984H18.5528C18.5696 19.0988 18.5843 19.1097 18.5897 19.1256C18.5951 19.1415 18.5899 19.1591 18.5768 19.1696L18.3368 19.3464L18.4272 19.628C18.4328 19.6445 18.4269 19.6627 18.4126 19.6727C18.3984 19.6827 18.3792 19.6821 18.3656 19.6712L18.1256 19.4992L17.8856 19.6712C17.8718 19.6809 17.8535 19.6809 17.8397 19.6712C17.8259 19.6616 17.8196 19.6443 17.824 19.628L17.9224 19.348L17.6824 19.1712C17.6693 19.1607 17.6642 19.1431 17.6695 19.1272C17.6749 19.1113 17.6896 19.1004 17.7064 19.1H18.0016L18.0968 18.8184C18.0998 18.8029 18.1132 18.7916 18.129 18.7913ZM15.8602 18.7913C15.8759 18.7909 15.8899 18.8015 15.8936 18.8168L15.9888 19.0984H16.284C16.3008 19.0988 16.3155 19.1097 16.3209 19.1256C16.3263 19.1415 16.3211 19.1591 16.308 19.1696L16.068 19.3464L16.1584 19.628C16.164 19.6445 16.1581 19.6627 16.1438 19.6727C16.1296 19.6827 16.1104 19.6821 16.0968 19.6712L15.8568 19.4992L15.6168 19.6712C15.603 19.6809 15.5847 19.6809 15.5709 19.6712C15.5571 19.6616 15.5508 19.6443 15.5552 19.628L15.6536 19.348L15.4136 19.1712C15.4005 19.1607 15.3954 19.1431 15.4007 19.1272C15.4061 19.1113 15.4208 19.1004 15.4376 19.1H15.7328L15.828 18.8184C15.831 18.8029 15.8444 18.7916 15.8602 18.7913ZM11.3616 18.8168L11.4568 19.0984H11.752C11.7688 19.0988 11.7835 19.1097 11.7889 19.1256C11.7943 19.1415 11.7891 19.1591 11.776 19.1696L11.536 19.3464L11.6264 19.628C11.632 19.6445 11.6261 19.6627 11.6118 19.6727C11.5976 19.6827 11.5784 19.6821 11.5648 19.6712L11.3248 19.4992L11.0848 19.6712C11.071 19.6809 11.0527 19.6809 11.0389 19.6712C11.0251 19.6616 11.0188 19.6443 11.0232 19.628L11.1216 19.348L10.8816 19.1712C10.8685 19.1607 10.8634 19.1431 10.8687 19.1272C10.8741 19.1113 10.8888 19.1004 10.9056 19.1H11.2016L11.2968 18.8184C11.2976 18.7784 11.3504 18.7784 11.3616 18.8168ZM13.6304 18.8168L13.7256 19.0984H14.0208C14.0376 19.0988 14.0523 19.1097 14.0577 19.1256C14.0631 19.1415 14.0579 19.1591 14.0448 19.1696L13.8048 19.3464L13.8952 19.628C13.9008 19.6445 13.8949 19.6627 13.8806 19.6727C13.8664 19.6827 13.8472 19.6821 13.8336 19.6712L13.5936 19.4992L13.3536 19.6712C13.3398 19.6809 13.3215 19.6809 13.3077 19.6712C13.2939 19.6616 13.2876 19.6443 13.292 19.628L13.3904 19.348L13.1504 19.1712C13.1373 19.1607 13.1322 19.1431 13.1375 19.1272C13.1429 19.1113 13.1576 19.1004 13.1744 19.1H13.4704L13.5656 18.8184C13.5664 18.7784 13.6192 18.7784 13.6304 18.8168ZM10.228 18.0728L10.3232 18.3544H10.6184C10.6352 18.3548 10.6499 18.3657 10.6553 18.3816C10.6607 18.3975 10.6555 18.4151 10.6424 18.4256L10.4024 18.6024L10.4928 18.884C10.4984 18.9005 10.4925 18.9187 10.4782 18.9287C10.464 18.9387 10.4448 18.9381 10.4312 18.9272L10.1912 18.7552L9.95122 18.9272C9.93744 18.9369 9.91906 18.9369 9.90526 18.9272C9.89147 18.9176 9.88521 18.9003 9.88962 18.884L9.98002 18.6024L9.74002 18.4256C9.72692 18.4151 9.72177 18.3975 9.72713 18.3816C9.7325 18.3657 9.74723 18.3548 9.76402 18.3544H10.068L10.1632 18.0728C10.1688 18.0344 10.2168 18.0344 10.228 18.0728ZM17.0096 18.0409C17.021 18.0475 17.028 18.0597 17.028 18.0728L17.1232 18.3544H17.4184C17.4352 18.3548 17.4499 18.3657 17.4553 18.3816C17.4607 18.3975 17.4555 18.4151 17.4424 18.4256L17.2024 18.6024L17.2928 18.884C17.2984 18.9005 17.2925 18.9187 17.2782 18.9287C17.264 18.9387 17.2448 18.9381 17.2312 18.9272L16.9912 18.7552L16.7512 18.9272C16.7374 18.9369 16.7191 18.9369 16.7053 18.9272C16.6915 18.9176 16.6852 18.9003 16.6896 18.884L16.78 18.6024L16.54 18.4256C16.5269 18.4151 16.5218 18.3975 16.5271 18.3816C16.5325 18.3657 16.5472 18.3548 16.564 18.3544H16.8592L16.9544 18.0728C16.9544 18.0597 16.9614 18.0475 16.9728 18.0409C16.9842 18.0344 16.9982 18.0344 17.0096 18.0409ZM14.7648 18.0728L14.86 18.3544H15.1552C15.172 18.3548 15.1867 18.3657 15.1921 18.3816C15.1975 18.3975 15.1923 18.4151 15.1792 18.4256L14.9392 18.6024L15.0296 18.884C15.0352 18.9005 15.0293 18.9187 15.015 18.9287C15.0008 18.9387 14.9816 18.9381 14.968 18.9272L14.728 18.7552L14.488 18.9272C14.4742 18.9369 14.4559 18.9369 14.4421 18.9272C14.4283 18.9176 14.422 18.9003 14.4264 18.884L14.5168 18.6024L14.2768 18.4256C14.2637 18.4151 14.2586 18.3975 14.2639 18.3816C14.2693 18.3657 14.284 18.3548 14.3008 18.3544H14.596L14.6912 18.0728C14.7008 18.0344 14.7536 18.0344 14.7648 18.0728ZM12.496 18.0728L12.5912 18.3544H12.8864C12.9032 18.3548 12.9179 18.3657 12.9233 18.3816C12.9287 18.3975 12.9235 18.4151 12.9104 18.4256L12.6704 18.6024L12.7608 18.884C12.7664 18.9005 12.7605 18.9187 12.7462 18.9287C12.732 18.9387 12.7128 18.9381 12.6992 18.9272L12.4592 18.7552L12.2192 18.9272C12.2054 18.9369 12.1871 18.9369 12.1733 18.9272C12.1595 18.9176 12.1532 18.9003 12.1576 18.884L12.248 18.6024L12.008 18.4256C11.9949 18.4151 11.9898 18.3975 11.9951 18.3816C12.0005 18.3657 12.0152 18.3548 12.032 18.3544H12.336L12.4312 18.0728C12.432 18.0344 12.4848 18.0344 12.496 18.0728ZM11.3616 17.352L11.4568 17.6336H11.752C11.7688 17.634 11.7835 17.6449 11.7889 17.6608C11.7943 17.6767 11.7891 17.6943 11.776 17.7048L11.536 17.8816L11.6264 18.1632C11.632 18.1797 11.6261 18.1979 11.6118 18.2079C11.5976 18.2179 11.5784 18.2173 11.5648 18.2064L11.3248 18.0344L11.0848 18.2064C11.071 18.2161 11.0527 18.2161 11.0389 18.2064C11.0251 18.1968 11.0188 18.1795 11.0232 18.1632L11.1136 17.8816L10.8736 17.7048C10.8605 17.6943 10.8554 17.6767 10.8607 17.6608C10.8661 17.6449 10.8808 17.634 10.8976 17.6336H11.2016L11.2968 17.352C11.2976 17.3192 11.3504 17.3192 11.3616 17.352ZM18.1624 17.352L18.2576 17.6336H18.5528C18.5696 17.634 18.5843 17.6449 18.5897 17.6608C18.5951 17.6767 18.5899 17.6943 18.5768 17.7048L18.3368 17.8816L18.4272 18.1632C18.4328 18.1797 18.4269 18.1979 18.4126 18.2079C18.3984 18.2179 18.3792 18.2173 18.3656 18.2064L18.1256 18.0344L17.8856 18.2064C17.8718 18.2161 17.8535 18.2161 17.8397 18.2064C17.8259 18.1968 17.8196 18.1795 17.824 18.1632L17.9144 17.8816L17.6744 17.7048C17.6613 17.6943 17.6562 17.6767 17.6615 17.6608C17.6669 17.6449 17.6816 17.634 17.6984 17.6336H17.9936L18.0888 17.352C18.1032 17.3192 18.156 17.3192 18.1624 17.352ZM9.09362 17.352L9.18882 17.6336H9.48402C9.50081 17.634 9.51555 17.6449 9.52091 17.6608C9.52628 17.6767 9.52113 17.6943 9.50802 17.7048L9.26802 17.8816L9.35842 18.1632C9.36401 18.1797 9.35805 18.1979 9.3438 18.2079C9.32955 18.2179 9.31042 18.2173 9.29682 18.2064L9.05682 18.0344L8.81682 18.2064C8.80304 18.2161 8.78466 18.2161 8.77086 18.2064C8.75707 18.1968 8.75081 18.1795 8.75522 18.1632L8.84562 17.8816L8.60562 17.7048C8.59252 17.6943 8.58737 17.6767 8.59273 17.6608C8.5981 17.6449 8.61283 17.634 8.62962 17.6336H8.93362L9.02882 17.352C9.03442 17.3192 9.08242 17.3192 9.09362 17.352ZM15.8936 17.352L15.9888 17.6336H16.284C16.3008 17.634 16.3155 17.6449 16.3209 17.6608C16.3263 17.6767 16.3211 17.6943 16.308 17.7048L16.068 17.8816L16.1584 18.1632C16.164 18.1797 16.1581 18.1979 16.1438 18.2079C16.1296 18.2179 16.1104 18.2173 16.0968 18.2064L15.8568 18.0344L15.6168 18.2064C15.603 18.2161 15.5847 18.2161 15.5709 18.2064C15.5571 18.1968 15.5508 18.1795 15.5552 18.1632L15.6456 17.8816L15.4056 17.7048C15.3925 17.6943 15.3874 17.6767 15.3927 17.6608C15.3981 17.6449 15.4128 17.634 15.4296 17.6336H15.7248L15.82 17.352C15.8344 17.3192 15.8872 17.3192 15.8936 17.352ZM13.6304 17.352L13.7256 17.6336H14.0208C14.0376 17.634 14.0523 17.6449 14.0577 17.6608C14.0631 17.6767 14.0579 17.6943 14.0448 17.7048L13.8048 17.8816L13.8952 18.1632C13.9008 18.1797 13.8949 18.1979 13.8806 18.2079C13.8664 18.2179 13.8472 18.2173 13.8336 18.2064L13.5936 18.0344L13.3536 18.2064C13.3398 18.2161 13.3215 18.2161 13.3077 18.2064C13.2939 18.1968 13.2876 18.1795 13.292 18.1632L13.3824 17.8816L13.1424 17.7048C13.1293 17.6943 13.1242 17.6767 13.1295 17.6608C13.1349 17.6449 13.1496 17.634 13.1664 17.6336H13.4704L13.5656 17.352C13.5664 17.3192 13.6192 17.3192 13.6304 17.352ZM10.228 16.6088L10.3232 16.8904H10.6184C10.6352 16.8908 10.6499 16.9017 10.6553 16.9176C10.6607 16.9335 10.6555 16.9511 10.6424 16.9616L10.4024 17.1384L10.4928 17.42C10.4984 17.4365 10.4925 17.4547 10.4782 17.4647C10.464 17.4747 10.4448 17.4741 10.4312 17.4632L10.1912 17.2912L9.95122 17.4632C9.93744 17.4729 9.91906 17.4729 9.90526 17.4632C9.89147 17.4536 9.88521 17.4363 9.88962 17.42L9.98802 17.14L9.74802 16.9632C9.73492 16.9527 9.72977 16.9351 9.73513 16.9192C9.7405 16.9033 9.75523 16.8924 9.77202 16.892H10.068L10.1632 16.6104C10.1688 16.5704 10.2168 16.5704 10.228 16.6088ZM16.9912 16.572C17.0115 16.572 17.028 16.5885 17.028 16.6088L17.1232 16.8904H17.4184C17.4352 16.8908 17.4499 16.9017 17.4553 16.9176C17.4607 16.9335 17.4555 16.9511 17.4424 16.9616L17.2024 17.1384L17.2928 17.42C17.2984 17.4365 17.2925 17.4547 17.2782 17.4647C17.264 17.4747 17.2448 17.4741 17.2312 17.4632L16.9912 17.2912L16.7512 17.4632C16.7374 17.4729 16.7191 17.4729 16.7053 17.4632C16.6915 17.4536 16.6852 17.4363 16.6896 17.42L16.78 17.1384L16.54 16.9616C16.5269 16.9511 16.5218 16.9335 16.5271 16.9176C16.5325 16.9017 16.5472 16.8908 16.564 16.8904H16.8592L16.9544 16.6088C16.9544 16.5885 16.9709 16.572 16.9912 16.572ZM14.7648 16.6088L14.86 16.8904H15.1552C15.172 16.8908 15.1867 16.9017 15.1921 16.9176C15.1975 16.9335 15.1923 16.9511 15.1792 16.9616L14.9392 17.1384L15.0296 17.42C15.0352 17.4365 15.0293 17.4547 15.015 17.4647C15.0008 17.4747 14.9816 17.4741 14.968 17.4632L14.728 17.2912L14.488 17.4632C14.4742 17.4729 14.4559 17.4729 14.4421 17.4632C14.4283 17.4536 14.422 17.4363 14.4264 17.42L14.5168 17.1384L14.2768 16.9616C14.2637 16.9511 14.2586 16.9335 14.2639 16.9176C14.2693 16.9017 14.284 16.8908 14.3008 16.8904H14.596L14.6912 16.6088C14.7008 16.5704 14.7536 16.5704 14.7648 16.6088ZM12.496 16.6088L12.5912 16.8904H12.8864C12.9032 16.8908 12.9179 16.9017 12.9233 16.9176C12.9287 16.9335 12.9235 16.9511 12.9104 16.9616L12.6704 17.1384L12.7608 17.42C12.7664 17.4365 12.7605 17.4547 12.7462 17.4647C12.732 17.4747 12.7128 17.4741 12.6992 17.4632L12.4592 17.2912L12.2192 17.4632C12.2054 17.4729 12.1871 17.4729 12.1733 17.4632C12.1595 17.4536 12.1532 17.4363 12.1576 17.42L12.256 17.14L12.016 16.9632C12.0029 16.9527 11.9978 16.9351 12.0031 16.9192C12.0085 16.9033 12.0232 16.8924 12.04 16.892H12.336L12.4312 16.6104C12.432 16.5704 12.4848 16.5704 12.496 16.6088ZM11.3616 15.8928L11.4568 16.1744H11.752C11.7688 16.1748 11.7835 16.1857 11.7889 16.2016C11.7943 16.2175 11.7891 16.2351 11.776 16.2456L11.536 16.4224L11.6264 16.704C11.632 16.7205 11.6261 16.7387 11.6118 16.7487C11.5976 16.7587 11.5784 16.7581 11.5648 16.7472L11.3248 16.5752L11.0848 16.7472C11.071 16.7569 11.0527 16.7569 11.0389 16.7472C11.0251 16.7376 11.0188 16.7203 11.0232 16.704L11.1216 16.424L10.8816 16.2472C10.8685 16.2367 10.8634 16.2191 10.8687 16.2032C10.8741 16.1873 10.8888 16.1764 10.9056 16.176H11.2016L11.2968 15.8944C11.2976 15.8544 11.3504 15.8544 11.3616 15.8928ZM18.129 15.8673C18.1447 15.8669 18.1587 15.8775 18.1624 15.8928L18.2576 16.1744H18.5528C18.5696 16.1748 18.5843 16.1857 18.5897 16.2016C18.5951 16.2175 18.5899 16.2351 18.5768 16.2456L18.3368 16.4224L18.4272 16.704C18.4328 16.7205 18.4269 16.7387 18.4126 16.7487C18.3984 16.7587 18.3792 16.7581 18.3656 16.7472L18.1256 16.5752L17.8856 16.7472C17.8718 16.7569 17.8535 16.7569 17.8397 16.7472C17.8259 16.7376 17.8196 16.7203 17.824 16.704L17.9224 16.424L17.6824 16.2472C17.6693 16.2367 17.6642 16.2191 17.6695 16.2032C17.6749 16.1873 17.6896 16.1764 17.7064 16.176H18.0016L18.0968 15.8944C18.0998 15.8789 18.1132 15.8676 18.129 15.8673ZM15.8568 15.856C15.8771 15.856 15.8936 15.8725 15.8936 15.8928L15.9888 16.1744H16.284C16.3008 16.1748 16.3155 16.1857 16.3209 16.2016C16.3263 16.2175 16.3211 16.2351 16.308 16.2456L16.068 16.4224L16.1584 16.704C16.164 16.7205 16.1581 16.7387 16.1438 16.7487C16.1296 16.7587 16.1104 16.7581 16.0968 16.7472L15.8568 16.5752L15.6168 16.7472C15.603 16.7569 15.5847 16.7569 15.5709 16.7472C15.5571 16.7376 15.5508 16.7203 15.5552 16.704L15.6456 16.4224L15.4056 16.2456C15.3925 16.2351 15.3874 16.2175 15.3927 16.2016C15.3981 16.1857 15.4128 16.1748 15.4296 16.1744H15.7248L15.82 15.8928C15.82 15.8725 15.8365 15.856 15.8568 15.856ZM9.09362 15.8928L9.18882 16.1744H9.48402C9.50081 16.1748 9.51555 16.1857 9.52091 16.2016C9.52628 16.2175 9.52113 16.2351 9.50802 16.2456L9.26802 16.4224L9.35842 16.704C9.36401 16.7205 9.35805 16.7387 9.3438 16.7487C9.32955 16.7587 9.31042 16.7581 9.29682 16.7472L9.05682 16.5752L8.81682 16.7472C8.80304 16.7569 8.78466 16.7569 8.77086 16.7472C8.75707 16.7376 8.75081 16.7203 8.75522 16.704L8.85362 16.424L8.61362 16.2472C8.60052 16.2367 8.59537 16.2191 8.60073 16.2032C8.6061 16.1873 8.62083 16.1764 8.63762 16.176H8.93362L9.02882 15.8944C9.03442 15.8544 9.08242 15.8544 9.09362 15.8928ZM13.6304 15.8928L13.7256 16.1744H14.0208C14.0376 16.1748 14.0523 16.1857 14.0577 16.2016C14.0631 16.2175 14.0579 16.2351 14.0448 16.2456L13.8048 16.4224L13.8952 16.704C13.9008 16.7205 13.8949 16.7387 13.8806 16.7487C13.8664 16.7587 13.8472 16.7581 13.8336 16.7472L13.5936 16.5752L13.3536 16.7472C13.3398 16.7569 13.3215 16.7569 13.3077 16.7472C13.2939 16.7376 13.2876 16.7203 13.292 16.704L13.3824 16.4224L13.1424 16.2456C13.1293 16.2351 13.1242 16.2175 13.1295 16.2016C13.1349 16.1857 13.1496 16.1748 13.1664 16.1744H13.4704L13.5656 15.8928C13.5664 15.8544 13.6192 15.8544 13.6304 15.8928ZM10.228 15.1432L10.3232 15.4248H10.6184C10.6352 15.4252 10.6499 15.4361 10.6553 15.452C10.6607 15.4679 10.6555 15.4855 10.6424 15.496L10.4024 15.6728L10.4928 15.9544C10.4984 15.9709 10.4925 15.9891 10.4782 15.9991C10.464 16.0091 10.4448 16.0085 10.4312 15.9976L10.1912 15.8256L9.95122 15.9976C9.93744 16.0073 9.91906 16.0073 9.90526 15.9976C9.89147 15.988 9.88521 15.9707 9.88962 15.9544L9.98002 15.6728L9.74002 15.496C9.72692 15.4855 9.72177 15.4679 9.72713 15.452C9.7325 15.4361 9.74723 15.4252 9.76402 15.4248H10.068L10.1632 15.1432C10.1688 15.1104 10.2168 15.1104 10.228 15.1432ZM14.7648 15.1432L14.86 15.4248H15.1552C15.172 15.4252 15.1867 15.4361 15.1921 15.452C15.1975 15.4679 15.1923 15.4855 15.1792 15.496L14.9392 15.6728L15.0296 15.9544C15.0352 15.9709 15.0293 15.9891 15.015 15.9991C15.0008 16.0091 14.9816 16.0085 14.968 15.9976L14.728 15.8256L14.488 15.9976C14.4742 16.0073 14.4559 16.0073 14.4421 15.9976C14.4283 15.988 14.422 15.9707 14.4264 15.9544L14.5168 15.6728L14.2768 15.496C14.2637 15.4855 14.2586 15.4679 14.2639 15.452C14.2693 15.4361 14.284 15.4252 14.3008 15.4248H14.596L14.6912 15.1432C14.7008 15.1104 14.7536 15.1104 14.7648 15.1432ZM12.496 15.1432L12.5912 15.4248H12.8864C12.9032 15.4252 12.9179 15.4361 12.9233 15.452C12.9287 15.4679 12.9235 15.4855 12.9104 15.496L12.6704 15.6728L12.7608 15.9544C12.7664 15.9709 12.7605 15.9891 12.7462 15.9991C12.732 16.0091 12.7128 16.0085 12.6992 15.9976L12.4592 15.8256L12.2192 15.9976C12.2054 16.0073 12.1871 16.0073 12.1733 15.9976C12.1595 15.988 12.1532 15.9707 12.1576 15.9544L12.248 15.6728L12.008 15.496C11.9949 15.4855 11.9898 15.4679 11.9951 15.452C12.0005 15.4361 12.0152 15.4252 12.032 15.4248H12.336L12.4312 15.1432C12.432 15.1104 12.4848 15.1104 12.496 15.1432ZM17.028 15.1432L17.1232 15.4248H17.4184C17.4352 15.4252 17.4499 15.4361 17.4553 15.452C17.4607 15.4679 17.4555 15.4855 17.4424 15.496L17.2024 15.6728L17.2928 15.9544C17.2984 15.9709 17.2925 15.9891 17.2782 15.9991C17.264 16.0091 17.2448 16.0085 17.2312 15.9976L16.9912 15.8256L16.7512 15.9976C16.7374 16.0073 16.7191 16.0073 16.7053 15.9976C16.6915 15.988 16.6852 15.9707 16.6896 15.9544L16.78 15.6728L16.54 15.496C16.5269 15.4855 16.5218 15.4679 16.5271 15.452C16.5325 15.4361 16.5472 15.4252 16.564 15.4248H16.8592L16.9544 15.1432C16.9688 15.1104 17.0216 15.1104 17.028 15.1432ZM13.6304 14.428L13.7256 14.7096H14.0208C14.0376 14.71 14.0523 14.7209 14.0577 14.7368C14.0631 14.7527 14.0579 14.7703 14.0448 14.7808L13.8048 14.9576L13.8952 15.2392C13.9008 15.2557 13.8949 15.2739 13.8806 15.2839C13.8664 15.2939 13.8472 15.2933 13.8336 15.2824L13.5936 15.1104L13.3536 15.2824C13.3398 15.2921 13.3215 15.2921 13.3077 15.2824C13.2939 15.2728 13.2876 15.2555 13.292 15.2392L13.3824 14.9576L13.1424 14.7808C13.1293 14.7703 13.1242 14.7527 13.1295 14.7368C13.1349 14.7209 13.1496 14.71 13.1664 14.7096H13.4704L13.5656 14.428C13.5664 14.3952 13.6192 14.3952 13.6304 14.428ZM9.09362 14.428L9.18882 14.7096H9.48402C9.50081 14.71 9.51555 14.7209 9.52091 14.7368C9.52628 14.7527 9.52113 14.7703 9.50802 14.7808L9.26802 14.9576L9.35842 15.2392C9.36401 15.2557 9.35805 15.2739 9.3438 15.2839C9.32955 15.2939 9.31042 15.2933 9.29682 15.2824L9.05682 15.1104L8.81682 15.2824C8.80304 15.2921 8.78466 15.2921 8.77086 15.2824C8.75707 15.2728 8.75081 15.2555 8.75522 15.2392L8.84562 14.9576L8.60562 14.7808C8.59252 14.7703 8.58737 14.7527 8.59273 14.7368C8.5981 14.7209 8.61283 14.71 8.62962 14.7096H8.93362L9.02882 14.428C9.03442 14.3952 9.08242 14.3952 9.09362 14.428ZM11.3648 14.428L11.46 14.7096H11.7568C11.7736 14.71 11.7883 14.7209 11.7937 14.7368C11.7991 14.7527 11.7939 14.7703 11.7808 14.7808L11.5408 14.9576L11.6312 15.2392C11.6368 15.2557 11.6309 15.2739 11.6166 15.2839C11.6024 15.2939 11.5832 15.2933 11.5696 15.2824L11.3296 15.1104L11.0896 15.2824C11.0758 15.2921 11.0575 15.2921 11.0437 15.2824C11.0299 15.2728 11.0236 15.2555 11.028 15.2392L11.1184 14.9576L10.8784 14.7808C10.8653 14.7703 10.8602 14.7527 10.8655 14.7368C10.8709 14.7209 10.8856 14.71 10.9024 14.7096H11.1968L11.292 14.428C11.2976 14.3952 11.3504 14.3952 11.3648 14.428ZM15.8936 14.428L15.9888 14.7096H16.284C16.3008 14.71 16.3155 14.7209 16.3209 14.7368C16.3263 14.7527 16.3211 14.7703 16.308 14.7808L16.068 14.9576L16.1584 15.2392C16.164 15.2557 16.1581 15.2739 16.1438 15.2839C16.1296 15.2939 16.1104 15.2933 16.0968 15.2824L15.8568 15.1104L15.6168 15.2824C15.603 15.2921 15.5847 15.2921 15.5709 15.2824C15.5571 15.2728 15.5508 15.2555 15.5552 15.2392L15.6456 14.9576L15.4056 14.7808C15.3925 14.7703 15.3874 14.7527 15.3927 14.7368C15.3981 14.7209 15.4128 14.71 15.4296 14.7096H15.7248L15.82 14.428C15.8344 14.3952 15.8872 14.3952 15.8936 14.428ZM18.1624 14.428L18.2576 14.7096H18.5528C18.5696 14.71 18.5843 14.7209 18.5897 14.7368C18.5951 14.7527 18.5899 14.7703 18.5768 14.7808L18.3368 14.9576L18.4272 15.2392C18.4328 15.2557 18.4269 15.2739 18.4126 15.2839C18.3984 15.2939 18.3792 15.2933 18.3656 15.2824L18.1256 15.1104L17.8856 15.2824C17.8718 15.2921 17.8535 15.2921 17.8397 15.2824C17.8259 15.2728 17.8196 15.2555 17.824 15.2392L17.9144 14.9576L17.6744 14.7808C17.6613 14.7703 17.6562 14.7527 17.6615 14.7368C17.6669 14.7209 17.6816 14.71 17.6984 14.7096H17.9936L18.0888 14.428C18.1032 14.3952 18.156 14.3952 18.1624 14.428ZM14.7648 13.684L14.86 13.9656H15.1552C15.172 13.966 15.1867 13.9769 15.1921 13.9928C15.1975 14.0087 15.1923 14.0263 15.1792 14.0368L14.9392 14.2136L15.0296 14.4952C15.0352 14.5117 15.0293 14.5299 15.015 14.5399C15.0008 14.5499 14.9816 14.5493 14.968 14.5384L14.728 14.3664L14.488 14.5384C14.4742 14.5481 14.4559 14.5481 14.4421 14.5384C14.4283 14.5288 14.422 14.5115 14.4264 14.4952L14.5168 14.2136L14.2768 14.0368C14.2637 14.0263 14.2586 14.0087 14.2639 13.9928C14.2693 13.9769 14.284 13.966 14.3008 13.9656H14.596L14.6912 13.684C14.7008 13.6456 14.7536 13.6456 14.7648 13.684ZM12.496 13.684L12.5912 13.9656H12.8864C12.9032 13.966 12.9179 13.9769 12.9233 13.9928C12.9287 14.0087 12.9235 14.0263 12.9104 14.0368L12.6704 14.2136L12.7608 14.4952C12.7664 14.5117 12.7605 14.5299 12.7462 14.5399C12.732 14.5499 12.7128 14.5493 12.6992 14.5384L12.4592 14.3664L12.2192 14.5384C12.2054 14.5481 12.1871 14.5481 12.1733 14.5384C12.1595 14.5288 12.1532 14.5115 12.1576 14.4952L12.256 14.2152L12.016 14.0384C12.0029 14.0279 11.9978 14.0103 12.0031 13.9944C12.0085 13.9785 12.0232 13.9676 12.04 13.9672H12.336L12.4312 13.6856C12.432 13.6456 12.4848 13.6456 12.496 13.684ZM10.228 13.684L10.3232 13.9656H10.6184C10.6352 13.966 10.6499 13.9769 10.6553 13.9928C10.6607 14.0087 10.6555 14.0263 10.6424 14.0368L10.4024 14.2136L10.4928 14.4952C10.4984 14.5117 10.4925 14.5299 10.4782 14.5399C10.464 14.5499 10.4448 14.5493 10.4312 14.5384L10.1912 14.3664L9.95122 14.5384C9.93744 14.5481 9.91906 14.5481 9.90526 14.5384C9.89147 14.5288 9.88521 14.5115 9.88962 14.4952L9.98802 14.2152L9.74802 14.0384C9.73492 14.0279 9.72977 14.0103 9.73513 13.9944C9.7405 13.9785 9.75523 13.9676 9.77202 13.9672H10.068L10.1632 13.6856C10.1688 13.6456 10.2168 13.6456 10.228 13.684ZM17.0096 13.6521C17.021 13.6587 17.028 13.6709 17.028 13.684L17.1232 13.9656H17.4184C17.4352 13.966 17.4499 13.9769 17.4553 13.9928C17.4607 14.0087 17.4555 14.0263 17.4424 14.0368L17.2024 14.2136L17.2928 14.4952C17.2984 14.5117 17.2925 14.5299 17.2782 14.5399C17.264 14.5499 17.2448 14.5493 17.2312 14.5384L16.9912 14.3664L16.7512 14.5384C16.7374 14.5481 16.7191 14.5481 16.7053 14.5384C16.6915 14.5288 16.6852 14.5115 16.6896 14.4952L16.78 14.2136L16.54 14.0368C16.5269 14.0263 16.5218 14.0087 16.5271 13.9928C16.5325 13.9769 16.5472 13.966 16.564 13.9656H16.8592L16.9544 13.684C16.9544 13.6709 16.9614 13.6587 16.9728 13.6521C16.9842 13.6456 16.9982 13.6456 17.0096 13.6521ZM9.09362 12.9688L9.18882 13.2504H9.48402C9.50081 13.2508 9.51555 13.2617 9.52091 13.2776C9.52628 13.2935 9.52113 13.3111 9.50802 13.3216L9.26802 13.4984L9.35842 13.78C9.36401 13.7965 9.35805 13.8147 9.3438 13.8247C9.32955 13.8347 9.31042 13.8341 9.29682 13.8232L9.05682 13.6512L8.81682 13.8232C8.80304 13.8329 8.78466 13.8329 8.77086 13.8232C8.75707 13.8136 8.75081 13.7963 8.75522 13.78L8.85362 13.5L8.61362 13.3232C8.60052 13.3127 8.59537 13.2951 8.60073 13.2792C8.6061 13.2633 8.62083 13.2524 8.63762 13.252H8.93362L9.02882 12.9704C9.03442 12.9304 9.08242 12.9304 9.09362 12.9688ZM11.3616 12.9688L11.4568 13.2504H11.752C11.7688 13.2508 11.7835 13.2617 11.7889 13.2776C11.7943 13.2935 11.7891 13.3111 11.776 13.3216L11.536 13.4984L11.6264 13.78C11.632 13.7965 11.6261 13.8147 11.6118 13.8247C11.5976 13.8347 11.5784 13.8341 11.5648 13.8232L11.3248 13.6512L11.0848 13.8232C11.071 13.8329 11.0527 13.8329 11.0389 13.8232C11.0251 13.8136 11.0188 13.7963 11.0232 13.78L11.1216 13.5L10.8816 13.3232C10.8685 13.3127 10.8634 13.2951 10.8687 13.2792C10.8741 13.2633 10.8888 13.2524 10.9056 13.252H11.2016L11.2968 12.9704C11.2976 12.9304 11.3504 12.9304 11.3616 12.9688ZM13.6304 12.9688L13.7256 13.2504H14.0208C14.0376 13.2508 14.0523 13.2617 14.0577 13.2776C14.0631 13.2935 14.0579 13.3111 14.0448 13.3216L13.8048 13.4984L13.8952 13.78C13.9008 13.7965 13.8949 13.8147 13.8806 13.8247C13.8664 13.8347 13.8472 13.8341 13.8336 13.8232L13.5936 13.6512L13.3536 13.8232C13.3398 13.8329 13.3215 13.8329 13.3077 13.8232C13.2939 13.8136 13.2876 13.7963 13.292 13.78L13.3824 13.4984L13.1424 13.3216C13.1293 13.3111 13.1242 13.2935 13.1295 13.2776C13.1349 13.2617 13.1496 13.2508 13.1664 13.2504H13.4704L13.5656 12.9688C13.5664 12.9304 13.6192 12.9304 13.6304 12.9688ZM15.8752 12.9369C15.8866 12.9435 15.8936 12.9557 15.8936 12.9688L15.9888 13.2504H16.284C16.3008 13.2508 16.3155 13.2617 16.3209 13.2776C16.3263 13.2935 16.3211 13.3111 16.308 13.3216L16.068 13.4984L16.1584 13.78C16.164 13.7965 16.1581 13.8147 16.1438 13.8247C16.1296 13.8347 16.1104 13.8341 16.0968 13.8232L15.8568 13.6512L15.6168 13.8232C15.603 13.8329 15.5847 13.8329 15.5709 13.8232C15.5571 13.8136 15.5508 13.7963 15.5552 13.78L15.6456 13.4984L15.4056 13.3216C15.3925 13.3111 15.3874 13.2935 15.3927 13.2776C15.3981 13.2617 15.4128 13.2508 15.4296 13.2504H15.7248L15.82 12.9688C15.82 12.9557 15.827 12.9435 15.8384 12.9369C15.8498 12.9304 15.8638 12.9304 15.8752 12.9369ZM18.129 12.9433C18.1447 12.9429 18.1587 12.9535 18.1624 12.9688L18.2576 13.2504H18.5528C18.5696 13.2508 18.5843 13.2617 18.5897 13.2776C18.5951 13.2935 18.5899 13.3111 18.5768 13.3216L18.3368 13.4984L18.4272 13.78C18.4328 13.7965 18.4269 13.8147 18.4126 13.8247C18.3984 13.8347 18.3792 13.8341 18.3656 13.8232L18.1256 13.6512L17.8856 13.8232C17.8718 13.8329 17.8535 13.8329 17.8397 13.8232C17.8259 13.8136 17.8196 13.7963 17.824 13.78L17.9224 13.5L17.6824 13.3232C17.6693 13.3127 17.6642 13.2951 17.6695 13.2792C17.6749 13.2633 17.6896 13.2524 17.7064 13.252H18.0016L18.0968 12.9704C18.0998 12.9549 18.1132 12.9436 18.129 12.9433Z" fill="#F5F5F5"/>
<path d="M30.5 12.5H9.5C8.94772 12.5 8.5 12.9477 8.5 13.5V26.5C8.5 27.0523 8.94772 27.5 9.5 27.5H30.5C31.0523 27.5 31.5 27.0523 31.5 26.5V13.5C31.5 12.9477 31.0523 12.5 30.5 12.5Z" stroke="black" stroke-opacity="0.04"/>
</g>
</svg>
