<svg width="32" height="32" viewBox="0 0 32 32" fill="none" xmlns="http://www.w3.org/2000/svg">
<mask id="mask0" mask-type="alpha" maskUnits="userSpaceOnUse" x="0" y="4" width="24" height="16">
<path d="M22 4H2C0.89543 4 0 4.89543 0 6V18C0 19.1046 0.89543 20 2 20H22C23.1046 20 24 19.1046 24 18V6C24 4.89543 23.1046 4 22 4Z" fill="white"/>
</mask>
<g mask="url(#mask0)">
<path d="M22 4H2C0.89543 4 0 4.89543 0 6V18C0 19.1046 0.89543 20 2 20H22C23.1046 20 24 19.1046 24 18V6C24 4.89543 23.1046 4 22 4Z" fill="#0D47A1"/>
<path d="M23.9751 5.5372C23.8335 4.67249 23.094 4.01306 22.2026 4.01306H21.7349L14.069 9.1153V4.01306H9.93103V9.11535L2.26509 4.01306H1.79742C0.906 4.01306 0.166547 4.67249 0.0248906 5.53725L6.57698 9.8982H0V14.1018H6.57698L0.0248906 18.4627C0.166547 19.3274 0.906 19.9868 1.79742 19.9868H2.26509L9.93103 14.8846V19.9868H14.069V14.8846L21.7349 19.9868H22.2026C23.094 19.9868 23.8335 19.3274 23.9751 18.4627L17.423 14.1017H24V9.89811H17.423L23.9751 5.5372Z" fill="white"/>
<path d="M13.2414 4.01318V10.7389H24V13.2611H13.2414V19.9869H10.7586V13.2611H0V10.7389H10.7586V4.01318H13.2414ZM9.90825 14.1019L1.16217 19.8692C0.934209 19.7817 0.728507 19.6484 0.555672 19.4805L0.432375 19.3481L8.38819 14.1019H9.90825ZM16.2369 14.1019L23.7639 19.0652C23.651 19.2659 23.5018 19.4427 23.3253 19.5864L23.1879 19.6878L14.7169 14.1019H16.2369ZM0.725391 4.37347L9.10345 9.89823H7.58339L0.189797 5.02266C0.316359 4.76595 0.500437 4.54356 0.725391 4.37347ZM22.8235 4.12514C23.1105 4.23242 23.3626 4.41223 23.5594 4.64228L15.589 9.89823H14.069L22.8235 4.12514Z" fill="#F44336"/>
<path d="M22.5 4.5H1.5C0.947715 4.5 0.5 4.94772 0.5 5.5V18.5C0.5 19.0523 0.947715 19.5 1.5 19.5H22.5C23.0523 19.5 23.5 19.0523 23.5 18.5V5.5C23.5 4.94772 23.0523 4.5 22.5 4.5Z" stroke="black" stroke-opacity="0.04"/>
</g>
<mask id="mask1" mask-type="alpha" maskUnits="userSpaceOnUse" x="8" y="12" width="24" height="16">
<path d="M30 12H10C8.89543 12 8 12.8954 8 14V26C8 27.1046 8.89543 28 10 28H30C31.1046 28 32 27.1046 32 26V14C32 12.8954 31.1046 12 30 12Z" fill="white"/>
</mask>
<g mask="url(#mask1)">
<path d="M30 12H10C8.89543 12 8 12.8954 8 14V26C8 27.1046 8.89543 28 10 28H30C31.1046 28 32 27.1046 32 26V14C32 12.8954 31.1046 12 30 12Z" fill="#0D47A1"/>
<path d="M8.41381 19.9869H9.13259L12.9656 17.4357V19.9869H15.0345V17.4357L18.8675 19.9869H19.5862C19.8147 19.9869 20 19.7986 20 19.5665V19.233L16.7115 17.0443H20V14.9425H16.7115L20 12.7538V12.4204C20 12.1882 19.8147 12 19.5862 12H18.8674L15.0344 14.5511V12H12.9655V14.5511L9.25831 12.0837C8.82547 12.2218 8.46359 12.522 8.24061 12.9139L11.2886 14.9425H8V17.0443H11.2885L8 19.233V19.5665C8 19.7986 8.1852 19.9869 8.41381 19.9869Z" fill="white"/>
<path d="M14.1252 22.2788L14.4375 23.3263L15.4385 22.9213C15.5239 22.8867 15.6015 22.9856 15.5494 23.0625L14.9379 23.9636L15.8737 24.5061C15.9535 24.5524 15.9258 24.6757 15.8341 24.6822L14.7593 24.7585L14.9253 25.8398C14.9394 25.9321 14.8272 25.987 14.7651 25.9182L14.0363 25.1121L13.3074 25.9182C13.2453 25.987 13.1331 25.9321 13.1472 25.8398L13.3132 24.7585L12.2384 24.6822C12.1467 24.6757 12.119 24.5524 12.1988 24.5061L13.1346 23.9636L12.5231 23.0625C12.471 22.9856 12.5486 22.8867 12.634 22.9213L13.635 23.3263L13.9473 22.2788C13.974 22.1894 14.0986 22.1894 14.1252 22.2788ZM26.435 23.8028L26.5876 24.3145L27.0765 24.1166C27.1181 24.0998 27.1561 24.1481 27.1306 24.1856L26.832 24.6259L27.289 24.8909C27.328 24.9135 27.3145 24.9737 27.2697 24.9769L26.7447 25.0141L26.8257 25.5424C26.8327 25.5875 26.7778 25.6143 26.7474 25.5806L26.3914 25.1869L26.0354 25.5806C26.005 25.6142 25.9502 25.5874 25.9571 25.5424L26.0382 25.0141L25.5132 24.9769C25.4684 24.9737 25.4548 24.9135 25.4938 24.8909L25.9509 24.6259L25.6523 24.1856C25.6268 24.1481 25.6647 24.0998 25.7064 24.1166L26.1953 24.3145L26.3479 23.8028C26.3611 23.7592 26.422 23.7592 26.435 23.8028ZM27.6154 19.6779C27.6312 19.6296 27.6985 19.6296 27.7144 19.6779L27.8369 20.0511L28.2241 20.0541C28.2742 20.0546 28.295 20.1195 28.2546 20.1497L27.9431 20.3834L28.0599 20.7584C28.075 20.8069 28.0207 20.8471 27.9799 20.8175L27.6649 20.5888L27.3499 20.8175C27.3091 20.8471 27.2547 20.807 27.2698 20.7584L27.3866 20.3834L27.0752 20.1497C27.0348 20.1195 27.0556 20.0546 27.1058 20.0541L27.4929 20.0511L27.6154 19.6779ZM23.0329 18.7585L23.1855 19.2702L23.6745 19.0724C23.7161 19.0555 23.7541 19.1038 23.7286 19.1414L23.43 19.5816L23.887 19.8466C23.926 19.8692 23.9125 19.9295 23.8677 19.9326L23.3427 19.9698L23.4238 20.4981C23.4307 20.5432 23.3759 20.57 23.3455 20.5364L22.9895 20.1426L22.6335 20.5364C22.6031 20.5699 22.5483 20.5431 22.5552 20.4981L22.6363 19.9698L22.1113 19.9326C22.0665 19.9294 22.0529 19.8692 22.0919 19.8466L22.549 19.5816L22.2503 19.1414C22.2248 19.1038 22.2628 19.0555 22.3045 19.0724L22.7934 19.2702L22.946 18.7585C22.959 18.7148 23.0199 18.7148 23.0329 18.7585ZM29.6536 17.077L29.8062 17.5887L30.2951 17.3909C30.3368 17.374 30.3748 17.4223 30.3493 17.4599L30.0506 17.9001L30.5077 18.1651C30.5467 18.1877 30.5332 18.248 30.4883 18.2511L29.9633 18.2884L30.0444 18.8166C30.0514 18.8617 29.9965 18.8885 29.9662 18.8549L29.6101 18.4611L29.2541 18.8549C29.2238 18.8885 29.169 18.8616 29.1759 18.8166L29.257 18.2884L28.732 18.2511C28.6872 18.2479 28.6736 18.1877 28.7126 18.1651L29.1697 17.9001L28.8711 17.4599C28.8456 17.4223 28.8835 17.374 28.9252 17.3909L29.4142 17.5887L29.5667 17.077C29.5797 17.0334 29.6406 17.0334 29.6536 17.077ZM26.435 14.8311L26.5876 15.3428L27.0765 15.145C27.1181 15.1281 27.1561 15.1764 27.1306 15.214L26.832 15.6542L27.289 15.9192C27.328 15.9418 27.3145 16.0021 27.2697 16.0052L26.7447 16.0425L26.8257 16.5707C26.8327 16.6158 26.7778 16.6426 26.7474 16.609L26.3914 16.2152L26.0354 16.609C26.005 16.6426 25.9502 16.6157 25.9571 16.5707L26.0382 16.0425L25.5132 16.0052C25.4684 16.002 25.4548 15.9418 25.4938 15.9192L25.9509 15.6542L25.6523 15.214C25.6268 15.1764 25.6647 15.1281 25.7064 15.145L26.1953 15.3428L26.3479 14.8311C26.3611 14.7874 26.422 14.7874 26.435 14.8311Z" fill="white"/>
<path d="M14.6207 12V15.3629H20V16.624H14.6207V19.9869H13.3793V16.624H8V15.3629H13.3793V12H14.6207ZM12.9542 17.0443L8.49186 19.9869H8.41381C8.29059 19.9869 8.18338 19.9297 8.10893 19.842L8.05948 19.7708L12.1941 17.0443H12.9542ZM16.1185 17.0444L19.9934 19.5995C19.981 19.7537 19.8906 19.8839 19.7588 19.946L15.3584 17.0444H16.1185ZM8.6847 12.3925L12.5517 14.9425H11.7917L8.38564 12.6965C8.4733 12.5836 8.57366 12.4816 8.6847 12.3925ZM19.5862 12C19.7077 12 19.8132 12.0557 19.8875 12.1414L19.937 12.2108L15.7945 14.9425H15.0345L19.4967 12H19.5862Z" fill="#F44336"/>
<path d="M30.5 12.5H9.5C8.94772 12.5 8.5 12.9477 8.5 13.5V26.5C8.5 27.0523 8.94772 27.5 9.5 27.5H30.5C31.0523 27.5 31.5 27.0523 31.5 26.5V13.5C31.5 12.9477 31.0523 12.5 30.5 12.5Z" stroke="black" stroke-opacity="0.04"/>
</g>
</svg>
