<svg width="32" height="32" viewBox="0 0 32 32" fill="none" xmlns="http://www.w3.org/2000/svg">
<mask id="mask0" mask-type="alpha" maskUnits="userSpaceOnUse" x="0" y="4" width="24" height="16">
<path d="M22 4H2C0.89543 4 0 4.89543 0 6V18C0 19.1046 0.89543 20 2 20H22C23.1046 20 24 19.1046 24 18V6C24 4.89543 23.1046 4 22 4Z" fill="white"/>
</mask>
<g mask="url(#mask0)">
<path d="M22 4H2C0.89543 4 0 4.89543 0 6V18C0 19.1046 0.89543 20 2 20H22C23.1046 20 24 19.1046 24 18V6C24 4.89543 23.1046 4 22 4Z" fill="#0D47A1"/>
<path d="M23.9751 5.5372C23.8335 4.67249 23.094 4.01306 22.2026 4.01306H21.7349L14.069 9.1153V4.01306H9.93103V9.11535L2.26509 4.01306H1.79742C0.906 4.01306 0.166547 4.67249 0.0248906 5.53725L6.57698 9.8982H0V14.1018H6.57698L0.0248906 18.4627C0.166547 19.3274 0.906 19.9868 1.79742 19.9868H2.26509L9.93103 14.8846V19.9868H14.069V14.8846L21.7349 19.9868H22.2026C23.094 19.9868 23.8335 19.3274 23.9751 18.4627L17.423 14.1017H24V9.89811H17.423L23.9751 5.5372Z" fill="white"/>
<path d="M13.2414 4.01318V10.7389H24V13.2611H13.2414V19.9869H10.7586V13.2611H0V10.7389H10.7586V4.01318H13.2414ZM9.90825 14.1019L1.16217 19.8692C0.934209 19.7817 0.728507 19.6484 0.555672 19.4805L0.432375 19.3481L8.38819 14.1019H9.90825ZM16.2369 14.1019L23.7639 19.0652C23.651 19.2659 23.5018 19.4427 23.3253 19.5864L23.1879 19.6878L14.7169 14.1019H16.2369ZM0.725391 4.37347L9.10345 9.89823H7.58339L0.189797 5.02266C0.316359 4.76595 0.500437 4.54356 0.725391 4.37347ZM22.8235 4.12514C23.1105 4.23242 23.3626 4.41223 23.5594 4.64228L15.589 9.89823H14.069L22.8235 4.12514Z" fill="#F44336"/>
<path d="M22.5 4.5H1.5C0.947715 4.5 0.5 4.94772 0.5 5.5V18.5C0.5 19.0523 0.947715 19.5 1.5 19.5H22.5C23.0523 19.5 23.5 19.0523 23.5 18.5V5.5C23.5 4.94772 23.0523 4.5 22.5 4.5Z" stroke="black" stroke-opacity="0.04"/>
</g>
<path d="M30.2026 12H9.79742C8.8047 12 8 12.8188 8 13.8289V26.1711C8 27.1811 8.8047 28 9.79742 28H30.2026C31.1952 28 32 27.1812 32 26.1711V13.8289C32 12.8188 31.1953 12 30.2026 12Z" fill="white"/>
<path d="M20 24.6313C22.5137 24.6313 24.5516 22.5578 24.5516 19.9999C24.5516 17.4421 22.5137 15.3685 20 15.3685C17.4862 15.3685 15.4484 17.4421 15.4484 19.9999C15.4484 22.5578 17.4862 24.6313 20 24.6313Z" fill="#ED293F"/>
<path d="M30.5 12.4877H9.5C8.94772 12.4877 8.5 12.9361 8.5 13.4893V26.5106C8.5 27.0638 8.94772 27.5123 9.5 27.5123H30.5C31.0523 27.5123 31.5 27.0638 31.5 26.5106V13.4893C31.5 12.9361 31.0523 12.4877 30.5 12.4877Z" stroke="black" stroke-opacity="0.04"/>
</svg>
