<svg width="32" height="32" viewBox="0 0 32 32" fill="none" xmlns="http://www.w3.org/2000/svg">
<mask id="mask0" mask-type="alpha" maskUnits="userSpaceOnUse" x="0" y="4" width="24" height="16">
<path d="M22 4H2C0.89543 4 0 4.89543 0 6V18C0 19.1046 0.89543 20 2 20H22C23.1046 20 24 19.1046 24 18V6C24 4.89543 23.1046 4 22 4Z" fill="white"/>
</mask>
<g mask="url(#mask0)">
<path d="M22 4H2C0.89543 4 0 4.89543 0 6V18C0 19.1046 0.89543 20 2 20H22C23.1046 20 24 19.1046 24 18V6C24 4.89543 23.1046 4 22 4Z" fill="#0D47A1"/>
<path d="M23.9751 5.53733C23.8335 4.67261 23.094 4.01318 22.2026 4.01318H21.7349L14.069 9.11542V4.01318H9.93103V9.11547L2.26509 4.01318H1.79742C0.906 4.01318 0.166547 4.67261 0.0248906 5.53737L6.57698 9.89833H0V14.1019H6.57698L0.0248906 18.4628C0.166547 19.3275 0.906 19.9869 1.79742 19.9869H2.26509L9.93103 14.8847V19.9869H14.069V14.8847L21.7349 19.9869H22.2026C23.094 19.9869 23.8335 19.3276 23.9751 18.4628L17.423 14.1019H24V9.89823H17.423L23.9751 5.53733Z" fill="white"/>
<path d="M13.2414 4.01318V10.7389H24V13.2611H13.2414V19.9869H10.7586V13.2611H0V10.7389H10.7586V4.01318H13.2414ZM9.90825 14.1019L1.16217 19.8692C0.934209 19.7817 0.728507 19.6484 0.555672 19.4805L0.432375 19.3481L8.38819 14.1019H9.90825ZM16.2369 14.1019L23.7639 19.0652C23.651 19.2659 23.5018 19.4427 23.3253 19.5864L23.1879 19.6878L14.7169 14.1019H16.2369ZM0.725391 4.37347L9.10345 9.89823H7.58339L0.189797 5.02266C0.316359 4.76595 0.500437 4.54356 0.725391 4.37347ZM22.8235 4.12514C23.1105 4.23242 23.3626 4.41223 23.5594 4.64228L15.589 9.89823H14.069L22.8235 4.12514Z" fill="#F44336"/>
<path d="M22.5 4.5H1.5C0.947715 4.5 0.5 4.94772 0.5 5.5V18.5C0.5 19.0523 0.947715 19.5 1.5 19.5H22.5C23.0523 19.5 23.5 19.0523 23.5 18.5V5.5C23.5 4.94772 23.0523 4.5 22.5 4.5Z" stroke="black" stroke-opacity="0.04"/>
</g>
<path d="M30 12H10C8.89543 12 8 12.8954 8 14V26C8 27.1046 8.89543 28 10 28H30C31.1046 28 32 27.1046 32 26V14C32 12.8954 31.1046 12 30 12Z" fill="#F44336"/>
<path d="M24.5517 18.3185H21.6551V15.3759C21.6551 15.1438 21.4698 14.9556 21.2413 14.9556H18.7585C18.53 14.9556 18.3447 15.1438 18.3447 15.3759V18.3185H15.4482C15.2197 18.3185 15.0344 18.5067 15.0344 18.7389V21.261C15.0344 21.4932 15.2197 21.6814 15.4482 21.6814H18.3447V24.6239C18.3447 24.8561 18.53 25.0443 18.7585 25.0443H21.2413C21.4698 25.0443 21.6551 24.8561 21.6551 24.6239V21.6813H24.5517C24.7802 21.6813 24.9655 21.4931 24.9655 21.2609V18.7388C24.9655 18.5067 24.7802 18.3185 24.5517 18.3185Z" fill="white"/>
<path d="M30.5 12.5H9.5C8.94772 12.5 8.5 12.9477 8.5 13.5V26.5C8.5 27.0523 8.94772 27.5 9.5 27.5H30.5C31.0523 27.5 31.5 27.0523 31.5 26.5V13.5C31.5 12.9477 31.0523 12.5 30.5 12.5Z" stroke="black" stroke-opacity="0.04"/>
</svg>
