<svg width="32" height="32" viewBox="0 0 32 32" fill="none" xmlns="http://www.w3.org/2000/svg">
<mask id="mask0" mask-type="alpha" maskUnits="userSpaceOnUse" x="0" y="4" width="24" height="16">
<path d="M22 4H2C0.89543 4 0 4.89543 0 6V18C0 19.1046 0.89543 20 2 20H22C23.1046 20 24 19.1046 24 18V6C24 4.89543 23.1046 4 22 4Z" fill="white"/>
</mask>
<g mask="url(#mask0)">
<path d="M22 4H2C0.89543 4 0 4.89543 0 6V18C0 19.1046 0.89543 20 2 20H22C23.1046 20 24 19.1046 24 18V6C24 4.89543 23.1046 4 22 4Z" fill="#0D47A1"/>
<path d="M23.9751 5.53733C23.8335 4.67261 23.094 4.01318 22.2026 4.01318H21.7349L14.069 9.11542V4.01318H9.93103V9.11547L2.26509 4.01318H1.79742C0.906 4.01318 0.166547 4.67261 0.0248906 5.53737L6.57698 9.89833H0V14.1019H6.57698L0.0248906 18.4628C0.166547 19.3275 0.906 19.9869 1.79742 19.9869H2.26509L9.93103 14.8847V19.9869H14.069V14.8847L21.7349 19.9869H22.2026C23.094 19.9869 23.8335 19.3276 23.9751 18.4628L17.423 14.1019H24V9.89823H17.423L23.9751 5.53733Z" fill="white"/>
<path d="M13.2414 4.01318V10.7389H24V13.2611H13.2414V19.9869H10.7586V13.2611H0V10.7389H10.7586V4.01318H13.2414ZM9.90825 14.1019L1.16217 19.8692C0.934209 19.7817 0.728507 19.6484 0.555672 19.4805L0.432375 19.3481L8.38819 14.1019H9.90825ZM16.2369 14.1019L23.7639 19.0652C23.651 19.2659 23.5018 19.4427 23.3253 19.5864L23.1879 19.6878L14.7169 14.1019H16.2369ZM0.725391 4.37347L9.10345 9.89823H7.58339L0.189797 5.02266C0.316359 4.76595 0.500437 4.54356 0.725391 4.37347ZM22.8235 4.12514C23.1105 4.23242 23.3626 4.41223 23.5594 4.64228L15.589 9.89823H14.069L22.8235 4.12514Z" fill="#F44336"/>
<path d="M22.5 4.5H1.5C0.947715 4.5 0.5 4.94772 0.5 5.5V18.5C0.5 19.0523 0.947715 19.5 1.5 19.5H22.5C23.0523 19.5 23.5 19.0523 23.5 18.5V5.5C23.5 4.94772 23.0523 4.5 22.5 4.5Z" stroke="black" stroke-opacity="0.04"/>
</g>
<path d="M26 12H14V28H26V12Z" fill="white"/>
<path d="M26 12H30C31.1046 12 32 12.8954 32 14V26C32 27.1046 31.1046 28 30 28H26V12Z" fill="#F44336"/>
<path d="M10 12H14V28H10C8.89543 28 8 27.1046 8 26V14C8 12.8954 8.89543 12 10 12Z" fill="#F44336"/>
<path d="M20.0011 15.0593V15.0612L20.6732 16.3408C20.764 16.514 20.9609 16.6002 21.1473 16.5484L21.7855 16.3711L21.3687 18.8334C21.3334 19.0419 21.5912 19.1648 21.7265 19.0039L22.7026 17.8435L22.8021 18.3006C22.8538 18.5378 23.0921 18.6813 23.3217 18.6134L24.3613 18.3062L24.178 19.7025C24.1546 19.8804 24.245 20.0538 24.403 20.134L24.9665 20.4202L22.511 21.8456C22.2567 21.9932 22.1453 22.3064 22.2478 22.5851L22.4577 23.1555L20.3527 22.9729C20.2363 22.9628 20.1372 23.058 20.1406 23.1767L20.207 25.4646H19.7932L19.8595 23.1768C19.8629 23.0581 19.7638 22.9629 19.6473 22.973L17.5434 23.1555L17.7533 22.5851C17.8559 22.3064 17.7444 21.9933 17.4901 21.8456L15.0346 20.4202L15.598 20.1341C15.7561 20.0538 15.8465 19.8804 15.8231 19.7025L15.6398 18.3062L16.6794 18.6135C16.909 18.6813 17.1473 18.5379 17.199 18.3007L17.2985 17.8435L18.2746 19.004C18.4099 19.1648 18.6677 19.0419 18.6325 18.8334L18.2156 16.3711L18.8538 16.5484C19.0402 16.6002 19.2371 16.514 19.3281 16.3408L20.0001 15.0612L20.0006 15.0603L20.0011 15.0593Z" fill="#F44336"/>
<path d="M30.5 12.5H9.5C8.94772 12.5 8.5 12.9477 8.5 13.5V26.5C8.5 27.0523 8.94772 27.5 9.5 27.5H30.5C31.0523 27.5 31.5 27.0523 31.5 26.5V13.5C31.5 12.9477 31.0523 12.5 30.5 12.5Z" stroke="black" stroke-opacity="0.04"/>
</svg>
