<svg width="32" height="32" viewBox="0 0 32 32" fill="none" xmlns="http://www.w3.org/2000/svg">
<mask id="mask0" mask-type="alpha" maskUnits="userSpaceOnUse" x="0" y="4" width="24" height="16">
<path d="M22 4H2C0.89543 4 0 4.89543 0 6V18C0 19.1046 0.89543 20 2 20H22C23.1046 20 24 19.1046 24 18V6C24 4.89543 23.1046 4 22 4Z" fill="white"/>
</mask>
<g mask="url(#mask0)">
<path d="M22 4H2C0.89543 4 0 4.89543 0 6V18C0 19.1046 0.89543 20 2 20H22C23.1046 20 24 19.1046 24 18V6C24 4.89543 23.1046 4 22 4Z" fill="#0D47A1"/>
<path d="M23.9751 5.53733C23.8335 4.67261 23.094 4.01318 22.2026 4.01318H21.7349L14.069 9.11542V4.01318H9.93103V9.11547L2.26509 4.01318H1.79742C0.906 4.01318 0.166547 4.67261 0.0248906 5.53737L6.57698 9.89833H0V14.1019H6.57698L0.0248906 18.4628C0.166547 19.3275 0.906 19.9869 1.79742 19.9869H2.26509L9.93103 14.8847V19.9869H14.069V14.8847L21.7349 19.9869H22.2026C23.094 19.9869 23.8335 19.3276 23.9751 18.4628L17.423 14.1019H24V9.89823H17.423L23.9751 5.53733Z" fill="white"/>
<path d="M13.2414 4.01318V10.7389H24V13.2611H13.2414V19.9869H10.7586V13.2611H0V10.7389H10.7586V4.01318H13.2414ZM9.90825 14.1019L1.16217 19.8692C0.934209 19.7817 0.728507 19.6484 0.555672 19.4805L0.432375 19.3481L8.38819 14.1019H9.90825ZM16.2369 14.1019L23.7639 19.0652C23.651 19.2659 23.5018 19.4427 23.3253 19.5864L23.1879 19.6878L14.7169 14.1019H16.2369ZM0.725391 4.37347L9.10345 9.89823H7.58339L0.189797 5.02266C0.316359 4.76595 0.500437 4.54356 0.725391 4.37347ZM22.8235 4.12514C23.1105 4.23242 23.3626 4.41223 23.5594 4.64228L15.589 9.89823H14.069L22.8235 4.12514Z" fill="#F44336"/>
<path d="M22.5 4.5H1.5C0.947715 4.5 0.5 4.94772 0.5 5.5V18.5C0.5 19.0523 0.947715 19.5 1.5 19.5H22.5C23.0523 19.5 23.5 19.0523 23.5 18.5V5.5C23.5 4.94772 23.0523 4.5 22.5 4.5Z" stroke="black" stroke-opacity="0.04"/>
</g>
<path d="M30 12H10C8.89543 12 8 12.8954 8 14V26C8 27.1046 8.89543 28 10 28H30C31.1046 28 32 27.1046 32 26V14C32 12.8954 31.1046 12 30 12Z" fill="#0D47A1"/>
<path d="M8.41381 20H9.13259L12.9656 17.4489V20H15.0345V17.4489L18.8675 20H19.5862C19.8148 20 20 19.8118 20 19.5797V19.2462L16.7115 17.0575H20V14.9557H16.7115L20 12.767V12.4336C20 12.2014 19.8148 12.0132 19.5862 12.0132H18.8674L15.0344 14.5643V12.0132H12.9655V14.5643L9.25831 12.0969C8.82547 12.235 8.46359 12.5351 8.24061 12.9271L11.2886 14.9557H8V17.0575H11.2885L8 19.2462V19.5797C8 19.8118 8.1853 20 8.41381 20Z" fill="white"/>
<path d="M14.6207 12.0132V15.3761H20V16.6371H14.6207V20H13.3793V16.6371H8V15.3761H13.3793V12.0132H14.6207ZM12.9542 17.0575L8.49186 20H8.41381C8.29062 20 8.1834 19.9429 8.10893 19.8551L8.05948 19.784L12.1941 17.0575H12.9542ZM16.1185 17.0575L19.9934 19.6127C19.981 19.7668 19.8906 19.897 19.7588 19.9592L15.3584 17.0575H16.1185ZM8.6847 12.4057L12.5517 14.9557H11.7917L8.38564 12.7097C8.4733 12.5968 8.57366 12.4948 8.6847 12.4057ZM19.5862 12.0132C19.7077 12.0132 19.8132 12.0689 19.8875 12.1545L19.937 12.224L15.7945 14.9557H15.0345L19.4967 12.0132H19.5862Z" fill="#F44336"/>
<path d="M26.0001 23.489C26.0357 23.489 26.0674 23.5124 26.0787 23.5465L26.2691 24.1265L26.871 24.1315C26.9068 24.1319 26.9381 24.1553 26.9492 24.1898C26.9601 24.2242 26.9481 24.2616 26.9195 24.2833L26.4354 24.6462L26.6171 25.2292C26.6278 25.2636 26.6155 25.3014 26.5867 25.3227C26.572 25.3334 26.5549 25.3388 26.5378 25.3388C26.5211 25.3388 26.5041 25.3334 26.4898 25.3232L26 24.9676L25.5102 25.3232C25.4959 25.3334 25.4789 25.3388 25.4621 25.3388C25.445 25.3388 25.428 25.3334 25.4135 25.3227C25.3848 25.3014 25.3724 25.2636 25.3831 25.2292L25.5648 24.6462L25.0807 24.2833C25.052 24.2616 25.0401 24.2242 25.051 24.1898C25.0621 24.1553 25.0934 24.1319 25.1292 24.1315L25.7311 24.1265L25.9215 23.5465C25.9328 23.5124 25.9645 23.489 26.0001 23.489ZM23.1036 19.6544C23.1392 19.6544 23.1709 19.6778 23.1822 19.7119L23.3726 20.2919L23.9745 20.2964C24.0101 20.2969 24.0416 20.3202 24.0527 20.3547C24.0636 20.3888 24.0516 20.4265 24.023 20.4483L23.5389 20.8116L23.7206 21.3945C23.7313 21.429 23.719 21.4668 23.6902 21.4881C23.6755 21.4988 23.6583 21.5042 23.6413 21.5042C23.6243 21.5042 23.6076 21.4988 23.5932 21.4885L23.1035 21.1326L22.6137 21.4885C22.5994 21.4988 22.5824 21.5042 22.5656 21.5042C22.5486 21.5042 22.5315 21.4988 22.517 21.4881C22.4883 21.4668 22.4759 21.429 22.4866 21.3945L22.6683 20.8116L22.1842 20.4483C22.1555 20.4265 22.1436 20.3888 22.1545 20.3547C22.1656 20.3202 22.1971 20.2968 22.2327 20.2964L22.8346 20.2919L23.025 19.7119C23.0363 19.6778 23.068 19.6544 23.1036 19.6544ZM28.8967 18.8137C28.9323 18.8137 28.964 18.8371 28.9753 18.8712L29.1657 19.4512L29.7676 19.4557C29.8032 19.4562 29.8347 19.4795 29.8458 19.514C29.8567 19.5481 29.8447 19.5858 29.8161 19.6076L29.332 19.9709L29.5137 20.5538C29.5243 20.5883 29.5121 20.6261 29.4833 20.6474C29.4686 20.6581 29.4514 20.6634 29.4344 20.6634C29.4174 20.6634 29.4007 20.6581 29.3863 20.6478L28.8966 20.2919L28.4068 20.6478C28.3925 20.6581 28.3755 20.6634 28.3587 20.6634C28.3417 20.6634 28.3246 20.6581 28.3101 20.6474C28.2814 20.6261 28.269 20.5883 28.2797 20.5538L28.4614 19.9709L27.9773 19.6076C27.9486 19.5858 27.9367 19.5481 27.9476 19.514C27.9587 19.4795 27.9902 19.4561 28.0258 19.4557L28.6277 19.4512L28.8181 18.8712C28.8294 18.8371 28.8611 18.8137 28.8967 18.8137ZM26.0001 16.7119C26.0357 16.7119 26.0674 16.7353 26.0787 16.7694L26.2691 17.3494L26.871 17.354C26.9066 17.3544 26.9381 17.3778 26.9492 17.4122C26.9601 17.4463 26.9481 17.4841 26.9195 17.5058L26.4354 17.8691L26.6171 18.4521C26.6278 18.4865 26.6155 18.5243 26.5867 18.5456C26.572 18.5563 26.5549 18.5616 26.5378 18.5616C26.5209 18.5616 26.5041 18.5562 26.4898 18.546L26 18.1902L25.5102 18.5461C25.4959 18.5563 25.4789 18.5617 25.4621 18.5617C25.4451 18.5617 25.428 18.5563 25.4135 18.5456C25.3848 18.5243 25.3724 18.4865 25.3831 18.4521L25.5648 17.8691L25.0807 17.5058C25.052 17.4841 25.0401 17.4463 25.051 17.4122C25.0621 17.3778 25.0936 17.3543 25.1292 17.354L25.7311 17.3494L25.9215 16.7694C25.9328 16.7353 25.9645 16.7119 26.0001 16.7119Z" fill="#F44336" stroke="white" stroke-width="0.2"/>
<path d="M30.5 12.5H9.5C8.94772 12.5 8.5 12.9477 8.5 13.5V26.5C8.5 27.0523 8.94772 27.5 9.5 27.5H30.5C31.0523 27.5 31.5 27.0523 31.5 26.5V13.5C31.5 12.9477 31.0523 12.5 30.5 12.5Z" stroke="black" stroke-opacity="0.04"/>
</svg>
