<svg width="32" height="32" viewBox="0 0 32 32" fill="none" xmlns="http://www.w3.org/2000/svg">
<path d="M22 4H2C0.89543 4 0 4.89543 0 6V18C0 19.1046 0.89543 20 2 20H22C23.1046 20 24 19.1046 24 18V6C24 4.89543 23.1046 4 22 4Z" fill="#0D47A1"/>
<path d="M0.413812 12H1.13259L4.96556 9.4489V12H7.03453V9.4489L10.8675 12H11.5862C11.8148 12 12 11.8118 12 11.5797V11.2462L8.71153 9.05752H12V6.95571H8.71148L12 4.76699V4.43356C12 4.20142 11.8148 4.01318 11.5862 4.01318H10.8674L7.03444 6.56433V4.01318H4.96547V6.56433L1.25831 4.0969C0.825469 4.23499 0.463594 4.53514 0.240609 4.92709L3.28856 6.95571H0V9.05752H3.28852L0 11.2462V11.5797C0 11.8118 0.185297 12 0.413812 12Z" fill="white"/>
<path d="M6.62067 4.01318V7.37609H12V8.63714H6.62067V12H5.37933V8.63714H0V7.37609H5.37933V4.01318H6.62067ZM4.95417 9.05752L0.491859 12H0.413812C0.290625 12 0.183398 11.9429 0.10893 11.8551L0.0594844 11.784L4.19409 9.05752H4.95417ZM8.11847 9.05752L11.9934 11.6127C11.981 11.7668 11.8906 11.897 11.7588 11.9592L7.35844 9.05752H8.11847ZM0.684703 4.40571L4.5517 6.95571H3.79167L0.385641 4.70966C0.473297 4.5968 0.573656 4.49476 0.684703 4.40571ZM11.5862 4.01318C11.7077 4.01318 11.8132 4.06889 11.8875 4.15454L11.937 4.22399L7.79452 6.95571H7.03448L11.4967 4.01318H11.5862Z" fill="#F44336"/>
<path d="M18.0001 15.489C18.0357 15.489 18.0674 15.5124 18.0787 15.5465L18.2691 16.1265L18.871 16.1315C18.9068 16.1319 18.9381 16.1553 18.9492 16.1898C18.9601 16.2242 18.9481 16.2616 18.9195 16.2833L18.4354 16.6462L18.6171 17.2292C18.6278 17.2636 18.6155 17.3014 18.5867 17.3227C18.572 17.3334 18.5549 17.3388 18.5378 17.3388C18.5211 17.3388 18.5041 17.3334 18.4898 17.3232L18 16.9676L17.5102 17.3232C17.4959 17.3334 17.4789 17.3388 17.4621 17.3388C17.445 17.3388 17.428 17.3334 17.4135 17.3227C17.3848 17.3014 17.3724 17.2636 17.3831 17.2292L17.5648 16.6462L17.0807 16.2833C17.052 16.2616 17.0401 16.2242 17.051 16.1898C17.0621 16.1553 17.0934 16.1319 17.1292 16.1315L17.7311 16.1265L17.9215 15.5465C17.9328 15.5124 17.9645 15.489 18.0001 15.489ZM15.1036 11.6544C15.1392 11.6544 15.1709 11.6778 15.1822 11.7119L15.3726 12.2919L15.9745 12.2964C16.0101 12.2969 16.0416 12.3202 16.0527 12.3547C16.0636 12.3888 16.0516 12.4265 16.023 12.4483L15.5389 12.8116L15.7206 13.3945C15.7313 13.429 15.719 13.4668 15.6902 13.4881C15.6755 13.4988 15.6583 13.5042 15.6413 13.5042C15.6243 13.5042 15.6076 13.4988 15.5932 13.4885L15.1035 13.1326L14.6137 13.4885C14.5994 13.4988 14.5824 13.5042 14.5656 13.5042C14.5486 13.5042 14.5315 13.4988 14.517 13.4881C14.4883 13.4668 14.4759 13.429 14.4866 13.3945L14.6683 12.8116L14.1842 12.4483C14.1555 12.4265 14.1436 12.3888 14.1545 12.3547C14.1656 12.3202 14.1971 12.2968 14.2327 12.2964L14.8346 12.2919L15.025 11.7119C15.0363 11.6778 15.068 11.6544 15.1036 11.6544ZM20.8967 10.8137C20.9323 10.8137 20.964 10.8371 20.9753 10.8712L21.1657 11.4512L21.7676 11.4557C21.8032 11.4562 21.8347 11.4795 21.8458 11.514C21.8567 11.5481 21.8447 11.5858 21.8161 11.6076L21.332 11.9709L21.5137 12.5538C21.5243 12.5883 21.5121 12.6261 21.4833 12.6474C21.4686 12.6581 21.4514 12.6634 21.4344 12.6634C21.4174 12.6634 21.4007 12.6581 21.3863 12.6478L20.8966 12.2919L20.4068 12.6478C20.3925 12.6581 20.3755 12.6634 20.3587 12.6634C20.3417 12.6634 20.3246 12.6581 20.3101 12.6474C20.2814 12.6261 20.269 12.5883 20.2797 12.5538L20.4614 11.9709L19.9773 11.6076C19.9486 11.5858 19.9367 11.5481 19.9476 11.514C19.9587 11.4795 19.9902 11.4561 20.0258 11.4557L20.6277 11.4512L20.8181 10.8712C20.8294 10.8371 20.8611 10.8137 20.8967 10.8137ZM18.0001 8.71191C18.0357 8.71191 18.0674 8.73529 18.0787 8.76939L18.2691 9.34944L18.871 9.35396C18.9066 9.35439 18.9381 9.37777 18.9492 9.41225C18.9601 9.44629 18.9481 9.48406 18.9195 9.50582L18.4354 9.8691L18.6171 10.4521C18.6278 10.4865 18.6155 10.5243 18.5867 10.5456C18.572 10.5563 18.5549 10.5616 18.5378 10.5616C18.5209 10.5616 18.5041 10.5562 18.4898 10.546L18 10.1902L17.5102 10.5461C17.4959 10.5563 17.4789 10.5617 17.4621 10.5617C17.4451 10.5617 17.428 10.5563 17.4135 10.5456C17.3848 10.5243 17.3724 10.4865 17.3831 10.4521L17.5648 9.8691L17.0807 9.50582C17.052 9.48406 17.0401 9.44629 17.051 9.41225C17.0621 9.37777 17.0936 9.35434 17.1292 9.35396L17.7311 9.34944L17.9215 8.76939C17.9328 8.73534 17.9645 8.71191 18.0001 8.71191Z" fill="#F44336" stroke="white" stroke-width="0.2"/>
<path d="M22.5 4.5H1.5C0.947715 4.5 0.5 4.94772 0.5 5.5V18.5C0.5 19.0523 0.947715 19.5 1.5 19.5H22.5C23.0523 19.5 23.5 19.0523 23.5 18.5V5.5C23.5 4.94772 23.0523 4.5 22.5 4.5Z" stroke="black" stroke-opacity="0.04"/>
<path d="M30.2026 12H9.79742C8.8047 12 8 12.8188 8 13.8289V26.1711C8 27.1811 8.8047 28 9.79742 28H30.2026C31.1952 28 32 27.1812 32 26.1711V13.8289C32 12.8188 31.1953 12 30.2026 12Z" fill="white"/>
<path d="M20 24.6314C22.5137 24.6314 24.5516 22.5579 24.5516 20C24.5516 17.4422 22.5137 15.3687 20 15.3687C17.4862 15.3687 15.4484 17.4422 15.4484 20C15.4484 22.5579 17.4862 24.6314 20 24.6314Z" fill="#ED293F"/>
<path d="M30.5 12.4878H9.5C8.94772 12.4878 8.5 12.9362 8.5 13.4894V26.5107C8.5 27.0639 8.94772 27.5124 9.5 27.5124H30.5C31.0523 27.5124 31.5 27.0639 31.5 26.5107V13.4894C31.5 12.9362 31.0523 12.4878 30.5 12.4878Z" stroke="black" stroke-opacity="0.04"/>
</svg>
