<svg width="32" height="32" viewBox="0 0 32 32" fill="none" xmlns="http://www.w3.org/2000/svg">
<path d="M22 4H2C0.89543 4 0 4.89543 0 6V18C0 19.1046 0.89543 20 2 20H22C23.1046 20 24 19.1046 24 18V6C24 4.89543 23.1046 4 22 4Z" fill="#0D47A1"/>
<path d="M0.413812 12H1.13259L4.96556 9.4489V12H7.03453V9.4489L10.8675 12H11.5862C11.8148 12 12 11.8118 12 11.5797V11.2462L8.71153 9.05752H12V6.95571H8.71148L12 4.76699V4.43356C12 4.20142 11.8148 4.01318 11.5862 4.01318H10.8674L7.03444 6.56433V4.01318H4.96547V6.56433L1.25831 4.0969C0.825469 4.23499 0.463594 4.53514 0.240609 4.92709L3.28856 6.95571H0V9.05752H3.28852L0 11.2462V11.5797C0 11.8118 0.185297 12 0.413812 12Z" fill="white"/>
<path d="M6.62067 4.01318V7.37609H12V8.63714H6.62067V12H5.37933V8.63714H0V7.37609H5.37933V4.01318H6.62067ZM4.95417 9.05752L0.491859 12H0.413812C0.290625 12 0.183398 11.9429 0.10893 11.8551L0.0594844 11.784L4.19409 9.05752H4.95417ZM8.11847 9.05752L11.9934 11.6127C11.981 11.7668 11.8906 11.897 11.7588 11.9592L7.35844 9.05752H8.11847ZM0.684703 4.40571L4.5517 6.95571H3.79167L0.385641 4.70966C0.473297 4.5968 0.573656 4.49476 0.684703 4.40571ZM11.5862 4.01318C11.7077 4.01318 11.8132 4.06889 11.8875 4.15454L11.937 4.22399L7.79452 6.95571H7.03448L11.4967 4.01318H11.5862Z" fill="#F44336"/>
<path d="M18.0001 15.489C18.0357 15.489 18.0674 15.5124 18.0787 15.5465L18.2691 16.1265L18.871 16.1315C18.9068 16.1319 18.9381 16.1553 18.9492 16.1898C18.9601 16.2242 18.9481 16.2616 18.9195 16.2833L18.4354 16.6462L18.6171 17.2292C18.6278 17.2636 18.6155 17.3014 18.5867 17.3227C18.572 17.3334 18.5549 17.3388 18.5378 17.3388C18.5211 17.3388 18.5041 17.3334 18.4898 17.3232L18 16.9676L17.5102 17.3232C17.4959 17.3334 17.4789 17.3388 17.4621 17.3388C17.445 17.3388 17.428 17.3334 17.4135 17.3227C17.3848 17.3014 17.3724 17.2636 17.3831 17.2292L17.5648 16.6462L17.0807 16.2833C17.052 16.2616 17.0401 16.2242 17.051 16.1898C17.0621 16.1553 17.0934 16.1319 17.1292 16.1315L17.7311 16.1265L17.9215 15.5465C17.9328 15.5124 17.9645 15.489 18.0001 15.489ZM15.1036 11.6544C15.1392 11.6544 15.1709 11.6778 15.1822 11.7119L15.3726 12.2919L15.9745 12.2964C16.0101 12.2969 16.0416 12.3202 16.0527 12.3547C16.0636 12.3888 16.0516 12.4265 16.023 12.4483L15.5389 12.8116L15.7206 13.3945C15.7313 13.429 15.719 13.4668 15.6902 13.4881C15.6755 13.4988 15.6583 13.5042 15.6413 13.5042C15.6243 13.5042 15.6076 13.4988 15.5932 13.4885L15.1035 13.1326L14.6137 13.4885C14.5994 13.4988 14.5824 13.5042 14.5656 13.5042C14.5486 13.5042 14.5315 13.4988 14.517 13.4881C14.4883 13.4668 14.4759 13.429 14.4866 13.3945L14.6683 12.8116L14.1842 12.4483C14.1555 12.4265 14.1436 12.3888 14.1545 12.3547C14.1656 12.3202 14.1971 12.2968 14.2327 12.2964L14.8346 12.2919L15.025 11.7119C15.0363 11.6778 15.068 11.6544 15.1036 11.6544ZM20.8967 10.8137C20.9323 10.8137 20.964 10.8371 20.9753 10.8712L21.1657 11.4512L21.7676 11.4557C21.8032 11.4562 21.8347 11.4795 21.8458 11.514C21.8567 11.5481 21.8447 11.5858 21.8161 11.6076L21.332 11.9709L21.5137 12.5538C21.5243 12.5883 21.5121 12.6261 21.4833 12.6474C21.4686 12.6581 21.4514 12.6634 21.4344 12.6634C21.4174 12.6634 21.4007 12.6581 21.3863 12.6478L20.8966 12.2919L20.4068 12.6478C20.3925 12.6581 20.3755 12.6634 20.3587 12.6634C20.3417 12.6634 20.3246 12.6581 20.3101 12.6474C20.2814 12.6261 20.269 12.5883 20.2797 12.5538L20.4614 11.9709L19.9773 11.6076C19.9486 11.5858 19.9367 11.5481 19.9476 11.514C19.9587 11.4795 19.9902 11.4561 20.0258 11.4557L20.6277 11.4512L20.8181 10.8712C20.8294 10.8371 20.8611 10.8137 20.8967 10.8137ZM18.0001 8.71191C18.0357 8.71191 18.0674 8.73529 18.0787 8.76939L18.2691 9.34944L18.871 9.35396C18.9066 9.35439 18.9381 9.37777 18.9492 9.41225C18.9601 9.44629 18.9481 9.48406 18.9195 9.50582L18.4354 9.8691L18.6171 10.4521C18.6278 10.4865 18.6155 10.5243 18.5867 10.5456C18.572 10.5563 18.5549 10.5616 18.5378 10.5616C18.5209 10.5616 18.5041 10.5562 18.4898 10.546L18 10.1902L17.5102 10.5461C17.4959 10.5563 17.4789 10.5617 17.4621 10.5617C17.4451 10.5617 17.428 10.5563 17.4135 10.5456C17.3848 10.5243 17.3724 10.4865 17.3831 10.4521L17.5648 9.8691L17.0807 9.50582C17.052 9.48406 17.0401 9.44629 17.051 9.41225C17.0621 9.37777 17.0936 9.35434 17.1292 9.35396L17.7311 9.34944L17.9215 8.76939C17.9328 8.73534 17.9645 8.71191 18.0001 8.71191Z" fill="#F44336" stroke="white" stroke-width="0.2"/>
<path d="M22.5 4.5H1.5C0.947715 4.5 0.5 4.94772 0.5 5.5V18.5C0.5 19.0523 0.947715 19.5 1.5 19.5H22.5C23.0523 19.5 23.5 19.0523 23.5 18.5V5.5C23.5 4.94772 23.0523 4.5 22.5 4.5Z" stroke="black" stroke-opacity="0.04"/>
<mask id="mask0" mask-type="alpha" maskUnits="userSpaceOnUse" x="8" y="12" width="24" height="16">
<path d="M30 12H10C8.89543 12 8 12.8954 8 14V26C8 27.1046 8.89543 28 10 28H30C31.1046 28 32 27.1046 32 26V14C32 12.8954 31.1046 12 30 12Z" fill="white"/>
</mask>
<g mask="url(#mask0)">
<path d="M30 12H10C8.89543 12 8 12.8954 8 14V26C8 27.1046 8.89543 28 10 28H30C31.1046 28 32 27.1046 32 26V14C32 12.8954 31.1046 12 30 12Z" fill="white"/>
<path d="M32 26.688C32 27.4126 31.4126 28 30.688 28H9.312C8.5874 28 8 27.4126 8 26.688H32ZM32 24.24V25.464H8V24.24H32ZM32 21.792V23.016H8V21.792H32ZM32 19.344V20.568H8V19.344H32ZM32 16.896V18.12H8V16.896H32ZM32 14.448V15.672H8V14.448H32ZM30.776 12C31.4097 12 31.931 12.4816 31.9937 13.0989L32 13.224H8.68838C8.68838 12.548 9.23638 12 9.91238 12H30.776Z" fill="#F44336"/>
<path d="M10 12H19.5V20.568H8V14C8 12.8954 8.89543 12 10 12Z" fill="#0D47A1"/>
<path d="M9.09362 18.8167L9.18882 19.0983H9.48402C9.50081 19.0987 9.51555 19.1096 9.52091 19.1255C9.52628 19.1414 9.52113 19.159 9.50802 19.1695L9.26802 19.3463L9.35842 19.6279C9.36401 19.6444 9.35805 19.6626 9.3438 19.6726C9.32955 19.6825 9.31042 19.682 9.29682 19.6711L9.05682 19.4991L8.81682 19.6711C8.80304 19.6808 8.78466 19.6808 8.77086 19.6711C8.75707 19.6614 8.75081 19.6441 8.75522 19.6279L8.85362 19.3479L8.61362 19.1711C8.60052 19.1606 8.59537 19.143 8.60073 19.1271C8.6061 19.1112 8.62083 19.1003 8.63762 19.0999H8.93362L9.02882 18.8183C9.03442 18.7783 9.08242 18.7783 9.09362 18.8167ZM18.129 18.7911C18.1447 18.7908 18.1587 18.8014 18.1624 18.8167L18.2576 19.0983H18.5528C18.5696 19.0987 18.5843 19.1096 18.5897 19.1255C18.5951 19.1414 18.5899 19.159 18.5768 19.1695L18.3368 19.3463L18.4272 19.6279C18.4328 19.6444 18.4269 19.6626 18.4126 19.6726C18.3984 19.6825 18.3792 19.682 18.3656 19.6711L18.1256 19.4991L17.8856 19.6711C17.8718 19.6808 17.8535 19.6808 17.8397 19.6711C17.8259 19.6614 17.8196 19.6441 17.824 19.6279L17.9224 19.3479L17.6824 19.1711C17.6693 19.1606 17.6642 19.143 17.6695 19.1271C17.6749 19.1112 17.6896 19.1003 17.7064 19.0999H18.0016L18.0968 18.8183C18.0998 18.8028 18.1132 18.7915 18.129 18.7911ZM15.8602 18.7911C15.8759 18.7908 15.8899 18.8014 15.8936 18.8167L15.9888 19.0983H16.284C16.3008 19.0987 16.3155 19.1096 16.3209 19.1255C16.3263 19.1414 16.3211 19.159 16.308 19.1695L16.068 19.3463L16.1584 19.6279C16.164 19.6444 16.1581 19.6626 16.1438 19.6726C16.1296 19.6825 16.1104 19.682 16.0968 19.6711L15.8568 19.4991L15.6168 19.6711C15.603 19.6808 15.5847 19.6808 15.5709 19.6711C15.5571 19.6614 15.5508 19.6441 15.5552 19.6279L15.6536 19.3479L15.4136 19.1711C15.4005 19.1606 15.3954 19.143 15.4007 19.1271C15.4061 19.1112 15.4208 19.1003 15.4376 19.0999H15.7328L15.828 18.8183C15.831 18.8028 15.8444 18.7915 15.8602 18.7911ZM11.3616 18.8167L11.4568 19.0983H11.752C11.7688 19.0987 11.7835 19.1096 11.7889 19.1255C11.7943 19.1414 11.7891 19.159 11.776 19.1695L11.536 19.3463L11.6264 19.6279C11.632 19.6444 11.6261 19.6626 11.6118 19.6726C11.5976 19.6825 11.5784 19.682 11.5648 19.6711L11.3248 19.4991L11.0848 19.6711C11.071 19.6808 11.0527 19.6808 11.0389 19.6711C11.0251 19.6614 11.0188 19.6441 11.0232 19.6279L11.1216 19.3479L10.8816 19.1711C10.8685 19.1606 10.8634 19.143 10.8687 19.1271C10.8741 19.1112 10.8888 19.1003 10.9056 19.0999H11.2016L11.2968 18.8183C11.2976 18.7783 11.3504 18.7783 11.3616 18.8167ZM13.6304 18.8167L13.7256 19.0983H14.0208C14.0376 19.0987 14.0523 19.1096 14.0577 19.1255C14.0631 19.1414 14.0579 19.159 14.0448 19.1695L13.8048 19.3463L13.8952 19.6279C13.9008 19.6444 13.8949 19.6626 13.8806 19.6726C13.8664 19.6825 13.8472 19.682 13.8336 19.6711L13.5936 19.4991L13.3536 19.6711C13.3398 19.6808 13.3215 19.6808 13.3077 19.6711C13.2939 19.6614 13.2876 19.6441 13.292 19.6279L13.3904 19.3479L13.1504 19.1711C13.1373 19.1606 13.1322 19.143 13.1375 19.1271C13.1429 19.1112 13.1576 19.1003 13.1744 19.0999H13.4704L13.5656 18.8183C13.5664 18.7783 13.6192 18.7783 13.6304 18.8167ZM10.228 18.0727L10.3232 18.3543H10.6184C10.6352 18.3547 10.6499 18.3656 10.6553 18.3815C10.6607 18.3974 10.6555 18.415 10.6424 18.4255L10.4024 18.6023L10.4928 18.8839C10.4984 18.9004 10.4925 18.9186 10.4782 18.9286C10.464 18.9385 10.4448 18.938 10.4312 18.9271L10.1912 18.7551L9.95122 18.9271C9.93744 18.9368 9.91906 18.9368 9.90526 18.9271C9.89147 18.9174 9.88521 18.9001 9.88962 18.8839L9.98002 18.6023L9.74002 18.4255C9.72692 18.415 9.72177 18.3974 9.72713 18.3815C9.7325 18.3656 9.74723 18.3547 9.76402 18.3543H10.068L10.1632 18.0727C10.1688 18.0343 10.2168 18.0343 10.228 18.0727ZM17.0096 18.0408C17.021 18.0474 17.028 18.0595 17.028 18.0727L17.1232 18.3543H17.4184C17.4352 18.3547 17.4499 18.3656 17.4553 18.3815C17.4607 18.3974 17.4555 18.415 17.4424 18.4255L17.2024 18.6023L17.2928 18.8839C17.2984 18.9004 17.2925 18.9186 17.2782 18.9286C17.264 18.9385 17.2448 18.938 17.2312 18.9271L16.9912 18.7551L16.7512 18.9271C16.7374 18.9368 16.7191 18.9368 16.7053 18.9271C16.6915 18.9174 16.6852 18.9001 16.6896 18.8839L16.78 18.6023L16.54 18.4255C16.5269 18.415 16.5218 18.3974 16.5271 18.3815C16.5325 18.3656 16.5472 18.3547 16.564 18.3543H16.8592L16.9544 18.0727C16.9544 18.0595 16.9614 18.0474 16.9728 18.0408C16.9842 18.0342 16.9982 18.0342 17.0096 18.0408ZM14.7648 18.0727L14.86 18.3543H15.1552C15.172 18.3547 15.1867 18.3656 15.1921 18.3815C15.1975 18.3974 15.1923 18.415 15.1792 18.4255L14.9392 18.6023L15.0296 18.8839C15.0352 18.9004 15.0293 18.9186 15.015 18.9286C15.0008 18.9385 14.9816 18.938 14.968 18.9271L14.728 18.7551L14.488 18.9271C14.4742 18.9368 14.4559 18.9368 14.4421 18.9271C14.4283 18.9174 14.422 18.9001 14.4264 18.8839L14.5168 18.6023L14.2768 18.4255C14.2637 18.415 14.2586 18.3974 14.2639 18.3815C14.2693 18.3656 14.284 18.3547 14.3008 18.3543H14.596L14.6912 18.0727C14.7008 18.0343 14.7536 18.0343 14.7648 18.0727ZM12.496 18.0727L12.5912 18.3543H12.8864C12.9032 18.3547 12.9179 18.3656 12.9233 18.3815C12.9287 18.3974 12.9235 18.415 12.9104 18.4255L12.6704 18.6023L12.7608 18.8839C12.7664 18.9004 12.7605 18.9186 12.7462 18.9286C12.732 18.9385 12.7128 18.938 12.6992 18.9271L12.4592 18.7551L12.2192 18.9271C12.2054 18.9368 12.1871 18.9368 12.1733 18.9271C12.1595 18.9174 12.1532 18.9001 12.1576 18.8839L12.248 18.6023L12.008 18.4255C11.9949 18.415 11.9898 18.3974 11.9951 18.3815C12.0005 18.3656 12.0152 18.3547 12.032 18.3543H12.336L12.4312 18.0727C12.432 18.0343 12.4848 18.0343 12.496 18.0727ZM11.3616 17.3519L11.4568 17.6335H11.752C11.7688 17.6339 11.7835 17.6448 11.7889 17.6607C11.7943 17.6766 11.7891 17.6942 11.776 17.7047L11.536 17.8815L11.6264 18.1631C11.632 18.1796 11.6261 18.1978 11.6118 18.2078C11.5976 18.2178 11.5784 18.2172 11.5648 18.2063L11.3248 18.0343L11.0848 18.2063C11.071 18.216 11.0527 18.216 11.0389 18.2063C11.0251 18.1966 11.0188 18.1793 11.0232 18.1631L11.1136 17.8815L10.8736 17.7047C10.8605 17.6942 10.8554 17.6766 10.8607 17.6607C10.8661 17.6448 10.8808 17.6339 10.8976 17.6335H11.2016L11.2968 17.3519C11.2976 17.3191 11.3504 17.3191 11.3616 17.3519ZM18.1624 17.3519L18.2576 17.6335H18.5528C18.5696 17.6339 18.5843 17.6448 18.5897 17.6607C18.5951 17.6766 18.5899 17.6942 18.5768 17.7047L18.3368 17.8815L18.4272 18.1631C18.4328 18.1796 18.4269 18.1978 18.4126 18.2078C18.3984 18.2178 18.3792 18.2172 18.3656 18.2063L18.1256 18.0343L17.8856 18.2063C17.8718 18.216 17.8535 18.216 17.8397 18.2063C17.8259 18.1966 17.8196 18.1793 17.824 18.1631L17.9144 17.8815L17.6744 17.7047C17.6613 17.6942 17.6562 17.6766 17.6615 17.6607C17.6669 17.6448 17.6816 17.6339 17.6984 17.6335H17.9936L18.0888 17.3519C18.1032 17.3191 18.156 17.3191 18.1624 17.3519ZM9.09362 17.3519L9.18882 17.6335H9.48402C9.50081 17.6339 9.51555 17.6448 9.52091 17.6607C9.52628 17.6766 9.52113 17.6942 9.50802 17.7047L9.26802 17.8815L9.35842 18.1631C9.36401 18.1796 9.35805 18.1978 9.3438 18.2078C9.32955 18.2178 9.31042 18.2172 9.29682 18.2063L9.05682 18.0343L8.81682 18.2063C8.80304 18.216 8.78466 18.216 8.77086 18.2063C8.75707 18.1966 8.75081 18.1793 8.75522 18.1631L8.84562 17.8815L8.60562 17.7047C8.59252 17.6942 8.58737 17.6766 8.59273 17.6607C8.5981 17.6448 8.61283 17.6339 8.62962 17.6335H8.93362L9.02882 17.3519C9.03442 17.3191 9.08242 17.3191 9.09362 17.3519ZM15.8936 17.3519L15.9888 17.6335H16.284C16.3008 17.6339 16.3155 17.6448 16.3209 17.6607C16.3263 17.6766 16.3211 17.6942 16.308 17.7047L16.068 17.8815L16.1584 18.1631C16.164 18.1796 16.1581 18.1978 16.1438 18.2078C16.1296 18.2178 16.1104 18.2172 16.0968 18.2063L15.8568 18.0343L15.6168 18.2063C15.603 18.216 15.5847 18.216 15.5709 18.2063C15.5571 18.1966 15.5508 18.1793 15.5552 18.1631L15.6456 17.8815L15.4056 17.7047C15.3925 17.6942 15.3874 17.6766 15.3927 17.6607C15.3981 17.6448 15.4128 17.6339 15.4296 17.6335H15.7248L15.82 17.3519C15.8344 17.3191 15.8872 17.3191 15.8936 17.3519ZM13.6304 17.3519L13.7256 17.6335H14.0208C14.0376 17.6339 14.0523 17.6448 14.0577 17.6607C14.0631 17.6766 14.0579 17.6942 14.0448 17.7047L13.8048 17.8815L13.8952 18.1631C13.9008 18.1796 13.8949 18.1978 13.8806 18.2078C13.8664 18.2178 13.8472 18.2172 13.8336 18.2063L13.5936 18.0343L13.3536 18.2063C13.3398 18.216 13.3215 18.216 13.3077 18.2063C13.2939 18.1966 13.2876 18.1793 13.292 18.1631L13.3824 17.8815L13.1424 17.7047C13.1293 17.6942 13.1242 17.6766 13.1295 17.6607C13.1349 17.6448 13.1496 17.6339 13.1664 17.6335H13.4704L13.5656 17.3519C13.5664 17.3191 13.6192 17.3191 13.6304 17.3519ZM10.228 16.6087L10.3232 16.8903H10.6184C10.6352 16.8907 10.6499 16.9016 10.6553 16.9175C10.6607 16.9334 10.6555 16.951 10.6424 16.9615L10.4024 17.1383L10.4928 17.4199C10.4984 17.4364 10.4925 17.4546 10.4782 17.4646C10.464 17.4746 10.4448 17.474 10.4312 17.4631L10.1912 17.2911L9.95122 17.4631C9.93744 17.4728 9.91906 17.4728 9.90526 17.4631C9.89147 17.4534 9.88521 17.4361 9.88962 17.4199L9.98802 17.1399L9.74802 16.9631C9.73492 16.9526 9.72977 16.935 9.73513 16.9191C9.7405 16.9032 9.75523 16.8923 9.77202 16.8919H10.068L10.1632 16.6103C10.1688 16.5703 10.2168 16.5703 10.228 16.6087ZM16.9912 16.5719C17.0115 16.5719 17.028 16.5884 17.028 16.6087L17.1232 16.8903H17.4184C17.4352 16.8907 17.4499 16.9016 17.4553 16.9175C17.4607 16.9334 17.4555 16.951 17.4424 16.9615L17.2024 17.1383L17.2928 17.4199C17.2984 17.4364 17.2925 17.4546 17.2782 17.4646C17.264 17.4746 17.2448 17.474 17.2312 17.4631L16.9912 17.2911L16.7512 17.4631C16.7374 17.4728 16.7191 17.4728 16.7053 17.4631C16.6915 17.4534 16.6852 17.4361 16.6896 17.4199L16.78 17.1383L16.54 16.9615C16.5269 16.951 16.5218 16.9334 16.5271 16.9175C16.5325 16.9016 16.5472 16.8907 16.564 16.8903H16.8592L16.9544 16.6087C16.9544 16.5884 16.9709 16.5719 16.9912 16.5719ZM14.7648 16.6087L14.86 16.8903H15.1552C15.172 16.8907 15.1867 16.9016 15.1921 16.9175C15.1975 16.9334 15.1923 16.951 15.1792 16.9615L14.9392 17.1383L15.0296 17.4199C15.0352 17.4364 15.0293 17.4546 15.015 17.4646C15.0008 17.4746 14.9816 17.474 14.968 17.4631L14.728 17.2911L14.488 17.4631C14.4742 17.4728 14.4559 17.4728 14.4421 17.4631C14.4283 17.4534 14.422 17.4361 14.4264 17.4199L14.5168 17.1383L14.2768 16.9615C14.2637 16.951 14.2586 16.9334 14.2639 16.9175C14.2693 16.9016 14.284 16.8907 14.3008 16.8903H14.596L14.6912 16.6087C14.7008 16.5703 14.7536 16.5703 14.7648 16.6087ZM12.496 16.6087L12.5912 16.8903H12.8864C12.9032 16.8907 12.9179 16.9016 12.9233 16.9175C12.9287 16.9334 12.9235 16.951 12.9104 16.9615L12.6704 17.1383L12.7608 17.4199C12.7664 17.4364 12.7605 17.4546 12.7462 17.4646C12.732 17.4746 12.7128 17.474 12.6992 17.4631L12.4592 17.2911L12.2192 17.4631C12.2054 17.4728 12.1871 17.4728 12.1733 17.4631C12.1595 17.4534 12.1532 17.4361 12.1576 17.4199L12.256 17.1399L12.016 16.9631C12.0029 16.9526 11.9978 16.935 12.0031 16.9191C12.0085 16.9032 12.0232 16.8923 12.04 16.8919H12.336L12.4312 16.6103C12.432 16.5703 12.4848 16.5703 12.496 16.6087ZM11.3616 15.8927L11.4568 16.1743H11.752C11.7688 16.1747 11.7835 16.1856 11.7889 16.2015C11.7943 16.2174 11.7891 16.235 11.776 16.2455L11.536 16.4223L11.6264 16.7039C11.632 16.7204 11.6261 16.7386 11.6118 16.7486C11.5976 16.7586 11.5784 16.758 11.5648 16.7471L11.3248 16.5751L11.0848 16.7471C11.071 16.7568 11.0527 16.7568 11.0389 16.7471C11.0251 16.7374 11.0188 16.7201 11.0232 16.7039L11.1216 16.4239L10.8816 16.2471C10.8685 16.2366 10.8634 16.219 10.8687 16.2031C10.8741 16.1872 10.8888 16.1763 10.9056 16.1759H11.2016L11.2968 15.8943C11.2976 15.8543 11.3504 15.8543 11.3616 15.8927ZM18.129 15.8671C18.1447 15.8668 18.1587 15.8774 18.1624 15.8927L18.2576 16.1743H18.5528C18.5696 16.1747 18.5843 16.1856 18.5897 16.2015C18.5951 16.2174 18.5899 16.235 18.5768 16.2455L18.3368 16.4223L18.4272 16.7039C18.4328 16.7204 18.4269 16.7386 18.4126 16.7486C18.3984 16.7586 18.3792 16.758 18.3656 16.7471L18.1256 16.5751L17.8856 16.7471C17.8718 16.7568 17.8535 16.7568 17.8397 16.7471C17.8259 16.7374 17.8196 16.7201 17.824 16.7039L17.9224 16.4239L17.6824 16.2471C17.6693 16.2366 17.6642 16.219 17.6695 16.2031C17.6749 16.1872 17.6896 16.1763 17.7064 16.1759H18.0016L18.0968 15.8943C18.0998 15.8788 18.1132 15.8675 18.129 15.8671ZM15.8568 15.8559C15.8771 15.8559 15.8936 15.8724 15.8936 15.8927L15.9888 16.1743H16.284C16.3008 16.1747 16.3155 16.1856 16.3209 16.2015C16.3263 16.2174 16.3211 16.235 16.308 16.2455L16.068 16.4223L16.1584 16.7039C16.164 16.7204 16.1581 16.7386 16.1438 16.7486C16.1296 16.7586 16.1104 16.758 16.0968 16.7471L15.8568 16.5751L15.6168 16.7471C15.603 16.7568 15.5847 16.7568 15.5709 16.7471C15.5571 16.7374 15.5508 16.7201 15.5552 16.7039L15.6456 16.4223L15.4056 16.2455C15.3925 16.235 15.3874 16.2174 15.3927 16.2015C15.3981 16.1856 15.4128 16.1747 15.4296 16.1743H15.7248L15.82 15.8927C15.82 15.8724 15.8365 15.8559 15.8568 15.8559ZM9.09362 15.8927L9.18882 16.1743H9.48402C9.50081 16.1747 9.51555 16.1856 9.52091 16.2015C9.52628 16.2174 9.52113 16.235 9.50802 16.2455L9.26802 16.4223L9.35842 16.7039C9.36401 16.7204 9.35805 16.7386 9.3438 16.7486C9.32955 16.7586 9.31042 16.758 9.29682 16.7471L9.05682 16.5751L8.81682 16.7471C8.80304 16.7568 8.78466 16.7568 8.77086 16.7471C8.75707 16.7374 8.75081 16.7201 8.75522 16.7039L8.85362 16.4239L8.61362 16.2471C8.60052 16.2366 8.59537 16.219 8.60073 16.2031C8.6061 16.1872 8.62083 16.1763 8.63762 16.1759H8.93362L9.02882 15.8943C9.03442 15.8543 9.08242 15.8543 9.09362 15.8927ZM13.6304 15.8927L13.7256 16.1743H14.0208C14.0376 16.1747 14.0523 16.1856 14.0577 16.2015C14.0631 16.2174 14.0579 16.235 14.0448 16.2455L13.8048 16.4223L13.8952 16.7039C13.9008 16.7204 13.8949 16.7386 13.8806 16.7486C13.8664 16.7586 13.8472 16.758 13.8336 16.7471L13.5936 16.5751L13.3536 16.7471C13.3398 16.7568 13.3215 16.7568 13.3077 16.7471C13.2939 16.7374 13.2876 16.7201 13.292 16.7039L13.3824 16.4223L13.1424 16.2455C13.1293 16.235 13.1242 16.2174 13.1295 16.2015C13.1349 16.1856 13.1496 16.1747 13.1664 16.1743H13.4704L13.5656 15.8927C13.5664 15.8543 13.6192 15.8543 13.6304 15.8927ZM10.228 15.1431L10.3232 15.4247H10.6184C10.6352 15.4251 10.6499 15.436 10.6553 15.4519C10.6607 15.4678 10.6555 15.4854 10.6424 15.4959L10.4024 15.6727L10.4928 15.9543C10.4984 15.9708 10.4925 15.989 10.4782 15.999C10.464 16.009 10.4448 16.0084 10.4312 15.9975L10.1912 15.8255L9.95122 15.9975C9.93744 16.0072 9.91906 16.0072 9.90526 15.9975C9.89147 15.9878 9.88521 15.9705 9.88962 15.9543L9.98002 15.6727L9.74002 15.4959C9.72692 15.4854 9.72177 15.4678 9.72713 15.4519C9.7325 15.436 9.74723 15.4251 9.76402 15.4247H10.068L10.1632 15.1431C10.1688 15.1103 10.2168 15.1103 10.228 15.1431ZM14.7648 15.1431L14.86 15.4247H15.1552C15.172 15.4251 15.1867 15.436 15.1921 15.4519C15.1975 15.4678 15.1923 15.4854 15.1792 15.4959L14.9392 15.6727L15.0296 15.9543C15.0352 15.9708 15.0293 15.989 15.015 15.999C15.0008 16.009 14.9816 16.0084 14.968 15.9975L14.728 15.8255L14.488 15.9975C14.4742 16.0072 14.4559 16.0072 14.4421 15.9975C14.4283 15.9878 14.422 15.9705 14.4264 15.9543L14.5168 15.6727L14.2768 15.4959C14.2637 15.4854 14.2586 15.4678 14.2639 15.4519C14.2693 15.436 14.284 15.4251 14.3008 15.4247H14.596L14.6912 15.1431C14.7008 15.1103 14.7536 15.1103 14.7648 15.1431ZM12.496 15.1431L12.5912 15.4247H12.8864C12.9032 15.4251 12.9179 15.436 12.9233 15.4519C12.9287 15.4678 12.9235 15.4854 12.9104 15.4959L12.6704 15.6727L12.7608 15.9543C12.7664 15.9708 12.7605 15.989 12.7462 15.999C12.732 16.009 12.7128 16.0084 12.6992 15.9975L12.4592 15.8255L12.2192 15.9975C12.2054 16.0072 12.1871 16.0072 12.1733 15.9975C12.1595 15.9878 12.1532 15.9705 12.1576 15.9543L12.248 15.6727L12.008 15.4959C11.9949 15.4854 11.9898 15.4678 11.9951 15.4519C12.0005 15.436 12.0152 15.4251 12.032 15.4247H12.336L12.4312 15.1431C12.432 15.1103 12.4848 15.1103 12.496 15.1431ZM17.028 15.1431L17.1232 15.4247H17.4184C17.4352 15.4251 17.4499 15.436 17.4553 15.4519C17.4607 15.4678 17.4555 15.4854 17.4424 15.4959L17.2024 15.6727L17.2928 15.9543C17.2984 15.9708 17.2925 15.989 17.2782 15.999C17.264 16.009 17.2448 16.0084 17.2312 15.9975L16.9912 15.8255L16.7512 15.9975C16.7374 16.0072 16.7191 16.0072 16.7053 15.9975C16.6915 15.9878 16.6852 15.9705 16.6896 15.9543L16.78 15.6727L16.54 15.4959C16.5269 15.4854 16.5218 15.4678 16.5271 15.4519C16.5325 15.436 16.5472 15.4251 16.564 15.4247H16.8592L16.9544 15.1431C16.9688 15.1103 17.0216 15.1103 17.028 15.1431ZM13.6304 14.4279L13.7256 14.7095H14.0208C14.0376 14.7099 14.0523 14.7208 14.0577 14.7367C14.0631 14.7526 14.0579 14.7702 14.0448 14.7807L13.8048 14.9575L13.8952 15.2391C13.9008 15.2556 13.8949 15.2738 13.8806 15.2838C13.8664 15.2938 13.8472 15.2932 13.8336 15.2823L13.5936 15.1103L13.3536 15.2823C13.3398 15.292 13.3215 15.292 13.3077 15.2823C13.2939 15.2726 13.2876 15.2553 13.292 15.2391L13.3824 14.9575L13.1424 14.7807C13.1293 14.7702 13.1242 14.7526 13.1295 14.7367C13.1349 14.7208 13.1496 14.7099 13.1664 14.7095H13.4704L13.5656 14.4279C13.5664 14.3951 13.6192 14.3951 13.6304 14.4279ZM9.09362 14.4279L9.18882 14.7095H9.48402C9.50081 14.7099 9.51555 14.7208 9.52091 14.7367C9.52628 14.7526 9.52113 14.7702 9.50802 14.7807L9.26802 14.9575L9.35842 15.2391C9.36401 15.2556 9.35805 15.2738 9.3438 15.2838C9.32955 15.2938 9.31042 15.2932 9.29682 15.2823L9.05682 15.1103L8.81682 15.2823C8.80304 15.292 8.78466 15.292 8.77086 15.2823C8.75707 15.2726 8.75081 15.2553 8.75522 15.2391L8.84562 14.9575L8.60562 14.7807C8.59252 14.7702 8.58737 14.7526 8.59273 14.7367C8.5981 14.7208 8.61283 14.7099 8.62962 14.7095H8.93362L9.02882 14.4279C9.03442 14.3951 9.08242 14.3951 9.09362 14.4279ZM11.3648 14.4279L11.46 14.7095H11.7568C11.7736 14.7099 11.7883 14.7208 11.7937 14.7367C11.7991 14.7526 11.7939 14.7702 11.7808 14.7807L11.5408 14.9575L11.6312 15.2391C11.6368 15.2556 11.6309 15.2738 11.6166 15.2838C11.6024 15.2938 11.5832 15.2932 11.5696 15.2823L11.3296 15.1103L11.0896 15.2823C11.0758 15.292 11.0575 15.292 11.0437 15.2823C11.0299 15.2726 11.0236 15.2553 11.028 15.2391L11.1184 14.9575L10.8784 14.7807C10.8653 14.7702 10.8602 14.7526 10.8655 14.7367C10.8709 14.7208 10.8856 14.7099 10.9024 14.7095H11.1968L11.292 14.4279C11.2976 14.3951 11.3504 14.3951 11.3648 14.4279ZM15.8936 14.4279L15.9888 14.7095H16.284C16.3008 14.7099 16.3155 14.7208 16.3209 14.7367C16.3263 14.7526 16.3211 14.7702 16.308 14.7807L16.068 14.9575L16.1584 15.2391C16.164 15.2556 16.1581 15.2738 16.1438 15.2838C16.1296 15.2938 16.1104 15.2932 16.0968 15.2823L15.8568 15.1103L15.6168 15.2823C15.603 15.292 15.5847 15.292 15.5709 15.2823C15.5571 15.2726 15.5508 15.2553 15.5552 15.2391L15.6456 14.9575L15.4056 14.7807C15.3925 14.7702 15.3874 14.7526 15.3927 14.7367C15.3981 14.7208 15.4128 14.7099 15.4296 14.7095H15.7248L15.82 14.4279C15.8344 14.3951 15.8872 14.3951 15.8936 14.4279ZM18.1624 14.4279L18.2576 14.7095H18.5528C18.5696 14.7099 18.5843 14.7208 18.5897 14.7367C18.5951 14.7526 18.5899 14.7702 18.5768 14.7807L18.3368 14.9575L18.4272 15.2391C18.4328 15.2556 18.4269 15.2738 18.4126 15.2838C18.3984 15.2938 18.3792 15.2932 18.3656 15.2823L18.1256 15.1103L17.8856 15.2823C17.8718 15.292 17.8535 15.292 17.8397 15.2823C17.8259 15.2726 17.8196 15.2553 17.824 15.2391L17.9144 14.9575L17.6744 14.7807C17.6613 14.7702 17.6562 14.7526 17.6615 14.7367C17.6669 14.7208 17.6816 14.7099 17.6984 14.7095H17.9936L18.0888 14.4279C18.1032 14.3951 18.156 14.3951 18.1624 14.4279ZM14.7648 13.6839L14.86 13.9655H15.1552C15.172 13.9659 15.1867 13.9768 15.1921 13.9927C15.1975 14.0086 15.1923 14.0262 15.1792 14.0367L14.9392 14.2135L15.0296 14.4951C15.0352 14.5116 15.0293 14.5298 15.015 14.5398C15.0008 14.5498 14.9816 14.5492 14.968 14.5383L14.728 14.3663L14.488 14.5383C14.4742 14.548 14.4559 14.548 14.4421 14.5383C14.4283 14.5286 14.422 14.5113 14.4264 14.4951L14.5168 14.2135L14.2768 14.0367C14.2637 14.0262 14.2586 14.0086 14.2639 13.9927C14.2693 13.9768 14.284 13.9659 14.3008 13.9655H14.596L14.6912 13.6839C14.7008 13.6455 14.7536 13.6455 14.7648 13.6839ZM12.496 13.6839L12.5912 13.9655H12.8864C12.9032 13.9659 12.9179 13.9768 12.9233 13.9927C12.9287 14.0086 12.9235 14.0262 12.9104 14.0367L12.6704 14.2135L12.7608 14.4951C12.7664 14.5116 12.7605 14.5298 12.7462 14.5398C12.732 14.5498 12.7128 14.5492 12.6992 14.5383L12.4592 14.3663L12.2192 14.5383C12.2054 14.548 12.1871 14.548 12.1733 14.5383C12.1595 14.5286 12.1532 14.5113 12.1576 14.4951L12.256 14.2151L12.016 14.0383C12.0029 14.0278 11.9978 14.0102 12.0031 13.9943C12.0085 13.9784 12.0232 13.9675 12.04 13.9671H12.336L12.4312 13.6855C12.432 13.6455 12.4848 13.6455 12.496 13.6839ZM10.228 13.6839L10.3232 13.9655H10.6184C10.6352 13.9659 10.6499 13.9768 10.6553 13.9927C10.6607 14.0086 10.6555 14.0262 10.6424 14.0367L10.4024 14.2135L10.4928 14.4951C10.4984 14.5116 10.4925 14.5298 10.4782 14.5398C10.464 14.5498 10.4448 14.5492 10.4312 14.5383L10.1912 14.3663L9.95122 14.5383C9.93744 14.548 9.91906 14.548 9.90526 14.5383C9.89147 14.5286 9.88521 14.5113 9.88962 14.4951L9.98802 14.2151L9.74802 14.0383C9.73492 14.0278 9.72977 14.0102 9.73513 13.9943C9.7405 13.9784 9.75523 13.9675 9.77202 13.9671H10.068L10.1632 13.6855C10.1688 13.6455 10.2168 13.6455 10.228 13.6839ZM17.0096 13.652C17.021 13.6586 17.028 13.6707 17.028 13.6839L17.1232 13.9655H17.4184C17.4352 13.9659 17.4499 13.9768 17.4553 13.9927C17.4607 14.0086 17.4555 14.0262 17.4424 14.0367L17.2024 14.2135L17.2928 14.4951C17.2984 14.5116 17.2925 14.5298 17.2782 14.5398C17.264 14.5498 17.2448 14.5492 17.2312 14.5383L16.9912 14.3663L16.7512 14.5383C16.7374 14.548 16.7191 14.548 16.7053 14.5383C16.6915 14.5286 16.6852 14.5113 16.6896 14.4951L16.78 14.2135L16.54 14.0367C16.5269 14.0262 16.5218 14.0086 16.5271 13.9927C16.5325 13.9768 16.5472 13.9659 16.564 13.9655H16.8592L16.9544 13.6839C16.9544 13.6707 16.9614 13.6586 16.9728 13.652C16.9842 13.6454 16.9982 13.6454 17.0096 13.652ZM9.09362 12.9687L9.18882 13.2503H9.48402C9.50081 13.2507 9.51555 13.2616 9.52091 13.2775C9.52628 13.2934 9.52113 13.311 9.50802 13.3215L9.26802 13.4983L9.35842 13.7799C9.36401 13.7964 9.35805 13.8146 9.3438 13.8246C9.32955 13.8346 9.31042 13.834 9.29682 13.8231L9.05682 13.6511L8.81682 13.8231C8.80304 13.8328 8.78466 13.8328 8.77086 13.8231C8.75707 13.8134 8.75081 13.7961 8.75522 13.7799L8.85362 13.4999L8.61362 13.3231C8.60052 13.3126 8.59537 13.295 8.60073 13.2791C8.6061 13.2632 8.62083 13.2523 8.63762 13.2519H8.93362L9.02882 12.9703C9.03442 12.9303 9.08242 12.9303 9.09362 12.9687ZM11.3616 12.9687L11.4568 13.2503H11.752C11.7688 13.2507 11.7835 13.2616 11.7889 13.2775C11.7943 13.2934 11.7891 13.311 11.776 13.3215L11.536 13.4983L11.6264 13.7799C11.632 13.7964 11.6261 13.8146 11.6118 13.8246C11.5976 13.8346 11.5784 13.834 11.5648 13.8231L11.3248 13.6511L11.0848 13.8231C11.071 13.8328 11.0527 13.8328 11.0389 13.8231C11.0251 13.8134 11.0188 13.7961 11.0232 13.7799L11.1216 13.4999L10.8816 13.3231C10.8685 13.3126 10.8634 13.295 10.8687 13.2791C10.8741 13.2632 10.8888 13.2523 10.9056 13.2519H11.2016L11.2968 12.9703C11.2976 12.9303 11.3504 12.9303 11.3616 12.9687ZM13.6304 12.9687L13.7256 13.2503H14.0208C14.0376 13.2507 14.0523 13.2616 14.0577 13.2775C14.0631 13.2934 14.0579 13.311 14.0448 13.3215L13.8048 13.4983L13.8952 13.7799C13.9008 13.7964 13.8949 13.8146 13.8806 13.8246C13.8664 13.8346 13.8472 13.834 13.8336 13.8231L13.5936 13.6511L13.3536 13.8231C13.3398 13.8328 13.3215 13.8328 13.3077 13.8231C13.2939 13.8134 13.2876 13.7961 13.292 13.7799L13.3824 13.4983L13.1424 13.3215C13.1293 13.311 13.1242 13.2934 13.1295 13.2775C13.1349 13.2616 13.1496 13.2507 13.1664 13.2503H13.4704L13.5656 12.9687C13.5664 12.9303 13.6192 12.9303 13.6304 12.9687ZM15.8752 12.9368C15.8866 12.9434 15.8936 12.9555 15.8936 12.9687L15.9888 13.2503H16.284C16.3008 13.2507 16.3155 13.2616 16.3209 13.2775C16.3263 13.2934 16.3211 13.311 16.308 13.3215L16.068 13.4983L16.1584 13.7799C16.164 13.7964 16.1581 13.8146 16.1438 13.8246C16.1296 13.8346 16.1104 13.834 16.0968 13.8231L15.8568 13.6511L15.6168 13.8231C15.603 13.8328 15.5847 13.8328 15.5709 13.8231C15.5571 13.8134 15.5508 13.7961 15.5552 13.7799L15.6456 13.4983L15.4056 13.3215C15.3925 13.311 15.3874 13.2934 15.3927 13.2775C15.3981 13.2616 15.4128 13.2507 15.4296 13.2503H15.7248L15.82 12.9687C15.82 12.9555 15.827 12.9434 15.8384 12.9368C15.8498 12.9302 15.8638 12.9302 15.8752 12.9368ZM18.129 12.9431C18.1447 12.9428 18.1587 12.9534 18.1624 12.9687L18.2576 13.2503H18.5528C18.5696 13.2507 18.5843 13.2616 18.5897 13.2775C18.5951 13.2934 18.5899 13.311 18.5768 13.3215L18.3368 13.4983L18.4272 13.7799C18.4328 13.7964 18.4269 13.8146 18.4126 13.8246C18.3984 13.8346 18.3792 13.834 18.3656 13.8231L18.1256 13.6511L17.8856 13.8231C17.8718 13.8328 17.8535 13.8328 17.8397 13.8231C17.8259 13.8134 17.8196 13.7961 17.824 13.7799L17.9224 13.4999L17.6824 13.3231C17.6693 13.3126 17.6642 13.295 17.6695 13.2791C17.6749 13.2632 17.6896 13.2523 17.7064 13.2519H18.0016L18.0968 12.9703C18.0998 12.9548 18.1132 12.9435 18.129 12.9431Z" fill="#F5F5F5"/>
<path d="M30.5 12.5H9.5C8.94772 12.5 8.5 12.9477 8.5 13.5V26.5C8.5 27.0523 8.94772 27.5 9.5 27.5H30.5C31.0523 27.5 31.5 27.0523 31.5 26.5V13.5C31.5 12.9477 31.0523 12.5 30.5 12.5Z" stroke="black" stroke-opacity="0.04"/>
</g>
</svg>
