<svg width="32" height="32" viewBox="0 0 32 32" fill="none" xmlns="http://www.w3.org/2000/svg">
<mask id="mask0" mask-type="alpha" maskUnits="userSpaceOnUse" x="0" y="4" width="24" height="16">
<path d="M22 4H2C0.89543 4 0 4.89543 0 6V18C0 19.1046 0.89543 20 2 20H22C23.1046 20 24 19.1046 24 18V6C24 4.89543 23.1046 4 22 4Z" fill="white"/>
</mask>
<g mask="url(#mask0)">
<path d="M22 4H2C0.89543 4 0 4.89543 0 6V18C0 19.1046 0.89543 20 2 20H22C23.1046 20 24 19.1046 24 18V6C24 4.89543 23.1046 4 22 4Z" fill="white"/>
<path d="M24 18.688C24 19.4126 23.4126 20 22.688 20H1.312C0.587403 20 0 19.4126 0 18.688H24ZM24 16.24V17.464H0V16.24H24ZM24 13.792V15.016H0V13.792H24ZM24 11.344V12.568H0V11.344H24ZM24 8.896V10.12H0V8.896H24ZM24 6.448V7.672H0V6.448H24ZM22.776 4C23.4097 4 23.931 4.48164 23.9937 5.09885L24 5.224H0.688377C0.688377 4.548 1.23638 4 1.91238 4H22.776Z" fill="#F44336"/>
<path d="M2 4H11.5V12.568H0V6C0 4.89543 0.89543 4 2 4Z" fill="#0D47A1"/>
<path d="M1.09362 10.8168L1.18882 11.0984H1.48402C1.50081 11.0988 1.51555 11.1097 1.52091 11.1256C1.52628 11.1415 1.52113 11.1591 1.50802 11.1696L1.26802 11.3464L1.35842 11.628C1.36401 11.6445 1.35805 11.6627 1.3438 11.6727C1.32955 11.6827 1.31042 11.6821 1.29682 11.6712L1.05682 11.4992L0.816824 11.6712C0.803037 11.6809 0.784658 11.6809 0.770863 11.6712C0.757067 11.6616 0.750814 11.6443 0.755224 11.628L0.853624 11.348L0.613624 11.1712C0.600519 11.1607 0.59537 11.1431 0.600735 11.1272C0.606099 11.1113 0.620835 11.1004 0.637624 11.1H0.933624L1.02882 10.8184C1.03442 10.7784 1.08242 10.7784 1.09362 10.8168ZM10.129 10.7913C10.1447 10.7909 10.1587 10.8015 10.1624 10.8168L10.2576 11.0984H10.5528C10.5696 11.0988 10.5843 11.1097 10.5897 11.1256C10.5951 11.1415 10.5899 11.1591 10.5768 11.1696L10.3368 11.3464L10.4272 11.628C10.4328 11.6445 10.4269 11.6627 10.4126 11.6727C10.3984 11.6827 10.3792 11.6821 10.3656 11.6712L10.1256 11.4992L9.88562 11.6712C9.87184 11.6809 9.85346 11.6809 9.83966 11.6712C9.82587 11.6616 9.81961 11.6443 9.82402 11.628L9.92242 11.348L9.68242 11.1712C9.66932 11.1607 9.66417 11.1431 9.66953 11.1272C9.6749 11.1113 9.68963 11.1004 9.70642 11.1H10.0016L10.0968 10.8184C10.0998 10.8029 10.1132 10.7916 10.129 10.7913ZM7.86018 10.7913C7.87594 10.7909 7.88985 10.8015 7.89362 10.8168L7.98882 11.0984H8.28402C8.30081 11.0988 8.31555 11.1097 8.32091 11.1256C8.32628 11.1415 8.32113 11.1591 8.30802 11.1696L8.06802 11.3464L8.15842 11.628C8.16401 11.6445 8.15806 11.6627 8.14381 11.6727C8.12955 11.6827 8.11042 11.6821 8.09682 11.6712L7.85682 11.4992L7.61682 11.6712C7.60304 11.6809 7.58466 11.6809 7.57086 11.6712C7.55707 11.6616 7.55081 11.6443 7.55522 11.628L7.65362 11.348L7.41362 11.1712C7.40052 11.1607 7.39537 11.1431 7.40073 11.1272C7.4061 11.1113 7.42084 11.1004 7.43762 11.1H7.73282L7.82802 10.8184C7.83105 10.8029 7.84442 10.7916 7.86018 10.7913ZM3.36162 10.8168L3.45682 11.0984H3.75202C3.76881 11.0988 3.78355 11.1097 3.78891 11.1256C3.79428 11.1415 3.78913 11.1591 3.77602 11.1696L3.53602 11.3464L3.62642 11.628C3.63201 11.6445 3.62606 11.6627 3.6118 11.6727C3.59755 11.6827 3.57842 11.6821 3.56482 11.6712L3.32482 11.4992L3.08482 11.6712C3.07104 11.6809 3.05266 11.6809 3.03886 11.6712C3.02507 11.6616 3.01881 11.6443 3.02322 11.628L3.12162 11.348L2.88162 11.1712C2.86852 11.1607 2.86337 11.1431 2.86873 11.1272C2.8741 11.1113 2.88883 11.1004 2.90562 11.1H3.20162L3.29682 10.8184C3.29762 10.7784 3.35042 10.7784 3.36162 10.8168ZM5.63042 10.8168L5.72562 11.0984H6.02082C6.03761 11.0988 6.05235 11.1097 6.05771 11.1256C6.06308 11.1415 6.05793 11.1591 6.04482 11.1696L5.80482 11.3464L5.89522 11.628C5.90081 11.6445 5.89486 11.6627 5.8806 11.6727C5.86635 11.6827 5.84722 11.6821 5.83362 11.6712L5.59362 11.4992L5.35362 11.6712C5.33984 11.6809 5.32146 11.6809 5.30766 11.6712C5.29387 11.6616 5.28761 11.6443 5.29202 11.628L5.39042 11.348L5.15042 11.1712C5.13732 11.1607 5.13217 11.1431 5.13754 11.1272C5.1429 11.1113 5.15763 11.1004 5.17442 11.1H5.47042L5.56562 10.8184C5.56642 10.7784 5.61922 10.7784 5.63042 10.8168ZM2.22802 10.0728L2.32322 10.3544H2.61842C2.63521 10.3548 2.64995 10.3657 2.65531 10.3816C2.66068 10.3975 2.65553 10.4151 2.64242 10.4256L2.40242 10.6024L2.49282 10.884C2.49841 10.9005 2.49245 10.9187 2.4782 10.9287C2.46395 10.9387 2.44482 10.9381 2.43122 10.9272L2.19122 10.7552L1.95122 10.9272C1.93744 10.9369 1.91906 10.9369 1.90526 10.9272C1.89147 10.9176 1.88521 10.9003 1.88962 10.884L1.98002 10.6024L1.74002 10.4256C1.72692 10.4151 1.72177 10.3975 1.72713 10.3816C1.7325 10.3657 1.74723 10.3548 1.76402 10.3544H2.06802L2.16322 10.0728C2.16882 10.0344 2.21682 10.0344 2.22802 10.0728ZM9.00962 10.0409C9.02101 10.0475 9.02802 10.0597 9.02802 10.0728L9.12322 10.3544H9.41842C9.43521 10.3548 9.44995 10.3657 9.45531 10.3816C9.46068 10.3975 9.45553 10.4151 9.44242 10.4256L9.20242 10.6024L9.29282 10.884C9.29841 10.9005 9.29245 10.9187 9.2782 10.9287C9.26395 10.9387 9.24482 10.9381 9.23122 10.9272L8.99122 10.7552L8.75122 10.9272C8.73744 10.9369 8.71906 10.9369 8.70526 10.9272C8.69147 10.9176 8.68521 10.9003 8.68962 10.884L8.78002 10.6024L8.54002 10.4256C8.52692 10.4151 8.52177 10.3975 8.52714 10.3816C8.5325 10.3657 8.54724 10.3548 8.56402 10.3544H8.85922L8.95442 10.0728C8.95442 10.0597 8.96144 10.0475 8.97282 10.0409C8.98421 10.0344 8.99824 10.0344 9.00962 10.0409ZM6.76482 10.0728L6.86002 10.3544H7.15522C7.17201 10.3548 7.18675 10.3657 7.19211 10.3816C7.19748 10.3975 7.19233 10.4151 7.17922 10.4256L6.93922 10.6024L7.02962 10.884C7.03521 10.9005 7.02925 10.9187 7.015 10.9287C7.00075 10.9387 6.98162 10.9381 6.96802 10.9272L6.72802 10.7552L6.48802 10.9272C6.47424 10.9369 6.45586 10.9369 6.44206 10.9272C6.42827 10.9176 6.42201 10.9003 6.42642 10.884L6.51682 10.6024L6.27682 10.4256C6.26372 10.4151 6.25857 10.3975 6.26394 10.3816C6.2693 10.3657 6.28403 10.3548 6.30082 10.3544H6.59602L6.69122 10.0728C6.70082 10.0344 6.75362 10.0344 6.76482 10.0728ZM4.49602 10.0728L4.59122 10.3544H4.88642C4.90321 10.3548 4.91795 10.3657 4.92331 10.3816C4.92868 10.3975 4.92353 10.4151 4.91042 10.4256L4.67042 10.6024L4.76082 10.884C4.76641 10.9005 4.76046 10.9187 4.7462 10.9287C4.73195 10.9387 4.71282 10.9381 4.69922 10.9272L4.45922 10.7552L4.21922 10.9272C4.20544 10.9369 4.18706 10.9369 4.17326 10.9272C4.15947 10.9176 4.15321 10.9003 4.15762 10.884L4.24802 10.6024L4.00802 10.4256C3.99492 10.4151 3.98977 10.3975 3.99513 10.3816C4.0005 10.3657 4.01523 10.3548 4.03202 10.3544H4.33602L4.43122 10.0728C4.43202 10.0344 4.48482 10.0344 4.49602 10.0728ZM3.36162 9.35201L3.45682 9.63361H3.75202C3.76881 9.63403 3.78355 9.6449 3.78891 9.66082C3.79428 9.67673 3.78913 9.6943 3.77602 9.70481L3.53602 9.88161L3.62642 10.1632C3.63201 10.1797 3.62606 10.1979 3.6118 10.2079C3.59755 10.2179 3.57842 10.2173 3.56482 10.2064L3.32482 10.0344L3.08482 10.2064C3.07104 10.2161 3.05266 10.2161 3.03886 10.2064C3.02507 10.1968 3.01881 10.1795 3.02322 10.1632L3.11362 9.88161L2.87362 9.70481C2.86052 9.6943 2.85537 9.67673 2.86073 9.66082C2.8661 9.6449 2.88083 9.63403 2.89762 9.63361H3.20162L3.29682 9.35201C3.29762 9.31921 3.35042 9.31921 3.36162 9.35201ZM10.1624 9.35201L10.2576 9.63361H10.5528C10.5696 9.63403 10.5843 9.6449 10.5897 9.66082C10.5951 9.67673 10.5899 9.6943 10.5768 9.70481L10.3368 9.88161L10.4272 10.1632C10.4328 10.1797 10.4269 10.1979 10.4126 10.2079C10.3984 10.2179 10.3792 10.2173 10.3656 10.2064L10.1256 10.0344L9.88562 10.2064C9.87184 10.2161 9.85346 10.2161 9.83966 10.2064C9.82587 10.1968 9.81961 10.1795 9.82402 10.1632L9.91442 9.88161L9.67442 9.70481C9.66132 9.6943 9.65617 9.67673 9.66153 9.66082C9.6669 9.6449 9.68163 9.63403 9.69842 9.63361H9.99362L10.0888 9.35201C10.1032 9.31921 10.156 9.31921 10.1624 9.35201ZM1.09362 9.35201L1.18882 9.63361H1.48402C1.50081 9.63403 1.51555 9.6449 1.52091 9.66082C1.52628 9.67673 1.52113 9.6943 1.50802 9.70481L1.26802 9.88161L1.35842 10.1632C1.36401 10.1797 1.35805 10.1979 1.3438 10.2079C1.32955 10.2179 1.31042 10.2173 1.29682 10.2064L1.05682 10.0344L0.816824 10.2064C0.803037 10.2161 0.784658 10.2161 0.770863 10.2064C0.757067 10.1968 0.750814 10.1795 0.755224 10.1632L0.845624 9.88161L0.605624 9.70481C0.592519 9.6943 0.58737 9.67673 0.592735 9.66082C0.5981 9.6449 0.612835 9.63403 0.629624 9.63361H0.933624L1.02882 9.35201C1.03442 9.31921 1.08242 9.31921 1.09362 9.35201ZM7.89362 9.35201L7.98882 9.63361H8.28402C8.30081 9.63403 8.31555 9.6449 8.32091 9.66082C8.32628 9.67673 8.32113 9.6943 8.30802 9.70481L8.06802 9.88161L8.15842 10.1632C8.16401 10.1797 8.15806 10.1979 8.14381 10.2079C8.12955 10.2179 8.11042 10.2173 8.09682 10.2064L7.85682 10.0344L7.61682 10.2064C7.60304 10.2161 7.58466 10.2161 7.57086 10.2064C7.55707 10.1968 7.55081 10.1795 7.55522 10.1632L7.64562 9.88161L7.40562 9.70481C7.39252 9.6943 7.38737 9.67673 7.39274 9.66082C7.3981 9.6449 7.41284 9.63403 7.42962 9.63361H7.72482L7.82002 9.35201C7.83442 9.31921 7.88722 9.31921 7.89362 9.35201ZM5.63042 9.35201L5.72562 9.63361H6.02082C6.03761 9.63403 6.05235 9.6449 6.05771 9.66082C6.06308 9.67673 6.05793 9.6943 6.04482 9.70481L5.80482 9.88161L5.89522 10.1632C5.90081 10.1797 5.89486 10.1979 5.8806 10.2079C5.86635 10.2179 5.84722 10.2173 5.83362 10.2064L5.59362 10.0344L5.35362 10.2064C5.33984 10.2161 5.32146 10.2161 5.30766 10.2064C5.29387 10.1968 5.28761 10.1795 5.29202 10.1632L5.38242 9.88161L5.14242 9.70481C5.12932 9.6943 5.12417 9.67673 5.12953 9.66082C5.1349 9.6449 5.14963 9.63403 5.16642 9.63361H5.47042L5.56562 9.35201C5.56642 9.31921 5.61922 9.31921 5.63042 9.35201ZM2.22802 8.60881L2.32322 8.89041H2.61842C2.63521 8.89083 2.64995 8.9017 2.65531 8.91762C2.66068 8.93353 2.65553 8.9511 2.64242 8.96161L2.40242 9.13841L2.49282 9.42001C2.49841 9.43649 2.49245 9.45469 2.4782 9.46468C2.46395 9.47467 2.44482 9.47407 2.43122 9.46321L2.19122 9.29121L1.95122 9.46321C1.93744 9.47289 1.91906 9.4729 1.90526 9.46323C1.89147 9.45355 1.88521 9.43627 1.88962 9.42001L1.98802 9.14001L1.74802 8.96321C1.73492 8.9527 1.72977 8.93513 1.73513 8.91922C1.7405 8.9033 1.75523 8.89243 1.77202 8.89201H2.06802L2.16322 8.61041C2.16882 8.57041 2.21682 8.57041 2.22802 8.60881ZM8.99122 8.57201C9.01155 8.57201 9.02802 8.58848 9.02802 8.60881L9.12322 8.89041H9.41842C9.43521 8.89083 9.44995 8.9017 9.45531 8.91762C9.46068 8.93353 9.45553 8.9511 9.44242 8.96161L9.20242 9.13841L9.29282 9.42001C9.29841 9.43649 9.29245 9.45469 9.2782 9.46468C9.26395 9.47467 9.24482 9.47407 9.23122 9.46321L8.99122 9.29121L8.75122 9.46321C8.73744 9.47289 8.71906 9.4729 8.70526 9.46323C8.69147 9.45355 8.68521 9.43627 8.68962 9.42001L8.78002 9.13841L8.54002 8.96161C8.52692 8.9511 8.52177 8.93353 8.52714 8.91762C8.5325 8.9017 8.54724 8.89083 8.56402 8.89041H8.85922L8.95442 8.60881C8.95442 8.58848 8.9709 8.57201 8.99122 8.57201ZM6.76482 8.60881L6.86002 8.89041H7.15522C7.17201 8.89083 7.18675 8.9017 7.19211 8.91762C7.19748 8.93353 7.19233 8.9511 7.17922 8.96161L6.93922 9.13841L7.02962 9.42001C7.03521 9.43649 7.02925 9.45469 7.015 9.46468C7.00075 9.47467 6.98162 9.47407 6.96802 9.46321L6.72802 9.29121L6.48802 9.46321C6.47424 9.47289 6.45586 9.4729 6.44206 9.46323C6.42827 9.45355 6.42201 9.43627 6.42642 9.42001L6.51682 9.13841L6.27682 8.96161C6.26372 8.9511 6.25857 8.93353 6.26394 8.91762C6.2693 8.9017 6.28403 8.89083 6.30082 8.89041H6.59602L6.69122 8.60881C6.70082 8.57041 6.75362 8.57041 6.76482 8.60881ZM4.49602 8.60881L4.59122 8.89041H4.88642C4.90321 8.89083 4.91795 8.9017 4.92331 8.91762C4.92868 8.93353 4.92353 8.9511 4.91042 8.96161L4.67042 9.13841L4.76082 9.42001C4.76641 9.43649 4.76046 9.45469 4.7462 9.46468C4.73195 9.47467 4.71282 9.47407 4.69922 9.46321L4.45922 9.29121L4.21922 9.46321C4.20544 9.47289 4.18706 9.4729 4.17326 9.46323C4.15947 9.45355 4.15321 9.43627 4.15762 9.42001L4.25602 9.14001L4.01602 8.96321C4.00292 8.9527 3.99777 8.93513 4.00313 8.91922C4.0085 8.9033 4.02323 8.89243 4.04002 8.89201H4.33602L4.43122 8.61041C4.43202 8.57041 4.48482 8.57041 4.49602 8.60881ZM3.36162 7.89281L3.45682 8.17441H3.75202C3.76881 8.17483 3.78355 8.1857 3.78891 8.20162C3.79428 8.21753 3.78913 8.2351 3.77602 8.24561L3.53602 8.42241L3.62642 8.70401C3.63201 8.72049 3.62606 8.73869 3.6118 8.74868C3.59755 8.75867 3.57842 8.75807 3.56482 8.74721L3.32482 8.57521L3.08482 8.74721C3.07104 8.75689 3.05266 8.7569 3.03886 8.74723C3.02507 8.73755 3.01881 8.72027 3.02322 8.70401L3.12162 8.42401L2.88162 8.24721C2.86852 8.2367 2.86337 8.21913 2.86873 8.20322C2.8741 8.1873 2.88883 8.17643 2.90562 8.17601H3.20162L3.29682 7.89441C3.29762 7.85441 3.35042 7.85441 3.36162 7.89281ZM10.129 7.86726C10.1447 7.86687 10.1587 7.8775 10.1624 7.89281L10.2576 8.17441H10.5528C10.5696 8.17483 10.5843 8.1857 10.5897 8.20162C10.5951 8.21753 10.5899 8.2351 10.5768 8.24561L10.3368 8.42241L10.4272 8.70401C10.4328 8.72049 10.4269 8.73869 10.4126 8.74868C10.3984 8.75867 10.3792 8.75807 10.3656 8.74721L10.1256 8.57521L9.88562 8.74721C9.87184 8.75689 9.85346 8.7569 9.83966 8.74723C9.82587 8.73755 9.81961 8.72027 9.82402 8.70401L9.92242 8.42401L9.68242 8.24721C9.66932 8.2367 9.66417 8.21913 9.66953 8.20322C9.6749 8.1873 9.68963 8.17643 9.70642 8.17601H10.0016L10.0968 7.89441C10.0998 7.87893 10.1132 7.86764 10.129 7.86726ZM7.85682 7.85601C7.87715 7.85601 7.89362 7.87248 7.89362 7.89281L7.98882 8.17441H8.28402C8.30081 8.17483 8.31555 8.1857 8.32091 8.20162C8.32628 8.21753 8.32113 8.2351 8.30802 8.24561L8.06802 8.42241L8.15842 8.70401C8.16401 8.72049 8.15806 8.73869 8.14381 8.74868C8.12955 8.75867 8.11042 8.75807 8.09682 8.74721L7.85682 8.57521L7.61682 8.74721C7.60304 8.75689 7.58466 8.7569 7.57086 8.74723C7.55707 8.73755 7.55081 8.72027 7.55522 8.70401L7.64562 8.42241L7.40562 8.24561C7.39252 8.2351 7.38737 8.21753 7.39274 8.20162C7.3981 8.1857 7.41284 8.17483 7.42962 8.17441H7.72482L7.82002 7.89281C7.82002 7.87248 7.8365 7.85601 7.85682 7.85601ZM1.09362 7.89281L1.18882 8.17441H1.48402C1.50081 8.17483 1.51555 8.1857 1.52091 8.20162C1.52628 8.21753 1.52113 8.2351 1.50802 8.24561L1.26802 8.42241L1.35842 8.70401C1.36401 8.72049 1.35805 8.73869 1.3438 8.74868C1.32955 8.75867 1.31042 8.75807 1.29682 8.74721L1.05682 8.57521L0.816824 8.74721C0.803037 8.75689 0.784658 8.7569 0.770863 8.74723C0.757067 8.73755 0.750814 8.72027 0.755224 8.70401L0.853624 8.42401L0.613624 8.24721C0.600519 8.2367 0.59537 8.21913 0.600735 8.20322C0.606099 8.1873 0.620835 8.17643 0.637624 8.17601H0.933624L1.02882 7.89441C1.03442 7.85441 1.08242 7.85441 1.09362 7.89281ZM5.63042 7.89281L5.72562 8.17441H6.02082C6.03761 8.17483 6.05235 8.1857 6.05771 8.20162C6.06308 8.21753 6.05793 8.2351 6.04482 8.24561L5.80482 8.42241L5.89522 8.70401C5.90081 8.72049 5.89486 8.73869 5.8806 8.74868C5.86635 8.75867 5.84722 8.75807 5.83362 8.74721L5.59362 8.57521L5.35362 8.74721C5.33984 8.75689 5.32146 8.7569 5.30766 8.74723C5.29387 8.73755 5.28761 8.72027 5.29202 8.70401L5.38242 8.42241L5.14242 8.24561C5.12932 8.2351 5.12417 8.21753 5.12953 8.20162C5.1349 8.1857 5.14963 8.17483 5.16642 8.17441H5.47042L5.56562 7.89281C5.56642 7.85441 5.61922 7.85441 5.63042 7.89281ZM2.22802 7.14321L2.32322 7.42481H2.61842C2.63521 7.42523 2.64995 7.4361 2.65531 7.45202C2.66068 7.46793 2.65553 7.4855 2.64242 7.49601L2.40242 7.67281L2.49282 7.95441C2.49841 7.97089 2.49245 7.98909 2.4782 7.99908C2.46395 8.00907 2.44482 8.00847 2.43122 7.99761L2.19122 7.82561L1.95122 7.99761C1.93744 8.00729 1.91906 8.0073 1.90526 7.99763C1.89147 7.98795 1.88521 7.97067 1.88962 7.95441L1.98002 7.67281L1.74002 7.49601C1.72692 7.4855 1.72177 7.46793 1.72713 7.45202C1.7325 7.4361 1.74723 7.42523 1.76402 7.42481H2.06802L2.16322 7.14321C2.16882 7.11041 2.21682 7.11041 2.22802 7.14321ZM6.76482 7.14321L6.86002 7.42481H7.15522C7.17201 7.42523 7.18675 7.4361 7.19211 7.45202C7.19748 7.46793 7.19233 7.4855 7.17922 7.49601L6.93922 7.67281L7.02962 7.95441C7.03521 7.97089 7.02925 7.98909 7.015 7.99908C7.00075 8.00907 6.98162 8.00847 6.96802 7.99761L6.72802 7.82561L6.48802 7.99761C6.47424 8.00729 6.45586 8.0073 6.44206 7.99763C6.42827 7.98795 6.42201 7.97067 6.42642 7.95441L6.51682 7.67281L6.27682 7.49601C6.26372 7.4855 6.25857 7.46793 6.26394 7.45202C6.2693 7.4361 6.28403 7.42523 6.30082 7.42481H6.59602L6.69122 7.14321C6.70082 7.11041 6.75362 7.11041 6.76482 7.14321ZM4.49602 7.14321L4.59122 7.42481H4.88642C4.90321 7.42523 4.91795 7.4361 4.92331 7.45202C4.92868 7.46793 4.92353 7.4855 4.91042 7.49601L4.67042 7.67281L4.76082 7.95441C4.76641 7.97089 4.76046 7.98909 4.7462 7.99908C4.73195 8.00907 4.71282 8.00847 4.69922 7.99761L4.45922 7.82561L4.21922 7.99761C4.20544 8.00729 4.18706 8.0073 4.17326 7.99763C4.15947 7.98795 4.15321 7.97067 4.15762 7.95441L4.24802 7.67281L4.00802 7.49601C3.99492 7.4855 3.98977 7.46793 3.99513 7.45202C4.0005 7.4361 4.01523 7.42523 4.03202 7.42481H4.33602L4.43122 7.14321C4.43202 7.11041 4.48482 7.11041 4.49602 7.14321ZM9.02802 7.14321L9.12322 7.42481H9.41842C9.43521 7.42523 9.44995 7.4361 9.45531 7.45202C9.46068 7.46793 9.45553 7.4855 9.44242 7.49601L9.20242 7.67281L9.29282 7.95441C9.29841 7.97089 9.29245 7.98909 9.2782 7.99908C9.26395 8.00907 9.24482 8.00847 9.23122 7.99761L8.99122 7.82561L8.75122 7.99761C8.73744 8.00729 8.71906 8.0073 8.70526 7.99763C8.69147 7.98795 8.68521 7.97067 8.68962 7.95441L8.78002 7.67281L8.54002 7.49601C8.52692 7.4855 8.52177 7.46793 8.52714 7.45202C8.5325 7.4361 8.54724 7.42523 8.56402 7.42481H8.85922L8.95442 7.14321C8.96882 7.11041 9.02162 7.11041 9.02802 7.14321ZM5.63042 6.42801L5.72562 6.70961H6.02082C6.03761 6.71003 6.05235 6.7209 6.05771 6.73682C6.06308 6.75273 6.05793 6.7703 6.04482 6.78081L5.80482 6.95761L5.89522 7.23921C5.90081 7.25569 5.89486 7.27389 5.8806 7.28388C5.86635 7.29387 5.84722 7.29327 5.83362 7.28241L5.59362 7.11041L5.35362 7.28241C5.33984 7.29209 5.32146 7.2921 5.30766 7.28243C5.29387 7.27275 5.28761 7.25547 5.29202 7.23921L5.38242 6.95761L5.14242 6.78081C5.12932 6.7703 5.12417 6.75273 5.12953 6.73682C5.1349 6.7209 5.14963 6.71003 5.16642 6.70961H5.47042L5.56562 6.42801C5.56642 6.39521 5.61922 6.39521 5.63042 6.42801ZM1.09362 6.42801L1.18882 6.70961H1.48402C1.50081 6.71003 1.51555 6.7209 1.52091 6.73682C1.52628 6.75273 1.52113 6.7703 1.50802 6.78081L1.26802 6.95761L1.35842 7.23921C1.36401 7.25569 1.35805 7.27389 1.3438 7.28388C1.32955 7.29387 1.31042 7.29327 1.29682 7.28241L1.05682 7.11041L0.816824 7.28241C0.803037 7.29209 0.784658 7.2921 0.770863 7.28243C0.757067 7.27275 0.750814 7.25547 0.755224 7.23921L0.845624 6.95761L0.605624 6.78081C0.592519 6.7703 0.58737 6.75273 0.592735 6.73682C0.5981 6.7209 0.612835 6.71003 0.629624 6.70961H0.933624L1.02882 6.42801C1.03442 6.39521 1.08242 6.39521 1.09362 6.42801ZM3.36482 6.42801L3.46002 6.70961H3.75682C3.77361 6.71003 3.78835 6.7209 3.79371 6.73682C3.79908 6.75273 3.79393 6.7703 3.78082 6.78081L3.54082 6.95761L3.63122 7.23921C3.63681 7.25569 3.63085 7.27389 3.6166 7.28388C3.60235 7.29387 3.58322 7.29327 3.56962 7.28241L3.32962 7.11041L3.08962 7.28241C3.07584 7.29209 3.05746 7.2921 3.04366 7.28243C3.02987 7.27275 3.02361 7.25547 3.02802 7.23921L3.11842 6.95761L2.87842 6.78081C2.86532 6.7703 2.86017 6.75273 2.86554 6.73682C2.8709 6.7209 2.88563 6.71003 2.90242 6.70961H3.19682L3.29202 6.42801C3.29762 6.39521 3.35042 6.39521 3.36482 6.42801ZM7.89362 6.42801L7.98882 6.70961H8.28402C8.30081 6.71003 8.31555 6.7209 8.32091 6.73682C8.32628 6.75273 8.32113 6.7703 8.30802 6.78081L8.06802 6.95761L8.15842 7.23921C8.16401 7.25569 8.15806 7.27389 8.14381 7.28388C8.12955 7.29387 8.11042 7.29327 8.09682 7.28241L7.85682 7.11041L7.61682 7.28241C7.60304 7.29209 7.58466 7.2921 7.57086 7.28243C7.55707 7.27275 7.55081 7.25547 7.55522 7.23921L7.64562 6.95761L7.40562 6.78081C7.39252 6.7703 7.38737 6.75273 7.39274 6.73682C7.3981 6.7209 7.41284 6.71003 7.42962 6.70961H7.72482L7.82002 6.42801C7.83442 6.39521 7.88722 6.39521 7.89362 6.42801ZM10.1624 6.42801L10.2576 6.70961H10.5528C10.5696 6.71003 10.5843 6.7209 10.5897 6.73682C10.5951 6.75273 10.5899 6.7703 10.5768 6.78081L10.3368 6.95761L10.4272 7.23921C10.4328 7.25569 10.4269 7.27389 10.4126 7.28388C10.3984 7.29387 10.3792 7.29327 10.3656 7.28241L10.1256 7.11041L9.88562 7.28241C9.87184 7.29209 9.85346 7.2921 9.83966 7.28243C9.82587 7.27275 9.81961 7.25547 9.82402 7.23921L9.91442 6.95761L9.67442 6.78081C9.66132 6.7703 9.65617 6.75273 9.66153 6.73682C9.6669 6.7209 9.68163 6.71003 9.69842 6.70961H9.99362L10.0888 6.42801C10.1032 6.39521 10.156 6.39521 10.1624 6.42801ZM6.76482 5.68401L6.86002 5.96561H7.15522C7.17201 5.96603 7.18675 5.9769 7.19211 5.99282C7.19748 6.00873 7.19233 6.0263 7.17922 6.03681L6.93922 6.21361L7.02962 6.49521C7.03521 6.51169 7.02925 6.52989 7.015 6.53988C7.00075 6.54987 6.98162 6.54927 6.96802 6.53841L6.72802 6.36641L6.48802 6.53841C6.47424 6.54809 6.45586 6.5481 6.44206 6.53843C6.42827 6.52875 6.42201 6.51147 6.42642 6.49521L6.51682 6.21361L6.27682 6.03681C6.26372 6.0263 6.25857 6.00873 6.26394 5.99282C6.2693 5.9769 6.28403 5.96603 6.30082 5.96561H6.59602L6.69122 5.68401C6.70082 5.64561 6.75362 5.64561 6.76482 5.68401ZM4.49602 5.68401L4.59122 5.96561H4.88642C4.90321 5.96603 4.91795 5.9769 4.92331 5.99282C4.92868 6.00873 4.92353 6.0263 4.91042 6.03681L4.67042 6.21361L4.76082 6.49521C4.76641 6.51169 4.76046 6.52989 4.7462 6.53988C4.73195 6.54987 4.71282 6.54927 4.69922 6.53841L4.45922 6.36641L4.21922 6.53841C4.20544 6.54809 4.18706 6.5481 4.17326 6.53843C4.15947 6.52875 4.15321 6.51147 4.15762 6.49521L4.25602 6.21521L4.01602 6.03841C4.00292 6.0279 3.99777 6.01033 4.00313 5.99442C4.0085 5.9785 4.02323 5.96763 4.04002 5.96721H4.33602L4.43122 5.68561C4.43202 5.64561 4.48482 5.64561 4.49602 5.68401ZM2.22802 5.68401L2.32322 5.96561H2.61842C2.63521 5.96603 2.64995 5.9769 2.65531 5.99282C2.66068 6.00873 2.65553 6.0263 2.64242 6.03681L2.40242 6.21361L2.49282 6.49521C2.49841 6.51169 2.49245 6.52989 2.4782 6.53988C2.46395 6.54987 2.44482 6.54927 2.43122 6.53841L2.19122 6.36641L1.95122 6.53841C1.93744 6.54809 1.91906 6.5481 1.90526 6.53843C1.89147 6.52875 1.88521 6.51147 1.88962 6.49521L1.98802 6.21521L1.74802 6.03841C1.73492 6.0279 1.72977 6.01033 1.73513 5.99442C1.7405 5.9785 1.75523 5.96763 1.77202 5.96721H2.06802L2.16322 5.68561C2.16882 5.64561 2.21682 5.64561 2.22802 5.68401ZM9.00962 5.65214C9.02101 5.65871 9.02802 5.67086 9.02802 5.68401L9.12322 5.96561H9.41842C9.43521 5.96603 9.44995 5.9769 9.45531 5.99282C9.46068 6.00873 9.45553 6.0263 9.44242 6.03681L9.20242 6.21361L9.29282 6.49521C9.29841 6.51169 9.29245 6.52989 9.2782 6.53988C9.26395 6.54987 9.24482 6.54927 9.23122 6.53841L8.99122 6.36641L8.75122 6.53841C8.73744 6.54809 8.71906 6.5481 8.70526 6.53843C8.69147 6.52875 8.68521 6.51147 8.68962 6.49521L8.78002 6.21361L8.54002 6.03681C8.52692 6.0263 8.52177 6.00873 8.52714 5.99282C8.5325 5.9769 8.54724 5.96603 8.56402 5.96561H8.85922L8.95442 5.68401C8.95442 5.67086 8.96144 5.65871 8.97282 5.65214C8.98421 5.64556 8.99824 5.64556 9.00962 5.65214ZM1.09362 4.96881L1.18882 5.25041H1.48402C1.50081 5.25083 1.51555 5.2617 1.52091 5.27762C1.52628 5.29353 1.52113 5.3111 1.50802 5.32161L1.26802 5.49841L1.35842 5.78001C1.36401 5.79649 1.35805 5.81469 1.3438 5.82468C1.32955 5.83467 1.31042 5.83407 1.29682 5.82321L1.05682 5.65121L0.816824 5.82321C0.803037 5.83289 0.784658 5.8329 0.770863 5.82323C0.757067 5.81355 0.750814 5.79627 0.755224 5.78001L0.853624 5.50001L0.613624 5.32321C0.600519 5.3127 0.59537 5.29513 0.600735 5.27922C0.606099 5.2633 0.620835 5.25243 0.637624 5.25201H0.933624L1.02882 4.97041C1.03442 4.93041 1.08242 4.93041 1.09362 4.96881ZM3.36162 4.96881L3.45682 5.25041H3.75202C3.76881 5.25083 3.78355 5.2617 3.78891 5.27762C3.79428 5.29353 3.78913 5.3111 3.77602 5.32161L3.53602 5.49841L3.62642 5.78001C3.63201 5.79649 3.62606 5.81469 3.6118 5.82468C3.59755 5.83467 3.57842 5.83407 3.56482 5.82321L3.32482 5.65121L3.08482 5.82321C3.07104 5.83289 3.05266 5.8329 3.03886 5.82323C3.02507 5.81355 3.01881 5.79627 3.02322 5.78001L3.12162 5.50001L2.88162 5.32321C2.86852 5.3127 2.86337 5.29513 2.86873 5.27922C2.8741 5.2633 2.88883 5.25243 2.90562 5.25201H3.20162L3.29682 4.97041C3.29762 4.93041 3.35042 4.93041 3.36162 4.96881ZM5.63042 4.96881L5.72562 5.25041H6.02082C6.03761 5.25083 6.05235 5.2617 6.05771 5.27762C6.06308 5.29353 6.05793 5.3111 6.04482 5.32161L5.80482 5.49841L5.89522 5.78001C5.90081 5.79649 5.89486 5.81469 5.8806 5.82468C5.86635 5.83467 5.84722 5.83407 5.83362 5.82321L5.59362 5.65121L5.35362 5.82321C5.33984 5.83289 5.32146 5.8329 5.30766 5.82323C5.29387 5.81355 5.28761 5.79627 5.29202 5.78001L5.38242 5.49841L5.14242 5.32161C5.12932 5.3111 5.12417 5.29353 5.12953 5.27762C5.1349 5.2617 5.14963 5.25083 5.16642 5.25041H5.47042L5.56562 4.96881C5.56642 4.93041 5.61922 4.93041 5.63042 4.96881ZM7.87522 4.93694C7.88661 4.94351 7.89362 4.95566 7.89362 4.96881L7.98882 5.25041H8.28402C8.30081 5.25083 8.31555 5.2617 8.32091 5.27762C8.32628 5.29353 8.32113 5.3111 8.30802 5.32161L8.06802 5.49841L8.15842 5.78001C8.16401 5.79649 8.15806 5.81469 8.14381 5.82468C8.12955 5.83467 8.11042 5.83407 8.09682 5.82321L7.85682 5.65121L7.61682 5.82321C7.60304 5.83289 7.58466 5.8329 7.57086 5.82323C7.55707 5.81355 7.55081 5.79627 7.55522 5.78001L7.64562 5.49841L7.40562 5.32161C7.39252 5.3111 7.38737 5.29353 7.39274 5.27762C7.3981 5.2617 7.41284 5.25083 7.42962 5.25041H7.72482L7.82002 4.96881C7.82002 4.95566 7.82704 4.94351 7.83842 4.93694C7.84981 4.93036 7.86384 4.93036 7.87522 4.93694ZM10.129 4.94326C10.1447 4.94287 10.1587 4.9535 10.1624 4.96881L10.2576 5.25041H10.5528C10.5696 5.25083 10.5843 5.2617 10.5897 5.27762C10.5951 5.29353 10.5899 5.3111 10.5768 5.32161L10.3368 5.49841L10.4272 5.78001C10.4328 5.79649 10.4269 5.81469 10.4126 5.82468C10.3984 5.83467 10.3792 5.83407 10.3656 5.82321L10.1256 5.65121L9.88562 5.82321C9.87184 5.83289 9.85346 5.8329 9.83966 5.82323C9.82587 5.81355 9.81961 5.79627 9.82402 5.78001L9.92242 5.50001L9.68242 5.32321C9.66932 5.3127 9.66417 5.29513 9.66953 5.27922C9.6749 5.2633 9.68963 5.25243 9.70642 5.25201H10.0016L10.0968 4.97041C10.0998 4.95493 10.1132 4.94364 10.129 4.94326Z" fill="#F5F5F5"/>
<path d="M22.5 4.5H1.5C0.947715 4.5 0.5 4.94772 0.5 5.5V18.5C0.5 19.0523 0.947715 19.5 1.5 19.5H22.5C23.0523 19.5 23.5 19.0523 23.5 18.5V5.5C23.5 4.94772 23.0523 4.5 22.5 4.5Z" stroke="black" stroke-opacity="0.04"/>
</g>
<path d="M30.2026 12H9.79742C8.8047 12 8 12.8188 8 13.8289V26.1711C8 27.1811 8.8047 28 9.79742 28H30.2026C31.1952 28 32 27.1812 32 26.1711V13.8289C32 12.8188 31.1953 12 30.2026 12Z" fill="white"/>
<path d="M20 24.6313C22.5137 24.6313 24.5516 22.5578 24.5516 19.9999C24.5516 17.4421 22.5137 15.3685 20 15.3685C17.4862 15.3685 15.4484 17.4421 15.4484 19.9999C15.4484 22.5578 17.4862 24.6313 20 24.6313Z" fill="#ED293F"/>
<path d="M30.5 12.4877H9.5C8.94772 12.4877 8.5 12.9361 8.5 13.4893V26.5106C8.5 27.0638 8.94772 27.5123 9.5 27.5123H30.5C31.0523 27.5123 31.5 27.0638 31.5 26.5106V13.4893C31.5 12.9361 31.0523 12.4877 30.5 12.4877Z" stroke="black" stroke-opacity="0.04"/>
</svg>
