<svg width="32" height="32" viewBox="0 0 32 32" fill="none" xmlns="http://www.w3.org/2000/svg">
<defs>
<linearGradient id="paint0_linear" x1="16.0001" y1="9" x2="16.0001" y2="16" gradientUnits="userSpaceOnUse">
<stop stop-color="#FFED00"/>
<stop offset="1" stop-color="#FFD700"/>
</linearGradient>
<linearGradient id="paint1_linear" x1="9.00012" y1="17" x2="9.00012" y2="24" gradientUnits="userSpaceOnUse">
<stop stop-color="#FFED00"/>
<stop offset="1" stop-color="#FFD700"/>
</linearGradient>
<linearGradient id="paint2_linear" x1="23.0001" y1="17" x2="23.0001" y2="24" gradientUnits="userSpaceOnUse">
<stop stop-color="#FFED00"/>
<stop offset="1" stop-color="#FFD700"/>
</linearGradient>
</defs>
<path d="M13.118 9H18.882C19.2607 9 19.607 9.214 19.7764 9.55279L22.2764 14.5528C22.5234 15.0468 22.3232 15.6474 21.8292 15.8944C21.6903 15.9639 21.5372 16 21.382 16H10.618C10.0658 16 9.61804 15.5523 9.61804 15C9.61804 14.8448 9.65419 14.6916 9.72361 14.5528L12.2236 9.55279C12.393 9.214 12.7393 9 13.118 9Z" fill="url(#paint0_linear)"/>
<path d="M6.11804 17H11.882C12.2607 17 12.607 17.214 12.7764 17.5528L15.2764 22.5528C15.5234 23.0468 15.3232 23.6474 14.8292 23.8944C14.6903 23.9639 14.5372 24 14.382 24H3.61804C3.06576 24 2.61804 23.5523 2.61804 23C2.61804 22.8448 2.65419 22.6916 2.72361 22.5528L5.22361 17.5528C5.39301 17.214 5.73927 17 6.11804 17Z" fill="url(#paint1_linear)"/>
<path d="M20.118 17H25.882C26.2607 17 26.607 17.214 26.7764 17.5528L29.2764 22.5528C29.5234 23.0468 29.3232 23.6474 28.8292 23.8944C28.6903 23.9639 28.5372 24 28.382 24H17.618C17.0658 24 16.618 23.5523 16.618 23C16.618 22.8448 16.6542 22.6916 16.7236 22.5528L19.2236 17.5528C19.393 17.214 19.7393 17 20.118 17Z" fill="url(#paint2_linear)"/>
<path d="M18.882 9C19.2607 9 19.607 9.214 19.7764 9.55279L22.2764 14.5528C22.5234 15.0468 22.3232 15.6474 21.8292 15.8944C21.6903 15.9639 21.5372 16 21.382 16H10.618C10.0658 16 9.61804 15.5523 9.61804 15C9.61804 14.8448 9.65419 14.6916 9.72361 14.5528L12.2236 9.55279C12.393 9.214 12.7393 9 13.118 9H18.882ZM21.382 15L18.881 10H13.118L10.618 15H21.382Z" fill="black" fill-opacity="0.08"/>
<path d="M11.882 17C12.2607 17 12.607 17.214 12.7764 17.5528L15.2764 22.5528C15.5234 23.0468 15.3232 23.6474 14.8292 23.8944C14.6903 23.9639 14.5372 24 14.382 24H3.61804C3.06576 24 2.61804 23.5523 2.61804 23C2.61804 22.8448 2.65419 22.6916 2.72361 22.5528L5.22361 17.5528C5.39301 17.214 5.73927 17 6.11804 17H11.882ZM14.382 23L11.881 18H6.11804L3.61804 23H14.382Z" fill="black" fill-opacity="0.08"/>
<path d="M25.882 17C26.2607 17 26.607 17.214 26.7764 17.5528L29.2764 22.5528C29.5234 23.0468 29.3232 23.6474 28.8292 23.8944C28.6903 23.9639 28.5372 24 28.382 24H17.618C17.0658 24 16.618 23.5523 16.618 23C16.618 22.8448 16.6542 22.6916 16.7236 22.5528L19.2236 17.5528C19.393 17.214 19.7393 17 20.118 17H25.882ZM28.382 23L25.881 18H20.118L17.618 23H28.382Z" fill="black" fill-opacity="0.08"/>
</svg>
