<svg width="32" height="32" viewBox="0 0 32 32" fill="none" xmlns="http://www.w3.org/2000/svg">
<mask id="mask0" mask-type="alpha" maskUnits="userSpaceOnUse" x="4" y="8" width="24" height="16">
<path d="M26 8H6C4.89543 8 4 8.89543 4 10V22C4 23.1046 4.89543 24 6 24H26C27.1046 24 28 23.1046 28 22V10C28 8.89543 27.1046 8 26 8Z" fill="white"/>
</mask>
<g mask="url(#mask0)">
<path d="M26 8H6C4.89543 8 4 8.89543 4 10V22C4 23.1046 4.89543 24 6 24H26C27.1046 24 28 23.1046 28 22V10C28 8.89543 27.1046 8 26 8Z" fill="#0D47A1"/>
<path d="M27.9751 9.53723C27.8335 8.67252 27.094 8.01309 26.2026 8.01309H25.7349L18.069 13.1153V8.01309H13.931V13.1154L6.26509 8.01309H5.79742C4.906 8.01309 4.16655 8.67252 4.02489 9.53728L10.577 13.8982H4V18.1019H10.577L4.02489 22.4627C4.16655 23.3274 4.906 23.9869 5.79742 23.9869H6.26509L13.931 18.8846V23.9869H18.069V18.8846L25.7349 23.9869H26.2026C27.094 23.9869 27.8335 23.3275 27.9751 22.4627L21.423 18.1018H28V13.8981H21.423L27.9751 9.53723Z" fill="white"/>
<path d="M17.2414 8.01315V14.7389H28V17.2611H17.2414V23.9869H14.7586V17.2611H4V14.7389H14.7586V8.01315H17.2414ZM13.9082 18.1018L5.16217 23.8691C4.93421 23.7816 4.72851 23.6484 4.55567 23.4804L4.43238 23.3481L12.3882 18.1018H13.9082ZM20.2369 18.1018L27.7639 23.0651C27.651 23.2658 27.5018 23.4427 27.3253 23.5864L27.1879 23.6878L18.7169 18.1018H20.2369ZM4.72539 8.37343L13.1035 13.8982H11.5834L4.1898 9.02262C4.31636 8.76591 4.50044 8.54353 4.72539 8.37343ZM26.8235 8.1251C27.1105 8.23238 27.3626 8.41219 27.5594 8.64224L19.589 13.8982H18.069L26.8235 8.1251Z" fill="#F44336"/>
<path d="M26.5 8.5H5.5C4.94772 8.5 4.5 8.94772 4.5 9.5V22.5C4.5 23.0523 4.94772 23.5 5.5 23.5H26.5C27.0523 23.5 27.5 23.0523 27.5 22.5V9.5C27.5 8.94772 27.0523 8.5 26.5 8.5Z" stroke="black" stroke-opacity="0.04"/>
</g>
</svg>
