<svg width="32" height="32" viewBox="0 0 32 32" fill="none" xmlns="http://www.w3.org/2000/svg">
<mask id="mask0" mask-type="alpha" maskUnits="userSpaceOnUse" x="4" y="8" width="24" height="16">
<path d="M26 8H6C4.89543 8 4 8.89543 4 10V22C4 23.1046 4.89543 24 6 24H26C27.1046 24 28 23.1046 28 22V10C28 8.89543 27.1046 8 26 8Z" fill="white"/>
</mask>
<g mask="url(#mask0)">
<path d="M26 8H6C4.89543 8 4 8.89543 4 10V22C4 23.1046 4.89543 24 6 24H26C27.1046 24 28 23.1046 28 22V10C28 8.89543 27.1046 8 26 8Z" fill="white"/>
<path d="M28 22.688C28 23.4126 27.4126 24 26.688 24H5.312C4.5874 24 4 23.4126 4 22.688H28ZM28 20.24V21.464H4V20.24H28ZM28 17.792V19.016H4V17.792H28ZM28 15.344V16.568H4V15.344H28ZM28 12.896V14.12H4V12.896H28ZM28 10.448V11.672H4V10.448H28ZM26.776 8C27.4097 8 27.931 8.48164 27.9937 9.09885L28 9.224H4.68838C4.68838 8.548 5.23638 8 5.91238 8H26.776Z" fill="#F44336"/>
<path d="M6 8H15.5V16.568H4V10C4 8.89543 4.89543 8 6 8Z" fill="#0D47A1"/>
<path d="M5.09362 14.8168L5.18882 15.0984H5.48402C5.50081 15.0988 5.51555 15.1097 5.52091 15.1256C5.52628 15.1415 5.52113 15.1591 5.50802 15.1696L5.26802 15.3464L5.35842 15.628C5.36401 15.6445 5.35805 15.6627 5.3438 15.6727C5.32955 15.6827 5.31042 15.6821 5.29682 15.6712L5.05682 15.4992L4.81682 15.6712C4.80304 15.6809 4.78466 15.6809 4.77086 15.6712C4.75707 15.6615 4.75081 15.6443 4.75522 15.628L4.85362 15.348L4.61362 15.1712C4.60052 15.1607 4.59537 15.1431 4.60073 15.1272C4.6061 15.1113 4.62083 15.1004 4.63762 15.1H4.93362L5.02882 14.8184C5.03442 14.7784 5.08242 14.7784 5.09362 14.8168ZM14.129 14.7913C14.1447 14.7909 14.1587 14.8015 14.1624 14.8168L14.2576 15.0984H14.5528C14.5696 15.0988 14.5843 15.1097 14.5897 15.1256C14.5951 15.1415 14.5899 15.1591 14.5768 15.1696L14.3368 15.3464L14.4272 15.628C14.4328 15.6445 14.4269 15.6627 14.4126 15.6727C14.3984 15.6827 14.3792 15.6821 14.3656 15.6712L14.1256 15.4992L13.8856 15.6712C13.8718 15.6809 13.8535 15.6809 13.8397 15.6712C13.8259 15.6615 13.8196 15.6443 13.824 15.628L13.9224 15.348L13.6824 15.1712C13.6693 15.1607 13.6642 15.1431 13.6695 15.1272C13.6749 15.1113 13.6896 15.1004 13.7064 15.1H14.0016L14.0968 14.8184C14.0998 14.8029 14.1132 14.7916 14.129 14.7913ZM11.8602 14.7913C11.8759 14.7909 11.8899 14.8015 11.8936 14.8168L11.9888 15.0984H12.284C12.3008 15.0988 12.3155 15.1097 12.3209 15.1256C12.3263 15.1415 12.3211 15.1591 12.308 15.1696L12.068 15.3464L12.1584 15.628C12.164 15.6445 12.1581 15.6627 12.1438 15.6727C12.1296 15.6827 12.1104 15.6821 12.0968 15.6712L11.8568 15.4992L11.6168 15.6712C11.603 15.6809 11.5847 15.6809 11.5709 15.6712C11.5571 15.6615 11.5508 15.6443 11.5552 15.628L11.6536 15.348L11.4136 15.1712C11.4005 15.1607 11.3954 15.1431 11.4007 15.1272C11.4061 15.1113 11.4208 15.1004 11.4376 15.1H11.7328L11.828 14.8184C11.831 14.8029 11.8444 14.7916 11.8602 14.7913ZM7.36162 14.8168L7.45682 15.0984H7.75202C7.76881 15.0988 7.78355 15.1097 7.78891 15.1256C7.79428 15.1415 7.78913 15.1591 7.77602 15.1696L7.53602 15.3464L7.62642 15.628C7.63201 15.6445 7.62606 15.6627 7.6118 15.6727C7.59755 15.6827 7.57842 15.6821 7.56482 15.6712L7.32482 15.4992L7.08482 15.6712C7.07104 15.6809 7.05266 15.6809 7.03886 15.6712C7.02507 15.6615 7.01881 15.6443 7.02322 15.628L7.12162 15.348L6.88162 15.1712C6.86852 15.1607 6.86337 15.1431 6.86873 15.1272C6.8741 15.1113 6.88883 15.1004 6.90562 15.1H7.20162L7.29682 14.8184C7.29762 14.7784 7.35042 14.7784 7.36162 14.8168ZM9.63042 14.8168L9.72562 15.0984H10.0208C10.0376 15.0988 10.0523 15.1097 10.0577 15.1256C10.0631 15.1415 10.0579 15.1591 10.0448 15.1696L9.80482 15.3464L9.89522 15.628C9.90081 15.6445 9.89486 15.6627 9.8806 15.6727C9.86635 15.6827 9.84722 15.6821 9.83362 15.6712L9.59362 15.4992L9.35362 15.6712C9.33984 15.6809 9.32146 15.6809 9.30766 15.6712C9.29387 15.6615 9.28761 15.6443 9.29202 15.628L9.39042 15.348L9.15042 15.1712C9.13732 15.1607 9.13217 15.1431 9.13754 15.1272C9.1429 15.1113 9.15763 15.1004 9.17442 15.1H9.47042L9.56562 14.8184C9.56642 14.7784 9.61922 14.7784 9.63042 14.8168ZM6.22802 14.0728L6.32322 14.3544H6.61842C6.63521 14.3548 6.64995 14.3657 6.65531 14.3816C6.66068 14.3975 6.65553 14.4151 6.64242 14.4256L6.40242 14.6024L6.49282 14.884C6.49841 14.9005 6.49245 14.9187 6.4782 14.9287C6.46395 14.9387 6.44482 14.9381 6.43122 14.9272L6.19122 14.7552L5.95122 14.9272C5.93744 14.9369 5.91906 14.9369 5.90526 14.9272C5.89147 14.9175 5.88521 14.9003 5.88962 14.884L5.98002 14.6024L5.74002 14.4256C5.72692 14.4151 5.72177 14.3975 5.72713 14.3816C5.7325 14.3657 5.74723 14.3548 5.76402 14.3544H6.06802L6.16322 14.0728C6.16882 14.0344 6.21682 14.0344 6.22802 14.0728ZM13.0096 14.0409C13.021 14.0475 13.028 14.0597 13.028 14.0728L13.1232 14.3544H13.4184C13.4352 14.3548 13.4499 14.3657 13.4553 14.3816C13.4607 14.3975 13.4555 14.4151 13.4424 14.4256L13.2024 14.6024L13.2928 14.884C13.2984 14.9005 13.2925 14.9187 13.2782 14.9287C13.264 14.9387 13.2448 14.9381 13.2312 14.9272L12.9912 14.7552L12.7512 14.9272C12.7374 14.9369 12.7191 14.9369 12.7053 14.9272C12.6915 14.9175 12.6852 14.9003 12.6896 14.884L12.78 14.6024L12.54 14.4256C12.5269 14.4151 12.5218 14.3975 12.5271 14.3816C12.5325 14.3657 12.5472 14.3548 12.564 14.3544H12.8592L12.9544 14.0728C12.9544 14.0597 12.9614 14.0475 12.9728 14.0409C12.9842 14.0344 12.9982 14.0344 13.0096 14.0409ZM10.7648 14.0728L10.86 14.3544H11.1552C11.172 14.3548 11.1867 14.3657 11.1921 14.3816C11.1975 14.3975 11.1923 14.4151 11.1792 14.4256L10.9392 14.6024L11.0296 14.884C11.0352 14.9005 11.0293 14.9187 11.015 14.9287C11.0008 14.9387 10.9816 14.9381 10.968 14.9272L10.728 14.7552L10.488 14.9272C10.4742 14.9369 10.4559 14.9369 10.4421 14.9272C10.4283 14.9175 10.422 14.9003 10.4264 14.884L10.5168 14.6024L10.2768 14.4256C10.2637 14.4151 10.2586 14.3975 10.2639 14.3816C10.2693 14.3657 10.284 14.3548 10.3008 14.3544H10.596L10.6912 14.0728C10.7008 14.0344 10.7536 14.0344 10.7648 14.0728ZM8.49602 14.0728L8.59122 14.3544H8.88642C8.90321 14.3548 8.91795 14.3657 8.92331 14.3816C8.92868 14.3975 8.92353 14.4151 8.91042 14.4256L8.67042 14.6024L8.76082 14.884C8.76641 14.9005 8.76046 14.9187 8.7462 14.9287C8.73195 14.9387 8.71282 14.9381 8.69922 14.9272L8.45922 14.7552L8.21922 14.9272C8.20544 14.9369 8.18706 14.9369 8.17326 14.9272C8.15947 14.9175 8.15321 14.9003 8.15762 14.884L8.24802 14.6024L8.00802 14.4256C7.99492 14.4151 7.98977 14.3975 7.99513 14.3816C8.0005 14.3657 8.01523 14.3548 8.03202 14.3544H8.33602L8.43122 14.0728C8.43202 14.0344 8.48482 14.0344 8.49602 14.0728ZM7.36162 13.352L7.45682 13.6336H7.75202C7.76881 13.634 7.78355 13.6449 7.78891 13.6608C7.79428 13.6767 7.78913 13.6943 7.77602 13.7048L7.53602 13.8816L7.62642 14.1632C7.63201 14.1797 7.62606 14.1979 7.6118 14.2079C7.59755 14.2179 7.57842 14.2173 7.56482 14.2064L7.32482 14.0344L7.08482 14.2064C7.07104 14.2161 7.05266 14.2161 7.03886 14.2064C7.02507 14.1967 7.01881 14.1795 7.02322 14.1632L7.11362 13.8816L6.87362 13.7048C6.86052 13.6943 6.85537 13.6767 6.86073 13.6608C6.8661 13.6449 6.88083 13.634 6.89762 13.6336H7.20162L7.29682 13.352C7.29762 13.3192 7.35042 13.3192 7.36162 13.352ZM14.1624 13.352L14.2576 13.6336H14.5528C14.5696 13.634 14.5843 13.6449 14.5897 13.6608C14.5951 13.6767 14.5899 13.6943 14.5768 13.7048L14.3368 13.8816L14.4272 14.1632C14.4328 14.1797 14.4269 14.1979 14.4126 14.2079C14.3984 14.2179 14.3792 14.2173 14.3656 14.2064L14.1256 14.0344L13.8856 14.2064C13.8718 14.2161 13.8535 14.2161 13.8397 14.2064C13.8259 14.1967 13.8196 14.1795 13.824 14.1632L13.9144 13.8816L13.6744 13.7048C13.6613 13.6943 13.6562 13.6767 13.6615 13.6608C13.6669 13.6449 13.6816 13.634 13.6984 13.6336H13.9936L14.0888 13.352C14.1032 13.3192 14.156 13.3192 14.1624 13.352ZM5.09362 13.352L5.18882 13.6336H5.48402C5.50081 13.634 5.51555 13.6449 5.52091 13.6608C5.52628 13.6767 5.52113 13.6943 5.50802 13.7048L5.26802 13.8816L5.35842 14.1632C5.36401 14.1797 5.35805 14.1979 5.3438 14.2079C5.32955 14.2179 5.31042 14.2173 5.29682 14.2064L5.05682 14.0344L4.81682 14.2064C4.80304 14.2161 4.78466 14.2161 4.77086 14.2064C4.75707 14.1967 4.75081 14.1795 4.75522 14.1632L4.84562 13.8816L4.60562 13.7048C4.59252 13.6943 4.58737 13.6767 4.59273 13.6608C4.5981 13.6449 4.61283 13.634 4.62962 13.6336H4.93362L5.02882 13.352C5.03442 13.3192 5.08242 13.3192 5.09362 13.352ZM11.8936 13.352L11.9888 13.6336H12.284C12.3008 13.634 12.3155 13.6449 12.3209 13.6608C12.3263 13.6767 12.3211 13.6943 12.308 13.7048L12.068 13.8816L12.1584 14.1632C12.164 14.1797 12.1581 14.1979 12.1438 14.2079C12.1296 14.2179 12.1104 14.2173 12.0968 14.2064L11.8568 14.0344L11.6168 14.2064C11.603 14.2161 11.5847 14.2161 11.5709 14.2064C11.5571 14.1967 11.5508 14.1795 11.5552 14.1632L11.6456 13.8816L11.4056 13.7048C11.3925 13.6943 11.3874 13.6767 11.3927 13.6608C11.3981 13.6449 11.4128 13.634 11.4296 13.6336H11.7248L11.82 13.352C11.8344 13.3192 11.8872 13.3192 11.8936 13.352ZM9.63042 13.352L9.72562 13.6336H10.0208C10.0376 13.634 10.0523 13.6449 10.0577 13.6608C10.0631 13.6767 10.0579 13.6943 10.0448 13.7048L9.80482 13.8816L9.89522 14.1632C9.90081 14.1797 9.89486 14.1979 9.8806 14.2079C9.86635 14.2179 9.84722 14.2173 9.83362 14.2064L9.59362 14.0344L9.35362 14.2064C9.33984 14.2161 9.32146 14.2161 9.30766 14.2064C9.29387 14.1967 9.28761 14.1795 9.29202 14.1632L9.38242 13.8816L9.14242 13.7048C9.12932 13.6943 9.12417 13.6767 9.12953 13.6608C9.1349 13.6449 9.14963 13.634 9.16642 13.6336H9.47042L9.56562 13.352C9.56642 13.3192 9.61922 13.3192 9.63042 13.352ZM6.22802 12.6088L6.32322 12.8904H6.61842C6.63521 12.8908 6.64995 12.9017 6.65531 12.9176C6.66068 12.9335 6.65553 12.9511 6.64242 12.9616L6.40242 13.1384L6.49282 13.42C6.49841 13.4365 6.49245 13.4547 6.4782 13.4647C6.46395 13.4747 6.44482 13.4741 6.43122 13.4632L6.19122 13.2912L5.95122 13.4632C5.93744 13.4729 5.91906 13.4729 5.90526 13.4632C5.89147 13.4535 5.88521 13.4363 5.88962 13.42L5.98802 13.14L5.74802 12.9632C5.73492 12.9527 5.72977 12.9351 5.73513 12.9192C5.7405 12.9033 5.75523 12.8924 5.77202 12.892H6.06802L6.16322 12.6104C6.16882 12.5704 6.21682 12.5704 6.22802 12.6088ZM12.9912 12.572C13.0115 12.572 13.028 12.5885 13.028 12.6088L13.1232 12.8904H13.4184C13.4352 12.8908 13.4499 12.9017 13.4553 12.9176C13.4607 12.9335 13.4555 12.9511 13.4424 12.9616L13.2024 13.1384L13.2928 13.42C13.2984 13.4365 13.2925 13.4547 13.2782 13.4647C13.264 13.4747 13.2448 13.4741 13.2312 13.4632L12.9912 13.2912L12.7512 13.4632C12.7374 13.4729 12.7191 13.4729 12.7053 13.4632C12.6915 13.4535 12.6852 13.4363 12.6896 13.42L12.78 13.1384L12.54 12.9616C12.5269 12.9511 12.5218 12.9335 12.5271 12.9176C12.5325 12.9017 12.5472 12.8908 12.564 12.8904H12.8592L12.9544 12.6088C12.9544 12.5885 12.9709 12.572 12.9912 12.572ZM10.7648 12.6088L10.86 12.8904H11.1552C11.172 12.8908 11.1867 12.9017 11.1921 12.9176C11.1975 12.9335 11.1923 12.9511 11.1792 12.9616L10.9392 13.1384L11.0296 13.42C11.0352 13.4365 11.0293 13.4547 11.015 13.4647C11.0008 13.4747 10.9816 13.4741 10.968 13.4632L10.728 13.2912L10.488 13.4632C10.4742 13.4729 10.4559 13.4729 10.4421 13.4632C10.4283 13.4535 10.422 13.4363 10.4264 13.42L10.5168 13.1384L10.2768 12.9616C10.2637 12.9511 10.2586 12.9335 10.2639 12.9176C10.2693 12.9017 10.284 12.8908 10.3008 12.8904H10.596L10.6912 12.6088C10.7008 12.5704 10.7536 12.5704 10.7648 12.6088ZM8.49602 12.6088L8.59122 12.8904H8.88642C8.90321 12.8908 8.91795 12.9017 8.92331 12.9176C8.92868 12.9335 8.92353 12.9511 8.91042 12.9616L8.67042 13.1384L8.76082 13.42C8.76641 13.4365 8.76046 13.4547 8.7462 13.4647C8.73195 13.4747 8.71282 13.4741 8.69922 13.4632L8.45922 13.2912L8.21922 13.4632C8.20544 13.4729 8.18706 13.4729 8.17326 13.4632C8.15947 13.4535 8.15321 13.4363 8.15762 13.42L8.25602 13.14L8.01602 12.9632C8.00292 12.9527 7.99777 12.9351 8.00313 12.9192C8.0085 12.9033 8.02323 12.8924 8.04002 12.892H8.33602L8.43122 12.6104C8.43202 12.5704 8.48482 12.5704 8.49602 12.6088ZM7.36162 11.8928L7.45682 12.1744H7.75202C7.76881 12.1748 7.78355 12.1857 7.78891 12.2016C7.79428 12.2175 7.78913 12.2351 7.77602 12.2456L7.53602 12.4224L7.62642 12.704C7.63201 12.7205 7.62606 12.7387 7.6118 12.7487C7.59755 12.7587 7.57842 12.7581 7.56482 12.7472L7.32482 12.5752L7.08482 12.7472C7.07104 12.7569 7.05266 12.7569 7.03886 12.7472C7.02507 12.7375 7.01881 12.7203 7.02322 12.704L7.12162 12.424L6.88162 12.2472C6.86852 12.2367 6.86337 12.2191 6.86873 12.2032C6.8741 12.1873 6.88883 12.1764 6.90562 12.176H7.20162L7.29682 11.8944C7.29762 11.8544 7.35042 11.8544 7.36162 11.8928ZM14.129 11.8673C14.1447 11.8669 14.1587 11.8775 14.1624 11.8928L14.2576 12.1744H14.5528C14.5696 12.1748 14.5843 12.1857 14.5897 12.2016C14.5951 12.2175 14.5899 12.2351 14.5768 12.2456L14.3368 12.4224L14.4272 12.704C14.4328 12.7205 14.4269 12.7387 14.4126 12.7487C14.3984 12.7587 14.3792 12.7581 14.3656 12.7472L14.1256 12.5752L13.8856 12.7472C13.8718 12.7569 13.8535 12.7569 13.8397 12.7472C13.8259 12.7375 13.8196 12.7203 13.824 12.704L13.9224 12.424L13.6824 12.2472C13.6693 12.2367 13.6642 12.2191 13.6695 12.2032C13.6749 12.1873 13.6896 12.1764 13.7064 12.176H14.0016L14.0968 11.8944C14.0998 11.8789 14.1132 11.8676 14.129 11.8673ZM11.8568 11.856C11.8771 11.856 11.8936 11.8725 11.8936 11.8928L11.9888 12.1744H12.284C12.3008 12.1748 12.3155 12.1857 12.3209 12.2016C12.3263 12.2175 12.3211 12.2351 12.308 12.2456L12.068 12.4224L12.1584 12.704C12.164 12.7205 12.1581 12.7387 12.1438 12.7487C12.1296 12.7587 12.1104 12.7581 12.0968 12.7472L11.8568 12.5752L11.6168 12.7472C11.603 12.7569 11.5847 12.7569 11.5709 12.7472C11.5571 12.7375 11.5508 12.7203 11.5552 12.704L11.6456 12.4224L11.4056 12.2456C11.3925 12.2351 11.3874 12.2175 11.3927 12.2016C11.3981 12.1857 11.4128 12.1748 11.4296 12.1744H11.7248L11.82 11.8928C11.82 11.8725 11.8365 11.856 11.8568 11.856ZM5.09362 11.8928L5.18882 12.1744H5.48402C5.50081 12.1748 5.51555 12.1857 5.52091 12.2016C5.52628 12.2175 5.52113 12.2351 5.50802 12.2456L5.26802 12.4224L5.35842 12.704C5.36401 12.7205 5.35805 12.7387 5.3438 12.7487C5.32955 12.7587 5.31042 12.7581 5.29682 12.7472L5.05682 12.5752L4.81682 12.7472C4.80304 12.7569 4.78466 12.7569 4.77086 12.7472C4.75707 12.7375 4.75081 12.7203 4.75522 12.704L4.85362 12.424L4.61362 12.2472C4.60052 12.2367 4.59537 12.2191 4.60073 12.2032C4.6061 12.1873 4.62083 12.1764 4.63762 12.176H4.93362L5.02882 11.8944C5.03442 11.8544 5.08242 11.8544 5.09362 11.8928ZM9.63042 11.8928L9.72562 12.1744H10.0208C10.0376 12.1748 10.0523 12.1857 10.0577 12.2016C10.0631 12.2175 10.0579 12.2351 10.0448 12.2456L9.80482 12.4224L9.89522 12.704C9.90081 12.7205 9.89486 12.7387 9.8806 12.7487C9.86635 12.7587 9.84722 12.7581 9.83362 12.7472L9.59362 12.5752L9.35362 12.7472C9.33984 12.7569 9.32146 12.7569 9.30766 12.7472C9.29387 12.7375 9.28761 12.7203 9.29202 12.704L9.38242 12.4224L9.14242 12.2456C9.12932 12.2351 9.12417 12.2175 9.12953 12.2016C9.1349 12.1857 9.14963 12.1748 9.16642 12.1744H9.47042L9.56562 11.8928C9.56642 11.8544 9.61922 11.8544 9.63042 11.8928ZM6.22802 11.1432L6.32322 11.4248H6.61842C6.63521 11.4252 6.64995 11.4361 6.65531 11.452C6.66068 11.4679 6.65553 11.4855 6.64242 11.496L6.40242 11.6728L6.49282 11.9544C6.49841 11.9709 6.49245 11.9891 6.4782 11.9991C6.46395 12.0091 6.44482 12.0085 6.43122 11.9976L6.19122 11.8256L5.95122 11.9976C5.93744 12.0073 5.91906 12.0073 5.90526 11.9976C5.89147 11.9879 5.88521 11.9707 5.88962 11.9544L5.98002 11.6728L5.74002 11.496C5.72692 11.4855 5.72177 11.4679 5.72713 11.452C5.7325 11.4361 5.74723 11.4252 5.76402 11.4248H6.06802L6.16322 11.1432C6.16882 11.1104 6.21682 11.1104 6.22802 11.1432ZM10.7648 11.1432L10.86 11.4248H11.1552C11.172 11.4252 11.1867 11.4361 11.1921 11.452C11.1975 11.4679 11.1923 11.4855 11.1792 11.496L10.9392 11.6728L11.0296 11.9544C11.0352 11.9709 11.0293 11.9891 11.015 11.9991C11.0008 12.0091 10.9816 12.0085 10.968 11.9976L10.728 11.8256L10.488 11.9976C10.4742 12.0073 10.4559 12.0073 10.4421 11.9976C10.4283 11.9879 10.422 11.9707 10.4264 11.9544L10.5168 11.6728L10.2768 11.496C10.2637 11.4855 10.2586 11.4679 10.2639 11.452C10.2693 11.4361 10.284 11.4252 10.3008 11.4248H10.596L10.6912 11.1432C10.7008 11.1104 10.7536 11.1104 10.7648 11.1432ZM8.49602 11.1432L8.59122 11.4248H8.88642C8.90321 11.4252 8.91795 11.4361 8.92331 11.452C8.92868 11.4679 8.92353 11.4855 8.91042 11.496L8.67042 11.6728L8.76082 11.9544C8.76641 11.9709 8.76046 11.9891 8.7462 11.9991C8.73195 12.0091 8.71282 12.0085 8.69922 11.9976L8.45922 11.8256L8.21922 11.9976C8.20544 12.0073 8.18706 12.0073 8.17326 11.9976C8.15947 11.9879 8.15321 11.9707 8.15762 11.9544L8.24802 11.6728L8.00802 11.496C7.99492 11.4855 7.98977 11.4679 7.99513 11.452C8.0005 11.4361 8.01523 11.4252 8.03202 11.4248H8.33602L8.43122 11.1432C8.43202 11.1104 8.48482 11.1104 8.49602 11.1432ZM13.028 11.1432L13.1232 11.4248H13.4184C13.4352 11.4252 13.4499 11.4361 13.4553 11.452C13.4607 11.4679 13.4555 11.4855 13.4424 11.496L13.2024 11.6728L13.2928 11.9544C13.2984 11.9709 13.2925 11.9891 13.2782 11.9991C13.264 12.0091 13.2448 12.0085 13.2312 11.9976L12.9912 11.8256L12.7512 11.9976C12.7374 12.0073 12.7191 12.0073 12.7053 11.9976C12.6915 11.9879 12.6852 11.9707 12.6896 11.9544L12.78 11.6728L12.54 11.496C12.5269 11.4855 12.5218 11.4679 12.5271 11.452C12.5325 11.4361 12.5472 11.4252 12.564 11.4248H12.8592L12.9544 11.1432C12.9688 11.1104 13.0216 11.1104 13.028 11.1432ZM9.63042 10.428L9.72562 10.7096H10.0208C10.0376 10.71 10.0523 10.7209 10.0577 10.7368C10.0631 10.7527 10.0579 10.7703 10.0448 10.7808L9.80482 10.9576L9.89522 11.2392C9.90081 11.2557 9.89486 11.2739 9.8806 11.2839C9.86635 11.2939 9.84722 11.2933 9.83362 11.2824L9.59362 11.1104L9.35362 11.2824C9.33984 11.2921 9.32146 11.2921 9.30766 11.2824C9.29387 11.2727 9.28761 11.2555 9.29202 11.2392L9.38242 10.9576L9.14242 10.7808C9.12932 10.7703 9.12417 10.7527 9.12953 10.7368C9.1349 10.7209 9.14963 10.71 9.16642 10.7096H9.47042L9.56562 10.428C9.56642 10.3952 9.61922 10.3952 9.63042 10.428ZM5.09362 10.428L5.18882 10.7096H5.48402C5.50081 10.71 5.51555 10.7209 5.52091 10.7368C5.52628 10.7527 5.52113 10.7703 5.50802 10.7808L5.26802 10.9576L5.35842 11.2392C5.36401 11.2557 5.35805 11.2739 5.3438 11.2839C5.32955 11.2939 5.31042 11.2933 5.29682 11.2824L5.05682 11.1104L4.81682 11.2824C4.80304 11.2921 4.78466 11.2921 4.77086 11.2824C4.75707 11.2727 4.75081 11.2555 4.75522 11.2392L4.84562 10.9576L4.60562 10.7808C4.59252 10.7703 4.58737 10.7527 4.59273 10.7368C4.5981 10.7209 4.61283 10.71 4.62962 10.7096H4.93362L5.02882 10.428C5.03442 10.3952 5.08242 10.3952 5.09362 10.428ZM7.36482 10.428L7.46002 10.7096H7.75682C7.77361 10.71 7.78835 10.7209 7.79371 10.7368C7.79908 10.7527 7.79393 10.7703 7.78082 10.7808L7.54082 10.9576L7.63122 11.2392C7.63681 11.2557 7.63085 11.2739 7.6166 11.2839C7.60235 11.2939 7.58322 11.2933 7.56962 11.2824L7.32962 11.1104L7.08962 11.2824C7.07584 11.2921 7.05746 11.2921 7.04366 11.2824C7.02987 11.2727 7.02361 11.2555 7.02802 11.2392L7.11842 10.9576L6.87842 10.7808C6.86532 10.7703 6.86017 10.7527 6.86554 10.7368C6.8709 10.7209 6.88563 10.71 6.90242 10.7096H7.19682L7.29202 10.428C7.29762 10.3952 7.35042 10.3952 7.36482 10.428ZM11.8936 10.428L11.9888 10.7096H12.284C12.3008 10.71 12.3155 10.7209 12.3209 10.7368C12.3263 10.7527 12.3211 10.7703 12.308 10.7808L12.068 10.9576L12.1584 11.2392C12.164 11.2557 12.1581 11.2739 12.1438 11.2839C12.1296 11.2939 12.1104 11.2933 12.0968 11.2824L11.8568 11.1104L11.6168 11.2824C11.603 11.2921 11.5847 11.2921 11.5709 11.2824C11.5571 11.2727 11.5508 11.2555 11.5552 11.2392L11.6456 10.9576L11.4056 10.7808C11.3925 10.7703 11.3874 10.7527 11.3927 10.7368C11.3981 10.7209 11.4128 10.71 11.4296 10.7096H11.7248L11.82 10.428C11.8344 10.3952 11.8872 10.3952 11.8936 10.428ZM14.1624 10.428L14.2576 10.7096H14.5528C14.5696 10.71 14.5843 10.7209 14.5897 10.7368C14.5951 10.7527 14.5899 10.7703 14.5768 10.7808L14.3368 10.9576L14.4272 11.2392C14.4328 11.2557 14.4269 11.2739 14.4126 11.2839C14.3984 11.2939 14.3792 11.2933 14.3656 11.2824L14.1256 11.1104L13.8856 11.2824C13.8718 11.2921 13.8535 11.2921 13.8397 11.2824C13.8259 11.2727 13.8196 11.2555 13.824 11.2392L13.9144 10.9576L13.6744 10.7808C13.6613 10.7703 13.6562 10.7527 13.6615 10.7368C13.6669 10.7209 13.6816 10.71 13.6984 10.7096H13.9936L14.0888 10.428C14.1032 10.3952 14.156 10.3952 14.1624 10.428ZM10.7648 9.684L10.86 9.9656H11.1552C11.172 9.96603 11.1867 9.97689 11.1921 9.99281C11.1975 10.0087 11.1923 10.0263 11.1792 10.0368L10.9392 10.2136L11.0296 10.4952C11.0352 10.5117 11.0293 10.5299 11.015 10.5399C11.0008 10.5499 10.9816 10.5493 10.968 10.5384L10.728 10.3664L10.488 10.5384C10.4742 10.5481 10.4559 10.5481 10.4421 10.5384C10.4283 10.5287 10.422 10.5115 10.4264 10.4952L10.5168 10.2136L10.2768 10.0368C10.2637 10.0263 10.2586 10.0087 10.2639 9.99281C10.2693 9.97689 10.284 9.96603 10.3008 9.9656H10.596L10.6912 9.684C10.7008 9.6456 10.7536 9.6456 10.7648 9.684ZM8.49602 9.684L8.59122 9.9656H8.88642C8.90321 9.96603 8.91795 9.97689 8.92331 9.99281C8.92868 10.0087 8.92353 10.0263 8.91042 10.0368L8.67042 10.2136L8.76082 10.4952C8.76641 10.5117 8.76046 10.5299 8.7462 10.5399C8.73195 10.5499 8.71282 10.5493 8.69922 10.5384L8.45922 10.3664L8.21922 10.5384C8.20544 10.5481 8.18706 10.5481 8.17326 10.5384C8.15947 10.5287 8.15321 10.5115 8.15762 10.4952L8.25602 10.2152L8.01602 10.0384C8.00292 10.0279 7.99777 10.0103 8.00313 9.99441C8.0085 9.97849 8.02323 9.96763 8.04002 9.9672H8.33602L8.43122 9.6856C8.43202 9.6456 8.48482 9.6456 8.49602 9.684ZM6.22802 9.684L6.32322 9.9656H6.61842C6.63521 9.96603 6.64995 9.97689 6.65531 9.99281C6.66068 10.0087 6.65553 10.0263 6.64242 10.0368L6.40242 10.2136L6.49282 10.4952C6.49841 10.5117 6.49245 10.5299 6.4782 10.5399C6.46395 10.5499 6.44482 10.5493 6.43122 10.5384L6.19122 10.3664L5.95122 10.5384C5.93744 10.5481 5.91906 10.5481 5.90526 10.5384C5.89147 10.5287 5.88521 10.5115 5.88962 10.4952L5.98802 10.2152L5.74802 10.0384C5.73492 10.0279 5.72977 10.0103 5.73513 9.99441C5.7405 9.97849 5.75523 9.96763 5.77202 9.9672H6.06802L6.16322 9.6856C6.16882 9.6456 6.21682 9.6456 6.22802 9.684ZM13.0096 9.65213C13.021 9.6587 13.028 9.67085 13.028 9.684L13.1232 9.9656H13.4184C13.4352 9.96603 13.4499 9.97689 13.4553 9.99281C13.4607 10.0087 13.4555 10.0263 13.4424 10.0368L13.2024 10.2136L13.2928 10.4952C13.2984 10.5117 13.2925 10.5299 13.2782 10.5399C13.264 10.5499 13.2448 10.5493 13.2312 10.5384L12.9912 10.3664L12.7512 10.5384C12.7374 10.5481 12.7191 10.5481 12.7053 10.5384C12.6915 10.5287 12.6852 10.5115 12.6896 10.4952L12.78 10.2136L12.54 10.0368C12.5269 10.0263 12.5218 10.0087 12.5271 9.99281C12.5325 9.97689 12.5472 9.96603 12.564 9.9656H12.8592L12.9544 9.684C12.9544 9.67085 12.9614 9.6587 12.9728 9.65213C12.9842 9.64556 12.9982 9.64556 13.0096 9.65213ZM5.09362 8.9688L5.18882 9.2504H5.48402C5.50081 9.25083 5.51555 9.26169 5.52091 9.27761C5.52628 9.29352 5.52113 9.3111 5.50802 9.3216L5.26802 9.4984L5.35842 9.78C5.36401 9.79648 5.35805 9.81468 5.3438 9.82467C5.32955 9.83466 5.31042 9.83407 5.29682 9.8232L5.05682 9.6512L4.81682 9.8232C4.80304 9.83289 4.78466 9.83289 4.77086 9.82322C4.75707 9.81354 4.75081 9.79626 4.75522 9.78L4.85362 9.5L4.61362 9.3232C4.60052 9.3127 4.59537 9.29512 4.60073 9.27921C4.6061 9.26329 4.62083 9.25243 4.63762 9.252H4.93362L5.02882 8.9704C5.03442 8.9304 5.08242 8.9304 5.09362 8.9688ZM7.36162 8.9688L7.45682 9.2504H7.75202C7.76881 9.25083 7.78355 9.26169 7.78891 9.27761C7.79428 9.29352 7.78913 9.3111 7.77602 9.3216L7.53602 9.4984L7.62642 9.78C7.63201 9.79648 7.62606 9.81468 7.6118 9.82467C7.59755 9.83466 7.57842 9.83407 7.56482 9.8232L7.32482 9.6512L7.08482 9.8232C7.07104 9.83289 7.05266 9.83289 7.03886 9.82322C7.02507 9.81354 7.01881 9.79626 7.02322 9.78L7.12162 9.5L6.88162 9.3232C6.86852 9.3127 6.86337 9.29512 6.86873 9.27921C6.8741 9.26329 6.88883 9.25243 6.90562 9.252H7.20162L7.29682 8.9704C7.29762 8.9304 7.35042 8.9304 7.36162 8.9688ZM9.63042 8.9688L9.72562 9.2504H10.0208C10.0376 9.25083 10.0523 9.26169 10.0577 9.27761C10.0631 9.29352 10.0579 9.3111 10.0448 9.3216L9.80482 9.4984L9.89522 9.78C9.90081 9.79648 9.89486 9.81468 9.8806 9.82467C9.86635 9.83466 9.84722 9.83407 9.83362 9.8232L9.59362 9.6512L9.35362 9.8232C9.33984 9.83289 9.32146 9.83289 9.30766 9.82322C9.29387 9.81354 9.28761 9.79626 9.29202 9.78L9.38242 9.4984L9.14242 9.3216C9.12932 9.3111 9.12417 9.29352 9.12953 9.27761C9.1349 9.26169 9.14963 9.25083 9.16642 9.2504H9.47042L9.56562 8.9688C9.56642 8.9304 9.61922 8.9304 9.63042 8.9688ZM11.8752 8.93693C11.8866 8.9435 11.8936 8.95565 11.8936 8.9688L11.9888 9.2504H12.284C12.3008 9.25083 12.3155 9.26169 12.3209 9.27761C12.3263 9.29352 12.3211 9.3111 12.308 9.3216L12.068 9.4984L12.1584 9.78C12.164 9.79648 12.1581 9.81468 12.1438 9.82467C12.1296 9.83466 12.1104 9.83407 12.0968 9.8232L11.8568 9.6512L11.6168 9.8232C11.603 9.83289 11.5847 9.83289 11.5709 9.82322C11.5571 9.81354 11.5508 9.79626 11.5552 9.78L11.6456 9.4984L11.4056 9.3216C11.3925 9.3111 11.3874 9.29352 11.3927 9.27761C11.3981 9.26169 11.4128 9.25083 11.4296 9.2504H11.7248L11.82 8.9688C11.82 8.95565 11.827 8.9435 11.8384 8.93693C11.8498 8.93036 11.8638 8.93036 11.8752 8.93693ZM14.129 8.94325C14.1447 8.94287 14.1587 8.95349 14.1624 8.9688L14.2576 9.2504H14.5528C14.5696 9.25083 14.5843 9.26169 14.5897 9.27761C14.5951 9.29352 14.5899 9.3111 14.5768 9.3216L14.3368 9.4984L14.4272 9.78C14.4328 9.79648 14.4269 9.81468 14.4126 9.82467C14.3984 9.83466 14.3792 9.83407 14.3656 9.8232L14.1256 9.6512L13.8856 9.8232C13.8718 9.83289 13.8535 9.83289 13.8397 9.82322C13.8259 9.81354 13.8196 9.79626 13.824 9.78L13.9224 9.5L13.6824 9.3232C13.6693 9.3127 13.6642 9.29512 13.6695 9.27921C13.6749 9.26329 13.6896 9.25243 13.7064 9.252H14.0016L14.0968 8.9704C14.0998 8.95493 14.1132 8.94364 14.129 8.94325Z" fill="#F5F5F5"/>
<path d="M26.5 8.5H5.5C4.94772 8.5 4.5 8.94772 4.5 9.5V22.5C4.5 23.0523 4.94772 23.5 5.5 23.5H26.5C27.0523 23.5 27.5 23.0523 27.5 22.5V9.5C27.5 8.94772 27.0523 8.5 26.5 8.5Z" stroke="black" stroke-opacity="0.04"/>
</g>
</svg>
