<svg width="32" height="32" viewBox="0 0 32 32" fill="none" xmlns="http://www.w3.org/2000/svg">
<path d="M26 8H6C4.89543 8 4 8.89543 4 10V22C4 23.1046 4.89543 24 6 24H26C27.1046 24 28 23.1046 28 22V10C28 8.89543 27.1046 8 26 8Z" fill="#4CAF50"/>
<path d="M9.39697 14.0898L9.92603 16.8667L10.5706 14.0898H11.2527L11.8945 16.8721L12.4209 14.0898H13.2239L12.3564 18H11.5454L10.9089 15.3843L10.2725 18H9.46143L8.59399 14.0898H9.39697ZM15.5308 14.0898L16.9944 18H16.1377L15.8665 17.1943H14.4539L14.1853 18H13.3286L14.7842 14.0898H15.5308ZM18.1653 14.0898V17.3528H19.876V18H17.3596V14.0898H18.1653ZM21.1436 14.0898V17.3528H22.8542V18H20.3379V14.0898H21.1436ZM15.1575 15.0781L14.6714 16.5417H15.6489L15.1575 15.0781ZM23.1125 11.4775C23.2903 11.4775 23.4486 11.5097 23.5876 11.5741C23.7266 11.6385 23.8346 11.7293 23.9115 11.8467C23.9884 11.964 24.0269 12.0973 24.0269 12.2466H23.5142C23.5142 12.1326 23.4783 12.0441 23.4065 11.9808C23.3347 11.9176 23.2339 11.886 23.104 11.886C22.9787 11.886 22.8813 11.9125 22.8118 11.9655C22.7423 12.0184 22.7075 12.0882 22.7075 12.1748C22.7075 12.2557 22.7483 12.3235 22.8297 12.3782C22.9112 12.4329 23.0311 12.4841 23.1895 12.532C23.4811 12.6197 23.6936 12.7285 23.8269 12.8584C23.9602 12.9883 24.0269 13.1501 24.0269 13.3438C24.0269 13.5591 23.9454 13.728 23.7825 13.8505C23.6195 13.9729 23.4002 14.0342 23.1245 14.0342C22.9331 14.0342 22.7588 13.9991 22.6016 13.9291C22.4443 13.859 22.3244 13.763 22.2418 13.6411C22.1592 13.5192 22.1179 13.3779 22.1179 13.2173H22.6323C22.6323 13.4919 22.7964 13.6292 23.1245 13.6292C23.2464 13.6292 23.3416 13.6044 23.4099 13.5548C23.4783 13.5052 23.5125 13.436 23.5125 13.3472C23.5125 13.2503 23.4783 13.176 23.4099 13.1241C23.3416 13.0723 23.2185 13.0176 23.0408 12.9601C22.863 12.9025 22.7223 12.8459 22.6187 12.79C22.3361 12.6374 22.1948 12.4317 22.1948 12.1731C22.1948 12.0387 22.2327 11.9187 22.3085 11.8134C22.3842 11.708 22.493 11.6257 22.6349 11.5664C22.7767 11.5072 22.936 11.4775 23.1125 11.4775ZM26.2468 11.5117V11.927H25.4846V14H24.9719V11.927H24.22V11.5117H26.2468Z" fill="white"/>
<path d="M26.5 8.5H5.5C4.94772 8.5 4.5 8.94772 4.5 9.5V22.5C4.5 23.0523 4.94772 23.5 5.5 23.5H26.5C27.0523 23.5 27.5 23.0523 27.5 22.5V9.5C27.5 8.94772 27.0523 8.5 26.5 8.5Z" stroke="white" stroke-opacity="0.24"/>
</svg>
