<svg width="32" height="32" viewBox="0 0 32 32" fill="none" xmlns="http://www.w3.org/2000/svg">
<path d="M26.2026 8H5.79742C4.8047 8 4 8.81882 4 9.82895V22.1711C4 23.1811 4.8047 24 5.79742 24H26.2026C27.1952 24 28 23.1812 28 22.1711V9.82895C28 8.81882 27.1953 8 26.2026 8Z" fill="white"/>
<path d="M16 20.6313C18.5137 20.6313 20.5516 18.5578 20.5516 16C20.5516 13.4421 18.5137 11.3686 16 11.3686C13.4862 11.3686 11.4484 13.4421 11.4484 16C11.4484 18.5578 13.4862 20.6313 16 20.6313Z" fill="#ED293F"/>
<path d="M26.5 8.4877H5.5C4.94772 8.4877 4.5 8.93615 4.5 9.48934V22.5107C4.5 23.0638 4.94772 23.5123 5.5 23.5123H26.5C27.0523 23.5123 27.5 23.0638 27.5 22.5107V9.48934C27.5 8.93615 27.0523 8.4877 26.5 8.4877Z" stroke="black" stroke-opacity="0.04"/>
</svg>
