<svg width="32" height="32" viewBox="0 0 32 32" fill="none" xmlns="http://www.w3.org/2000/svg">
<path d="M26 8H6C4.89543 8 4 8.89543 4 10V22C4 23.1046 4.89543 24 6 24H26C27.1046 24 28 23.1046 28 22V10C28 8.89543 27.1046 8 26 8Z" fill="#F0371D"/>
<path d="M19.4772 18.7051C19.9502 20.1609 19.444 21.63 18.3467 21.9866C17.9403 20.7361 17.2374 20.8263 17.042 20.2249C16.8022 19.487 16.7414 19.2996 17.062 18.0328C17.3826 16.7659 16.0926 16.8906 16.6338 16.7148C17.7311 16.3583 19.0042 17.2493 19.4772 18.7051ZM15.6087 17.2353C16.2869 18.1688 15.8328 19.6549 14.5945 20.5546C13.3561 21.4543 11.8024 21.4269 11.1242 20.4935C12.188 19.7206 11.8849 19.08 12.3965 18.7082C13.0243 18.2522 13.1836 18.1364 14.4875 18.0499C15.7915 17.9633 15.2742 16.775 15.6087 17.2353ZM13.2423 19.2836C13.0875 19.396 13.0536 19.6133 13.1667 19.7689C13.2797 19.9245 13.4968 19.9594 13.6516 19.847C13.8064 19.7345 13.8402 19.5172 13.7272 19.3616C13.6142 19.2061 13.3971 19.1711 13.2423 19.2836ZM18.074 19.1628C17.8911 19.2223 17.7907 19.418 17.8499 19.5999C17.909 19.7819 18.1052 19.8812 18.2881 19.8218C18.471 19.7624 18.5713 19.5667 18.5122 19.3847C18.4531 19.2028 18.2569 19.1034 18.074 19.1628ZM10.3138 13.1419C11.3776 13.9148 11.8932 13.4286 12.4048 13.8003C13.0325 14.2564 13.1919 14.3721 13.6772 15.5855C14.1624 16.7989 15.1327 15.9398 14.7983 16.4001C14.1201 17.3335 12.5664 17.3609 11.328 16.4612C10.0897 15.5615 9.63561 14.0754 10.3138 13.1419ZM19.2284 13.4686C20.7591 13.4686 22 14.404 22 15.5579C20.6851 15.5579 20.5537 16.2543 19.9213 16.2543C19.1454 16.2543 18.9485 16.2543 17.8427 15.5579C16.7369 14.8615 16.4569 16.1268 16.4569 15.5579C16.4569 14.404 17.6978 13.4686 19.2284 13.4686ZM11.6347 14.8589C11.5217 15.0145 11.5555 15.2318 11.7103 15.3443C11.8651 15.4567 12.0822 15.4218 12.1953 15.2662C12.3083 15.1106 12.2745 14.8933 12.1197 14.7808C11.9649 14.6684 11.7477 14.7033 11.6347 14.8589ZM17.0354 10.0916C16.6291 11.3421 17.2508 11.6822 17.0554 12.2837C16.8156 13.0216 16.7548 13.2089 15.7507 14.0454C14.7467 14.8819 15.8636 15.5392 15.3225 15.3634C14.2251 15.0068 13.719 13.5376 14.192 12.0819C14.665 10.6261 15.938 9.73501 17.0354 10.0916ZM19.5749 14.5963C19.3836 14.5963 19.2284 14.7522 19.2284 14.9445C19.2284 15.1368 19.3836 15.2927 19.5749 15.2927C19.7662 15.2927 19.9213 15.1368 19.9213 14.9445C19.9213 14.7522 19.7662 14.5963 19.5749 14.5963ZM15.3711 12.0992C15.312 12.2811 15.4123 12.4768 15.5952 12.5362C15.7781 12.5957 15.9743 12.4963 16.0334 12.3144C16.0926 12.1324 15.9922 11.9367 15.8093 11.8773C15.6264 11.8178 15.4302 11.9172 15.3711 12.0992Z" fill="white"/>
<path d="M26.5 8.5H5.5C4.94772 8.5 4.5 8.94772 4.5 9.5V22.5C4.5 23.0523 4.94772 23.5 5.5 23.5H26.5C27.0523 23.5 27.5 23.0523 27.5 22.5V9.5C27.5 8.94772 27.0523 8.5 26.5 8.5Z" stroke="black" stroke-opacity="0.04"/>
</svg>
