<svg width="32" height="32" viewBox="0 0 32 32" fill="none" xmlns="http://www.w3.org/2000/svg">
<mask id="mask0" mask-type="alpha" maskUnits="userSpaceOnUse" x="4" y="8" width="24" height="16">
<path d="M26 8H6C4.89543 8 4 8.89543 4 10V22C4 23.1046 4.89543 24 6 24H26C27.1046 24 28 23.1046 28 22V10C28 8.89543 27.1046 8 26 8Z" fill="white"/>
</mask>
<g mask="url(#mask0)">
<path d="M26 8H6C4.89543 8 4 8.89543 4 10V22C4 23.1046 4.89543 24 6 24H26C27.1046 24 28 23.1046 28 22V10C28 8.89543 27.1046 8 26 8Z" fill="#0D47A1"/>
<path d="M4.41381 15.9869H5.13259L8.96556 13.4357V15.9869H11.0345V13.4357L14.8675 15.9869H15.5862C15.8147 15.9869 16 15.7986 16 15.5665V15.233L12.7115 13.0443H16V10.9425H12.7115L16 8.75381V8.42038C16 8.18819 15.8147 8 15.5862 8H14.8674L11.0344 10.5511V8H8.96547V10.5511L5.25831 8.08371C4.82547 8.22181 4.46359 8.52195 4.24061 8.9139L7.28856 10.9425H4V13.0443H7.28852L4 15.233V15.5665C4 15.7986 4.1852 15.9869 4.41381 15.9869Z" fill="white"/>
<path d="M10.1252 18.2788L10.4375 19.3263L11.4385 18.9213C11.5239 18.8867 11.6015 18.9857 11.5494 19.0625L10.9379 19.9637L11.8737 20.5061C11.9535 20.5524 11.9258 20.6757 11.8341 20.6822L10.7593 20.7585L10.9253 21.8399C10.9394 21.9321 10.8272 21.987 10.7651 21.9182L10.0363 21.1121L9.30744 21.9182C9.24528 21.987 9.13306 21.9321 9.14722 21.8399L9.31321 20.7585L8.23841 20.6822C8.14672 20.6757 8.11897 20.5524 8.19885 20.5061L9.13456 19.9637L8.52313 19.0625C8.471 18.9857 8.54863 18.8867 8.63403 18.9213L9.63496 19.3263L9.94728 18.2788C9.97405 18.1894 10.0986 18.1894 10.1252 18.2788ZM22.435 19.8029L22.5876 20.3145L23.0765 20.1167C23.1181 20.0998 23.1561 20.1481 23.1306 20.1857L22.832 20.6259L23.289 20.8909C23.328 20.9135 23.3145 20.9738 23.2697 20.9769L22.7447 21.0141L22.8257 21.5424C22.8327 21.5875 22.7778 21.6143 22.7474 21.5807L22.3914 21.1869L22.0354 21.5807C22.005 21.6142 21.9502 21.5874 21.9571 21.5424L22.0382 21.0141L21.5132 20.9769C21.4684 20.9738 21.4548 20.9135 21.4938 20.8909L21.9509 20.6259L21.6523 20.1857C21.6268 20.1481 21.6647 20.0998 21.7064 20.1167L22.1953 20.3145L22.3479 19.8029C22.3611 19.7592 22.422 19.7592 22.435 19.8029ZM23.6154 15.678C23.6312 15.6297 23.6985 15.6297 23.7144 15.678L23.8369 16.0511L24.2241 16.0541C24.2742 16.0546 24.295 16.1195 24.2546 16.1498L23.9431 16.3834L24.0599 16.7584C24.075 16.807 24.0207 16.8471 23.9799 16.8175L23.6649 16.5888L23.3499 16.8175C23.3091 16.8471 23.2547 16.807 23.2698 16.7584L23.3866 16.3834L23.0752 16.1498C23.0348 16.1195 23.0556 16.0546 23.1058 16.0541L23.4929 16.0511L23.6154 15.678ZM19.0329 14.7585L19.1855 15.2702L19.6745 15.0724C19.7161 15.0555 19.7541 15.1038 19.7286 15.1414L19.43 15.5816L19.887 15.8466C19.926 15.8692 19.9125 15.9295 19.8677 15.9326L19.3427 15.9699L19.4238 16.4981C19.4307 16.5432 19.3759 16.57 19.3455 16.5364L18.9895 16.1426L18.6335 16.5364C18.6031 16.57 18.5483 16.5431 18.5552 16.4981L18.6363 15.9699L18.1113 15.9326C18.0665 15.9294 18.0529 15.8692 18.0919 15.8466L18.549 15.5816L18.2503 15.1414C18.2248 15.1038 18.2628 15.0555 18.3045 15.0724L18.7934 15.2702L18.946 14.7585C18.959 14.7149 19.0199 14.7149 19.0329 14.7585ZM25.6536 13.077L25.8062 13.5887L26.2951 13.3909C26.3368 13.374 26.3748 13.4223 26.3493 13.4599L26.0506 13.9001L26.5077 14.1651C26.5467 14.1877 26.5332 14.248 26.4883 14.2511L25.9633 14.2884L26.0444 14.8166C26.0514 14.8617 25.9965 14.8885 25.9662 14.8549L25.6101 14.4611L25.2541 14.8549C25.2238 14.8885 25.169 14.8617 25.1759 14.8166L25.257 14.2884L24.732 14.2511C24.6872 14.248 24.6736 14.1877 24.7126 14.1651L25.1697 13.9001L24.8711 13.4599C24.8456 13.4223 24.8835 13.374 24.9252 13.3909L25.4142 13.5887L25.5667 13.077C25.5797 13.0334 25.6406 13.0334 25.6536 13.077ZM22.435 10.8311L22.5876 11.3428L23.0765 11.145C23.1181 11.1281 23.1561 11.1764 23.1306 11.214L22.832 11.6542L23.289 11.9192C23.328 11.9418 23.3145 12.0021 23.2697 12.0052L22.7447 12.0425L22.8257 12.5707C22.8327 12.6158 22.7778 12.6426 22.7474 12.609L22.3914 12.2152L22.0354 12.609C22.005 12.6426 21.9502 12.6158 21.9571 12.5707L22.0382 12.0425L21.5132 12.0052C21.4684 12.002 21.4548 11.9418 21.4938 11.9192L21.9509 11.6542L21.6523 11.214C21.6268 11.1764 21.6647 11.1281 21.7064 11.145L22.1953 11.3428L22.3479 10.8311C22.3611 10.7874 22.422 10.7874 22.435 10.8311Z" fill="white"/>
<path d="M10.6207 8V11.3629H16V12.624H10.6207V15.9869H9.37933V12.624H4V11.3629H9.37933V8H10.6207ZM8.95417 13.0443L4.49186 15.9869H4.41381C4.29059 15.9869 4.18338 15.9297 4.10893 15.842L4.05948 15.7708L8.19409 13.0443H8.95417ZM12.1185 13.0444L15.9934 15.5995C15.981 15.7537 15.8906 15.8839 15.7588 15.946L11.3584 13.0444H12.1185ZM4.6847 8.39252L8.5517 10.9425H7.79167L4.38564 8.69648C4.4733 8.58362 4.57366 8.48157 4.6847 8.39252ZM15.5862 8C15.7077 8 15.8132 8.05571 15.8875 8.14136L15.937 8.21081L11.7945 10.9425H11.0345L15.4967 8H15.5862Z" fill="#F44336"/>
<path d="M26.5 8.5H5.5C4.94772 8.5 4.5 8.94772 4.5 9.5V22.5C4.5 23.0523 4.94772 23.5 5.5 23.5H26.5C27.0523 23.5 27.5 23.0523 27.5 22.5V9.5C27.5 8.94772 27.0523 8.5 26.5 8.5Z" stroke="black" stroke-opacity="0.04"/>
</g>
</svg>
