<svg width="32" height="32" viewBox="0 0 32 32" fill="none" xmlns="http://www.w3.org/2000/svg">
<path d="M26 8H6C4.89543 8 4 8.89543 4 10V22C4 23.1046 4.89543 24 6 24H26C27.1046 24 28 23.1046 28 22V10C28 8.89543 27.1046 8 26 8Z" fill="#F44336"/>
<path d="M20.5517 14.3186H17.6551V11.376C17.6551 11.1439 17.4698 10.9557 17.2413 10.9557H14.7585C14.53 10.9557 14.3447 11.1439 14.3447 11.376V14.3186H11.4482C11.2197 14.3186 11.0344 14.5068 11.0344 14.739V17.2611C11.0344 17.4933 11.2197 17.6815 11.4482 17.6815H14.3447V20.624C14.3447 20.8562 14.53 21.0444 14.7585 21.0444H17.2413C17.4698 21.0444 17.6551 20.8562 17.6551 20.624V17.6814H20.5517C20.7802 17.6814 20.9655 17.4932 20.9655 17.261V14.7389C20.9655 14.5068 20.7802 14.3186 20.5517 14.3186Z" fill="white"/>
<path d="M26.5 8.5H5.5C4.94772 8.5 4.5 8.94772 4.5 9.5V22.5C4.5 23.0523 4.94772 23.5 5.5 23.5H26.5C27.0523 23.5 27.5 23.0523 27.5 22.5V9.5C27.5 8.94772 27.0523 8.5 26.5 8.5Z" stroke="black" stroke-opacity="0.04"/>
</svg>
