<svg width="32" height="32" viewBox="0 0 32 32" fill="none" xmlns="http://www.w3.org/2000/svg">
<path d="M20 8H26C27.1046 8 28 8.89543 28 10V22C28 23.1046 27.1046 24 26 24H20V8Z" fill="#FF002D"/>
<path d="M20 8H12V24H20V8Z" fill="white"/>
<path d="M6 8H12V24H6C4.89543 24 4 23.1046 4 22V10C4 8.89543 4.89543 8 6 8Z" fill="#001F9B"/>
<path d="M26.5 8.5H5.5C4.94772 8.5 4.5 8.94772 4.5 9.5V22.5C4.5 23.0523 4.94772 23.5 5.5 23.5H26.5C27.0523 23.5 27.5 23.0523 27.5 22.5V9.5C27.5 8.94772 27.0523 8.5 26.5 8.5Z" stroke="black" stroke-opacity="0.04"/>
</svg>
