<svg width="32" height="32" viewBox="0 0 32 32" fill="none" xmlns="http://www.w3.org/2000/svg">
<path d="M26 8H6C4.89543 8 4 8.89543 4 10V22C4 23.1046 4.89543 24 6 24H26C27.1046 24 28 23.1046 28 22V10C28 8.89543 27.1046 8 26 8Z" fill="#0D47A1"/>
<path d="M16.1683 20.6927L16.3342 21.1981L16.8586 21.2022C16.9265 21.2028 16.9547 21.2908 16.9 21.3318L16.4782 21.6482L16.6363 22.1561C16.6568 22.2219 16.5831 22.2763 16.5279 22.2362L16.1013 21.9264L15.6746 22.2362C15.6194 22.2763 15.5457 22.2219 15.5662 22.1561L15.7243 21.6482L15.3025 21.3318C15.2478 21.2908 15.276 21.2028 15.3439 21.2022L15.8683 21.1981L16.0342 20.6927C16.0556 20.6272 16.1468 20.6272 16.1683 20.6927ZM13.5842 19.8454L13.7501 20.3508L14.2745 20.3549C14.3425 20.3554 14.3706 20.4434 14.316 20.4844L13.8941 20.8009L14.0523 21.3088C14.0727 21.3745 13.999 21.429 13.9438 21.3889L13.5172 21.079L13.0906 21.3889C13.0353 21.429 12.9616 21.3746 12.9821 21.3088L13.1403 20.8009L12.7184 20.4844C12.6638 20.4434 12.6919 20.3554 12.7598 20.3549L13.2842 20.3508L13.4501 19.8454C13.4716 19.7799 13.5628 19.7799 13.5842 19.8454ZM18.7907 19.8454C18.8121 19.7799 18.9032 19.7799 18.9247 19.8454L19.0907 20.3508L19.6151 20.3549C19.683 20.3554 19.7111 20.4434 19.6565 20.4844L19.2346 20.8009L19.3928 21.3088C19.4133 21.3746 19.3395 21.429 19.2843 21.3889L18.8577 21.079L18.4311 21.3889C18.3758 21.429 18.3021 21.3745 18.3226 21.3088L18.4808 20.8009L18.0589 20.4844C18.0043 20.4434 18.0324 20.3554 18.1003 20.3549L18.6247 20.3508L18.7907 19.8454ZM20.8795 17.8595L21.0454 18.3649L21.5698 18.369C21.6378 18.3696 21.6659 18.4576 21.6113 18.4986L21.1894 18.815L21.3476 19.323C21.368 19.3888 21.2943 19.4431 21.2391 19.403L20.8125 19.0932L20.3859 19.403C20.3306 19.4431 20.2569 19.3887 20.2774 19.323L20.4355 18.815L20.0137 18.4986C19.9591 18.4576 19.9872 18.3696 20.0551 18.369L20.5795 18.3649L20.7454 17.8595C20.7669 17.7941 20.858 17.7941 20.8795 17.8595ZM11.6093 17.8281L11.6295 17.8595L11.7954 18.3649L12.3198 18.369C12.3741 18.3695 12.403 18.4259 12.3844 18.4694L12.3612 18.4986L11.9394 18.815L12.0975 19.323C12.1139 19.3756 12.07 19.4209 12.0235 19.4164L11.989 19.403L11.5624 19.0932L11.1358 19.403C11.0916 19.4351 11.0356 19.4067 11.0255 19.3604L11.0274 19.323L11.1855 18.815L10.7636 18.4986C10.72 18.4658 10.7292 18.4029 10.7694 18.3788L10.8051 18.369L11.3295 18.3649L11.4954 17.8595C11.5126 17.8072 11.5743 17.7968 11.6093 17.8281ZM21.5088 15.2674L21.6747 15.7728L22.1991 15.7769C22.267 15.7774 22.2952 15.8654 22.2406 15.9064L21.8187 16.2229L21.9768 16.7308C21.9973 16.7965 21.9236 16.851 21.8684 16.8109L21.4418 16.501L21.0152 16.8109C20.9599 16.851 20.8862 16.7966 20.9067 16.7308L21.0648 16.2229L20.643 15.9064C20.5884 15.8654 20.6165 15.7774 20.6844 15.7769L21.2088 15.7728L21.3747 15.2674C21.3962 15.202 21.4873 15.202 21.5088 15.2674ZM10.8277 15.2674L10.9937 15.7728L11.518 15.7769C11.586 15.7774 11.6141 15.8654 11.5595 15.9064L11.1376 16.2229L11.2958 16.7308C11.3163 16.7965 11.2426 16.851 11.1873 16.8109L10.7607 16.501L10.3341 16.8109C10.2789 16.851 10.2051 16.7966 10.2256 16.7308L10.3838 16.2229L9.96189 15.9064C9.90728 15.8654 9.93541 15.7774 10.0033 15.7769L10.5277 15.7728L10.6937 15.2674C10.7151 15.202 10.8063 15.202 10.8277 15.2674ZM11.6295 12.4342L11.7954 12.9396L12.3198 12.9438C12.3877 12.9443 12.4158 13.0323 12.3612 13.0733L11.9394 13.3898L12.0975 13.8977C12.118 13.9634 12.0443 14.0179 11.989 13.9777L11.5624 13.6679L11.1358 13.9777C11.0806 14.0178 11.0069 13.9634 11.0274 13.8977L11.1855 13.3898L10.7636 13.0733C10.709 13.0323 10.7372 12.9443 10.8051 12.9438L11.3295 12.9396L11.4954 12.4342C11.5169 12.3688 11.608 12.3688 11.6295 12.4342ZM20.8594 12.4028L20.8795 12.4342L21.0454 12.9396L21.5698 12.9438C21.6242 12.9442 21.653 13.0006 21.6344 13.0441L21.6113 13.0733L21.1894 13.3898L21.3476 13.8977C21.3639 13.9503 21.32 13.9956 21.2735 13.9911L21.2391 13.9777L20.8125 13.6679L20.3859 13.9777C20.3417 14.0098 20.2856 13.9814 20.2755 13.9351L20.2774 13.8977L20.4355 13.3898L20.0137 13.0733C19.97 13.0405 19.9792 12.9776 20.0195 12.9535L20.0551 12.9438L20.5795 12.9396L20.7454 12.4342C20.7626 12.3819 20.8244 12.3714 20.8594 12.4028ZM18.9248 10.4484L19.0907 10.9538L19.6151 10.958C19.683 10.9585 19.7111 11.0465 19.6565 11.0875L19.2347 11.404L19.3928 11.9119C19.4133 11.9776 19.3396 12.032 19.2843 11.9919L18.8577 11.6821L18.4311 11.9919C18.3759 12.032 18.3021 11.9776 18.3226 11.9119L18.4808 11.404L18.0589 11.0875C18.0043 11.0465 18.0324 10.9585 18.1003 10.958L18.6247 10.9538L18.7907 10.4484C18.8121 10.383 18.9032 10.383 18.9248 10.4484ZM13.5641 10.417L13.5842 10.4484L13.7501 10.9538L14.2745 10.958C14.3289 10.9584 14.3577 11.0148 14.3392 11.0583L14.316 11.0875L13.8941 11.404L14.0523 11.9119C14.0686 11.9645 14.0247 12.0098 13.9782 12.0053L13.9438 11.9919L13.5172 11.6821L13.0906 11.9919C13.0464 12.024 12.9903 11.9956 12.9802 11.9493L12.9821 11.9119L13.1403 11.404L12.7184 11.0875C12.6747 11.0547 12.684 10.9918 12.7242 10.9677L12.7598 10.958L13.2842 10.9538L13.4501 10.4484C13.4673 10.3961 13.529 10.3857 13.5641 10.417ZM16.1683 9.84209L16.3342 10.3475L16.8586 10.3516C16.9265 10.3521 16.9547 10.4401 16.9 10.4811L16.4782 10.7976L16.6363 11.3055C16.6568 11.3712 16.5831 11.4257 16.5279 11.3856L16.1013 11.0758L15.6746 11.3856C15.6194 11.4257 15.5457 11.3713 15.5662 11.3055L15.7243 10.7976L15.3025 10.4811C15.2478 10.4401 15.276 10.3521 15.3439 10.3516L15.8683 10.3475L16.0342 9.84209C16.0556 9.77667 16.1468 9.77667 16.1683 9.84209Z" fill="#FFEB3B"/>
<path d="M26.5 8.5H5.5C4.94772 8.5 4.5 8.94772 4.5 9.5V22.5C4.5 23.0523 4.94772 23.5 5.5 23.5H26.5C27.0523 23.5 27.5 23.0523 27.5 22.5V9.5C27.5 8.94772 27.0523 8.5 26.5 8.5Z" stroke="black" stroke-opacity="0.04"/>
</svg>
