<svg width="32" height="32" viewBox="0 0 32 32" fill="none" xmlns="http://www.w3.org/2000/svg">
<path d="M20 6C20.5523 6 21 6.44772 21 7V9C22.1046 9 23 9.89543 23 11H25C25.5523 11 26 11.4477 26 12C26 12.5523 25.5523 13 25 13H23V15H25C25.5523 15 26 15.4477 26 16C26 16.5523 25.5523 17 25 17H23V19H25C25.5523 19 26 19.4477 26 20C26 20.5523 25.5523 21 25 21H23C23 22.1046 22.1046 23 21 23V25C21 25.5523 20.5523 26 20 26C19.4477 26 19 25.5523 19 25V23H17V25C17 25.5523 16.5523 26 16 26C15.4477 26 15 25.5523 15 25V23H13V25C13 25.5523 12.5523 26 12 26C11.4477 26 11 25.5523 11 25V23L10.8507 22.9945C9.81588 22.9182 9 22.0544 9 21H7C6.44772 21 6 20.5523 6 20C6 19.4477 6.44772 19 7 19H9V17H7C6.44772 17 6 16.5523 6 16C6 15.4477 6.44772 15 7 15H9V13H7C6.44772 13 6 12.5523 6 12C6 11.4477 6.44772 11 7 11H9C9 9.89543 9.89543 9 11 9V7C11 6.44772 11.4477 6 12 6C12.5523 6 13 6.44772 13 7V9H15V7C15 6.44772 15.4477 6 16 6C16.5523 6 17 6.44772 17 7V9H19V7C19 6.44772 19.4477 6 20 6ZM21 10H11C10.4477 10 10 10.4477 10 11V21C10 21.5523 10.4477 22 11 22H21C21.5523 22 22 21.5523 22 21V11C22 10.4477 21.5523 10 21 10ZM19 12C19.5523 12 20 12.4477 20 13V19C20 19.5523 19.5523 20 19 20H13C12.4477 20 12 19.5523 12 19V13C12 12.4477 12.4477 12 13 12H19ZM19 13H13V19H19V13Z" fill="#6E7287"/>
<mask id="mask0" mask-type="alpha" maskUnits="userSpaceOnUse" x="17" y="3" width="12" height="8">
<path d="M28 3H18C17.4477 3 17 3.44772 17 4V10C17 10.5523 17.4477 11 18 11H28C28.5523 11 29 10.5523 29 10V4C29 3.44772 28.5523 3 28 3Z" fill="white"/>
</mask>
<g mask="url(#mask0)">
<path d="M28 3H18C17.4477 3 17 3.44772 17 4V10C17 10.5523 17.4477 11 18 11H28C28.5523 11 29 10.5523 29 10V4C29 3.44772 28.5523 3 28 3Z" fill="white"/>
<path fill-rule="evenodd" clip-rule="evenodd" d="M29 10.344C29 10.7063 28.7063 11 28.344 11H17.656C17.2937 11 17 10.7063 17 10.344H29ZM29 9.12V9.732H17V9.12H29ZM29 7.896V8.508H17V7.896H29ZM29 6.672V7.284H17V6.672H29ZM29 5.448V6.06H17V5.448H29ZM29 4.224V4.836H17V4.224H29ZM28.388 3C28.6922 3 28.9446 3.22194 28.992 3.51273L29 3.612H17.3442C17.3442 3.274 17.6182 3 17.9562 3H28.388Z" fill="#F44336"/>
</g>
<mask id="mask1" mask-type="alpha" maskUnits="userSpaceOnUse" x="17" y="3" width="6" height="5">
<path d="M18 3H22.6V7.284H17V4C17 3.44772 17.4477 3 18 3Z" fill="white"/>
</mask>
<g mask="url(#mask1)">
<path d="M18 3H22.6V7.284H17V4C17 3.44772 17.4477 3 18 3Z" fill="#0D47A1"/>
</g>
</svg>
