<svg width="32" height="32" viewBox="0 0 32 32" fill="none" xmlns="http://www.w3.org/2000/svg">
<g opacity="0.5">
<path opacity="0.5" d="M29.5 13H29C28.8674 13 28.7402 12.9473 28.6464 12.8536C28.5527 12.7598 28.5 12.6326 28.5 12.5C28.5 12.3674 28.5527 12.2402 28.6464 12.1464C28.7402 12.0527 28.8674 12 29 12H29.5C29.6326 12 29.7598 12.0527 29.8536 12.1464C29.9473 12.2402 30 12.3674 30 12.5C30 12.6326 29.9473 12.7598 29.8536 12.8536C29.7598 12.9473 29.6326 13 29.5 13Z" fill="#D6DADB"/>
<path opacity="0.5" d="M27 13H26C25.8674 13 25.7402 12.9473 25.6464 12.8536C25.5527 12.7598 25.5 12.6326 25.5 12.5C25.5 12.3674 25.5527 12.2402 25.6464 12.1464C25.7402 12.0527 25.8674 12 26 12H27C27.1326 12 27.2598 12.0527 27.3536 12.1464C27.4473 12.2402 27.5 12.3674 27.5 12.5C27.5 12.6326 27.4473 12.7598 27.3536 12.8536C27.2598 12.9473 27.1326 13 27 13ZM24 13H23C22.8674 13 22.7402 12.9473 22.6464 12.8536C22.5527 12.7598 22.5 12.6326 22.5 12.5C22.5 12.3674 22.5527 12.2402 22.6464 12.1464C22.7402 12.0527 22.8674 12 23 12H24C24.1326 12 24.2598 12.0527 24.3536 12.1464C24.4473 12.2402 24.5 12.3674 24.5 12.5C24.5 12.6326 24.4473 12.7598 24.3536 12.8536C24.2598 12.9473 24.1326 13 24 13ZM21 13H20C19.8674 13 19.7402 12.9473 19.6464 12.8536C19.5527 12.7598 19.5 12.6326 19.5 12.5C19.5 12.3674 19.5527 12.2402 19.6464 12.1464C19.7402 12.0527 19.8674 12 20 12H21C21.1326 12 21.2598 12.0527 21.3536 12.1464C21.4473 12.2402 21.5 12.3674 21.5 12.5C21.5 12.6326 21.4473 12.7598 21.3536 12.8536C21.2598 12.9473 21.1326 13 21 13ZM18 13H17C16.8674 13 16.7402 12.9473 16.6464 12.8536C16.5527 12.7598 16.5 12.6326 16.5 12.5C16.5 12.3674 16.5527 12.2402 16.6464 12.1464C16.7402 12.0527 16.8674 12 17 12H18C18.1326 12 18.2598 12.0527 18.3536 12.1464C18.4473 12.2402 18.5 12.3674 18.5 12.5C18.5 12.6326 18.4473 12.7598 18.3536 12.8536C18.2598 12.9473 18.1326 13 18 13ZM15 13H14C13.8674 13 13.7402 12.9473 13.6464 12.8536C13.5527 12.7598 13.5 12.6326 13.5 12.5C13.5 12.3674 13.5527 12.2402 13.6464 12.1464C13.7402 12.0527 13.8674 12 14 12H15C15.1326 12 15.2598 12.0527 15.3536 12.1464C15.4473 12.2402 15.5 12.3674 15.5 12.5C15.5 12.6326 15.4473 12.7598 15.3536 12.8536C15.2598 12.9473 15.1326 13 15 13ZM12 13H11C10.8674 13 10.7402 12.9473 10.6464 12.8536C10.5527 12.7598 10.5 12.6326 10.5 12.5C10.5 12.3674 10.5527 12.2402 10.6464 12.1464C10.7402 12.0527 10.8674 12 11 12H12C12.1326 12 12.2598 12.0527 12.3536 12.1464C12.4473 12.2402 12.5 12.3674 12.5 12.5C12.5 12.6326 12.4473 12.7598 12.3536 12.8536C12.2598 12.9473 12.1326 13 12 13ZM9 13H8C7.86739 13 7.74021 12.9473 7.64645 12.8536C7.55268 12.7598 7.5 12.6326 7.5 12.5C7.5 12.3674 7.55268 12.2402 7.64645 12.1464C7.74021 12.0527 7.86739 12 8 12H9C9.13261 12 9.25979 12.0527 9.35355 12.1464C9.44732 12.2402 9.5 12.3674 9.5 12.5C9.5 12.6326 9.44732 12.7598 9.35355 12.8536C9.25979 12.9473 9.13261 13 9 13ZM6 13H5C4.86739 13 4.74021 12.9473 4.64645 12.8536C4.55268 12.7598 4.5 12.6326 4.5 12.5C4.5 12.3674 4.55268 12.2402 4.64645 12.1464C4.74021 12.0527 4.86739 12 5 12H6C6.13261 12 6.25979 12.0527 6.35355 12.1464C6.44732 12.2402 6.5 12.3674 6.5 12.5C6.5 12.6326 6.44732 12.7598 6.35355 12.8536C6.25979 12.9473 6.13261 13 6 13Z" fill="#D6DADB"/>
<path opacity="0.5" d="M3 13H2.5C2.36739 13 2.24021 12.9473 2.14645 12.8536C2.05268 12.7598 2 12.6326 2 12.5C2 12.3674 2.05268 12.2402 2.14645 12.1464C2.24021 12.0527 2.36739 12 2.5 12H3C3.13261 12 3.25979 12.0527 3.35355 12.1464C3.44732 12.2402 3.5 12.3674 3.5 12.5C3.5 12.6326 3.44732 12.7598 3.35355 12.8536C3.25979 12.9473 3.13261 13 3 13Z" fill="#D6DADB"/>
</g>
<g opacity="0.5">
<path opacity="0.5" d="M27 23H26C25.8674 23 25.7402 22.9473 25.6464 22.8536C25.5527 22.7598 25.5 22.6326 25.5 22.5C25.5 22.3674 25.5527 22.2402 25.6464 22.1464C25.7402 22.0527 25.8674 22 26 22H27C27.1326 22 27.2598 22.0527 27.3536 22.1464C27.4473 22.2402 27.5 22.3674 27.5 22.5C27.5 22.6326 27.4473 22.7598 27.3536 22.8536C27.2598 22.9473 27.1326 23 27 23ZM24 23H23C22.8674 23 22.7402 22.9473 22.6464 22.8536C22.5527 22.7598 22.5 22.6326 22.5 22.5C22.5 22.3674 22.5527 22.2402 22.6464 22.1464C22.7402 22.0527 22.8674 22 23 22H24C24.1326 22 24.2598 22.0527 24.3536 22.1464C24.4473 22.2402 24.5 22.3674 24.5 22.5C24.5 22.6326 24.4473 22.7598 24.3536 22.8536C24.2598 22.9473 24.1326 23 24 23ZM21 23H20C19.8674 23 19.7402 22.9473 19.6464 22.8536C19.5527 22.7598 19.5 22.6326 19.5 22.5C19.5 22.3674 19.5527 22.2402 19.6464 22.1464C19.7402 22.0527 19.8674 22 20 22H21C21.1326 22 21.2598 22.0527 21.3536 22.1464C21.4473 22.2402 21.5 22.3674 21.5 22.5C21.5 22.6326 21.4473 22.7598 21.3536 22.8536C21.2598 22.9473 21.1326 23 21 23ZM18 23H17C16.8674 23 16.7402 22.9473 16.6464 22.8536C16.5527 22.7598 16.5 22.6326 16.5 22.5C16.5 22.3674 16.5527 22.2402 16.6464 22.1464C16.7402 22.0527 16.8674 22 17 22H18C18.1326 22 18.2598 22.0527 18.3536 22.1464C18.4473 22.2402 18.5 22.3674 18.5 22.5C18.5 22.6326 18.4473 22.7598 18.3536 22.8536C18.2598 22.9473 18.1326 23 18 23ZM12 23H11C10.8674 23 10.7402 22.9473 10.6464 22.8536C10.5527 22.7598 10.5 22.6326 10.5 22.5C10.5 22.3674 10.5527 22.2402 10.6464 22.1464C10.7402 22.0527 10.8674 22 11 22H12C12.1326 22 12.2598 22.0527 12.3536 22.1464C12.4473 22.2402 12.5 22.3674 12.5 22.5C12.5 22.6326 12.4473 22.7598 12.3536 22.8536C12.2598 22.9473 12.1326 23 12 23ZM9 23H8C7.86739 23 7.74021 22.9473 7.64645 22.8536C7.55268 22.7598 7.5 22.6326 7.5 22.5C7.5 22.3674 7.55268 22.2402 7.64645 22.1464C7.74021 22.0527 7.86739 22 8 22H9C9.13261 22 9.25979 22.0527 9.35355 22.1464C9.44732 22.2402 9.5 22.3674 9.5 22.5C9.5 22.6326 9.44732 22.7598 9.35355 22.8536C9.25979 22.9473 9.13261 23 9 23ZM6 23H5C4.86739 23 4.74021 22.9473 4.64645 22.8536C4.55268 22.7598 4.5 22.6326 4.5 22.5C4.5 22.3674 4.55268 22.2402 4.64645 22.1464C4.74021 22.0527 4.86739 22 5 22H6C6.13261 22 6.25979 22.0527 6.35355 22.1464C6.44732 22.2402 6.5 22.3674 6.5 22.5C6.5 22.6326 6.44732 22.7598 6.35355 22.8536C6.25979 22.9473 6.13261 23 6 23Z" fill="#D6DADB"/>
</g>
<path d="M6.84998 7.15C6.80509 7.10217 6.75087 7.06405 6.69067 7.03799C6.63048 7.01193 6.56558 6.99848 6.49998 6.99848C6.43438 6.99848 6.36948 7.01193 6.30929 7.03799C6.24909 7.06405 6.19487 7.10217 6.14998 7.15L4.99998 8.29V5.5C4.99998 5.36739 4.9473 5.24021 4.85353 5.14645C4.75976 5.05268 4.63259 5 4.49998 5C4.36737 5 4.24019 5.05268 4.14643 5.14645C4.05266 5.24021 3.99998 5.36739 3.99998 5.5V8.29L2.84998 7.15C2.75715 7.05717 2.63126 7.00503 2.49998 7.00503C2.3687 7.00503 2.24281 7.05717 2.14998 7.15C2.05715 7.24283 2.005 7.36872 2.005 7.5C2.005 7.63128 2.05715 7.75717 2.14998 7.85L4.14998 9.85C4.19223 9.90063 4.24758 9.93868 4.30998 9.96C4.36983 9.98645 4.43454 10.0001 4.49998 10.0001C4.56542 10.0001 4.63013 9.98645 4.68998 9.96C4.75238 9.93868 4.80773 9.90063 4.84998 9.85L6.84998 7.85C6.89781 7.80511 6.93593 7.75089 6.96199 7.69069C6.98805 7.6305 7.0015 7.5656 7.0015 7.5C7.0015 7.4344 6.98805 7.3695 6.96199 7.30931C6.93593 7.24911 6.89781 7.19489 6.84998 7.15Z" fill="#EF4852"/>
<path d="M29.85 27.15L27.85 25.15C27.8077 25.0994 27.7524 25.0613 27.69 25.04C27.5682 24.99 27.4317 24.99 27.31 25.04C27.2476 25.0613 27.1922 25.0994 27.15 25.15L25.15 27.15C25.0572 27.2428 25.005 27.3687 25.005 27.5C25.005 27.6313 25.0572 27.7572 25.15 27.85C25.2428 27.9428 25.3687 27.995 25.5 27.995C25.6313 27.995 25.7572 27.9428 25.85 27.85L27 26.71V29.5C27 29.6326 27.0527 29.7598 27.1464 29.8536C27.2402 29.9473 27.3674 30 27.5 30C27.6326 30 27.7598 29.9473 27.8535 29.8536C27.9473 29.7598 28 29.6326 28 29.5V26.71L29.15 27.85C29.1949 27.8978 29.2491 27.936 29.3093 27.962C29.3695 27.9881 29.4344 28.0015 29.5 28.0015C29.5656 28.0015 29.6305 27.9881 29.6907 27.962C29.7509 27.936 29.8051 27.8978 29.85 27.85C29.8978 27.8051 29.9359 27.7509 29.962 27.6907C29.9881 27.6305 30.0015 27.5656 30.0015 27.5C30.0015 27.4344 29.9881 27.3695 29.962 27.3093C29.9359 27.2491 29.8978 27.1949 29.85 27.15Z" fill="#84AAAF"/>
<path d="M29.9 22.2L26.9 17.2C26.8581 17.1425 26.8042 17.0949 26.742 17.0603C26.6799 17.0258 26.6109 17.0052 26.54 17C26.4678 16.9924 26.3948 17.0021 26.327 17.0282C26.2592 17.0542 26.1986 17.096 26.15 17.15L25.6 17.69L23.6 14.45C23.8444 14.1925 23.9866 13.8548 24 13.5C24 13.1022 23.842 12.7206 23.5607 12.4393C23.2794 12.158 22.8978 12 22.5 12C22.1022 12 21.7207 12.158 21.4394 12.4393C21.1581 12.7206 21 13.1022 21 13.5C20.9996 13.8483 21.1238 14.1852 21.35 14.45L19.54 17.45L19 16.28C18.9621 16.2036 18.9056 16.1379 18.8357 16.089C18.7658 16.0401 18.6848 16.0095 18.6 16C18.5165 15.9903 18.4318 16.0028 18.3546 16.0362C18.2774 16.0695 18.2103 16.1226 18.16 16.19L15 20.09C14.8407 20.0282 14.6709 19.9976 14.5 20C14.407 19.9897 14.3131 19.9897 14.22 20L12 16.25C11.9613 16.1851 11.9092 16.1292 11.8471 16.086C11.785 16.0429 11.7144 16.0136 11.64 16C11.564 15.9903 11.4867 15.9978 11.414 16.0221C11.3413 16.0463 11.275 16.0866 11.22 16.14L9.64002 17.67L8.58001 15.54C8.7771 15.3351 8.91192 15.0785 8.96875 14.7999C9.02559 14.5214 9.0021 14.2325 8.90103 13.9667C8.79996 13.701 8.62546 13.4695 8.39788 13.2992C8.17029 13.1288 7.89898 13.0267 7.61557 13.0046C7.33215 12.9825 7.04829 13.0414 6.79706 13.1744C6.54584 13.3075 6.33759 13.5092 6.19658 13.756C6.05557 14.0029 5.9876 14.2847 6.00061 14.5687C6.01361 14.8526 6.10704 15.1271 6.27001 15.36L2.09001 22.21C2.05165 22.2637 2.0243 22.3245 2.00956 22.3889C1.99482 22.4533 1.99298 22.5199 2.00414 22.585C2.01529 22.6501 2.03923 22.7123 2.07457 22.7681C2.1099 22.8239 2.15594 22.8721 2.21001 22.91C2.29557 22.9682 2.39655 22.9995 2.50001 23C2.58033 23.0013 2.65974 22.9828 2.73123 22.9462C2.80273 22.9096 2.86412 22.8559 2.91001 22.79L7.09001 15.94C7.22399 15.9754 7.36153 15.9955 7.50001 16H7.68001L9.05001 18.74C9.08354 18.8128 9.13514 18.8759 9.1999 18.9231C9.26466 18.9704 9.34043 19.0003 9.42001 19.01C9.49686 19.0234 9.57577 19.0186 9.65044 18.996C9.7251 18.9734 9.79345 18.9337 9.85002 18.88L11.47 17.32L13.36 20.56C13.1203 20.8373 12.9921 21.1936 13 21.56C13 21.9578 13.1581 22.3394 13.4394 22.6207C13.7207 22.902 14.1022 23.06 14.5 23.06C14.8978 23.06 15.2794 22.902 15.5607 22.6207C15.842 22.3394 16 21.9578 16 21.56C15.9974 21.2805 15.9179 21.0072 15.77 20.77L18.4 17.48L19.05 18.78C19.0897 18.8612 19.1506 18.9301 19.2264 18.9794C19.3021 19.0287 19.3897 19.0565 19.48 19.06C19.5692 19.0611 19.6571 19.0396 19.7358 18.9977C19.8144 18.9557 19.8812 18.8946 19.93 18.82L22.2 15H22.5H22.8L25.07 18.79C25.1103 18.8547 25.1644 18.9097 25.2283 18.9512C25.2922 18.9926 25.3645 19.0196 25.44 19.03C25.5152 19.0369 25.591 19.027 25.6619 19.0011C25.7328 18.9751 25.797 18.9338 25.85 18.88L26.45 18.29L29.1 22.8C29.1811 22.9039 29.2994 22.9724 29.4299 22.991C29.5604 23.0097 29.693 22.977 29.8 22.9C29.8525 22.8606 29.8968 22.8112 29.9303 22.7547C29.9637 22.6982 29.9857 22.6357 29.995 22.5707C30.0043 22.5057 30.0007 22.4395 29.9844 22.3759C29.9681 22.3123 29.9394 22.2525 29.9 22.2ZM7.50001 15C7.40112 15 7.30445 14.9707 7.22223 14.9157C7.14001 14.8608 7.07592 14.7827 7.03807 14.6913C7.00023 14.6 6.99033 14.4994 7.00962 14.4025C7.02891 14.3055 7.07654 14.2164 7.14646 14.1464C7.21639 14.0765 7.30548 14.0289 7.40247 14.0096C7.49946 13.9903 7.59999 14.0002 7.69136 14.0381C7.78272 14.0759 7.86081 14.14 7.91575 14.2222C7.97069 14.3044 8.00001 14.4011 8.00001 14.5C8.00001 14.6326 7.94734 14.7598 7.85357 14.8536C7.7598 14.9473 7.63262 15 7.50001 15ZM14.5 22C14.4011 22 14.3045 21.9707 14.2222 21.9157C14.14 21.8608 14.0759 21.7827 14.0381 21.6913C14.0002 21.6 13.9903 21.4994 14.0096 21.4025C14.0289 21.3055 14.0765 21.2164 14.1465 21.1464C14.2164 21.0765 14.3055 21.0289 14.4025 21.0096C14.4995 20.9903 14.6 21.0002 14.6914 21.0381C14.7827 21.0759 14.8608 21.14 14.9158 21.2222C14.9707 21.3044 15 21.4011 15 21.5C15 21.6326 14.9473 21.7598 14.8536 21.8536C14.7598 21.9473 14.6326 22 14.5 22ZM22.5 14C22.4011 14 22.3045 13.9707 22.2222 13.9157C22.14 13.8608 22.0759 13.7827 22.0381 13.6913C22.0002 13.6 21.9903 13.4994 22.0096 13.4025C22.0289 13.3055 22.0765 13.2164 22.1465 13.1464C22.2164 13.0765 22.3055 13.0289 22.4025 13.0096C22.4995 12.9903 22.6 13.0002 22.6914 13.0381C22.7827 13.0759 22.8608 13.14 22.9158 13.2222C22.9707 13.3044 23 13.4011 23 13.5C23 13.6326 22.9473 13.7598 22.8536 13.8536C22.7598 13.9473 22.6326 14 22.5 14Z" fill="white"/>
<path d="M29 2H17C16.4477 2 16 2.44772 16 3V9C16 9.55228 16.4477 10 17 10H29C29.5523 10 30 9.55228 30 9V3C30 2.44772 29.5523 2 29 2Z" fill="white"/>
<path d="M18.12 8.26998V7.65998H19.39V4.25998H19.34L18.29 5.38998L17.84 4.99998L19 3.72998H20.11V7.65998H21.22V8.26998H18.12Z" fill="#2A2A2A"/>
<path d="M22.88 8.35002C22.6244 8.35369 22.3713 8.29897 22.14 8.19002C21.9327 8.08398 21.7568 7.92536 21.63 7.73002C21.4792 7.50711 21.377 7.25499 21.33 6.99002C21.2572 6.66182 21.2237 6.32614 21.23 5.99002C21.2237 5.65391 21.2572 5.31823 21.33 4.99002C21.3792 4.7257 21.4813 4.47402 21.63 4.25002C21.7568 4.05468 21.9327 3.89606 22.14 3.79002C22.3713 3.68108 22.6244 3.62636 22.88 3.63002C23.123 3.61479 23.3657 3.66412 23.5835 3.77301C23.8013 3.8819 23.9864 4.04647 24.12 4.25002C24.4208 4.782 24.5598 5.39019 24.52 6.00002C24.5559 6.60316 24.417 7.20385 24.12 7.73002C23.9864 7.93357 23.8013 8.09815 23.5835 8.20704C23.3657 8.31593 23.123 8.36526 22.88 8.35002ZM22.88 7.72002C23.0187 7.72352 23.1562 7.6926 23.28 7.63002C23.3933 7.56678 23.4868 7.47331 23.55 7.36002C23.6238 7.22971 23.6746 7.08762 23.7 6.94002C23.7162 6.76039 23.7162 6.57966 23.7 6.40002V5.60002C23.7162 5.42039 23.7162 5.23966 23.7 5.06002C23.6746 4.91243 23.6238 4.77034 23.55 4.64002C23.4868 4.52674 23.3933 4.43326 23.28 4.37002C23.1562 4.30745 23.0187 4.27652 22.88 4.28002C22.7412 4.27567 22.6036 4.30664 22.48 4.37002C22.3667 4.43326 22.2732 4.52674 22.21 4.64002C22.1362 4.77034 22.0854 4.91243 22.06 5.06002C22.0433 5.23964 22.0433 5.42041 22.06 5.60002V6.40002C22.0433 6.57964 22.0433 6.76041 22.06 6.94002C22.0854 7.08762 22.1362 7.22971 22.21 7.36002C22.2732 7.47331 22.3667 7.56678 22.48 7.63002C22.6036 7.69341 22.7412 7.72438 22.88 7.72002Z" fill="#2A2A2A"/>
<path d="M26.52 8.34997C26.2644 8.35364 26.0113 8.29892 25.78 8.18997C25.5726 8.08393 25.3968 7.92531 25.27 7.72997C25.1311 7.50762 25.0392 7.25919 25 6.99997C24.9272 6.67177 24.8937 6.33609 24.9 5.99997C24.8937 5.66386 24.9272 5.32818 25 4.99997C25.0492 4.73565 25.1513 4.48397 25.3 4.25997C25.4268 4.06463 25.6026 3.90601 25.81 3.79997C26.0413 3.69103 26.2944 3.63631 26.55 3.63997C26.793 3.62474 27.0357 3.67407 27.2535 3.78296C27.4713 3.89185 27.6564 4.05642 27.79 4.25997C28.0785 4.79218 28.207 5.39643 28.16 5.99997C28.1959 6.60311 28.057 7.2038 27.76 7.72997C27.6264 7.93352 27.4413 8.0981 27.2235 8.20699C27.0057 8.31588 26.763 8.36521 26.52 8.34997ZM26.52 7.71997C26.6587 7.72347 26.7961 7.69255 26.92 7.62997C27.0333 7.56673 27.1267 7.47325 27.19 7.35997C27.2638 7.22966 27.3146 7.08757 27.34 6.93997C27.3562 6.76034 27.3562 6.57961 27.34 6.39997V5.59997C27.3562 5.42034 27.3562 5.23961 27.34 5.05997C27.3146 4.91238 27.2638 4.77029 27.19 4.63997C27.1267 4.52669 27.0333 4.43321 26.92 4.36997C26.7961 4.30739 26.6587 4.27647 26.52 4.27997C26.3812 4.27562 26.2435 4.30659 26.12 4.36997C26.0067 4.43321 25.9132 4.52669 25.85 4.63997C25.7762 4.77029 25.7254 4.91238 25.7 5.05997C25.6666 5.23803 25.6499 5.41881 25.65 5.59997V6.39997C25.6499 6.58113 25.6666 6.76191 25.7 6.93997C25.7254 7.08757 25.7762 7.22966 25.85 7.35997C25.9132 7.47325 26.0067 7.56673 26.12 7.62997C26.2435 7.69336 26.3812 7.72433 26.52 7.71997Z" fill="#2A2A2A"/>
</svg>
