<svg width="32" height="32" viewBox="0 0 32 32" fill="none" xmlns="http://www.w3.org/2000/svg">
<g opacity="0.5">
<path opacity="0.5" d="M29.5 13H29C28.8674 13 28.7402 12.9473 28.6464 12.8536C28.5527 12.7598 28.5 12.6326 28.5 12.5C28.5 12.3674 28.5527 12.2402 28.6464 12.1464C28.7402 12.0527 28.8674 12 29 12H29.5C29.6326 12 29.7598 12.0527 29.8536 12.1464C29.9473 12.2402 30 12.3674 30 12.5C30 12.6326 29.9473 12.7598 29.8536 12.8536C29.7598 12.9473 29.6326 13 29.5 13Z" fill="#D6DADB"/>
<path opacity="0.5" d="M27 13H26C25.8674 13 25.7402 12.9473 25.6464 12.8536C25.5527 12.7598 25.5 12.6326 25.5 12.5C25.5 12.3674 25.5527 12.2402 25.6464 12.1464C25.7402 12.0527 25.8674 12 26 12H27C27.1326 12 27.2598 12.0527 27.3536 12.1464C27.4473 12.2402 27.5 12.3674 27.5 12.5C27.5 12.6326 27.4473 12.7598 27.3536 12.8536C27.2598 12.9473 27.1326 13 27 13ZM24 13H23C22.8674 13 22.7402 12.9473 22.6464 12.8536C22.5527 12.7598 22.5 12.6326 22.5 12.5C22.5 12.3674 22.5527 12.2402 22.6464 12.1464C22.7402 12.0527 22.8674 12 23 12H24C24.1326 12 24.2598 12.0527 24.3536 12.1464C24.4473 12.2402 24.5 12.3674 24.5 12.5C24.5 12.6326 24.4473 12.7598 24.3536 12.8536C24.2598 12.9473 24.1326 13 24 13ZM21 13H20C19.8674 13 19.7402 12.9473 19.6464 12.8536C19.5527 12.7598 19.5 12.6326 19.5 12.5C19.5 12.3674 19.5527 12.2402 19.6464 12.1464C19.7402 12.0527 19.8674 12 20 12H21C21.1326 12 21.2598 12.0527 21.3536 12.1464C21.4473 12.2402 21.5 12.3674 21.5 12.5C21.5 12.6326 21.4473 12.7598 21.3536 12.8536C21.2598 12.9473 21.1326 13 21 13ZM18 13H17C16.8674 13 16.7402 12.9473 16.6464 12.8536C16.5527 12.7598 16.5 12.6326 16.5 12.5C16.5 12.3674 16.5527 12.2402 16.6464 12.1464C16.7402 12.0527 16.8674 12 17 12H18C18.1326 12 18.2598 12.0527 18.3536 12.1464C18.4473 12.2402 18.5 12.3674 18.5 12.5C18.5 12.6326 18.4473 12.7598 18.3536 12.8536C18.2598 12.9473 18.1326 13 18 13ZM15 13H14C13.8674 13 13.7402 12.9473 13.6464 12.8536C13.5527 12.7598 13.5 12.6326 13.5 12.5C13.5 12.3674 13.5527 12.2402 13.6464 12.1464C13.7402 12.0527 13.8674 12 14 12H15C15.1326 12 15.2598 12.0527 15.3536 12.1464C15.4473 12.2402 15.5 12.3674 15.5 12.5C15.5 12.6326 15.4473 12.7598 15.3536 12.8536C15.2598 12.9473 15.1326 13 15 13ZM12 13H11C10.8674 13 10.7402 12.9473 10.6464 12.8536C10.5527 12.7598 10.5 12.6326 10.5 12.5C10.5 12.3674 10.5527 12.2402 10.6464 12.1464C10.7402 12.0527 10.8674 12 11 12H12C12.1326 12 12.2598 12.0527 12.3536 12.1464C12.4473 12.2402 12.5 12.3674 12.5 12.5C12.5 12.6326 12.4473 12.7598 12.3536 12.8536C12.2598 12.9473 12.1326 13 12 13ZM9 13H8C7.86739 13 7.74021 12.9473 7.64645 12.8536C7.55268 12.7598 7.5 12.6326 7.5 12.5C7.5 12.3674 7.55268 12.2402 7.64645 12.1464C7.74021 12.0527 7.86739 12 8 12H9C9.13261 12 9.25979 12.0527 9.35355 12.1464C9.44732 12.2402 9.5 12.3674 9.5 12.5C9.5 12.6326 9.44732 12.7598 9.35355 12.8536C9.25979 12.9473 9.13261 13 9 13ZM6 13H5C4.86739 13 4.74021 12.9473 4.64645 12.8536C4.55268 12.7598 4.5 12.6326 4.5 12.5C4.5 12.3674 4.55268 12.2402 4.64645 12.1464C4.74021 12.0527 4.86739 12 5 12H6C6.13261 12 6.25979 12.0527 6.35355 12.1464C6.44732 12.2402 6.5 12.3674 6.5 12.5C6.5 12.6326 6.44732 12.7598 6.35355 12.8536C6.25979 12.9473 6.13261 13 6 13Z" fill="#D6DADB"/>
<path opacity="0.5" d="M3 13H2.5C2.36739 13 2.24021 12.9473 2.14645 12.8536C2.05268 12.7598 2 12.6326 2 12.5C2 12.3674 2.05268 12.2402 2.14645 12.1464C2.24021 12.0527 2.36739 12 2.5 12H3C3.13261 12 3.25979 12.0527 3.35355 12.1464C3.44732 12.2402 3.5 12.3674 3.5 12.5C3.5 12.6326 3.44732 12.7598 3.35355 12.8536C3.25979 12.9473 3.13261 13 3 13Z" fill="#D6DADB"/>
</g>
<path d="M29 2H19C18.4477 2 18 2.44772 18 3V9C18 9.55228 18.4477 10 19 10H29C29.5523 10 30 9.55228 30 9V3C30 2.44772 29.5523 2 29 2Z" fill="white"/>
<path d="M20.56 8.44V7.78H21.93V4.13H21.88L20.74 5.34L20.26 4.91L21.51 3.56H22.71V7.78H23.9V8.44H20.56Z" fill="#2A2A2A"/>
<path d="M26 8.53C25.727 8.53611 25.4563 8.47788 25.21 8.36C24.9837 8.24386 24.7909 8.07173 24.65 7.86C24.4967 7.61807 24.3882 7.35044 24.33 7.07C24.2477 6.71916 24.2041 6.36035 24.2 6C24.1948 5.64078 24.2283 5.28204 24.3 4.93C24.3582 4.64956 24.4667 4.38193 24.62 4.14C24.7609 3.92827 24.9537 3.75614 25.18 3.64C25.4354 3.51742 25.7169 3.45907 26 3.47C26.2628 3.45236 26.5255 3.50515 26.761 3.62292C26.9966 3.7407 27.1964 3.9192 27.34 4.14C27.6445 4.71044 27.7831 5.3548 27.74 6C27.7739 6.64806 27.6249 7.29259 27.31 7.86C27.169 8.07621 26.9739 8.2518 26.7441 8.36933C26.5143 8.48686 26.2578 8.54225 26 8.53ZM26 7.86C26.1506 7.86305 26.2993 7.82502 26.43 7.75C26.5524 7.68303 26.653 7.58239 26.72 7.46C26.791 7.31586 26.835 7.15997 26.85 7C26.8666 6.80702 26.8666 6.61298 26.85 6.42V5.57C26.8666 5.37702 26.8666 5.18298 26.85 4.99C26.8245 4.83152 26.7702 4.67902 26.69 4.54C26.623 4.41761 26.5224 4.31697 26.4 4.25C26.2657 4.18603 26.1188 4.15283 25.97 4.15283C25.8212 4.15283 25.6743 4.18603 25.54 4.25C25.4158 4.31452 25.3145 4.41579 25.25 4.54C25.1662 4.67832 25.1086 4.83085 25.08 4.99C25.0637 5.18299 25.0637 5.37701 25.08 5.57V6.43C25.0637 6.62299 25.0637 6.81701 25.08 7.01C25.1086 7.16915 25.1662 7.32168 25.25 7.46C25.3145 7.58421 25.4158 7.68548 25.54 7.75C25.6794 7.8305 25.8392 7.86872 26 7.86Z" fill="#2A2A2A"/>
<g opacity="0.5">
<path opacity="0.5" d="M27 23H26C25.8674 23 25.7402 22.9473 25.6464 22.8536C25.5527 22.7598 25.5 22.6326 25.5 22.5C25.5 22.3674 25.5527 22.2402 25.6464 22.1464C25.7402 22.0527 25.8674 22 26 22H27C27.1326 22 27.2598 22.0527 27.3536 22.1464C27.4473 22.2402 27.5 22.3674 27.5 22.5C27.5 22.6326 27.4473 22.7598 27.3536 22.8536C27.2598 22.9473 27.1326 23 27 23ZM24 23H23C22.8674 23 22.7402 22.9473 22.6464 22.8536C22.5527 22.7598 22.5 22.6326 22.5 22.5C22.5 22.3674 22.5527 22.2402 22.6464 22.1464C22.7402 22.0527 22.8674 22 23 22H24C24.1326 22 24.2598 22.0527 24.3536 22.1464C24.4473 22.2402 24.5 22.3674 24.5 22.5C24.5 22.6326 24.4473 22.7598 24.3536 22.8536C24.2598 22.9473 24.1326 23 24 23ZM21 23H20C19.8674 23 19.7402 22.9473 19.6464 22.8536C19.5527 22.7598 19.5 22.6326 19.5 22.5C19.5 22.3674 19.5527 22.2402 19.6464 22.1464C19.7402 22.0527 19.8674 22 20 22H21C21.1326 22 21.2598 22.0527 21.3536 22.1464C21.4473 22.2402 21.5 22.3674 21.5 22.5C21.5 22.6326 21.4473 22.7598 21.3536 22.8536C21.2598 22.9473 21.1326 23 21 23ZM18 23H17C16.8674 23 16.7402 22.9473 16.6464 22.8536C16.5527 22.7598 16.5 22.6326 16.5 22.5C16.5 22.3674 16.5527 22.2402 16.6464 22.1464C16.7402 22.0527 16.8674 22 17 22H18C18.1326 22 18.2598 22.0527 18.3536 22.1464C18.4473 22.2402 18.5 22.3674 18.5 22.5C18.5 22.6326 18.4473 22.7598 18.3536 22.8536C18.2598 22.9473 18.1326 23 18 23ZM12 23H11C10.8674 23 10.7402 22.9473 10.6464 22.8536C10.5527 22.7598 10.5 22.6326 10.5 22.5C10.5 22.3674 10.5527 22.2402 10.6464 22.1464C10.7402 22.0527 10.8674 22 11 22H12C12.1326 22 12.2598 22.0527 12.3536 22.1464C12.4473 22.2402 12.5 22.3674 12.5 22.5C12.5 22.6326 12.4473 22.7598 12.3536 22.8536C12.2598 22.9473 12.1326 23 12 23ZM9 23H8C7.86739 23 7.74021 22.9473 7.64645 22.8536C7.55268 22.7598 7.5 22.6326 7.5 22.5C7.5 22.3674 7.55268 22.2402 7.64645 22.1464C7.74021 22.0527 7.86739 22 8 22H9C9.13261 22 9.25979 22.0527 9.35355 22.1464C9.44732 22.2402 9.5 22.3674 9.5 22.5C9.5 22.6326 9.44732 22.7598 9.35355 22.8536C9.25979 22.9473 9.13261 23 9 23ZM6 23H5C4.86739 23 4.74021 22.9473 4.64645 22.8536C4.55268 22.7598 4.5 22.6326 4.5 22.5C4.5 22.3674 4.55268 22.2402 4.64645 22.1464C4.74021 22.0527 4.86739 22 5 22H6C6.13261 22 6.25979 22.0527 6.35355 22.1464C6.44732 22.2402 6.5 22.3674 6.5 22.5C6.5 22.6326 6.44732 22.7598 6.35355 22.8536C6.25979 22.9473 6.13261 23 6 23Z" fill="#D6DADB"/>
</g>
<path d="M6.84998 7.15C6.80509 7.10217 6.75087 7.06405 6.69067 7.03799C6.63048 7.01193 6.56558 6.99848 6.49998 6.99848C6.43438 6.99848 6.36948 7.01193 6.30929 7.03799C6.24909 7.06405 6.19487 7.10217 6.14998 7.15L4.99998 8.29V5.5C4.99998 5.36739 4.9473 5.24021 4.85353 5.14645C4.75976 5.05268 4.63259 5 4.49998 5C4.36737 5 4.24019 5.05268 4.14643 5.14645C4.05266 5.24021 3.99998 5.36739 3.99998 5.5V8.29L2.84998 7.15C2.75715 7.05717 2.63126 7.00503 2.49998 7.00503C2.3687 7.00503 2.24281 7.05717 2.14998 7.15C2.05715 7.24283 2.005 7.36872 2.005 7.5C2.005 7.63128 2.05715 7.75717 2.14998 7.85L4.14998 9.85C4.19223 9.90063 4.24758 9.93868 4.30998 9.96C4.36983 9.98645 4.43454 10.0001 4.49998 10.0001C4.56542 10.0001 4.63013 9.98645 4.68998 9.96C4.75238 9.93868 4.80773 9.90063 4.84998 9.85L6.84998 7.85C6.89781 7.80511 6.93593 7.75089 6.96199 7.69069C6.98805 7.6305 7.0015 7.5656 7.0015 7.5C7.0015 7.4344 6.98805 7.3695 6.96199 7.30931C6.93593 7.24911 6.89781 7.19489 6.84998 7.15Z" fill="#EF4852"/>
<path d="M29.85 27.15L27.85 25.15C27.8077 25.0994 27.7524 25.0613 27.69 25.04C27.5682 24.99 27.4317 24.99 27.31 25.04C27.2476 25.0613 27.1922 25.0994 27.15 25.15L25.15 27.15C25.0572 27.2428 25.005 27.3687 25.005 27.5C25.005 27.6313 25.0572 27.7572 25.15 27.85C25.2428 27.9428 25.3687 27.995 25.5 27.995C25.6313 27.995 25.7572 27.9428 25.85 27.85L27 26.71V29.5C27 29.6326 27.0527 29.7598 27.1464 29.8536C27.2402 29.9473 27.3674 30 27.5 30C27.6326 30 27.7598 29.9473 27.8535 29.8536C27.9473 29.7598 28 29.6326 28 29.5V26.71L29.15 27.85C29.1949 27.8978 29.2491 27.936 29.3093 27.962C29.3695 27.9881 29.4344 28.0015 29.5 28.0015C29.5656 28.0015 29.6305 27.9881 29.6907 27.962C29.7509 27.936 29.8051 27.8978 29.85 27.85C29.8978 27.8051 29.9359 27.7509 29.962 27.6907C29.9881 27.6305 30.0015 27.5656 30.0015 27.5C30.0015 27.4344 29.9881 27.3695 29.962 27.3093C29.9359 27.2491 29.8978 27.1949 29.85 27.15Z" fill="#84AAAF"/>
<path d="M29.9 22.2L26.9 17.2C26.8581 17.1425 26.8042 17.0949 26.742 17.0603C26.6799 17.0258 26.6109 17.0052 26.54 17C26.4678 16.9924 26.3948 17.0021 26.327 17.0282C26.2592 17.0542 26.1986 17.096 26.15 17.15L25.6 17.69L23.6 14.45C23.8444 14.1925 23.9866 13.8548 24 13.5C24 13.1022 23.842 12.7206 23.5607 12.4393C23.2794 12.158 22.8978 12 22.5 12C22.1022 12 21.7207 12.158 21.4394 12.4393C21.1581 12.7206 21 13.1022 21 13.5C20.9996 13.8483 21.1238 14.1852 21.35 14.45L19.54 17.45L19 16.28C18.9621 16.2036 18.9056 16.1379 18.8357 16.089C18.7658 16.0401 18.6848 16.0095 18.6 16C18.5165 15.9903 18.4318 16.0028 18.3546 16.0362C18.2774 16.0695 18.2103 16.1226 18.16 16.19L15 20.09C14.8407 20.0282 14.6709 19.9976 14.5 20C14.407 19.9897 14.3131 19.9897 14.22 20L12 16.25C11.9613 16.1851 11.9092 16.1292 11.8471 16.086C11.785 16.0429 11.7144 16.0136 11.64 16C11.564 15.9903 11.4867 15.9978 11.414 16.0221C11.3413 16.0463 11.275 16.0866 11.22 16.14L9.64002 17.67L8.58001 15.54C8.7771 15.3351 8.91192 15.0785 8.96875 14.7999C9.02559 14.5214 9.0021 14.2325 8.90103 13.9667C8.79996 13.701 8.62546 13.4695 8.39788 13.2992C8.17029 13.1288 7.89898 13.0267 7.61557 13.0046C7.33215 12.9825 7.04829 13.0414 6.79706 13.1744C6.54584 13.3075 6.33759 13.5092 6.19658 13.756C6.05557 14.0029 5.9876 14.2847 6.00061 14.5687C6.01361 14.8526 6.10704 15.1271 6.27001 15.36L2.09001 22.21C2.05165 22.2637 2.0243 22.3245 2.00956 22.3889C1.99482 22.4533 1.99298 22.5199 2.00414 22.585C2.01529 22.6501 2.03923 22.7123 2.07457 22.7681C2.1099 22.8239 2.15594 22.8721 2.21001 22.91C2.29557 22.9682 2.39655 22.9995 2.50001 23C2.58033 23.0013 2.65974 22.9828 2.73123 22.9462C2.80273 22.9096 2.86412 22.8559 2.91001 22.79L7.09001 15.94C7.22399 15.9754 7.36153 15.9955 7.50001 16H7.68001L9.05001 18.74C9.08354 18.8128 9.13514 18.8759 9.1999 18.9231C9.26466 18.9704 9.34043 19.0003 9.42001 19.01C9.49686 19.0234 9.57577 19.0186 9.65044 18.996C9.7251 18.9734 9.79345 18.9337 9.85002 18.88L11.47 17.32L13.36 20.56C13.1203 20.8373 12.9921 21.1936 13 21.56C13 21.9578 13.1581 22.3394 13.4394 22.6207C13.7207 22.902 14.1022 23.06 14.5 23.06C14.8978 23.06 15.2794 22.902 15.5607 22.6207C15.842 22.3394 16 21.9578 16 21.56C15.9974 21.2805 15.9179 21.0072 15.77 20.77L18.4 17.48L19.05 18.78C19.0897 18.8612 19.1506 18.9301 19.2264 18.9794C19.3021 19.0287 19.3897 19.0565 19.48 19.06C19.5692 19.0611 19.6571 19.0396 19.7358 18.9977C19.8144 18.9557 19.8812 18.8946 19.93 18.82L22.2 15H22.5H22.8L25.07 18.79C25.1103 18.8547 25.1644 18.9097 25.2283 18.9512C25.2922 18.9926 25.3645 19.0196 25.44 19.03C25.5152 19.0369 25.591 19.027 25.6619 19.0011C25.7328 18.9751 25.797 18.9338 25.85 18.88L26.45 18.29L29.1 22.8C29.1811 22.9039 29.2994 22.9724 29.4299 22.991C29.5604 23.0097 29.693 22.977 29.8 22.9C29.8525 22.8606 29.8968 22.8112 29.9303 22.7547C29.9637 22.6982 29.9857 22.6357 29.995 22.5707C30.0043 22.5057 30.0007 22.4395 29.9844 22.3759C29.9681 22.3123 29.9394 22.2525 29.9 22.2ZM7.50001 15C7.40112 15 7.30445 14.9707 7.22223 14.9157C7.14001 14.8608 7.07592 14.7827 7.03807 14.6913C7.00023 14.6 6.99033 14.4994 7.00962 14.4025C7.02891 14.3055 7.07654 14.2164 7.14646 14.1464C7.21639 14.0765 7.30548 14.0289 7.40247 14.0096C7.49946 13.9903 7.59999 14.0002 7.69136 14.0381C7.78272 14.0759 7.86081 14.14 7.91575 14.2222C7.97069 14.3044 8.00001 14.4011 8.00001 14.5C8.00001 14.6326 7.94734 14.7598 7.85357 14.8536C7.7598 14.9473 7.63262 15 7.50001 15ZM14.5 22C14.4011 22 14.3045 21.9707 14.2222 21.9157C14.14 21.8608 14.0759 21.7827 14.0381 21.6913C14.0002 21.6 13.9903 21.4994 14.0096 21.4025C14.0289 21.3055 14.0765 21.2164 14.1465 21.1464C14.2164 21.0765 14.3055 21.0289 14.4025 21.0096C14.4995 20.9903 14.6 21.0002 14.6914 21.0381C14.7827 21.0759 14.8608 21.14 14.9158 21.2222C14.9707 21.3044 15 21.4011 15 21.5C15 21.6326 14.9473 21.7598 14.8536 21.8536C14.7598 21.9473 14.6326 22 14.5 22ZM22.5 14C22.4011 14 22.3045 13.9707 22.2222 13.9157C22.14 13.8608 22.0759 13.7827 22.0381 13.6913C22.0002 13.6 21.9903 13.4994 22.0096 13.4025C22.0289 13.3055 22.0765 13.2164 22.1465 13.1464C22.2164 13.0765 22.3055 13.0289 22.4025 13.0096C22.4995 12.9903 22.6 13.0002 22.6914 13.0381C22.7827 13.0759 22.8608 13.14 22.9158 13.2222C22.9707 13.3044 23 13.4011 23 13.5C23 13.6326 22.9473 13.7598 22.8536 13.8536C22.7598 13.9473 22.6326 14 22.5 14Z" fill="white"/>
</svg>
