<svg width="32" height="32" viewBox="0 0 32 32" fill="none" xmlns="http://www.w3.org/2000/svg">
<path d="M29 2H19C18.4477 2 18 2.44772 18 3V9C18 9.55228 18.4477 10 19 10H29C29.5523 10 30 9.55228 30 9V3C30 2.44772 29.5523 2 29 2Z" fill="white"/>
<path d="M23.72 8.43998H20.41V7.68998L22 6.28998C22.2148 6.10011 22.4062 5.88525 22.57 5.64998C22.6988 5.46125 22.7684 5.23845 22.77 5.00998V4.91998C22.7759 4.8163 22.7593 4.71256 22.7213 4.6159C22.6833 4.51924 22.6249 4.43194 22.55 4.35998C22.3929 4.22231 22.1887 4.15066 21.98 4.15998C21.8573 4.15773 21.7353 4.17807 21.62 4.21998C21.5234 4.25518 21.4349 4.30961 21.36 4.37998C21.2806 4.44976 21.216 4.53477 21.17 4.62998C21.1257 4.72703 21.089 4.82732 21.06 4.92998L20.37 4.65998C20.4218 4.5053 20.4923 4.35754 20.58 4.21998C20.6675 4.0754 20.7791 3.94688 20.91 3.83998C21.0558 3.72679 21.2175 3.6358 21.39 3.56998C21.6001 3.50288 21.8194 3.46914 22.04 3.46998C22.2648 3.46732 22.4882 3.50456 22.7 3.57998C22.886 3.64351 23.0564 3.74576 23.2 3.87998C23.3314 4.0104 23.4336 4.16717 23.5 4.33998C23.5728 4.52469 23.6101 4.72146 23.61 4.91998C23.6118 5.10712 23.5813 5.29317 23.52 5.46998C23.4532 5.63686 23.3659 5.79474 23.26 5.93998C23.1535 6.097 23.0294 6.24127 22.89 6.36998C22.75 6.50998 22.6 6.63998 22.44 6.77998L21.29 7.77998H23.75L23.72 8.43998Z" fill="#2A2A2A"/>
<path d="M27.41 4.24001H25.24L25.12 6.00001H25.17C25.2185 5.90825 25.2754 5.8212 25.34 5.74001C25.3999 5.66349 25.4706 5.59612 25.55 5.54001C25.6315 5.48084 25.7229 5.43681 25.82 5.41001C25.9428 5.39364 26.0672 5.39364 26.19 5.41001C26.3879 5.40648 26.5847 5.44041 26.77 5.51001C26.9458 5.57621 27.1059 5.67839 27.24 5.81001C27.3769 5.94566 27.4827 6.10944 27.55 6.29001C27.6295 6.49373 27.6669 6.71144 27.66 6.93001C27.6659 7.15828 27.6286 7.38561 27.55 7.60001C27.4762 7.80235 27.3579 7.98556 27.2038 8.13613C27.0498 8.28669 26.864 8.40079 26.66 8.47001C26.4243 8.56165 26.1728 8.60583 25.92 8.60001C25.7238 8.60194 25.5284 8.57498 25.34 8.52001C25.1847 8.47884 25.0364 8.41481 24.9 8.33001C24.7732 8.23479 24.659 8.12391 24.56 8.00001C24.4672 7.89495 24.3804 7.78478 24.3 7.67001L24.88 7.22001C24.9351 7.31236 24.9988 7.3994 25.07 7.48001C25.1332 7.55986 25.2073 7.63053 25.29 7.69001C25.3754 7.75108 25.4699 7.79833 25.57 7.83001C25.6894 7.86823 25.8147 7.88515 25.94 7.88001C26.0606 7.88746 26.1814 7.86999 26.295 7.8287C26.4085 7.78741 26.5123 7.72318 26.6 7.64001C26.6821 7.55575 26.7458 7.45536 26.7872 7.34519C26.8285 7.23503 26.8465 7.11749 26.84 7.00001V6.88001C26.8468 6.75947 26.8291 6.6388 26.7878 6.52533C26.7466 6.41187 26.6827 6.30799 26.6 6.22001C26.4178 6.06215 26.1804 5.98303 25.94 6.00001C25.7623 5.99397 25.5863 6.03539 25.43 6.12001C25.3106 6.18978 25.2027 6.27747 25.11 6.38001L24.46 6.29001L24.64 3.57001H27.41V4.24001Z" fill="#2A2A2A"/>
<path d="M6.87 7.15C6.82352 7.10314 6.76822 7.06594 6.70729 7.04055C6.64636 7.01517 6.58101 7.0021 6.515 7.0021C6.449 7.0021 6.38364 7.01517 6.32271 7.04055C6.26178 7.06594 6.20648 7.10314 6.16 7.15L5 8.31V5.5C5 5.36739 4.94732 5.24021 4.85356 5.14645C4.75979 5.05268 4.63261 5 4.5 5C4.36739 5 4.24022 5.05268 4.14645 5.14645C4.05268 5.24021 4 5.36739 4 5.5V8.28L2.87 7.15C2.82352 7.10314 2.76822 7.06594 2.70729 7.04055C2.64636 7.01517 2.58101 7.0021 2.515 7.0021C2.449 7.0021 2.38364 7.01517 2.32271 7.04055C2.26178 7.06594 2.20648 7.10314 2.16 7.15C2.11217 7.19489 2.07405 7.24911 2.04799 7.30931C2.02193 7.3695 2.00848 7.4344 2.00848 7.5C2.00848 7.5656 2.02193 7.6305 2.04799 7.69069C2.07405 7.75089 2.11217 7.80511 2.16 7.85L4.16 9.85C4.24924 9.9427 4.37137 9.99658 4.5 10C4.63514 9.99967 4.76461 9.94572 4.86 9.85L6.86 7.85C6.95296 7.75785 7.00608 7.63292 7.00795 7.50204C7.00982 7.37116 6.96029 7.24477 6.87 7.15Z" fill="#EF4852"/>
<g opacity="0.5">
<path opacity="0.5" d="M26.08 13H25.08C24.9474 13 24.8202 12.9473 24.7265 12.8536C24.6327 12.7598 24.58 12.6326 24.58 12.5C24.58 12.3674 24.6327 12.2402 24.7265 12.1464C24.8202 12.0527 24.9474 12 25.08 12H26.08C26.2126 12 26.3398 12.0527 26.4336 12.1464C26.5273 12.2402 26.58 12.3674 26.58 12.5C26.58 12.6326 26.5273 12.7598 26.4336 12.8536C26.3398 12.9473 26.2126 13 26.08 13ZM23.19 13H22.19C22.0574 13 21.9302 12.9473 21.8365 12.8536C21.7427 12.7598 21.69 12.6326 21.69 12.5C21.69 12.3674 21.7427 12.2402 21.8365 12.1464C21.9302 12.0527 22.0574 12 22.19 12H23.19C23.3226 12 23.4498 12.0527 23.5436 12.1464C23.6373 12.2402 23.69 12.3674 23.69 12.5C23.69 12.6326 23.6373 12.7598 23.5436 12.8536C23.4498 12.9473 23.3226 13 23.19 13ZM20.31 13H19.31C19.1774 13 19.0502 12.9473 18.9565 12.8536C18.8627 12.7598 18.81 12.6326 18.81 12.5C18.81 12.3674 18.8627 12.2402 18.9565 12.1464C19.0502 12.0527 19.1774 12 19.31 12H20.31C20.4426 12 20.5698 12.0527 20.6636 12.1464C20.7573 12.2402 20.81 12.3674 20.81 12.5C20.81 12.6326 20.7573 12.7598 20.6636 12.8536C20.5698 12.9473 20.4426 13 20.31 13ZM17.42 13H16.42C16.2874 13 16.1602 12.9473 16.0665 12.8536C15.9727 12.7598 15.92 12.6326 15.92 12.5C15.92 12.3674 15.9727 12.2402 16.0665 12.1464C16.1602 12.0527 16.2874 12 16.42 12H17.42C17.5526 12 17.6798 12.0527 17.7736 12.1464C17.8673 12.2402 17.92 12.3674 17.92 12.5C17.92 12.6326 17.8673 12.7598 17.7736 12.8536C17.6798 12.9473 17.5526 13 17.42 13ZM14.54 13H13.54C13.4074 13 13.2802 12.9473 13.1865 12.8536C13.0927 12.7598 13.04 12.6326 13.04 12.5C13.04 12.3674 13.0927 12.2402 13.1865 12.1464C13.2802 12.0527 13.4074 12 13.54 12H14.54C14.6726 12 14.7998 12.0527 14.8936 12.1464C14.9873 12.2402 15.04 12.3674 15.04 12.5C15.04 12.6326 14.9873 12.7598 14.8936 12.8536C14.7998 12.9473 14.6726 13 14.54 13ZM11.65 13H10.65C10.5174 13 10.3902 12.9473 10.2965 12.8536C10.2027 12.7598 10.15 12.6326 10.15 12.5C10.15 12.3674 10.2027 12.2402 10.2965 12.1464C10.3902 12.0527 10.5174 12 10.65 12H11.65C11.7826 12 11.9098 12.0527 12.0036 12.1464C12.0973 12.2402 12.15 12.3674 12.15 12.5C12.15 12.6326 12.0973 12.7598 12.0036 12.8536C11.9098 12.9473 11.7826 13 11.65 13ZM8.77001 13H7.77C7.6374 13 7.51022 12.9473 7.41645 12.8536C7.32268 12.7598 7.27 12.6326 7.27 12.5C7.27 12.3674 7.32268 12.2402 7.41645 12.1464C7.51022 12.0527 7.6374 12 7.77 12H8.77001C8.90261 12 9.02979 12.0527 9.12356 12.1464C9.21733 12.2402 9.27001 12.3674 9.27001 12.5C9.27001 12.6326 9.21733 12.7598 9.12356 12.8536C9.02979 12.9473 8.90261 13 8.77001 13ZM5.88 13H4.88C4.7474 13 4.62022 12.9473 4.52645 12.8536C4.43268 12.7598 4.38 12.6326 4.38 12.5C4.38 12.3674 4.43268 12.2402 4.52645 12.1464C4.62022 12.0527 4.7474 12 4.88 12H5.88C6.01261 12 6.13979 12.0527 6.23356 12.1464C6.32733 12.2402 6.38 12.3674 6.38 12.5C6.38 12.6326 6.32733 12.7598 6.23356 12.8536C6.13979 12.9473 6.01261 13 5.88 13Z" fill="#D6DADB"/>
<path opacity="0.5" d="M3 13H2.5C2.36739 13 2.24021 12.9473 2.14645 12.8536C2.05268 12.7598 2 12.6326 2 12.5C2 12.3674 2.05268 12.2402 2.14645 12.1464C2.24021 12.0527 2.36739 12 2.5 12H3C3.13261 12 3.25979 12.0527 3.35355 12.1464C3.44732 12.2402 3.5 12.3674 3.5 12.5C3.5 12.6326 3.44732 12.7598 3.35355 12.8536C3.25979 12.9473 3.13261 13 3 13Z" fill="#D6DADB"/>
</g>
<g opacity="0.5">
<path opacity="0.5" d="M29.5 23H29C28.8674 23 28.7402 22.9473 28.6464 22.8536C28.5527 22.7598 28.5 22.6326 28.5 22.5C28.5 22.3674 28.5527 22.2402 28.6464 22.1464C28.7402 22.0527 28.8674 22 29 22H29.5C29.6326 22 29.7598 22.0527 29.8536 22.1464C29.9473 22.2402 30 22.3674 30 22.5C30 22.6326 29.9473 22.7598 29.8536 22.8536C29.7598 22.9473 29.6326 23 29.5 23Z" fill="#D6DADB"/>
<path opacity="0.5" d="M27.08 23H26.08C25.9474 23 25.8202 22.9473 25.7265 22.8536C25.6327 22.7598 25.58 22.6326 25.58 22.5C25.58 22.3674 25.6327 22.2402 25.7265 22.1464C25.8202 22.0527 25.9474 22 26.08 22H27.08C27.2126 22 27.3398 22.0527 27.4336 22.1464C27.5273 22.2402 27.58 22.3674 27.58 22.5C27.58 22.6326 27.5273 22.7598 27.4336 22.8536C27.3398 22.9473 27.2126 23 27.08 23ZM24.19 23H23.19C23.0574 23 22.9302 22.9473 22.8365 22.8536C22.7427 22.7598 22.69 22.6326 22.69 22.5C22.69 22.3674 22.7427 22.2402 22.8365 22.1464C22.9302 22.0527 23.0574 22 23.19 22H24.19C24.3226 22 24.4498 22.0527 24.5436 22.1464C24.6373 22.2402 24.69 22.3674 24.69 22.5C24.69 22.6326 24.6373 22.7598 24.5436 22.8536C24.4498 22.9473 24.3226 23 24.19 23ZM21.31 23H20.31C20.1774 23 20.0502 22.9473 19.9565 22.8536C19.8627 22.7598 19.81 22.6326 19.81 22.5C19.81 22.3674 19.8627 22.2402 19.9565 22.1464C20.0502 22.0527 20.1774 22 20.31 22H21.31C21.4426 22 21.5698 22.0527 21.6636 22.1464C21.7573 22.2402 21.81 22.3674 21.81 22.5C21.81 22.6326 21.7573 22.7598 21.6636 22.8536C21.5698 22.9473 21.4426 23 21.31 23ZM18.42 23H17.42C17.2874 23 17.1602 22.9473 17.0665 22.8536C16.9727 22.7598 16.92 22.6326 16.92 22.5C16.92 22.3674 16.9727 22.2402 17.0665 22.1464C17.1602 22.0527 17.2874 22 17.42 22H18.42C18.5526 22 18.6798 22.0527 18.7736 22.1464C18.8673 22.2402 18.92 22.3674 18.92 22.5C18.92 22.6326 18.8673 22.7598 18.7736 22.8536C18.6798 22.9473 18.5526 23 18.42 23ZM15.54 23H14.54C14.4074 23 14.2802 22.9473 14.1865 22.8536C14.0927 22.7598 14.04 22.6326 14.04 22.5C14.04 22.3674 14.0927 22.2402 14.1865 22.1464C14.2802 22.0527 14.4074 22 14.54 22H15.54C15.6726 22 15.7998 22.0527 15.8936 22.1464C15.9873 22.2402 16.04 22.3674 16.04 22.5C16.04 22.6326 15.9873 22.7598 15.8936 22.8536C15.7998 22.9473 15.6726 23 15.54 23ZM12.65 23H11.65C11.5174 23 11.3902 22.9473 11.2965 22.8536C11.2027 22.7598 11.15 22.6326 11.15 22.5C11.15 22.3674 11.2027 22.2402 11.2965 22.1464C11.3902 22.0527 11.5174 22 11.65 22H12.65C12.7826 22 12.9098 22.0527 13.0036 22.1464C13.0973 22.2402 13.15 22.3674 13.15 22.5C13.15 22.6326 13.0973 22.7598 13.0036 22.8536C12.9098 22.9473 12.7826 23 12.65 23ZM9.77001 23H8.77001C8.6374 23 8.51022 22.9473 8.41645 22.8536C8.32268 22.7598 8.27001 22.6326 8.27001 22.5C8.27001 22.3674 8.32268 22.2402 8.41645 22.1464C8.51022 22.0527 8.6374 22 8.77001 22H9.77001C9.90261 22 10.0298 22.0527 10.1236 22.1464C10.2173 22.2402 10.27 22.3674 10.27 22.5C10.27 22.6326 10.2173 22.7598 10.1236 22.8536C10.0298 22.9473 9.90261 23 9.77001 23ZM6.88 23H5.88C5.7474 23 5.62022 22.9473 5.52645 22.8536C5.43268 22.7598 5.38 22.6326 5.38 22.5C5.38 22.3674 5.43268 22.2402 5.52645 22.1464C5.62022 22.0527 5.7474 22 5.88 22H6.88C7.01261 22 7.13979 22.0527 7.23356 22.1464C7.32733 22.2402 7.38 22.3674 7.38 22.5C7.38 22.6326 7.32733 22.7598 7.23356 22.8536C7.13979 22.9473 7.01261 23 6.88 23Z" fill="#D6DADB"/>
</g>
<path d="M29.85 27.15L27.85 25.15C27.8077 25.0994 27.7524 25.0613 27.69 25.04C27.5682 24.99 27.4317 24.99 27.31 25.04C27.2476 25.0613 27.1922 25.0994 27.15 25.15L25.15 27.15C25.0572 27.2428 25.005 27.3687 25.005 27.5C25.005 27.6313 25.0572 27.7572 25.15 27.85C25.2428 27.9428 25.3687 27.995 25.5 27.995C25.6313 27.995 25.7572 27.9428 25.85 27.85L27 26.71V29.5C27 29.6326 27.0527 29.7598 27.1464 29.8536C27.2402 29.9473 27.3674 30 27.5 30C27.6326 30 27.7598 29.9473 27.8535 29.8536C27.9473 29.7598 28 29.6326 28 29.5V26.71L29.15 27.85C29.1949 27.8978 29.2491 27.936 29.3093 27.962C29.3695 27.9881 29.4344 28.0015 29.5 28.0015C29.5656 28.0015 29.6305 27.9881 29.6907 27.962C29.7509 27.936 29.8051 27.8978 29.85 27.85C29.8978 27.8051 29.9359 27.7509 29.962 27.6907C29.9881 27.6305 30.0015 27.5656 30.0015 27.5C30.0015 27.4344 29.9881 27.3695 29.962 27.3093C29.9359 27.2491 29.8978 27.1949 29.85 27.15Z" fill="#84AAAF"/>
<path d="M28.5 12C28.236 12.0005 27.9768 12.0708 27.7486 12.2036C27.5204 12.3364 27.3314 12.5271 27.2005 12.7564C27.0696 12.9857 27.0016 13.2454 27.0032 13.5095C27.0049 13.7735 27.0762 14.0324 27.21 14.26L24 18.1C23.834 18.0361 23.6579 18.0022 23.48 18C23.2005 18.0026 22.9272 18.0821 22.69 18.23L19.91 16C19.9709 15.8404 20.0014 15.6708 20 15.5C20.0021 15.2739 19.953 15.0503 19.8565 14.8459C19.76 14.6415 19.6185 14.4615 19.4427 14.3195C19.2668 14.1774 19.0612 14.0769 18.841 14.0255C18.6209 13.9742 18.392 13.9732 18.1714 14.0227C17.9508 14.0722 17.7443 14.171 17.5673 14.3116C17.3903 14.4521 17.2473 14.6309 17.1491 14.8345C17.0508 15.0381 16.9999 15.2613 17.0001 15.4874C17.0002 15.7134 17.0515 15.9365 17.15 16.14L14.15 19.14C13.9464 19.0456 13.7244 18.9978 13.5 19C13.1517 18.9996 12.8148 19.1237 12.55 19.35L10 17.8C10.0098 17.7002 10.0098 17.5997 10 17.5C10 17.1022 9.84197 16.7206 9.56066 16.4393C9.27936 16.158 8.89783 16 8.5 16C8.10218 16 7.72064 16.158 7.43934 16.4393C7.15804 16.7206 7 17.1022 7 17.5C6.9998 17.6674 7.03031 17.8335 7.09 17.99L4.29 20.23C4.05282 20.0821 3.77947 20.0026 3.5 20C3.20333 20 2.91332 20.0879 2.66665 20.2528C2.41997 20.4176 2.22771 20.6519 2.11418 20.926C2.00065 21.2 1.97094 21.5016 2.02882 21.7926C2.0867 22.0836 2.22956 22.3509 2.43934 22.5606C2.64912 22.7704 2.91639 22.9133 3.20737 22.9712C3.49834 23.029 3.79994 22.9993 4.07403 22.8858C4.34811 22.7723 4.58238 22.58 4.7472 22.3333C4.91203 22.0867 5 21.7966 5 21.5C5.00144 21.3292 4.97091 21.1596 4.91 21L7.71 18.76C7.94615 18.9113 8.21957 18.9944 8.5 19C8.84828 19.0004 9.18521 18.8762 9.45 18.65L12 20.2C11.9902 20.2997 11.9902 20.4002 12 20.5C11.9979 20.726 12.047 20.9496 12.1435 21.154C12.24 21.3585 12.3815 21.5384 12.5573 21.6805C12.7332 21.8226 12.9388 21.923 13.159 21.9744C13.3791 22.0258 13.608 22.0268 13.8286 21.9772C14.0492 21.9277 14.2557 21.829 14.4327 21.6884C14.6098 21.5478 14.7527 21.369 14.8509 21.1654C14.9492 20.9618 15.0001 20.7387 14.9999 20.5126C14.9998 20.2865 14.9485 20.0634 14.85 19.86L17.85 16.86C18.0751 16.9706 18.325 17.0214 18.5755 17.0074C18.826 16.9934 19.0686 16.915 19.28 16.78L22.09 19C22.0303 19.1564 21.9998 19.3225 22 19.49C21.9992 19.721 22.0517 19.9492 22.1536 20.1566C22.2554 20.364 22.4038 20.5451 22.5872 20.6857C22.7705 20.8263 22.9839 20.9226 23.2106 20.9672C23.4373 21.0118 23.6713 21.0034 23.8942 20.9427C24.1172 20.8819 24.3231 20.7705 24.4959 20.6171C24.6687 20.4637 24.8037 20.2725 24.8904 20.0583C24.9771 19.8441 25.0131 19.6128 24.9957 19.3824C24.9783 19.152 24.9079 18.9287 24.79 18.73L28 14.9C28.207 14.9794 28.429 15.0119 28.6501 14.9953C28.8712 14.9786 29.0858 14.9131 29.2785 14.8036C29.4713 14.694 29.6373 14.5431 29.7648 14.3617C29.8922 14.1803 29.9778 13.9729 30.0155 13.7544C30.0532 13.5359 30.0419 13.3118 29.9826 13.0982C29.9233 12.8845 29.8174 12.6867 29.6724 12.519C29.5275 12.3512 29.3472 12.2176 29.1445 12.1279C28.9417 12.0381 28.7216 11.9945 28.5 12ZM3.5 22C3.40111 22 3.30444 21.9707 3.22222 21.9157C3.13999 21.8608 3.0759 21.7827 3.03806 21.6913C3.00022 21.6 2.99032 21.4994 3.00961 21.4024C3.0289 21.3054 3.07652 21.2163 3.14645 21.1464C3.21637 21.0765 3.30546 21.0289 3.40246 21.0096C3.49945 20.9903 3.59998 21.0002 3.69134 21.038C3.78271 21.0759 3.86079 21.14 3.91574 21.2222C3.97068 21.3044 4 21.4011 4 21.5C4 21.6326 3.94732 21.7598 3.85355 21.8535C3.75979 21.9473 3.63261 22 3.5 22ZM8.5 18C8.40111 18 8.30444 17.9707 8.22222 17.9157C8.13999 17.8608 8.0759 17.7827 8.03806 17.6913C8.00022 17.6 7.99031 17.4994 8.00961 17.4024C8.0289 17.3054 8.07652 17.2163 8.14645 17.1464C8.21637 17.0765 8.30546 17.0289 8.40245 17.0096C8.49945 16.9903 8.59998 17.0002 8.69134 17.038C8.7827 17.0759 8.8608 17.14 8.91574 17.2222C8.97068 17.3044 9 17.4011 9 17.5C9 17.6326 8.94732 17.7598 8.85355 17.8535C8.75979 17.9473 8.63261 18 8.5 18ZM13.5 21C13.4011 21 13.3044 20.9707 13.2222 20.9157C13.14 20.8608 13.0759 20.7827 13.0381 20.6913C13.0002 20.6 12.9903 20.4994 13.0096 20.4024C13.0289 20.3054 13.0765 20.2163 13.1464 20.1464C13.2164 20.0765 13.3055 20.0289 13.4025 20.0096C13.4994 19.9903 13.6 20.0002 13.6913 20.038C13.7827 20.0759 13.8608 20.14 13.9157 20.2222C13.9707 20.3044 14 20.4011 14 20.5C14 20.6326 13.9473 20.7598 13.8536 20.8535C13.7598 20.9473 13.6326 21 13.5 21ZM18.5 16C18.4011 16 18.3044 15.9707 18.2222 15.9157C18.14 15.8608 18.0759 15.7827 18.0381 15.6913C18.0002 15.6 17.9903 15.4994 18.0096 15.4024C18.0289 15.3054 18.0765 15.2163 18.1464 15.1464C18.2164 15.0765 18.3055 15.0289 18.4025 15.0096C18.4994 14.9903 18.6 15.0002 18.6913 15.038C18.7827 15.0759 18.8608 15.14 18.9157 15.2222C18.9707 15.3044 19 15.4011 19 15.5C19 15.6326 18.9473 15.7598 18.8536 15.8535C18.7598 15.9473 18.6326 16 18.5 16ZM23.5 20C23.4011 20 23.3044 19.9707 23.2222 19.9157C23.14 19.8608 23.0759 19.7827 23.0381 19.6913C23.0002 19.6 22.9903 19.4994 23.0096 19.4024C23.0289 19.3054 23.0765 19.2163 23.1464 19.1464C23.2164 19.0765 23.3055 19.0289 23.4025 19.0096C23.4994 18.9903 23.6 19.0002 23.6913 19.038C23.7827 19.0759 23.8608 19.14 23.9157 19.2222C23.9707 19.3044 24 19.4011 24 19.5C24 19.6326 23.9473 19.7598 23.8536 19.8535C23.7598 19.9473 23.6326 20 23.5 20ZM28.5 14C28.4011 14 28.3044 13.9707 28.2222 13.9157C28.14 13.8608 28.0759 13.7827 28.0381 13.6913C28.0002 13.6 27.9903 13.4994 28.0096 13.4024C28.0289 13.3054 28.0765 13.2163 28.1464 13.1464C28.2164 13.0765 28.3055 13.0289 28.4025 13.0096C28.4994 12.9903 28.6 13.0002 28.6913 13.038C28.7827 13.0759 28.8608 13.14 28.9157 13.2222C28.9707 13.3044 29 13.4011 29 13.5C29 13.6326 28.9473 13.7598 28.8536 13.8535C28.7598 13.9473 28.6326 14 28.5 14Z" fill="white"/>
</svg>
