<svg width="32" height="32" viewBox="0 0 32 32" fill="none" xmlns="http://www.w3.org/2000/svg">
<path d="M16 26C21.5228 26 26 21.5228 26 16C26 10.4772 21.5228 6 16 6C10.4772 6 6 10.4772 6 16C6 21.5228 10.4772 26 16 26Z" fill="#FF444F"/>
<path d="M21.2286 12.9572L21.1 12.8632L21.7786 12.2486L22.0786 11.1496L21.1 10L19.75 10.188L18.7928 11.1858L18.55 11.005L16 10.8893L13.45 11.005L13.2071 11.1858L12.25 10.188L10.9 10L9.92141 11.1496L10.2214 12.2486L10.9 12.8632L10.7714 12.9572L9.57141 17.0133L11.2714 19.7392L16 23L20.7286 19.7392L22.4286 17.0133L21.2286 12.9572Z" fill="white"/>
</svg>
