<svg width="32" height="32" viewBox="0 0 32 32" fill="none" xmlns="http://www.w3.org/2000/svg">
<path d="M16 26C21.5228 26 26 21.5228 26 16C26 10.4772 21.5228 6 16 6C10.4772 6 6 10.4772 6 16C6 21.5228 10.4772 26 16 26Z" fill="#85ACB0"/>
<path d="M22.6643 13.9285L23.5214 13.1428L23.7214 12.0143L23.1429 10.8143L22.6286 10.3714L22.8 10.9143V11.9214L22.1357 12.8071L20.8214 13.1428L19.2071 13.2428L18.8571 12.8285L17.5857 12.5357L15.8429 12.7785L14.1714 12.5357L12.9 12.8285L12.5286 13.2714L10.8929 13.1428L9.57143 12.8071L8.92857 11.9214V10.9143L9.1 10.3714L8.58572 10.8143L7.99286 12.0428L8.19286 13.1428L9.05 13.9C10.0336 14.3246 11.0613 14.6384 12.1143 14.8357V15.45L10.7357 14.6643L10.1 14.5928L8.45714 15.0571L8.99286 15.9143L9.85714 16.7143L10.7929 16.9857L11.7214 16.4428H12.1143L12.0143 18.0143L12.2643 18.8571L13.8571 21.4143L13.7786 21.7571L14.0286 22.8357L14.9071 23.55L15.8429 23.6428H15.9143L16.85 23.55L17.7286 22.8357L17.9786 21.7571L17.9 21.4143L19.45 18.8571L19.6929 17.95L19.5714 16.4071H19.9643L20.8929 16.95L21.8571 16.7143L22.6857 16L23.2286 15.1428L21.5857 14.6785L20.95 14.75L19.5714 15.4785V14.8643C20.6339 14.668 21.6712 14.3542 22.6643 13.9285Z" fill="white"/>
</svg>
