<svg width="32" height="32" viewBox="0 0 32 32" fill="none" xmlns="http://www.w3.org/2000/svg">
<path d="M24 14H8V24H24V14Z" fill="#6E7287"/>
<path d="M26.5 25H5.5C5.22386 25 5 25.2239 5 25.5C5 25.7761 5.22386 26 5.5 26H26.5C26.7761 26 27 25.7761 27 25.5C27 25.2239 26.7761 25 26.5 25Z" fill="#B0B3BF"/>
<path fill-rule="evenodd" clip-rule="evenodd" d="M7 24H25C25.5523 24 26 24.4477 26 25H6C6 24.4477 6.44772 24 7 24Z" fill="#D2D3DA"/>
<path d="M8.75 15H7.25V24H8.75V15Z" fill="#B0B3BF"/>
<path fill-rule="evenodd" clip-rule="evenodd" d="M7.333 23H8.667C8.85091 23 9 23.1491 9 23.333V24H7V23.333C7 23.1491 7.14909 23 7.333 23Z" fill="#E9E9ED"/>
<path fill-rule="evenodd" clip-rule="evenodd" d="M7 15H9V15.667C9 15.8509 8.85091 16 8.667 16H7.333C7.14909 16 7 15.8509 7 15.667V15Z" fill="#E9E9ED"/>
<path d="M13.75 15H12.25V24H13.75V15Z" fill="#B0B3BF"/>
<path fill-rule="evenodd" clip-rule="evenodd" d="M12.333 23H13.667C13.8509 23 14 23.1491 14 23.333V24H12V23.333C12 23.1491 12.1491 23 12.333 23Z" fill="#E9E9ED"/>
<path fill-rule="evenodd" clip-rule="evenodd" d="M12 15H14V15.667C14 15.8509 13.8509 16 13.667 16H12.333C12.1491 16 12 15.8509 12 15.667V15Z" fill="#E9E9ED"/>
<path d="M19.75 15H18.25V24H19.75V15Z" fill="#B0B3BF"/>
<path fill-rule="evenodd" clip-rule="evenodd" d="M18.333 23H19.667C19.8509 23 20 23.1491 20 23.333V24H18V23.333C18 23.1491 18.1491 23 18.333 23Z" fill="#E9E9ED"/>
<path fill-rule="evenodd" clip-rule="evenodd" d="M18 15H20V15.667C20 15.8509 19.8509 16 19.667 16H18.333C18.1491 16 18 15.8509 18 15.667V15Z" fill="#E9E9ED"/>
<path d="M24.75 15H23.25V24H24.75V15Z" fill="#B0B3BF"/>
<path fill-rule="evenodd" clip-rule="evenodd" d="M23.333 23H24.667C24.8509 23 25 23.1491 25 23.333V24H23V23.333C23 23.1491 23.1491 23 23.333 23Z" fill="#E9E9ED"/>
<path fill-rule="evenodd" clip-rule="evenodd" d="M23 15H25V15.667C25 15.8509 24.8509 16 24.667 16H23.333C23.1491 16 23 15.8509 23 15.667V15Z" fill="#E9E9ED"/>
<path fill-rule="evenodd" clip-rule="evenodd" d="M6 14H26C26 14.5523 25.5523 15 25 15H7C6.44772 15 6 14.5523 6 14Z" fill="#D2D3DA"/>
<path fill-rule="evenodd" clip-rule="evenodd" d="M5.5 13.5H26.5L16 6.5L5.5 13.5Z" fill="#F4F4F6" stroke="#B0B3BF" stroke-linecap="round" stroke-linejoin="round"/>
<path d="M16 11C16.5523 11 17 10.5523 17 10C17 9.44772 16.5523 9 16 9C15.4477 9 15 9.44772 15 10C15 10.5523 15.4477 11 16 11Z" fill="#B0B3BF"/>
<mask id="mask0" mask-type="alpha" maskUnits="userSpaceOnUse" x="17" y="3" width="12" height="8">
<path d="M28 3H18C17.4477 3 17 3.44772 17 4V10C17 10.5523 17.4477 11 18 11H28C28.5523 11 29 10.5523 29 10V4C29 3.44772 28.5523 3 28 3Z" fill="white"/>
</mask>
<g mask="url(#mask0)">
<path d="M28 3H18C17.4477 3 17 3.44772 17 4V10C17 10.5523 17.4477 11 18 11H28C28.5523 11 29 10.5523 29 10V4C29 3.44772 28.5523 3 28 3Z" fill="#0D47A1"/>
<path d="M17.2069 6.99343H17.5663L19.4828 5.71786V6.99343H20.5173V5.71786L22.4337 6.99343H22.7931C22.9074 6.99343 23 6.89931 23 6.78324V6.61652L21.3558 5.52217H23V4.47126H21.3557L23 3.3769V3.21019C23 3.0941 22.9074 3 22.7931 3H22.4337L20.5172 4.27557V3H19.4827V4.27557L17.6292 3.04186C17.4127 3.1109 17.2318 3.26098 17.1203 3.45695L18.6443 4.47126H17V5.52217H18.6443L17 6.61652V6.78324C17 6.89931 17.0926 6.99343 17.2069 6.99343Z" fill="white"/>
<path d="M20.0626 8.13941L20.2188 8.66315L20.7192 8.46065C20.7619 8.44336 20.8008 8.49284 20.7747 8.53127L20.469 8.98184L20.9368 9.25305C20.9767 9.2762 20.9629 9.33786 20.917 9.34113L20.3796 9.37924L20.4626 9.91994C20.4697 9.96608 20.4136 9.99353 20.3825 9.95913L20.0181 9.55608L19.6537 9.95913C19.6226 9.99351 19.5665 9.96605 19.5736 9.91994L19.6566 9.37924L19.1192 9.34113C19.0734 9.33786 19.0595 9.2762 19.0994 9.25305L19.5673 8.98184L19.2616 8.53127C19.2355 8.49284 19.2743 8.44336 19.317 8.46065L19.8175 8.66315L19.9736 8.13941C19.987 8.09472 20.0493 8.09472 20.0626 8.13941ZM26.2175 8.90144L26.2938 9.15727L26.5382 9.05834C26.5591 9.04991 26.578 9.07405 26.5653 9.09284L26.416 9.31296L26.6445 9.44546C26.664 9.45674 26.6572 9.48689 26.6348 9.48846L26.3723 9.50708L26.4129 9.7712C26.4163 9.79375 26.3889 9.80715 26.3737 9.79034L26.1957 9.59346L26.0177 9.79034C26.0025 9.80713 25.9751 9.79372 25.9786 9.7712L26.0191 9.50708L25.7566 9.48846C25.7342 9.48689 25.7274 9.45674 25.7469 9.44546L25.9754 9.31296L25.8261 9.09284C25.8134 9.07405 25.8324 9.04991 25.8532 9.05834L26.0977 9.15727L26.174 8.90144C26.1805 8.87963 26.211 8.87963 26.2175 8.90144ZM26.8077 6.83898C26.8156 6.81484 26.8492 6.81484 26.8572 6.83898L26.9185 7.02555L27.112 7.02708C27.1371 7.02729 27.1475 7.05974 27.1273 7.07489L26.9716 7.19172L27.03 7.37922C27.0375 7.40348 27.0103 7.42355 26.9899 7.40877L26.8324 7.29441L26.6749 7.40877C26.6546 7.42358 26.6274 7.40351 26.6349 7.37922L26.6933 7.19172L26.5376 7.07489C26.5174 7.05977 26.5278 7.02729 26.5529 7.02708L26.7464 7.02555L26.8077 6.83898ZM24.5165 6.37927L24.5928 6.6351L24.8372 6.5362C24.8581 6.52777 24.877 6.55191 24.8643 6.5707L24.715 6.79082L24.9435 6.92332C24.963 6.9346 24.9562 6.96474 24.9338 6.96632L24.6713 6.98494L24.7119 7.24905C24.7154 7.2716 24.6879 7.28501 24.6727 7.2682L24.4947 7.07132L24.3167 7.2682C24.3015 7.28498 24.2741 7.27158 24.2776 7.24905L24.3181 6.98494L24.0556 6.96632C24.0332 6.96472 24.0265 6.9346 24.046 6.92332L24.2745 6.79082L24.1252 6.5707C24.1124 6.55191 24.1314 6.52777 24.1522 6.5362L24.3967 6.6351L24.473 6.37927C24.4795 6.35744 24.5099 6.35744 24.5165 6.37927ZM27.8268 5.53853L27.9031 5.79436L28.1476 5.69546C28.1684 5.68703 28.1874 5.71117 28.1746 5.72996L28.0253 5.95008L28.2539 6.08258C28.2734 6.09386 28.2666 6.12401 28.2442 6.12558L27.9817 6.1442L28.0222 6.40832C28.0257 6.43086 27.9983 6.44427 27.9831 6.42746L27.8051 6.23058L27.6271 6.42746C27.6119 6.44424 27.5845 6.43084 27.5879 6.40832L27.6285 6.1442L27.366 6.12558C27.3436 6.12398 27.3368 6.09386 27.3563 6.08258L27.5849 5.95008L27.4355 5.72996C27.4228 5.71117 27.4418 5.68703 27.4626 5.69546L27.7071 5.79436L27.7834 5.53853C27.7899 5.51672 27.8203 5.51672 27.8268 5.53853ZM26.2175 4.41558L26.2938 4.67141L26.5382 4.57251C26.5591 4.56408 26.578 4.58822 26.5653 4.60701L26.416 4.82713L26.6445 4.95963C26.664 4.97091 26.6572 5.00105 26.6348 5.00263L26.3723 5.02124L26.4129 5.28536C26.4163 5.30791 26.3889 5.32132 26.3737 5.30451L26.1957 5.10763L26.0177 5.30451C26.0025 5.32129 25.9751 5.30789 25.9786 5.28536L26.0191 5.02124L25.7566 5.00263C25.7342 5.00103 25.7274 4.97091 25.7469 4.95963L25.9754 4.82713L25.8261 4.60701C25.8134 4.58822 25.8324 4.56408 25.8532 4.57251L26.0977 4.67141L26.174 4.41558C26.1805 4.39372 26.211 4.39372 26.2175 4.41558Z" fill="white"/>
<path d="M20.3103 3V4.68145H23V5.31198H20.3103V6.99343H19.6897V5.31198H17V4.68145H19.6897V3H20.3103ZM19.4771 5.52217L17.2459 6.99343H17.2069C17.1453 6.99343 17.0917 6.96486 17.0545 6.92098L17.0297 6.8854L19.097 5.52217H19.4771ZM21.0592 5.52219L22.9967 6.79976C22.9905 6.87683 22.9453 6.94195 22.8794 6.97302L20.6792 5.52219H21.0592ZM17.3424 3.19626L19.2759 4.47126H18.8958L17.1928 3.34824C17.2366 3.29181 17.2868 3.24079 17.3424 3.19626ZM22.7931 3C22.8538 3 22.9066 3.02786 22.9437 3.07068L22.9685 3.1054L20.8973 4.47126H20.5172L22.7483 3H22.7931Z" fill="#F44336"/>
<path d="M28.25 3.25H17.75C17.4739 3.25 17.25 3.47386 17.25 3.75V10.25C17.25 10.5261 17.4739 10.75 17.75 10.75H28.25C28.5261 10.75 28.75 10.5261 28.75 10.25V3.75C28.75 3.47386 28.5261 3.25 28.25 3.25Z" stroke="black" stroke-opacity="0.04" stroke-width="0.5"/>
</g>
</svg>
