<svg width="32" height="32" viewBox="0 0 32 32" fill="none" xmlns="http://www.w3.org/2000/svg">
<path d="M24 14H8V24H24V14Z" fill="#6E7287"/>
<path d="M26.5 25H5.5C5.22386 25 5 25.2239 5 25.5C5 25.7761 5.22386 26 5.5 26H26.5C26.7761 26 27 25.7761 27 25.5C27 25.2239 26.7761 25 26.5 25Z" fill="#B0B3BF"/>
<path fill-rule="evenodd" clip-rule="evenodd" d="M7 24H25C25.5523 24 26 24.4477 26 25H6C6 24.4477 6.44772 24 7 24Z" fill="#D2D3DA"/>
<path d="M8.75 15H7.25V24H8.75V15Z" fill="#B0B3BF"/>
<path fill-rule="evenodd" clip-rule="evenodd" d="M7.333 23H8.667C8.85091 23 9 23.1491 9 23.333V24H7V23.333C7 23.1491 7.14909 23 7.333 23Z" fill="#E9E9ED"/>
<path fill-rule="evenodd" clip-rule="evenodd" d="M7 15H9V15.667C9 15.8509 8.85091 16 8.667 16H7.333C7.14909 16 7 15.8509 7 15.667V15Z" fill="#E9E9ED"/>
<path d="M13.75 15H12.25V24H13.75V15Z" fill="#B0B3BF"/>
<path fill-rule="evenodd" clip-rule="evenodd" d="M12.333 23H13.667C13.8509 23 14 23.1491 14 23.333V24H12V23.333C12 23.1491 12.1491 23 12.333 23Z" fill="#E9E9ED"/>
<path fill-rule="evenodd" clip-rule="evenodd" d="M12 15H14V15.667C14 15.8509 13.8509 16 13.667 16H12.333C12.1491 16 12 15.8509 12 15.667V15Z" fill="#E9E9ED"/>
<path d="M19.75 15H18.25V24H19.75V15Z" fill="#B0B3BF"/>
<path fill-rule="evenodd" clip-rule="evenodd" d="M18.333 23H19.667C19.8509 23 20 23.1491 20 23.333V24H18V23.333C18 23.1491 18.1491 23 18.333 23Z" fill="#E9E9ED"/>
<path fill-rule="evenodd" clip-rule="evenodd" d="M18 15H20V15.667C20 15.8509 19.8509 16 19.667 16H18.333C18.1491 16 18 15.8509 18 15.667V15Z" fill="#E9E9ED"/>
<path d="M24.75 15H23.25V24H24.75V15Z" fill="#B0B3BF"/>
<path fill-rule="evenodd" clip-rule="evenodd" d="M23.333 23H24.667C24.8509 23 25 23.1491 25 23.333V24H23V23.333C23 23.1491 23.1491 23 23.333 23Z" fill="#E9E9ED"/>
<path fill-rule="evenodd" clip-rule="evenodd" d="M23 15H25V15.667C25 15.8509 24.8509 16 24.667 16H23.333C23.1491 16 23 15.8509 23 15.667V15Z" fill="#E9E9ED"/>
<path fill-rule="evenodd" clip-rule="evenodd" d="M6 14H26C26 14.5523 25.5523 15 25 15H7C6.44772 15 6 14.5523 6 14Z" fill="#D2D3DA"/>
<path fill-rule="evenodd" clip-rule="evenodd" d="M5.5 13.5H26.5L16 6.5L5.5 13.5Z" fill="#F4F4F6" stroke="#B0B3BF" stroke-linecap="round" stroke-linejoin="round"/>
<path d="M16 11C16.5523 11 17 10.5523 17 10C17 9.44772 16.5523 9 16 9C15.4477 9 15 9.44772 15 10C15 10.5523 15.4477 11 16 11Z" fill="#B0B3BF"/>
<path d="M28 3H18C17.4477 3 17 3.44772 17 4V10C17 10.5523 17.4477 11 18 11H28C28.5523 11 29 10.5523 29 10V4C29 3.44772 28.5523 3 28 3Z" fill="#0D47A1"/>
<path d="M23.0842 9.34636L23.1671 9.59905L23.4293 9.60112C23.4633 9.60138 23.4773 9.64538 23.45 9.66588L23.2391 9.82412L23.3182 10.0781C23.3284 10.1109 23.2916 10.1382 23.2639 10.1181L23.0506 9.96319L22.8373 10.1181C22.8097 10.1381 22.7729 10.111 22.7831 10.0781L22.8622 9.82412L22.6512 9.66588C22.6239 9.64538 22.638 9.60138 22.672 9.60112L22.9342 9.59905L23.0171 9.34636C23.0278 9.31362 23.0734 9.31362 23.0842 9.34636ZM21.7921 8.92269L21.8751 9.17538L22.1373 9.17746C22.1712 9.17772 22.1853 9.22172 22.158 9.24222L21.9471 9.40046L22.0261 9.65441C22.0364 9.68726 21.9995 9.7145 21.9719 9.69443L21.7586 9.53953L21.5453 9.69443C21.5177 9.71448 21.4808 9.68729 21.4911 9.65441L21.5701 9.40046L21.3592 9.24222C21.3319 9.22172 21.346 9.17772 21.3799 9.17746L21.6421 9.17541L21.7251 8.92272C21.7358 8.88996 21.7814 8.88996 21.7921 8.92269ZM24.3953 8.92269C24.4061 8.88996 24.4516 8.88996 24.4624 8.92272L24.5453 9.17541L24.8075 9.17746C24.8415 9.17772 24.8556 9.22172 24.8283 9.24222L24.6173 9.40046L24.6964 9.65441C24.7066 9.68729 24.6698 9.71448 24.6422 9.69443L24.4289 9.53953L24.2156 9.69443C24.1879 9.7145 24.1511 9.68726 24.1613 9.65441L24.2404 9.40046L24.0295 9.24222C24.0022 9.22172 24.0162 9.17772 24.0502 9.17746L24.3124 9.17538L24.3953 8.92269ZM25.4398 7.92976L25.5227 8.18246L25.7849 8.18453C25.8189 8.18479 25.833 8.22879 25.8056 8.24929L25.5947 8.40753L25.6738 8.66148C25.684 8.69438 25.6472 8.72157 25.6196 8.7015L25.4063 8.5466L25.1929 8.7015C25.1653 8.72155 25.1285 8.69436 25.1387 8.66148L25.2178 8.40753L25.0069 8.24929C24.9795 8.22879 24.9936 8.18479 25.0276 8.18453L25.2898 8.18246L25.3727 7.92976C25.3835 7.89707 25.429 7.89707 25.4398 7.92976ZM20.8047 7.91407L20.8148 7.92976L20.8977 8.18246L21.1599 8.18453C21.1871 8.18474 21.2015 8.21294 21.1922 8.23471L21.1806 8.24929L20.9697 8.40753L21.0488 8.66148C21.057 8.68778 21.035 8.71045 21.0118 8.7082L20.9945 8.7015L20.7812 8.5466L20.5679 8.7015C20.5458 8.71756 20.5178 8.70337 20.5128 8.6802L20.5137 8.66148L20.5928 8.40753L20.3818 8.24929C20.36 8.23289 20.3646 8.20145 20.3847 8.18939L20.4026 8.18453L20.6648 8.18246L20.7477 7.92976C20.7563 7.90361 20.7872 7.89838 20.8047 7.91407ZM25.7544 6.63369L25.8374 6.88638L26.0996 6.88846C26.1335 6.88872 26.1476 6.93272 26.1203 6.95322L25.9094 7.11146L25.9884 7.36541C25.9987 7.39826 25.9618 7.4255 25.9342 7.40543L25.7209 7.25053L25.5076 7.40543C25.48 7.42548 25.4431 7.39829 25.4534 7.36541L25.5324 7.11146L25.3215 6.95322C25.2942 6.93272 25.3083 6.88872 25.3422 6.88846L25.6044 6.88638L25.6874 6.63369C25.6981 6.601 25.7437 6.601 25.7544 6.63369ZM20.4139 6.63369L20.4968 6.88638L20.759 6.88846C20.793 6.88872 20.8071 6.93272 20.7798 6.95322L20.5688 7.11146L20.6479 7.36541C20.6581 7.39826 20.6213 7.4255 20.5937 7.40543L20.3804 7.25053L20.1671 7.40543C20.1394 7.42548 20.1026 7.39829 20.1128 7.36541L20.1919 7.11146L19.981 6.95322C19.9537 6.93272 19.9677 6.88872 20.0017 6.88846L20.2639 6.88638L20.3468 6.63369C20.3576 6.601 20.4032 6.601 20.4139 6.63369ZM20.8148 5.21712L20.8977 5.46981L21.1599 5.47188C21.1939 5.47215 21.2079 5.51615 21.1806 5.53665L20.9697 5.69488L21.0488 5.94884C21.059 5.98169 21.0222 6.00893 20.9945 5.98886L20.7812 5.83396L20.5679 5.98886C20.5403 6.00891 20.5035 5.98172 20.5137 5.94884L20.5928 5.69488L20.3818 5.53665C20.3545 5.51615 20.3686 5.47215 20.4026 5.47188L20.6648 5.46981L20.7477 5.21712C20.7585 5.18441 20.804 5.18441 20.8148 5.21712ZM25.4297 5.20142L25.4398 5.21712L25.5227 5.46981L25.7849 5.47188C25.8121 5.47209 25.8265 5.5003 25.8172 5.52206L25.8056 5.53665L25.5947 5.69488L25.6738 5.94884C25.682 5.97514 25.66 5.9978 25.6368 5.99555L25.6196 5.98886L25.4063 5.83396L25.1929 5.98886C25.1708 6.00492 25.1428 5.9907 25.1378 5.96754L25.1387 5.94884L25.2178 5.69488L25.0069 5.53665C24.985 5.52025 24.9896 5.48881 25.0098 5.47675L25.0276 5.47188L25.2898 5.46981L25.3727 5.21712C25.3813 5.19095 25.4122 5.18572 25.4297 5.20142ZM24.4624 4.22422L24.5454 4.47691L24.8076 4.47898C24.8415 4.47924 24.8556 4.52324 24.8283 4.54374L24.6173 4.70198L24.6964 4.95593C24.7067 4.98879 24.6698 5.01603 24.6422 4.99596L24.4289 4.84105L24.2156 4.99596C24.1879 5.016 24.1511 4.98881 24.1613 4.95593L24.2404 4.70198L24.0295 4.54374C24.0022 4.52324 24.0162 4.47924 24.0502 4.47898L24.3124 4.47691L24.3953 4.22422C24.4061 4.19153 24.4516 4.19153 24.4624 4.22422ZM21.782 4.20853L21.7921 4.22422L21.8751 4.47691L22.1373 4.47898C22.1645 4.47919 22.1789 4.50739 22.1696 4.52916L22.158 4.54374L21.9471 4.70198L22.0261 4.95593C22.0343 4.98224 22.0124 5.0049 21.9891 5.00265L21.9719 4.99596L21.7586 4.84105L21.5453 4.99596C21.5232 5.01201 21.4952 4.99779 21.4901 4.97464L21.4911 4.95593L21.5701 4.70198L21.3592 4.54374C21.3374 4.52734 21.342 4.4959 21.3621 4.48385L21.3799 4.47898L21.6421 4.47691L21.7251 4.22422C21.7337 4.19806 21.7645 4.19283 21.782 4.20853ZM23.0842 3.92105L23.1671 4.17374L23.4293 4.17581C23.4633 4.17607 23.4773 4.22007 23.45 4.24057L23.2391 4.39881L23.3182 4.65276C23.3284 4.68562 23.2916 4.71286 23.2639 4.69279L23.0506 4.53788L22.8373 4.69279C22.8097 4.71284 22.7729 4.68565 22.7831 4.65276L22.8622 4.39881L22.6512 4.24057C22.6239 4.22007 22.638 4.17607 22.672 4.17581L22.9342 4.17374L23.0171 3.92105C23.0278 3.88834 23.0734 3.88834 23.0842 3.92105Z" fill="#FFEB3B"/>
<path d="M28.25 3.25H17.75C17.4739 3.25 17.25 3.47386 17.25 3.75V10.25C17.25 10.5261 17.4739 10.75 17.75 10.75H28.25C28.5261 10.75 28.75 10.5261 28.75 10.25V3.75C28.75 3.47386 28.5261 3.25 28.25 3.25Z" stroke="black" stroke-opacity="0.04" stroke-width="0.5"/>
</svg>
