<svg width="32" height="32" viewBox="0 0 32 32" fill="none" xmlns="http://www.w3.org/2000/svg">
<path d="M24 14H8V24H24V14Z" fill="#6E7287"/>
<path d="M26.5 25H5.5C5.22386 25 5 25.2239 5 25.5C5 25.7761 5.22386 26 5.5 26H26.5C26.7761 26 27 25.7761 27 25.5C27 25.2239 26.7761 25 26.5 25Z" fill="#B0B3BF"/>
<path fill-rule="evenodd" clip-rule="evenodd" d="M7 24H25C25.5523 24 26 24.4477 26 25H6C6 24.4477 6.44772 24 7 24Z" fill="#D2D3DA"/>
<path d="M8.75 15H7.25V24H8.75V15Z" fill="#B0B3BF"/>
<path fill-rule="evenodd" clip-rule="evenodd" d="M7.333 23H8.667C8.85091 23 9 23.1491 9 23.333V24H7V23.333C7 23.1491 7.14909 23 7.333 23Z" fill="#E9E9ED"/>
<path fill-rule="evenodd" clip-rule="evenodd" d="M7 15H9V15.667C9 15.8509 8.85091 16 8.667 16H7.333C7.14909 16 7 15.8509 7 15.667V15Z" fill="#E9E9ED"/>
<path d="M13.75 15H12.25V24H13.75V15Z" fill="#B0B3BF"/>
<path fill-rule="evenodd" clip-rule="evenodd" d="M12.333 23H13.667C13.8509 23 14 23.1491 14 23.333V24H12V23.333C12 23.1491 12.1491 23 12.333 23Z" fill="#E9E9ED"/>
<path fill-rule="evenodd" clip-rule="evenodd" d="M12 15H14V15.667C14 15.8509 13.8509 16 13.667 16H12.333C12.1491 16 12 15.8509 12 15.667V15Z" fill="#E9E9ED"/>
<path d="M19.75 15H18.25V24H19.75V15Z" fill="#B0B3BF"/>
<path fill-rule="evenodd" clip-rule="evenodd" d="M18.333 23H19.667C19.8509 23 20 23.1491 20 23.333V24H18V23.333C18 23.1491 18.1491 23 18.333 23Z" fill="#E9E9ED"/>
<path fill-rule="evenodd" clip-rule="evenodd" d="M18 15H20V15.667C20 15.8509 19.8509 16 19.667 16H18.333C18.1491 16 18 15.8509 18 15.667V15Z" fill="#E9E9ED"/>
<path d="M24.75 15H23.25V24H24.75V15Z" fill="#B0B3BF"/>
<path fill-rule="evenodd" clip-rule="evenodd" d="M23.333 23H24.667C24.8509 23 25 23.1491 25 23.333V24H23V23.333C23 23.1491 23.1491 23 23.333 23Z" fill="#E9E9ED"/>
<path fill-rule="evenodd" clip-rule="evenodd" d="M23 15H25V15.667C25 15.8509 24.8509 16 24.667 16H23.333C23.1491 16 23 15.8509 23 15.667V15Z" fill="#E9E9ED"/>
<path fill-rule="evenodd" clip-rule="evenodd" d="M6 14H26C26 14.5523 25.5523 15 25 15H7C6.44772 15 6 14.5523 6 14Z" fill="#D2D3DA"/>
<path fill-rule="evenodd" clip-rule="evenodd" d="M5.5 13.5H26.5L16 6.5L5.5 13.5Z" fill="#F4F4F6" stroke="#B0B3BF" stroke-linecap="round" stroke-linejoin="round"/>
<path d="M16 11C16.5523 11 17 10.5523 17 10C17 9.44772 16.5523 9 16 9C15.4477 9 15 9.44772 15 10C15 10.5523 15.4477 11 16 11Z" fill="#B0B3BF"/>
<mask id="mask0" mask-type="alpha" maskUnits="userSpaceOnUse" x="17" y="3" width="12" height="8">
<path d="M28 3H18C17.4477 3 17 3.44772 17 4V10C17 10.5523 17.4477 11 18 11H28C28.5523 11 29 10.5523 29 10V4C29 3.44772 28.5523 3 28 3Z" fill="white"/>
</mask>
<g mask="url(#mask0)">
<path d="M28 3H18C17.4477 3 17 3.44772 17 4V10C17 10.5523 17.4477 11 18 11H28C28.5523 11 29 10.5523 29 10V4C29 3.44772 28.5523 3 28 3Z" fill="#0D47A1"/>
<path d="M28.9876 3.76862C28.9167 3.33626 28.547 3.00655 28.1013 3.00655H27.8675L24.0345 5.55767V3.00655H21.9655V5.55769L18.1325 3.00655H17.8987C17.453 3.00655 17.0833 3.33626 17.0124 3.76864L20.2885 5.94912H17V8.05093H20.2885L17.0124 10.2314C17.0833 10.6637 17.453 10.9934 17.8987 10.9934H18.1325L21.9655 8.44231V10.9934H24.0345V8.44231L27.8675 10.9934H28.1013C28.547 10.9934 28.9167 10.6637 28.9876 10.2314L25.7115 8.05088H29V5.94907H25.7115L28.9876 3.76862Z" fill="white"/>
<path d="M23.6207 3.00658V6.36946H29V7.63055H23.6207V10.9934H22.3793V7.63055H17V6.36946H22.3793V3.00658H23.6207ZM21.9541 8.05091L17.5811 10.9346C17.4671 10.8908 17.3643 10.8242 17.2778 10.7402L17.2162 10.6741L21.1941 8.05091H21.9541ZM25.1185 8.05091L28.8819 10.5326C28.8255 10.6329 28.7509 10.7213 28.6627 10.7932L28.594 10.8439L24.3584 8.05091H25.1185ZM17.3627 3.18672L21.5517 5.9491H20.7917L17.0949 3.51131C17.1582 3.38296 17.2502 3.27177 17.3627 3.18672ZM28.4118 3.06255C28.5552 3.1162 28.6813 3.2061 28.7797 3.32112L24.7945 5.9491H24.0345L28.4118 3.06255Z" fill="#F44336"/>
<path d="M28.25 3.25H17.75C17.4739 3.25 17.25 3.47386 17.25 3.75V10.25C17.25 10.5261 17.4739 10.75 17.75 10.75H28.25C28.5261 10.75 28.75 10.5261 28.75 10.25V3.75C28.75 3.47386 28.5261 3.25 28.25 3.25Z" stroke="black" stroke-opacity="0.04" stroke-width="0.5"/>
</g>
</svg>
