<svg width="32" height="32" viewBox="0 0 32 32" fill="none" xmlns="http://www.w3.org/2000/svg">
<path d="M24 14H8V24H24V14Z" fill="#6E7287"/>
<path d="M26.5 25H5.5C5.22386 25 5 25.2239 5 25.5C5 25.7761 5.22386 26 5.5 26H26.5C26.7761 26 27 25.7761 27 25.5C27 25.2239 26.7761 25 26.5 25Z" fill="#B0B3BF"/>
<path fill-rule="evenodd" clip-rule="evenodd" d="M7 24H25C25.5523 24 26 24.4477 26 25H6C6 24.4477 6.44772 24 7 24Z" fill="#D2D3DA"/>
<path d="M8.75 15H7.25V24H8.75V15Z" fill="#B0B3BF"/>
<path fill-rule="evenodd" clip-rule="evenodd" d="M7.333 23H8.667C8.85091 23 9 23.1491 9 23.333V24H7V23.333C7 23.1491 7.14909 23 7.333 23Z" fill="#E9E9ED"/>
<path fill-rule="evenodd" clip-rule="evenodd" d="M7 15H9V15.667C9 15.8509 8.85091 16 8.667 16H7.333C7.14909 16 7 15.8509 7 15.667V15Z" fill="#E9E9ED"/>
<path d="M13.75 15H12.25V24H13.75V15Z" fill="#B0B3BF"/>
<path fill-rule="evenodd" clip-rule="evenodd" d="M12.333 23H13.667C13.8509 23 14 23.1491 14 23.333V24H12V23.333C12 23.1491 12.1491 23 12.333 23Z" fill="#E9E9ED"/>
<path fill-rule="evenodd" clip-rule="evenodd" d="M12 15H14V15.667C14 15.8509 13.8509 16 13.667 16H12.333C12.1491 16 12 15.8509 12 15.667V15Z" fill="#E9E9ED"/>
<path d="M19.75 15H18.25V24H19.75V15Z" fill="#B0B3BF"/>
<path fill-rule="evenodd" clip-rule="evenodd" d="M18.333 23H19.667C19.8509 23 20 23.1491 20 23.333V24H18V23.333C18 23.1491 18.1491 23 18.333 23Z" fill="#E9E9ED"/>
<path fill-rule="evenodd" clip-rule="evenodd" d="M18 15H20V15.667C20 15.8509 19.8509 16 19.667 16H18.333C18.1491 16 18 15.8509 18 15.667V15Z" fill="#E9E9ED"/>
<path d="M24.75 15H23.25V24H24.75V15Z" fill="#B0B3BF"/>
<path fill-rule="evenodd" clip-rule="evenodd" d="M23.333 23H24.667C24.8509 23 25 23.1491 25 23.333V24H23V23.333C23 23.1491 23.1491 23 23.333 23Z" fill="#E9E9ED"/>
<path fill-rule="evenodd" clip-rule="evenodd" d="M23 15H25V15.667C25 15.8509 24.8509 16 24.667 16H23.333C23.1491 16 23 15.8509 23 15.667V15Z" fill="#E9E9ED"/>
<path fill-rule="evenodd" clip-rule="evenodd" d="M6 14H26C26 14.5523 25.5523 15 25 15H7C6.44772 15 6 14.5523 6 14Z" fill="#D2D3DA"/>
<path fill-rule="evenodd" clip-rule="evenodd" d="M5.5 13.5H26.5L16 6.5L5.5 13.5Z" fill="#F4F4F6" stroke="#B0B3BF" stroke-linecap="round" stroke-linejoin="round"/>
<path d="M16 11C16.5523 11 17 10.5523 17 10C17 9.44772 16.5523 9 16 9C15.4477 9 15 9.44772 15 10C15 10.5523 15.4477 11 16 11Z" fill="#B0B3BF"/>
<mask id="mask0" mask-type="alpha" maskUnits="userSpaceOnUse" x="17" y="3" width="12" height="8">
<path d="M28 3H18C17.4477 3 17 3.44772 17 4V10C17 10.5523 17.4477 11 18 11H28C28.5523 11 29 10.5523 29 10V4C29 3.44772 28.5523 3 28 3Z" fill="white"/>
</mask>
<g mask="url(#mask0)">
<path d="M28 3H18C17.4477 3 17 3.44772 17 4V10C17 10.5523 17.4477 11 18 11H28C28.5523 11 29 10.5523 29 10V4C29 3.44772 28.5523 3 28 3Z" fill="white"/>
<path d="M29 10.344C29 10.7063 28.7063 11 28.344 11H17.656C17.2937 11 17 10.7063 17 10.344H29ZM29 9.12V9.732H17V9.12H29ZM29 7.896V8.508H17V7.896H29ZM29 6.672V7.284H17V6.672H29ZM29 5.448V6.06H17V5.448H29ZM29 4.224V4.836H17V4.224H29ZM28.388 3C28.7049 3 28.9655 3.24082 28.9968 3.54943L29 3.612H17.3442C17.3442 3.274 17.6182 3 17.9562 3H28.388Z" fill="#F44336"/>
<path d="M18 3H22.75V7.284H17V4C17 3.44772 17.4477 3 18 3Z" fill="#0D47A1"/>
<path d="M17.5468 6.4084L17.5944 6.5492H17.742C17.7504 6.54942 17.7577 6.55485 17.7604 6.56281C17.7631 6.57077 17.7605 6.57955 17.754 6.5848L17.634 6.6732L17.6792 6.814C17.682 6.82225 17.679 6.83134 17.6719 6.83634C17.6647 6.84134 17.6552 6.84104 17.6484 6.8356L17.5284 6.7496L17.4084 6.8356C17.4015 6.84045 17.3923 6.84045 17.3854 6.83561C17.3785 6.83078 17.3754 6.82213 17.3776 6.814L17.4268 6.674L17.3068 6.5856C17.3002 6.58035 17.2977 6.57157 17.3003 6.56361C17.303 6.55565 17.3104 6.55022 17.3188 6.55H17.4668L17.5144 6.4092C17.5172 6.3892 17.5412 6.3892 17.5468 6.4084ZM22.0645 6.39563C22.0723 6.39544 22.0793 6.40075 22.0812 6.4084L22.1288 6.5492H22.2764C22.2848 6.54942 22.2921 6.55485 22.2948 6.56281C22.2975 6.57077 22.2949 6.57955 22.2884 6.5848L22.1684 6.6732L22.2136 6.814C22.2164 6.82225 22.2134 6.83134 22.2063 6.83634C22.1991 6.84134 22.1896 6.84104 22.1828 6.8356L22.0628 6.7496L21.9428 6.8356C21.9359 6.84045 21.9267 6.84045 21.9198 6.83561C21.9129 6.83078 21.9098 6.82213 21.912 6.814L21.9612 6.674L21.8412 6.5856C21.8346 6.58035 21.8321 6.57157 21.8347 6.56361C21.8374 6.55565 21.8448 6.55022 21.8532 6.55H22.0008L22.0484 6.4092C22.0499 6.40147 22.0566 6.39582 22.0645 6.39563ZM20.9301 6.39563C20.9379 6.39544 20.9449 6.40075 20.9468 6.4084L20.9944 6.5492H21.142C21.1504 6.54942 21.1577 6.55485 21.1604 6.56281C21.1631 6.57077 21.1605 6.57955 21.154 6.5848L21.034 6.6732L21.0792 6.814C21.082 6.82225 21.079 6.83134 21.0719 6.83634C21.0647 6.84134 21.0552 6.84104 21.0484 6.8356L20.9284 6.7496L20.8084 6.8356C20.8015 6.84045 20.7923 6.84045 20.7854 6.83561C20.7785 6.83078 20.7754 6.82213 20.7776 6.814L20.8268 6.674L20.7068 6.5856C20.7002 6.58035 20.6977 6.57157 20.7003 6.56361C20.703 6.55565 20.7104 6.55022 20.7188 6.55H20.8664L20.914 6.4092C20.9155 6.40147 20.9222 6.39582 20.9301 6.39563ZM18.6808 6.4084L18.7284 6.5492H18.876C18.8844 6.54942 18.8917 6.55485 18.8944 6.56281C18.8971 6.57077 18.8945 6.57955 18.888 6.5848L18.768 6.6732L18.8132 6.814C18.816 6.82225 18.813 6.83134 18.8059 6.83634C18.7987 6.84134 18.7892 6.84104 18.7824 6.8356L18.6624 6.7496L18.5424 6.8356C18.5355 6.84045 18.5263 6.84045 18.5194 6.83561C18.5125 6.83078 18.5094 6.82213 18.5116 6.814L18.5608 6.674L18.4408 6.5856C18.4342 6.58035 18.4317 6.57157 18.4343 6.56361C18.437 6.55565 18.4444 6.55022 18.4528 6.55H18.6008L18.6484 6.4092C18.6488 6.3892 18.6752 6.3892 18.6808 6.4084ZM19.8152 6.4084L19.8628 6.5492H20.0104C20.0188 6.54942 20.0261 6.55485 20.0288 6.56281C20.0315 6.57077 20.0289 6.57955 20.0224 6.5848L19.9024 6.6732L19.9476 6.814C19.9504 6.82225 19.9474 6.83134 19.9403 6.83634C19.9331 6.84134 19.9236 6.84104 19.9168 6.8356L19.7968 6.7496L19.6768 6.8356C19.6699 6.84045 19.6607 6.84045 19.6538 6.83561C19.6469 6.83078 19.6438 6.82213 19.646 6.814L19.6952 6.674L19.5752 6.5856C19.5686 6.58035 19.5661 6.57157 19.5687 6.56361C19.5714 6.55565 19.5788 6.55022 19.5872 6.55H19.7352L19.7828 6.4092C19.7832 6.3892 19.8096 6.3892 19.8152 6.4084ZM18.114 6.0364L18.1616 6.1772H18.3092C18.3176 6.17742 18.3249 6.18285 18.3276 6.19081C18.3303 6.19877 18.3277 6.20755 18.3212 6.2128L18.2012 6.3012L18.2464 6.442C18.2492 6.45025 18.2462 6.45934 18.2391 6.46434C18.2319 6.46934 18.2224 6.46904 18.2156 6.4636L18.0956 6.3776L17.9756 6.4636C17.9687 6.46845 17.9595 6.46845 17.9526 6.46361C17.9457 6.45878 17.9426 6.45013 17.9448 6.442L17.99 6.3012L17.87 6.2128C17.8634 6.20755 17.8609 6.19877 17.8635 6.19081C17.8662 6.18285 17.8736 6.17742 17.882 6.1772H18.034L18.0816 6.0364C18.0844 6.0172 18.1084 6.0172 18.114 6.0364ZM21.5048 6.02047C21.5105 6.02376 21.514 6.02983 21.514 6.0364L21.5616 6.1772H21.7092C21.7176 6.17742 21.7249 6.18285 21.7276 6.19081C21.7303 6.19877 21.7277 6.20755 21.7212 6.2128L21.6012 6.3012L21.6464 6.442C21.6492 6.45025 21.6462 6.45934 21.6391 6.46434C21.6319 6.46934 21.6224 6.46904 21.6156 6.4636L21.4956 6.3776L21.3756 6.4636C21.3687 6.46845 21.3595 6.46845 21.3526 6.46361C21.3457 6.45878 21.3426 6.45013 21.3448 6.442L21.39 6.3012L21.27 6.2128C21.2634 6.20755 21.2609 6.19877 21.2635 6.19081C21.2662 6.18285 21.2736 6.17742 21.282 6.1772H21.4296L21.4772 6.0364C21.4772 6.02983 21.4807 6.02376 21.4864 6.02047C21.4921 6.01718 21.4991 6.01718 21.5048 6.02047ZM20.3824 6.0364L20.43 6.1772H20.5776C20.586 6.17742 20.5933 6.18285 20.596 6.19081C20.5987 6.19877 20.5961 6.20755 20.5896 6.2128L20.4696 6.3012L20.5148 6.442C20.5176 6.45025 20.5146 6.45934 20.5075 6.46434C20.5003 6.46934 20.4908 6.46904 20.484 6.4636L20.364 6.3776L20.244 6.4636C20.2371 6.46845 20.2279 6.46845 20.221 6.46361C20.2141 6.45878 20.211 6.45013 20.2132 6.442L20.2584 6.3012L20.1384 6.2128C20.1318 6.20755 20.1293 6.19877 20.1319 6.19081C20.1346 6.18285 20.142 6.17742 20.1504 6.1772H20.298L20.3456 6.0364C20.3504 6.0172 20.3768 6.0172 20.3824 6.0364ZM19.248 6.0364L19.2956 6.1772H19.4432C19.4516 6.17742 19.4589 6.18285 19.4616 6.19081C19.4643 6.19877 19.4617 6.20755 19.4552 6.2128L19.3352 6.3012L19.3804 6.442C19.3832 6.45025 19.3802 6.45934 19.3731 6.46434C19.3659 6.46934 19.3564 6.46904 19.3496 6.4636L19.2296 6.3776L19.1096 6.4636C19.1027 6.46845 19.0935 6.46845 19.0866 6.46361C19.0797 6.45878 19.0766 6.45013 19.0788 6.442L19.124 6.3012L19.004 6.2128C18.9974 6.20755 18.9949 6.19877 18.9975 6.19081C19.0002 6.18285 19.0076 6.17742 19.016 6.1772H19.168L19.2156 6.0364C19.216 6.0172 19.2424 6.0172 19.248 6.0364ZM18.6808 5.676L18.7284 5.8168H18.876C18.8844 5.81702 18.8917 5.82245 18.8944 5.83041C18.8971 5.83837 18.8945 5.84715 18.888 5.8524L18.768 5.9408L18.8132 6.0816C18.816 6.08985 18.813 6.09894 18.8059 6.10394C18.7987 6.10894 18.7892 6.10864 18.7824 6.1032L18.6624 6.0172L18.5424 6.1032C18.5355 6.10805 18.5263 6.10805 18.5194 6.10321C18.5125 6.09838 18.5094 6.08973 18.5116 6.0816L18.5568 5.9408L18.4368 5.8524C18.4302 5.84715 18.4277 5.83837 18.4303 5.83041C18.433 5.82245 18.4404 5.81702 18.4488 5.8168H18.6008L18.6484 5.676C18.6488 5.6596 18.6752 5.6596 18.6808 5.676ZM22.0812 5.676L22.1288 5.8168H22.2764C22.2848 5.81702 22.2921 5.82245 22.2948 5.83041C22.2975 5.83837 22.2949 5.84715 22.2884 5.8524L22.1684 5.9408L22.2136 6.0816C22.2164 6.08985 22.2134 6.09894 22.2063 6.10394C22.1991 6.10894 22.1896 6.10864 22.1828 6.1032L22.0628 6.0172L21.9428 6.1032C21.9359 6.10805 21.9267 6.10805 21.9198 6.10321C21.9129 6.09838 21.9098 6.08973 21.912 6.0816L21.9572 5.9408L21.8372 5.8524C21.8306 5.84715 21.8281 5.83837 21.8307 5.83041C21.8334 5.82245 21.8408 5.81702 21.8492 5.8168H21.9968L22.0444 5.676C22.0516 5.6596 22.078 5.6596 22.0812 5.676ZM17.5468 5.676L17.5944 5.8168H17.742C17.7504 5.81702 17.7577 5.82245 17.7604 5.83041C17.7631 5.83837 17.7605 5.84715 17.754 5.8524L17.634 5.9408L17.6792 6.0816C17.682 6.08985 17.679 6.09894 17.6719 6.10394C17.6647 6.10894 17.6552 6.10864 17.6484 6.1032L17.5284 6.0172L17.4084 6.1032C17.4015 6.10805 17.3923 6.10805 17.3854 6.10321C17.3785 6.09838 17.3754 6.08973 17.3776 6.0816L17.4228 5.9408L17.3028 5.8524C17.2962 5.84715 17.2937 5.83837 17.2963 5.83041C17.299 5.82245 17.3064 5.81702 17.3148 5.8168H17.4668L17.5144 5.676C17.5172 5.6596 17.5412 5.6596 17.5468 5.676ZM20.9468 5.676L20.9944 5.8168H21.142C21.1504 5.81702 21.1577 5.82245 21.1604 5.83041C21.1631 5.83837 21.1605 5.84715 21.154 5.8524L21.034 5.9408L21.0792 6.0816C21.082 6.08985 21.079 6.09894 21.0719 6.10394C21.0647 6.10894 21.0552 6.10864 21.0484 6.1032L20.9284 6.0172L20.8084 6.1032C20.8015 6.10805 20.7923 6.10805 20.7854 6.10321C20.7785 6.09838 20.7754 6.08973 20.7776 6.0816L20.8228 5.9408L20.7028 5.8524C20.6962 5.84715 20.6937 5.83837 20.6963 5.83041C20.699 5.82245 20.7064 5.81702 20.7148 5.8168H20.8624L20.91 5.676C20.9172 5.6596 20.9436 5.6596 20.9468 5.676ZM19.8152 5.676L19.8628 5.8168H20.0104C20.0188 5.81702 20.0261 5.82245 20.0288 5.83041C20.0315 5.83837 20.0289 5.84715 20.0224 5.8524L19.9024 5.9408L19.9476 6.0816C19.9504 6.08985 19.9474 6.09894 19.9403 6.10394C19.9331 6.10894 19.9236 6.10864 19.9168 6.1032L19.7968 6.0172L19.6768 6.1032C19.6699 6.10805 19.6607 6.10805 19.6538 6.10321C19.6469 6.09838 19.6438 6.08973 19.646 6.0816L19.6912 5.9408L19.5712 5.8524C19.5646 5.84715 19.5621 5.83837 19.5647 5.83041C19.5674 5.82245 19.5748 5.81702 19.5832 5.8168H19.7352L19.7828 5.676C19.7832 5.6596 19.8096 5.6596 19.8152 5.676ZM18.114 5.3044L18.1616 5.4452H18.3092C18.3176 5.44542 18.3249 5.45085 18.3276 5.45881C18.3303 5.46677 18.3277 5.47555 18.3212 5.4808L18.2012 5.5692L18.2464 5.71C18.2492 5.71825 18.2462 5.72734 18.2391 5.73234C18.2319 5.73734 18.2224 5.73704 18.2156 5.7316L18.0956 5.6456L17.9756 5.7316C17.9687 5.73645 17.9595 5.73645 17.9526 5.73161C17.9457 5.72678 17.9426 5.71813 17.9448 5.71L17.994 5.57L17.874 5.4816C17.8674 5.47635 17.8649 5.46757 17.8675 5.45961C17.8702 5.45165 17.8776 5.44622 17.886 5.446H18.034L18.0816 5.3052C18.0844 5.2852 18.1084 5.2852 18.114 5.3044ZM21.4956 5.286C21.5057 5.286 21.514 5.29424 21.514 5.3044L21.5616 5.4452H21.7092C21.7176 5.44542 21.7249 5.45085 21.7276 5.45881C21.7303 5.46677 21.7277 5.47555 21.7212 5.4808L21.6012 5.5692L21.6464 5.71C21.6492 5.71825 21.6462 5.72734 21.6391 5.73234C21.6319 5.73734 21.6224 5.73704 21.6156 5.7316L21.4956 5.6456L21.3756 5.7316C21.3687 5.73645 21.3595 5.73645 21.3526 5.73161C21.3457 5.72678 21.3426 5.71813 21.3448 5.71L21.39 5.5692L21.27 5.4808C21.2634 5.47555 21.2609 5.46677 21.2635 5.45881C21.2662 5.45085 21.2736 5.44542 21.282 5.4452H21.4296L21.4772 5.3044C21.4772 5.29424 21.4854 5.286 21.4956 5.286ZM20.3824 5.3044L20.43 5.4452H20.5776C20.586 5.44542 20.5933 5.45085 20.596 5.45881C20.5987 5.46677 20.5961 5.47555 20.5896 5.4808L20.4696 5.5692L20.5148 5.71C20.5176 5.71825 20.5146 5.72734 20.5075 5.73234C20.5003 5.73734 20.4908 5.73704 20.484 5.7316L20.364 5.6456L20.244 5.7316C20.2371 5.73645 20.2279 5.73645 20.221 5.73161C20.2141 5.72678 20.211 5.71813 20.2132 5.71L20.2584 5.5692L20.1384 5.4808C20.1318 5.47555 20.1293 5.46677 20.1319 5.45881C20.1346 5.45085 20.142 5.44542 20.1504 5.4452H20.298L20.3456 5.3044C20.3504 5.2852 20.3768 5.2852 20.3824 5.3044ZM19.248 5.3044L19.2956 5.4452H19.4432C19.4516 5.44542 19.4589 5.45085 19.4616 5.45881C19.4643 5.46677 19.4617 5.47555 19.4552 5.4808L19.3352 5.5692L19.3804 5.71C19.3832 5.71825 19.3802 5.72734 19.3731 5.73234C19.3659 5.73734 19.3564 5.73704 19.3496 5.7316L19.2296 5.6456L19.1096 5.7316C19.1027 5.73645 19.0935 5.73645 19.0866 5.73161C19.0797 5.72678 19.0766 5.71813 19.0788 5.71L19.128 5.57L19.008 5.4816C19.0014 5.47635 18.9989 5.46757 19.0015 5.45961C19.0042 5.45165 19.0116 5.44622 19.02 5.446H19.168L19.2156 5.3052C19.216 5.2852 19.2424 5.2852 19.248 5.3044ZM18.6808 4.9464L18.7284 5.0872H18.876C18.8844 5.08742 18.8917 5.09285 18.8944 5.10081C18.8971 5.10877 18.8945 5.11755 18.888 5.1228L18.768 5.2112L18.8132 5.352C18.816 5.36025 18.813 5.36934 18.8059 5.37434C18.7987 5.37934 18.7892 5.37904 18.7824 5.3736L18.6624 5.2876L18.5424 5.3736C18.5355 5.37845 18.5263 5.37845 18.5194 5.37361C18.5125 5.36878 18.5094 5.36013 18.5116 5.352L18.5608 5.212L18.4408 5.1236C18.4342 5.11835 18.4317 5.10957 18.4343 5.10161C18.437 5.09365 18.4444 5.08822 18.4528 5.088H18.6008L18.6484 4.9472C18.6488 4.9272 18.6752 4.9272 18.6808 4.9464ZM22.0645 4.93363C22.0723 4.93344 22.0793 4.93875 22.0812 4.9464L22.1288 5.0872H22.2764C22.2848 5.08742 22.2921 5.09285 22.2948 5.10081C22.2975 5.10877 22.2949 5.11755 22.2884 5.1228L22.1684 5.2112L22.2136 5.352C22.2164 5.36025 22.2134 5.36934 22.2063 5.37434C22.1991 5.37934 22.1896 5.37904 22.1828 5.3736L22.0628 5.2876L21.9428 5.3736C21.9359 5.37845 21.9267 5.37845 21.9198 5.37361C21.9129 5.36878 21.9098 5.36013 21.912 5.352L21.9612 5.212L21.8412 5.1236C21.8346 5.11835 21.8321 5.10957 21.8347 5.10161C21.8374 5.09365 21.8448 5.08822 21.8532 5.088H22.0008L22.0484 4.9472C22.0499 4.93947 22.0566 4.93382 22.0645 4.93363ZM20.9284 4.928C20.9385 4.928 20.9468 4.93624 20.9468 4.9464L20.9944 5.0872H21.142C21.1504 5.08742 21.1577 5.09285 21.1604 5.10081C21.1631 5.10877 21.1605 5.11755 21.154 5.1228L21.034 5.2112L21.0792 5.352C21.082 5.36025 21.079 5.36934 21.0719 5.37434C21.0647 5.37934 21.0552 5.37904 21.0484 5.3736L20.9284 5.2876L20.8084 5.3736C20.8015 5.37845 20.7923 5.37845 20.7854 5.37361C20.7785 5.36878 20.7754 5.36013 20.7776 5.352L20.8228 5.2112L20.7028 5.1228C20.6962 5.11755 20.6937 5.10877 20.6963 5.10081C20.699 5.09285 20.7064 5.08742 20.7148 5.0872H20.8624L20.91 4.9464C20.91 4.93624 20.9182 4.928 20.9284 4.928ZM17.5468 4.9464L17.5944 5.0872H17.742C17.7504 5.08742 17.7577 5.09285 17.7604 5.10081C17.7631 5.10877 17.7605 5.11755 17.754 5.1228L17.634 5.2112L17.6792 5.352C17.682 5.36025 17.679 5.36934 17.6719 5.37434C17.6647 5.37934 17.6552 5.37904 17.6484 5.3736L17.5284 5.2876L17.4084 5.3736C17.4015 5.37845 17.3923 5.37845 17.3854 5.37361C17.3785 5.36878 17.3754 5.36013 17.3776 5.352L17.4268 5.212L17.3068 5.1236C17.3002 5.11835 17.2977 5.10957 17.3003 5.10161C17.303 5.09365 17.3104 5.08822 17.3188 5.088H17.4668L17.5144 4.9472C17.5172 4.9272 17.5412 4.9272 17.5468 4.9464ZM19.8152 4.9464L19.8628 5.0872H20.0104C20.0188 5.08742 20.0261 5.09285 20.0288 5.10081C20.0315 5.10877 20.0289 5.11755 20.0224 5.1228L19.9024 5.2112L19.9476 5.352C19.9504 5.36025 19.9474 5.36934 19.9403 5.37434C19.9331 5.37934 19.9236 5.37904 19.9168 5.3736L19.7968 5.2876L19.6768 5.3736C19.6699 5.37845 19.6607 5.37845 19.6538 5.37361C19.6469 5.36878 19.6438 5.36013 19.646 5.352L19.6912 5.2112L19.5712 5.1228C19.5646 5.11755 19.5621 5.10877 19.5647 5.10081C19.5674 5.09285 19.5748 5.08742 19.5832 5.0872H19.7352L19.7828 4.9464C19.7832 4.9272 19.8096 4.9272 19.8152 4.9464ZM18.114 4.5716L18.1616 4.7124H18.3092C18.3176 4.71262 18.3249 4.71805 18.3276 4.72601C18.3303 4.73397 18.3277 4.74275 18.3212 4.748L18.2012 4.8364L18.2464 4.9772C18.2492 4.98545 18.2462 4.99454 18.2391 4.99954C18.2319 5.00454 18.2224 5.00424 18.2156 4.9988L18.0956 4.9128L17.9756 4.9988C17.9687 5.00365 17.9595 5.00365 17.9526 4.99881C17.9457 4.99398 17.9426 4.98533 17.9448 4.9772L17.99 4.8364L17.87 4.748C17.8634 4.74275 17.8609 4.73397 17.8635 4.72601C17.8662 4.71805 17.8736 4.71262 17.882 4.7124H18.034L18.0816 4.5716C18.0844 4.5552 18.1084 4.5552 18.114 4.5716ZM20.3824 4.5716L20.43 4.7124H20.5776C20.586 4.71262 20.5933 4.71805 20.596 4.72601C20.5987 4.73397 20.5961 4.74275 20.5896 4.748L20.4696 4.8364L20.5148 4.9772C20.5176 4.98545 20.5146 4.99454 20.5075 4.99954C20.5003 5.00454 20.4908 5.00424 20.484 4.9988L20.364 4.9128L20.244 4.9988C20.2371 5.00365 20.2279 5.00365 20.221 4.99881C20.2141 4.99398 20.211 4.98533 20.2132 4.9772L20.2584 4.8364L20.1384 4.748C20.1318 4.74275 20.1293 4.73397 20.1319 4.72601C20.1346 4.71805 20.142 4.71262 20.1504 4.7124H20.298L20.3456 4.5716C20.3504 4.5552 20.3768 4.5552 20.3824 4.5716ZM19.248 4.5716L19.2956 4.7124H19.4432C19.4516 4.71262 19.4589 4.71805 19.4616 4.72601C19.4643 4.73397 19.4617 4.74275 19.4552 4.748L19.3352 4.8364L19.3804 4.9772C19.3832 4.98545 19.3802 4.99454 19.3731 4.99954C19.3659 5.00454 19.3564 5.00424 19.3496 4.9988L19.2296 4.9128L19.1096 4.9988C19.1027 5.00365 19.0935 5.00365 19.0866 4.99881C19.0797 4.99398 19.0766 4.98533 19.0788 4.9772L19.124 4.8364L19.004 4.748C18.9974 4.74275 18.9949 4.73397 18.9975 4.72601C19.0002 4.71805 19.0076 4.71262 19.016 4.7124H19.168L19.2156 4.5716C19.216 4.5552 19.2424 4.5552 19.248 4.5716ZM21.514 4.5716L21.5616 4.7124H21.7092C21.7176 4.71262 21.7249 4.71805 21.7276 4.72601C21.7303 4.73397 21.7277 4.74275 21.7212 4.748L21.6012 4.8364L21.6464 4.9772C21.6492 4.98545 21.6462 4.99454 21.6391 4.99954C21.6319 5.00454 21.6224 5.00424 21.6156 4.9988L21.4956 4.9128L21.3756 4.9988C21.3687 5.00365 21.3595 5.00365 21.3526 4.99881C21.3457 4.99398 21.3426 4.98533 21.3448 4.9772L21.39 4.8364L21.27 4.748C21.2634 4.74275 21.2609 4.73397 21.2635 4.72601C21.2662 4.71805 21.2736 4.71262 21.282 4.7124H21.4296L21.4772 4.5716C21.4844 4.5552 21.5108 4.5552 21.514 4.5716ZM19.8152 4.214L19.8628 4.3548H20.0104C20.0188 4.35502 20.0261 4.36045 20.0288 4.36841C20.0315 4.37637 20.0289 4.38515 20.0224 4.3904L19.9024 4.4788L19.9476 4.6196C19.9504 4.62785 19.9474 4.63694 19.9403 4.64194C19.9331 4.64694 19.9236 4.64664 19.9168 4.6412L19.7968 4.5552L19.6768 4.6412C19.6699 4.64605 19.6607 4.64605 19.6538 4.64121C19.6469 4.63638 19.6438 4.62773 19.646 4.6196L19.6912 4.4788L19.5712 4.3904C19.5646 4.38515 19.5621 4.37637 19.5647 4.36841C19.5674 4.36045 19.5748 4.35502 19.5832 4.3548H19.7352L19.7828 4.214C19.7832 4.1976 19.8096 4.1976 19.8152 4.214ZM17.5468 4.214L17.5944 4.3548H17.742C17.7504 4.35502 17.7577 4.36045 17.7604 4.36841C17.7631 4.37637 17.7605 4.38515 17.754 4.3904L17.634 4.4788L17.6792 4.6196C17.682 4.62785 17.679 4.63694 17.6719 4.64194C17.6647 4.64694 17.6552 4.64664 17.6484 4.6412L17.5284 4.5552L17.4084 4.6412C17.4015 4.64605 17.3923 4.64605 17.3854 4.64121C17.3785 4.63638 17.3754 4.62773 17.3776 4.6196L17.4228 4.4788L17.3028 4.3904C17.2962 4.38515 17.2937 4.37637 17.2963 4.36841C17.299 4.36045 17.3064 4.35502 17.3148 4.3548H17.4668L17.5144 4.214C17.5172 4.1976 17.5412 4.1976 17.5468 4.214ZM18.6824 4.214L18.73 4.3548H18.8784C18.8868 4.35502 18.8941 4.36045 18.8968 4.36841C18.8995 4.37637 18.8969 4.38515 18.8904 4.3904L18.7704 4.4788L18.8156 4.6196C18.8184 4.62785 18.8154 4.63694 18.8083 4.64194C18.8011 4.64694 18.7916 4.64664 18.7848 4.6412L18.6648 4.5552L18.5448 4.6412C18.5379 4.64605 18.5287 4.64605 18.5218 4.64121C18.5149 4.63638 18.5118 4.62773 18.514 4.6196L18.5592 4.4788L18.4392 4.3904C18.4326 4.38515 18.4301 4.37637 18.4327 4.36841C18.4354 4.36045 18.4428 4.35502 18.4512 4.3548H18.5984L18.646 4.214C18.6488 4.1976 18.6752 4.1976 18.6824 4.214ZM20.9468 4.214L20.9944 4.3548H21.142C21.1504 4.35502 21.1577 4.36045 21.1604 4.36841C21.1631 4.37637 21.1605 4.38515 21.154 4.3904L21.034 4.4788L21.0792 4.6196C21.082 4.62785 21.079 4.63694 21.0719 4.64194C21.0647 4.64694 21.0552 4.64664 21.0484 4.6412L20.9284 4.5552L20.8084 4.6412C20.8015 4.64605 20.7923 4.64605 20.7854 4.64121C20.7785 4.63638 20.7754 4.62773 20.7776 4.6196L20.8228 4.4788L20.7028 4.3904C20.6962 4.38515 20.6937 4.37637 20.6963 4.36841C20.699 4.36045 20.7064 4.35502 20.7148 4.3548H20.8624L20.91 4.214C20.9172 4.1976 20.9436 4.1976 20.9468 4.214ZM22.0812 4.214L22.1288 4.3548H22.2764C22.2848 4.35502 22.2921 4.36045 22.2948 4.36841C22.2975 4.37637 22.2949 4.38515 22.2884 4.3904L22.1684 4.4788L22.2136 4.6196C22.2164 4.62785 22.2134 4.63694 22.2063 4.64194C22.1991 4.64694 22.1896 4.64664 22.1828 4.6412L22.0628 4.5552L21.9428 4.6412C21.9359 4.64605 21.9267 4.64605 21.9198 4.64121C21.9129 4.63638 21.9098 4.62773 21.912 4.6196L21.9572 4.4788L21.8372 4.3904C21.8306 4.38515 21.8281 4.37637 21.8307 4.36841C21.8334 4.36045 21.8408 4.35502 21.8492 4.3548H21.9968L22.0444 4.214C22.0516 4.1976 22.078 4.1976 22.0812 4.214ZM20.3824 3.842L20.43 3.9828H20.5776C20.586 3.98302 20.5933 3.98845 20.596 3.99641C20.5987 4.00437 20.5961 4.01315 20.5896 4.0184L20.4696 4.1068L20.5148 4.2476C20.5176 4.25585 20.5146 4.26494 20.5075 4.26994C20.5003 4.27494 20.4908 4.27464 20.484 4.2692L20.364 4.1832L20.244 4.2692C20.2371 4.27405 20.2279 4.27405 20.221 4.26921C20.2141 4.26438 20.211 4.25573 20.2132 4.2476L20.2584 4.1068L20.1384 4.0184C20.1318 4.01315 20.1293 4.00437 20.1319 3.99641C20.1346 3.98845 20.142 3.98302 20.1504 3.9828H20.298L20.3456 3.842C20.3504 3.8228 20.3768 3.8228 20.3824 3.842ZM19.248 3.842L19.2956 3.9828H19.4432C19.4516 3.98302 19.4589 3.98845 19.4616 3.99641C19.4643 4.00437 19.4617 4.01315 19.4552 4.0184L19.3352 4.1068L19.3804 4.2476C19.3832 4.25585 19.3802 4.26494 19.3731 4.26994C19.3659 4.27494 19.3564 4.27464 19.3496 4.2692L19.2296 4.1832L19.1096 4.2692C19.1027 4.27405 19.0935 4.27405 19.0866 4.26921C19.0797 4.26438 19.0766 4.25573 19.0788 4.2476L19.128 4.1076L19.008 4.0192C19.0014 4.01395 18.9989 4.00517 19.0015 3.99721C19.0042 3.98925 19.0116 3.98382 19.02 3.9836H19.168L19.2156 3.8428C19.216 3.8228 19.2424 3.8228 19.248 3.842ZM18.114 3.842L18.1616 3.9828H18.3092C18.3176 3.98302 18.3249 3.98845 18.3276 3.99641C18.3303 4.00437 18.3277 4.01315 18.3212 4.0184L18.2012 4.1068L18.2464 4.2476C18.2492 4.25585 18.2462 4.26494 18.2391 4.26994C18.2319 4.27494 18.2224 4.27464 18.2156 4.2692L18.0956 4.1832L17.9756 4.2692C17.9687 4.27405 17.9595 4.27405 17.9526 4.26921C17.9457 4.26438 17.9426 4.25573 17.9448 4.2476L17.994 4.1076L17.874 4.0192C17.8674 4.01395 17.8649 4.00517 17.8675 3.99721C17.8702 3.98925 17.8776 3.98382 17.886 3.9836H18.034L18.0816 3.8428C18.0844 3.8228 18.1084 3.8228 18.114 3.842ZM21.5048 3.82607C21.5105 3.82936 21.514 3.83543 21.514 3.842L21.5616 3.9828H21.7092C21.7176 3.98302 21.7249 3.98845 21.7276 3.99641C21.7303 4.00437 21.7277 4.01315 21.7212 4.0184L21.6012 4.1068L21.6464 4.2476C21.6492 4.25585 21.6462 4.26494 21.6391 4.26994C21.6319 4.27494 21.6224 4.27464 21.6156 4.2692L21.4956 4.1832L21.3756 4.2692C21.3687 4.27405 21.3595 4.27405 21.3526 4.26921C21.3457 4.26438 21.3426 4.25573 21.3448 4.2476L21.39 4.1068L21.27 4.0184C21.2634 4.01315 21.2609 4.00437 21.2635 3.99641C21.2662 3.98845 21.2736 3.98302 21.282 3.9828H21.4296L21.4772 3.842C21.4772 3.83543 21.4807 3.82936 21.4864 3.82607C21.4921 3.82278 21.4991 3.82278 21.5048 3.82607ZM17.5468 3.4844L17.5944 3.6252H17.742C17.7504 3.62542 17.7577 3.63085 17.7604 3.63881C17.7631 3.64677 17.7605 3.65555 17.754 3.6608L17.634 3.7492L17.6792 3.89C17.682 3.89825 17.679 3.90734 17.6719 3.91234C17.6647 3.91734 17.6552 3.91704 17.6484 3.9116L17.5284 3.8256L17.4084 3.9116C17.4015 3.91645 17.3923 3.91645 17.3854 3.91161C17.3785 3.90678 17.3754 3.89813 17.3776 3.89L17.4268 3.75L17.3068 3.6616C17.3002 3.65635 17.2977 3.64757 17.3003 3.63961C17.303 3.63165 17.3104 3.62622 17.3188 3.626H17.4668L17.5144 3.4852C17.5172 3.4652 17.5412 3.4652 17.5468 3.4844ZM18.6808 3.4844L18.7284 3.6252H18.876C18.8844 3.62542 18.8917 3.63085 18.8944 3.63881C18.8971 3.64677 18.8945 3.65555 18.888 3.6608L18.768 3.7492L18.8132 3.89C18.816 3.89825 18.813 3.90734 18.8059 3.91234C18.7987 3.91734 18.7892 3.91704 18.7824 3.9116L18.6624 3.8256L18.5424 3.9116C18.5355 3.91645 18.5263 3.91645 18.5194 3.91161C18.5125 3.90678 18.5094 3.89813 18.5116 3.89L18.5608 3.75L18.4408 3.6616C18.4342 3.65635 18.4317 3.64757 18.4343 3.63961C18.437 3.63165 18.4444 3.62622 18.4528 3.626H18.6008L18.6484 3.4852C18.6488 3.4652 18.6752 3.4652 18.6808 3.4844ZM19.8152 3.4844L19.8628 3.6252H20.0104C20.0188 3.62542 20.0261 3.63085 20.0288 3.63881C20.0315 3.64677 20.0289 3.65555 20.0224 3.6608L19.9024 3.7492L19.9476 3.89C19.9504 3.89825 19.9474 3.90734 19.9403 3.91234C19.9331 3.91734 19.9236 3.91704 19.9168 3.9116L19.7968 3.8256L19.6768 3.9116C19.6699 3.91645 19.6607 3.91645 19.6538 3.91161C19.6469 3.90678 19.6438 3.89813 19.646 3.89L19.6912 3.7492L19.5712 3.6608C19.5646 3.65555 19.5621 3.64677 19.5647 3.63881C19.5674 3.63085 19.5748 3.62542 19.5832 3.6252H19.7352L19.7828 3.4844C19.7832 3.4652 19.8096 3.4652 19.8152 3.4844ZM20.9376 3.46847C20.9433 3.47176 20.9468 3.47783 20.9468 3.4844L20.9944 3.6252H21.142C21.1504 3.62542 21.1577 3.63085 21.1604 3.63881C21.1631 3.64677 21.1605 3.65555 21.154 3.6608L21.034 3.7492L21.0792 3.89C21.082 3.89825 21.079 3.90734 21.0719 3.91234C21.0647 3.91734 21.0552 3.91704 21.0484 3.9116L20.9284 3.8256L20.8084 3.9116C20.8015 3.91645 20.7923 3.91645 20.7854 3.91161C20.7785 3.90678 20.7754 3.89813 20.7776 3.89L20.8228 3.7492L20.7028 3.6608C20.6962 3.65555 20.6937 3.64677 20.6963 3.63881C20.699 3.63085 20.7064 3.62542 20.7148 3.6252H20.8624L20.91 3.4844C20.91 3.47783 20.9135 3.47176 20.9192 3.46847C20.9249 3.46518 20.9319 3.46518 20.9376 3.46847ZM22.0645 3.47163C22.0723 3.47144 22.0793 3.47675 22.0812 3.4844L22.1288 3.6252H22.2764C22.2848 3.62542 22.2921 3.63085 22.2948 3.63881C22.2975 3.64677 22.2949 3.65555 22.2884 3.6608L22.1684 3.7492L22.2136 3.89C22.2164 3.89825 22.2134 3.90734 22.2063 3.91234C22.1991 3.91734 22.1896 3.91704 22.1828 3.9116L22.0628 3.8256L21.9428 3.9116C21.9359 3.91645 21.9267 3.91645 21.9198 3.91161C21.9129 3.90678 21.9098 3.89813 21.912 3.89L21.9612 3.75L21.8412 3.6616C21.8346 3.65635 21.8321 3.64757 21.8347 3.63961C21.8374 3.63165 21.8448 3.62622 21.8532 3.626H22.0008L22.0484 3.4852C22.0499 3.47747 22.0566 3.47182 22.0645 3.47163Z" fill="#F5F5F5"/>
<path d="M28.25 3.25H17.75C17.4739 3.25 17.25 3.47386 17.25 3.75V10.25C17.25 10.5261 17.4739 10.75 17.75 10.75H28.25C28.5261 10.75 28.75 10.5261 28.75 10.25V3.75C28.75 3.47386 28.5261 3.25 28.25 3.25Z" stroke="black" stroke-opacity="0.04" stroke-width="0.5"/>
</g>
</svg>
